<?xml version="1.0" standalone="no"?>
<!DOCTYPE svg PUBLIC "-//W3C//DTD SVG 1.1//EN" "http://www.w3.org/Graphics/SVG/1.1/DTD/svg11.dtd" >
<svg xmlns="http://www.w3.org/2000/svg" xmlns:xlink="http://www.w3.org/1999/xlink" version="1.1">
<metadata>
Created by FontForge 20161003 at Tue Apr 11 19:55:04 2017
 By www-data
Copyright (c) ParaType, Inc., 2003. All rights reserved.
</metadata>
<defs>
<font id="adoniscwebfont" horiz-adv-x="1118" >
  <font-face 
    font-family="adoniscwebfont"
    font-weight="400"
    font-stretch="normal"
    units-per-em="2048"
    panose-1="0 0 5 0 0 0 0 0 0 0"
    ascent="1501"
    descent="-547"
    x-height="995"
    cap-height="1460"
    bbox="-80 -547 1987 1903"
    underline-thickness="40"
    underline-position="-311"
    unicode-range="U+0020-25FC"
  />
<missing-glyph horiz-adv-x="748" 
d="M68 0v1365h544v-1365h-544zM136 68h408v1229h-408v-1229z" />
    <glyph glyph-name=".notdef" horiz-adv-x="748" 
d="M68 0v1365h544v-1365h-544zM136 68h408v1229h-408v-1229z" />
    <glyph glyph-name="glyph1" horiz-adv-x="0" 
 />
    <glyph glyph-name="glyph2" horiz-adv-x="682" 
 />
    <glyph glyph-name="space" unicode=" " horiz-adv-x="477" 
 />
    <glyph glyph-name="exclam" unicode="!" horiz-adv-x="538" 
d="M145 109q0 49 35.5 84.5t85.5 35.5t85.5 -35.5t35.5 -84.5q0 -48 -36 -83.5t-85 -35.5t-85 35.5t-36 83.5zM168 1391q0 75 22.5 111t73.5 36q96 0 96 -149l-8 -117l-65 -871h-45l-66 871q-8 82 -8 119z" />
    <glyph glyph-name="quotedbl" unicode="&#x22;" horiz-adv-x="669" 
d="M98 1421q0 105 88 105q46 0 67 -25.5t21 -79.5q0 -32 -10 -94l-49 -266h-57l-52 266q-8 44 -8 94zM389 1421q0 105 88 105q47 0 68.5 -25.5t21.5 -79.5q0 -20 -12 -94l-47 -266h-57l-52 266q-10 55 -10 94z" />
    <glyph glyph-name="numbersign" unicode="#" horiz-adv-x="1308" 
d="M70 403l28 86h250l86 510h-254l21 82h248l67 410h94l-65 -410h368l64 410h94l-63 -410h249l-20 -82h-244l-86 -510h250l-22 -86h-244l-72 -411h-98l70 411h-367l-70 -411h-98l72 411h-258zM440 489h369l88 510h-369z" />
    <glyph glyph-name="dollar" unicode="$" 
d="M98 276q0 71 28 106.5t69 35.5q86 0 86 -86q0 -9 -2.5 -33.5t-2.5 -47.5t5 -42q23 -79 87.5 -115.5t139.5 -36.5v625q-40 21 -61.5 33t-60.5 34.5t-61 38.5t-55 41t-52 46.5t-42 51t-35 58t-20 63.5t-8 72q0 87 35.5 155t93.5 107.5t126 59.5t140 20v174h106v-174
q35 0 76.5 -6.5t92 -24.5t91 -45.5t68 -73.5t27.5 -104q0 -60 -22.5 -91.5t-63.5 -31.5q-84 0 -84 132q0 73 -52 112.5t-133 44.5v-538q177 -77 251 -126q178 -118 189 -295q1 -13 1 -26q0 -101 -40.5 -183.5t-106 -132t-141 -77t-153.5 -29.5v-133h-106v135
q-69 0 -138.5 18t-132 53.5t-101 97t-38.5 138.5zM307 1171q0 -56 9.5 -95t37 -73t60 -60t94.5 -66v497q-86 0 -143.5 -57.5t-57.5 -145.5zM614 57q58 4 103 23.5t71.5 47.5t43.5 65.5t23.5 73.5t6.5 75q0 62 -22 112t-61.5 84t-78 55.5t-86.5 39.5v-576z" />
    <glyph glyph-name="percent" unicode="%" horiz-adv-x="1447" 
d="M80 1128q0 106 43.5 183t111 113t148.5 36q145 0 225 -91t80 -243q0 -98 -46.5 -175t-115 -115.5t-141.5 -38.5q-143 0 -224 91.5t-81 239.5zM225 1157q0 -132 44.5 -213.5t117.5 -81.5q66 0 110 65t44 181q0 135 -41 210t-125 75q-68 0 -109 -59.5t-41 -176.5zM307 -49
q0 17 8 33l760 1480q15 31 47 31q12 0 26.5 -10t14.5 -25q0 -13 -10 -33l-760 -1480q-14 -31 -45 -31q-12 0 -26.5 10.5t-14.5 24.5zM782 274q0 157 88.5 244.5t214.5 87.5q146 0 226 -90.5t80 -243.5q0 -147 -94 -239t-212 -92q-140 0 -221.5 93.5t-81.5 239.5zM930 303
q0 -131 43.5 -213t113.5 -82q69 0 113.5 65t44.5 181q0 135 -41 211t-125 76q-67 0 -108 -60.5t-41 -177.5z" />
    <glyph glyph-name="ampersand" unicode="&#x26;" horiz-adv-x="1386" 
d="M39 346q0 39 7.5 76t19 67.5t31 62t37 55t45 50t46 43t49 39t46 33t44.5 29t37 24.5q-39 48 -63 80.5t-55.5 81.5t-47.5 95t-16 87q0 155 102.5 239.5t268.5 84.5q368 0 368 -252q0 -60 -28 -116t-81 -104.5t-109.5 -87.5t-131.5 -81l387 -483q18 35 33.5 84t15.5 84
q0 34 -16 53.5t-37 19.5q-13 0 -19.5 3t-7.5 7.5t-1 12.5q0 24 24 35.5t55 11.5h134q81 0 81 -47q0 -12 -5.5 -17.5t-24.5 -5.5q-17 0 -41.5 -29t-34.5 -63q-38 -112 -98 -211q87 -113 149 -166q16 -14 48 -35t49.5 -37t17.5 -32q0 -31 -33 -52.5t-67 -21.5q-36 0 -65 8
t-48.5 17t-52.5 41t-51.5 52.5t-69.5 80.5q-91 -95 -208.5 -147t-250.5 -52q-81 0 -155.5 22t-137.5 66t-101 120t-38 175zM219 399q0 -161 95 -248.5t235 -87.5q59 0 116 18t99.5 47t69 52t45.5 45l-424 537q-34 -21 -67.5 -49t-75.5 -74t-67.5 -109t-25.5 -131zM385 1229
q0 -56 42.5 -135t84.5 -130l43 -51q111 51 183.5 131.5t72.5 176.5q0 46 -13.5 81.5t-34 56t-50.5 34t-59 18t-62 4.5q-95 0 -151 -45t-56 -141z" />
    <glyph glyph-name="quotesingle" unicode="'" horiz-adv-x="374" 
d="M100 1415q0 56 20.5 83.5t65.5 27.5q86 0 86 -111q0 -41 -8 -88l-49 -266h-57l-49 266q-9 52 -9 88z" />
    <glyph glyph-name="parenleft" unicode="(" horiz-adv-x="667" 
d="M100 553q0 191 66 381t166 333.5t221 243.5q16 15 39 15q11 0 21 -7.5t10 -21.5q0 -11 -5.5 -20.5t-10.5 -12.5l-5 -4q-71 -70 -123 -145t-98 -182t-70 -253t-24 -327q0 -182 24 -328.5t70 -253.5t98 -182t123 -145q21 -12 21 -37q0 -14 -10 -21.5t-21 -7.5
q-10 0 -20 3.5t-14 6.5l-5 4q-91 75 -170 174t-143.5 220t-102 268t-37.5 299z" />
    <glyph glyph-name="parenright" unicode=")" horiz-adv-x="667" 
d="M135 -393q0 11 5.5 20.5t10.5 12.5l5 4q71 70 123 145t98 182t70 253.5t24 328.5q0 181 -24 327t-70 253t-98 182t-123 145q-21 12 -21 37q0 14 10 21.5t21 7.5q10 0 20 -4t14 -8l5 -3q90 -74 169.5 -176t143.5 -224.5t101.5 -267.5t37.5 -290q0 -152 -37.5 -299
t-102 -268t-143 -220t-169.5 -174q-16 -14 -39 -14q-11 0 -21 7.5t-10 21.5z" />
    <glyph glyph-name="asterisk" unicode="*" horiz-adv-x="860" 
d="M72 940q0 38 33.5 65t80.5 39l181 50v34l-181 50q-46 12 -80 40t-34 66q0 30 21.5 49t49.5 19q55 0 111 -56l133 -135l27 19l-49 182q-9 40 -9 55q0 43 19.5 73t56.5 30t56.5 -30t19.5 -73q0 -19 -8 -55l-49 -182l26 -19l133 135q56 56 111 56q28 0 50 -19.5t22 -48.5
q0 -38 -34 -65t-83 -41l-178 -50v-34l178 -50q50 -14 83.5 -40t33.5 -64q0 -29 -22 -48.5t-50 -19.5q-26 0 -57.5 15.5t-53.5 38.5l-133 137l-26 -19l49 -182q8 -36 8 -55q0 -43 -19.5 -72.5t-56.5 -29.5t-56.5 29.5t-19.5 72.5q0 15 9 55l49 182l-27 19l-133 -137
q-22 -24 -53 -39t-58 -15q-28 0 -49.5 19t-21.5 49z" />
    <glyph glyph-name="plus" unicode="+" horiz-adv-x="1380" 
d="M164 598v147h454v457h144v-457h457v-147h-457v-455h-144v455h-454z" />
    <glyph glyph-name="comma" unicode="," horiz-adv-x="466" 
d="M94 -319q61 25 109.5 85.5t48.5 110.5q0 30 -12.5 61t-40.5 42q-50 21 -76 48t-23 68q2 46 32 79.5t91 33.5q67 0 110.5 -50t43.5 -139q0 -137 -82 -243t-195 -137z" />
    <glyph glyph-name="hyphen" unicode="-" horiz-adv-x="815" 
d="M137 465v113h543v-113h-543z" />
    <glyph glyph-name="period" unicode="." horiz-adv-x="466" 
d="M106 115q0 52 36.5 88.5t86.5 36.5q53 0 89 -36t36 -89q0 -50 -36.5 -86.5t-88.5 -36.5q-49 0 -86 37t-37 86z" />
    <glyph glyph-name="slash" unicode="/" horiz-adv-x="827" 
d="M8 -387l729 1915l80 -37l-725 -1913z" />
    <glyph glyph-name="zero" unicode="0" 
d="M61 741q0 219 62.5 390t173.5 264.5t252 93.5q226 0 360.5 -195.5t134.5 -552.5q0 -347 -140 -560.5t-355 -213.5q-229 0 -358.5 206t-129.5 568zM266 741q0 -336 67.5 -509t215.5 -173q287 0 287 682q0 658 -287 658q-98 0 -162.5 -83.5t-92.5 -227.5t-28 -347z" />
    <glyph glyph-name="one" unicode="1" 
d="M266 1194q0 44 269 215q74 45 114 45q8 0 14 -1.5t10 -3t6.5 -6.5l4 -8t2 -10.5t0.5 -11.5v-14v-15v-1208q0 -70 20 -90t62 -20q31 0 31 -25q0 -41 -82 -41h-252q-78 0 -78 41q0 25 27 25q40 0 62 22t22 88v930v11.5v14.5t-1.5 14t-4.5 15t-8.5 12.5t-13.5 11t-20 6.5
t-28 3q-48 0 -86 -15.5t-45 -15.5q-17 0 -21 6.5t-4 24.5z" />
    <glyph glyph-name="two" unicode="2" 
d="M162 14q-14 27 1.5 108t43.5 138q25 53 53 97t65 85.5t58.5 63.5t69.5 66.5t63 58.5q21 20 62.5 56t64.5 57.5t55 60.5t48.5 76.5t29 93.5t12.5 123q0 301 -231 301q-94 0 -159.5 -48.5t-65.5 -150.5q0 -37 17.5 -83.5t17.5 -67.5q0 -32 -25.5 -55t-52.5 -23
q-56 0 -88.5 37.5t-32.5 109.5q0 88 39 161t101 117.5t136 68.5t148 24q407 0 407 -375q0 -57 -14 -109t-43.5 -98.5t-61 -85t-81 -81.5t-88.5 -74t-98.5 -77t-96.5 -77q-39 -34 -63 -56t-60 -62t-61 -79q-43 -71 -43 -114q0 -19 14 -23t69 -3q36 1 60 1h365q38 0 59.5 6
t29.5 13t25 28l7.5 10t6.5 9t5.5 6t6.5 4.5t7 2.5t10 1q17 0 21.5 -23t-0.5 -73q-4 -56 -17.5 -91.5t-36 -49t-37.5 -16.5t-40 -3h-570q-10 0 -31.5 -1t-33 -1t-25.5 3.5t-22 12.5z" />
    <glyph glyph-name="three" unicode="3" 
d="M117 301q0 54 22.5 92.5t73.5 38.5q86 0 86 -92q0 -28 0.5 -44.5t5 -49.5t12.5 -55t25 -49t41 -43.5t61.5 -28t85.5 -11.5q114 0 189.5 84.5t75.5 259.5q0 318 -265 318q-36 0 -81 -6t-74 -6q-10 0 -16.5 2t-12.5 14t-6 35q0 21 8 35t16 20.5t28 10t28.5 3.5h32.5h77
q47 0 86.5 16.5t73 51.5t53 99.5t19.5 152.5q0 68 -20 118.5t-53 78t-68.5 40.5t-73.5 13q-121 0 -178.5 -65.5t-57.5 -166.5q0 -106 -67 -106q-18 0 -31.5 3t-31 12.5t-27 33t-9.5 59.5q0 141 112.5 230.5t289.5 89.5q65 0 122 -9.5t112.5 -33.5t95 -62t64 -99t24.5 -140
q0 -67 -27.5 -129t-72 -106.5t-97.5 -75t-106 -41.5v-15q100 -15 172 -52.5t109.5 -89.5t54 -106.5t16.5 -115.5q0 -123 -63 -226t-170.5 -162t-233.5 -59q-192 0 -311 87t-119 247z" />
    <glyph glyph-name="four" unicode="4" 
d="M106 518q0 106 244 477q172 264 371 443q55 49 113 49q12 0 19 -5t9.5 -17.5t3 -21t0.5 -27.5v-3v-3v-3v-832h103q17 0 24.5 -0.5t16 -7t8.5 -20.5q0 -39 -22 -67.5t-52 -28.5h-78v-275q0 -47 11 -73t22.5 -31.5t28.5 -5.5q30 0 30 -25q0 -41 -79 -41h-213q-78 0 -78 41
q0 25 26 25q62 0 62 110v275h-506q-64 0 -64 67zM258 608q0 -9 1.5 -15t6 -9.5t8 -5.5t11.5 -3t13.5 -1t16.5 0.5t17 0.5h344v599q0 9 1 20.5t1 16.5t-1.5 10.5t-6 7.5t-13.5 2q-29 0 -106 -103.5t-156 -234.5q-137 -231 -137 -285z" />
    <glyph glyph-name="five" unicode="5" 
d="M125 268q0 43 22.5 79t73.5 36q86 0 86 -94q0 -22 0.5 -35.5t4.5 -40.5t11 -44.5t22.5 -40.5t37 -36.5t55 -23t76.5 -9.5q122 0 195 101.5t73 263.5q0 105 -21.5 179t-60 113t-82 55.5t-96.5 16.5q-89 0 -205 -59q-3 -1 -11.5 -6t-13.5 -8t-12.5 -6.5t-15 -5t-14.5 -1.5
q-39 0 -39 35q0 11 1.5 26.5t4 38.5t4.5 40l49 561q3 35 22.5 46t59.5 11h522q30 0 40 -7.5t10 -31.5q0 -147 -117 -147h-442l-37 -447q122 64 235 64q54 0 104.5 -8t112 -35t106 -71t75 -123t30.5 -183q0 -133 -57 -247t-168.5 -185.5t-255.5 -71.5q-182 0 -283.5 84
t-101.5 217z" />
    <glyph glyph-name="six" unicode="6" 
d="M104 555q0 159 33.5 295t93 236t128.5 172t153 128q73 49 153.5 76t112.5 27t48 -8.5t16 -32.5q0 -14 -8 -22.5t-17 -12t-26 -7.5t-25 -7q-47 -15 -119 -54t-112 -79q-49 -48 -82 -90t-64.5 -101.5t-49.5 -137t-24 -175.5q114 166 334 166q47 0 93.5 -11.5t97.5 -42
t89.5 -77.5t63.5 -125.5t25 -177.5q0 -108 -35 -205.5t-95 -169t-144 -114t-177 -42.5q-77 0 -142 20t-112 54t-84 81.5t-60 100t-38 112t-21 114t-6 110.5zM315 575q-4 -106 8.5 -197t42 -164t82 -115t123.5 -42q64 0 113.5 34t77.5 89.5t42.5 116.5t14.5 123
q0 174 -64 276.5t-180 102.5q-201 0 -260 -224z" />
    <glyph glyph-name="seven" unicode="7" 
d="M172 1206q0 18 2 32.5t9 46t12 54.5q6 32 11 52t15.5 34t17 20.5t27 10t33 4t47.5 0.5h500q6 0 23.5 0.5t24.5 0t20.5 -1.5t20 -5t14.5 -10.5t11 -17t3 -25.5q0 -66 -52 -195l-442 -1140q-9 -23 -15.5 -34.5t-23.5 -21.5t-43 -10h-55q-25 0 -36 5.5t-11 21.5q0 24 43 116
l454 975q29 63 29 105q0 26 -6.5 36.5t-32.5 15.5t-86 5h-221q-57 0 -85 -2t-65.5 -15t-64.5 -40q-8 -7 -18.5 -19t-19 -18t-22.5 -6q-18 0 -18 26z" />
    <glyph glyph-name="eight" unicode="8" 
d="M92 395q0 39 7 78.5t29 88t56 89.5t93.5 77.5t136.5 55.5q-273 102 -273 340q0 83 27.5 148.5t70.5 105t99.5 65.5t109 36t105.5 10t107 -11t109.5 -37.5t98.5 -67t70 -105t27 -144.5q0 -71 -21 -128.5t-60 -97t-84.5 -66.5t-103.5 -48q61 -18 111 -44t83 -53.5t57.5 -61
t37.5 -63t21 -63t10 -56.5t2 -48q0 -128 -65.5 -227t-171 -150t-228.5 -51q-70 0 -135 15t-125 48.5t-104 82t-70.5 121t-26.5 161.5zM291 377q0 -81 23.5 -145t62.5 -101.5t84 -56.5t92 -19q48 0 94 19.5t85 57t63 101.5t24 144q0 167 -76 255.5t-190 88.5q-116 0 -189 -88
t-73 -256zM326 1124q0 -144 65 -218.5t162 -74.5t161 76.5t64 216.5q0 129 -60 199t-165 70q-108 0 -167.5 -69.5t-59.5 -199.5z" />
    <glyph glyph-name="nine" unicode="9" 
d="M68 979q0 120 35 217.5t96 161t142.5 97.5t176.5 34q84 0 152.5 -20t115.5 -53t83 -81t57 -97t33.5 -108t17 -108t4.5 -102q0 -153 -35.5 -291t-97 -244t-135.5 -186t-160 -136q-72 -46 -152.5 -73t-111.5 -27q-32 0 -48 8.5t-16 34.5q0 11 4 19t13 12.5t16.5 7t21.5 5.5
t21 5q37 11 104 50.5t113 80.5q212 188 252 504q-50 -76 -133 -122t-199 -46q-45 0 -92.5 14t-98 48t-90 84t-64.5 131t-25 180zM266 1053q0 -197 63 -298.5t183 -101.5q59 0 105.5 19t76 52t48 70.5t28.5 82.5q0 88 -5.5 157.5t-22 140.5t-44 117.5t-74 75.5t-110.5 29
q-62 0 -111.5 -31.5t-78 -82.5t-43.5 -110t-15 -120z" />
    <glyph glyph-name="colon" unicode=":" horiz-adv-x="524" 
d="M152 115q0 52 36 88.5t86 36.5q52 0 88.5 -36t36.5 -89q0 -50 -36.5 -86.5t-88.5 -36.5q-49 0 -85.5 36.5t-36.5 86.5zM152 885q0 52 36 88.5t86 36.5q52 0 88.5 -36t36.5 -89q0 -50 -36.5 -86.5t-88.5 -36.5q-49 0 -85.5 36.5t-36.5 86.5z" />
    <glyph glyph-name="semicolon" unicode=";" horiz-adv-x="593" 
d="M94 -319q61 25 109.5 85.5t48.5 110.5q0 30 -12.5 61t-40.5 42q-50 21 -76 48t-23 68q2 46 32 79.5t91 33.5q67 0 110.5 -50t43.5 -139q0 -137 -82 -243t-195 -137zM152 885q0 52 36 88.5t86 36.5q52 0 88.5 -36t36.5 -89q0 -50 -36.5 -86.5t-88.5 -36.5
q-49 0 -85.5 36.5t-36.5 86.5z" />
    <glyph glyph-name="less" unicode="&#x3c;" horiz-adv-x="1222" 
d="M86 774l948 662l53 -97l-800 -567l800 -567l-53 -99z" />
    <glyph glyph-name="equal" unicode="=" horiz-adv-x="1374" 
d="M182 526v119h1053v-119h-1053zM182 895v117h1053v-117h-1053z" />
    <glyph glyph-name="greater" unicode="&#x3e;" horiz-adv-x="1222" 
d="M137 205l797 569l-797 565l51 99l947 -666l-949 -666z" />
    <glyph glyph-name="question" unicode="?" horiz-adv-x="1005" 
d="M100 1178q0 71 25 132t66 103t93.5 71.5t108 43.5t109.5 14q191 0 295 -84.5t104 -245.5q0 -79 -27.5 -146t-74 -121t-96 -101.5t-106 -109.5t-91.5 -122q-31 -55 -39 -112q-4 -36 -6.5 -52t-8.5 -38t-16.5 -30.5t-25.5 -8.5q-10 0 -18 3.5t-12 13t-6.5 15.5t-3.5 21
t-1 19v20q0 130 73 237q9 13 48 64t68 94t63.5 102t53.5 120.5t19 117.5q0 65 -16.5 113t-40 74t-56.5 41.5t-58 19.5t-52 4q-22 0 -46 -4.5t-54 -17.5t-53 -33t-38.5 -56t-15.5 -82q0 -41 17.5 -81.5t17.5 -65.5q0 -33 -25.5 -55.5t-54.5 -22.5q-55 0 -87 37.5t-32 108.5z
M313 115q0 52 37 88.5t88 36.5t87 -36.5t36 -88.5q0 -50 -36 -86.5t-87 -36.5t-88 36.5t-37 86.5z" />
    <glyph glyph-name="at" unicode="@" horiz-adv-x="1802" 
d="M68 580q0 148 30 279t82.5 231.5t123.5 183.5t152.5 140t171 96t177 57t172.5 18q358 0 573 -198t215 -529q0 -127 -39 -239t-102 -190t-141 -135t-157 -84.5t-150 -27.5q-42 0 -72 14t-44 36t-20 41.5t-6 37.5v68q-62 -79 -146.5 -131.5t-174.5 -52.5q-34 0 -66.5 14
t-62 43t-48 81t-18.5 120q0 106 39.5 223t97.5 203q46 67 94.5 112t98.5 68t95 32t99 9q100 0 172 -72q54 57 105 57q20 0 25.5 -7.5t5.5 -24.5q0 -4 -19 -86l-147 -588q-4 -24 -4 -37q0 -80 57 -80q49 0 99.5 18.5t102 64t90.5 111.5t64 170t25 232q0 299 -170.5 479.5
t-472.5 180.5q-157 0 -293 -63.5t-235.5 -180.5t-156.5 -292.5t-57 -389.5q0 -245 79 -435t232.5 -299.5t360.5 -109.5q99 0 191 23t161 59t132 86t105 97t79 100q12 18 24.5 37t18.5 29.5t13 19.5t13.5 12.5t14.5 3.5q12 0 22.5 -7t10.5 -24q0 -9 -4 -19t-8 -16l-3 -6
q-17 -35 -49 -78t-81.5 -97.5t-118 -104.5t-149 -93t-184.5 -68.5t-214 -25.5q-172 0 -321.5 65t-257.5 182t-170 286.5t-62 370.5zM690 483q0 -72 31.5 -121t93.5 -49q83 0 155 80.5t95 167.5l49 184q31 116 31 162q0 50 -32 85.5t-87 35.5q-100 0 -178.5 -82.5
t-118 -205.5t-39.5 -257z" />
    <glyph glyph-name="A" unicode="A" horiz-adv-x="1318" 
d="M27 41q0 25 28 25q59 0 101 118l383 1098q10 31 10 52q0 37 -31 46q-33 13 -33 35q0 45 84 45h156q15 0 26 -3t19.5 -6t16.5 -13t12.5 -16.5t11 -25.5t10 -29.5t12 -39t13.5 -45.5l332 -1098q21 -68 38 -91t44 -23q19 0 24.5 -5.5t5.5 -17.5q0 -27 -18 -37t-53 -10h-261
q-86 0 -86 47q0 23 33 23q32 0 53 13.5t21 41.5q0 21 -12 63l-101 353h-475l-115 -353q-12 -40 -12 -63q0 -59 45 -59q37 0 37 -25q0 -41 -70 -41h-172q-77 0 -77 41zM422 635h418l-191 686z" />
    <glyph glyph-name="B" unicode="B" horiz-adv-x="1239" 
d="M94 41q0 14 4.5 19.5t20.5 5.5q65 0 65 106v1116q0 105 -65 105q-16 0 -20.5 6.5t-4.5 19.5q0 14 6.5 23t20 12.5t24 4.5t27.5 1h473q447 0 447 -307q0 -147 -81 -241.5t-218 -129.5v-8q100 -12 174 -47.5t114.5 -86.5t59 -105.5t18.5 -114.5q0 -108 -43 -190.5
t-117 -131.5t-165.5 -73.5t-196.5 -24.5h-465q-17 0 -27.5 1t-24 4.5t-20 12.5t-6.5 23zM373 176q0 -49 25.5 -62.5t103.5 -13.5h125q39 0 77.5 6.5t84.5 28.5t80.5 56.5t57.5 96t23 142.5q0 289 -375 289h-202v-543zM373 807h180q91 0 159.5 25t106.5 67t56 88.5t18 97.5
q0 56 -10.5 100.5t-26 74t-42.5 50.5t-52 32t-62 17t-64.5 7.5t-68.5 1.5h-36.5h-33.5t-28.5 -0.5t-26 -2t-20.5 -4.5t-18 -7.5t-13 -11.5t-10.5 -16.5t-5 -21.5t-2.5 -28v-469z" />
    <glyph glyph-name="C" unicode="C" horiz-adv-x="1273" 
d="M98 717q0 168 45.5 310t129.5 244.5t209 160t278 57.5q178 0 323 -78q4 -3 16 -10.5t17 -11t15.5 -12t15.5 -15t12 -17.5t10.5 -22t6 -26t2.5 -33q0 -28 -2 -57.5t-9 -74.5t-24 -73.5t-43 -28.5q-14 0 -23 8t-13.5 19.5t-11.5 32.5q-1 3 -1.5 5.5t-1.5 4.5q-31 95 -31 96
q-41 101 -109.5 151t-191.5 50q-192 0 -312 -154.5t-120 -439.5q0 -156 26.5 -279.5t70 -201t102 -128.5t117.5 -71.5t122 -20.5q233 0 369 174q5 6 12 14.5t10.5 13t8.5 10.5l7.5 9t6.5 7t6 5.5t5.5 3.5t6 3t6 1.5t6.5 0.5q41 0 41 -43q0 -61 -125 -180
q-168 -154 -397 -154q-91 0 -173.5 24.5t-159 81.5t-132.5 141.5t-89.5 213.5t-33.5 289z" />
    <glyph glyph-name="D" unicode="D" horiz-adv-x="1378" 
d="M94 41q0 25 27 25q63 0 63 106v1116q0 105 -65 105q-16 0 -20.5 6.5t-4.5 19.5q0 14 6.5 23t20 12.5t24 4.5t27.5 1h375h44q22 2 45 2q20 0 40 -2q44 -2 91.5 -3.5t96.5 -12.5t96.5 -25t93 -42.5t85 -64t73 -90t57 -120t37 -154t13.5 -192.5q0 -115 -31 -225.5t-93 -206
t-147 -168.5t-199.5 -114.5t-244.5 -41.5h-434q-76 0 -76 41zM375 211q0 -21 1.5 -36t9 -27t13 -19.5t23 -13t28.5 -8t41 -4t49.5 -1.5h63.5q108 0 194 34.5t145 94.5t98.5 145.5t57 184.5t17.5 213q0 303 -127 448.5t-397 145.5q-136 0 -176.5 -11t-40.5 -63v-1083z" />
    <glyph glyph-name="E" unicode="E" horiz-adv-x="1077" 
d="M92 41q0 25 27 25q65 0 65 108v1114q0 105 -65 105q-16 0 -20.5 6.5t-4.5 19.5q0 14 6.5 23t20 12.5t24 4.5t27.5 1h612q12 0 54 3t61 3q41 0 52.5 -28.5t11.5 -89.5q0 -232 -48 -232q-22 0 -35 26.5t-24 71t-20 62.5q-45 92 -197 92h-201q-36 0 -49.5 -12t-13.5 -53
v-502l299 20q100 8 117 8q27 0 40.5 -11.5t16 -24.5t2.5 -35q0 -21 -7.5 -34t-21.5 -18t-24 -6.5t-25 -1.5q-4 0 -170 9l-227 10v-543q0 -48 7 -60t32 -12h188q125 0 176 19q21 8 39.5 18.5t31.5 18t27 22.5t21 21.5t19.5 26t15.5 24t16 28t15 27.5q17 28 24.5 34.5
t22.5 6.5q28 0 28 -41q0 -68 -28 -164q-11 -41 -17.5 -59.5t-17.5 -39t-25.5 -27.5t-36.5 -12t-57 -5h-686q-78 0 -78 41z" />
    <glyph glyph-name="F" unicode="F" horiz-adv-x="999" 
d="M94 41q0 25 27 25q63 0 63 106v1116q0 105 -65 105q-16 0 -20.5 6.5t-4.5 19.5q0 14 6.5 23t20 12.5t24 4.5t27.5 1h614q12 0 54 3t61 3q18 0 30 -6.5t18.5 -15.5t9.5 -26.5t3.5 -31t0.5 -38.5q0 -232 -48 -232q-22 0 -35 26.5t-24 71t-20 62.5q-45 92 -197 92h-201
q-21 0 -29.5 -1t-18 -7t-12.5 -19.5t-3 -37.5v-523l299 21q100 8 117 8q20 0 33 -6t18 -18t6.5 -21.5t1.5 -24.5q0 -22 -7.5 -36t-21.5 -19.5t-23.5 -6.5t-25.5 -1q-9 0 -34 1.5t-66 4t-70 4.5l-227 10v-524q0 -106 63 -106q29 0 29 -25q0 -41 -78 -41h-217q-78 0 -78 41z
" />
    <glyph glyph-name="G" unicode="G" horiz-adv-x="1327" 
d="M117 717q0 225 78 399t229.5 273.5t355.5 99.5q201 0 336 -78q25 -14 35.5 -21.5t27.5 -25t24 -42t7 -58.5q0 -22 -0.5 -42.5t-5 -58.5t-12.5 -64.5t-24 -47.5t-38 -21q-20 0 -29.5 15.5t-19.5 54.5q-16 59 -30 96q-38 99 -113.5 150t-200.5 51q-191 0 -311.5 -154.5
t-120.5 -439.5q0 -162 28.5 -289t74 -205t107.5 -129t123 -70.5t126 -19.5q167 0 229 47q27 20 27 60v307q0 80 -19.5 103.5t-85.5 23.5q-26 0 -26 26q0 15 6.5 24t20 13t24 5t27.5 1h252q21 0 32 -2t20 -12t9 -29q0 -6 -2 -8t-11.5 -7t-17.5 -11q-27 -20 -34 -42.5
t-7 -60.5v-178q0 -47 12.5 -80t12.5 -39q0 -26 -33 -59q-94 -93 -220.5 -149t-272.5 -56q-91 0 -173.5 24.5t-159.5 81.5t-133.5 141.5t-90 213.5t-33.5 289z" />
    <glyph glyph-name="H" unicode="H" horiz-adv-x="1370" 
d="M96 41q0 25 27 25q28 0 44.5 21.5t16.5 84.5v1116q0 105 -63 105q-16 0 -20.5 6.5t-4.5 19.5q0 18 12.5 27.5t26.5 11.5t39 2h213q80 0 80 -41q0 -26 -31 -26q-61 0 -61 -105v-459h637v459q0 105 -66 105q-12 0 -17.5 4t-6 8t-0.5 14q0 14 6 23t18.5 12.5t23.5 4.5t29 1
h215q78 0 78 -41q0 -9 -1 -13.5t-7 -8.5t-18 -4q-64 0 -64 -105v-1116q0 -62 17.5 -84t46.5 -22q26 0 26 -25q0 -41 -78 -41h-215q-77 0 -77 41q0 25 26 25q29 0 46.5 22t17.5 84v565h-637v-565q0 -106 61 -106q31 0 31 -25q0 -41 -80 -41h-213q-78 0 -78 41z" />
    <glyph glyph-name="I" unicode="I" horiz-adv-x="575" 
d="M94 41q0 14 5 19.5t22 5.5q63 0 63 106v1116q0 105 -63 105q-17 0 -22 6.5t-5 19.5q0 14 6.5 23t20 12.5t25 4.5t28.5 1h213q78 0 78 -41q0 -26 -29 -26q-27 0 -44 -21.5t-17 -83.5v-1116q0 -106 61 -106q18 0 23.5 -6t5.5 -19q0 -41 -78 -41h-213q-17 0 -28.5 1t-25 4.5
t-20 12.5t-6.5 23z" />
    <glyph glyph-name="J" unicode="J" horiz-adv-x="634" 
d="M-43 -246q0 61 20 84t56 23q11 0 45 -5.5t57 -5.5q48 0 82.5 52.5t34.5 167.5q0 81 -8 210.5t-8 227.5v780q0 105 -64 105q-18 0 -23.5 6.5t-5.5 19.5q0 18 13.5 27.5t28.5 11.5t40 2h211q17 0 28 -1t24.5 -4.5t20.5 -12.5t7 -23q0 -26 -29 -26q-27 0 -44 -21.5
t-17 -83.5v-844q0 -142 -33 -310.5t-98 -274.5q-54 -85 -130.5 -145t-131.5 -60q-32 0 -54 26t-22 74z" />
    <glyph glyph-name="K" unicode="K" horiz-adv-x="1236" 
d="M94 41q0 25 27 25q63 0 63 106v1116q0 105 -65 105q-16 0 -20.5 6.5t-4.5 19.5q0 14 6.5 23t20 12.5t24 4.5t27.5 1h217q78 0 78 -41q0 -26 -29 -26q-63 0 -63 -105v-512q16 7 43 21.5t104.5 68.5t145.5 119q217 207 217 342q0 27 -8 39t-27 18l-9 3t-8 3t-6 2.5t-5.5 3
t-3.5 4t-2.5 6t-0.5 7.5q0 28 21.5 37.5t60.5 9.5h180h11q27 0 39 -1.5t22 -10.5t10 -29q0 -13 -18.5 -34t-58 -61.5t-70.5 -78.5q-207 -262 -402 -418q17 -16 35.5 -40t33.5 -46t43 -64t50 -73q23 -32 113 -162t151 -211q30 -41 63.5 -72t55 -44t35.5 -26t14 -26
q0 -29 -32 -52t-93 -23q-65 0 -110.5 28t-110.5 127q-47 70 -122.5 187.5t-112.5 173.5q-112 168 -143 201q-16 17 -27 24l-78 -37v-520q0 -106 63 -106q18 0 23.5 -6t5.5 -19q0 -41 -78 -41h-217q-78 0 -78 41z" />
    <glyph glyph-name="L" unicode="L" horiz-adv-x="991" 
d="M94 41q0 25 27 25q63 0 63 106v1116q0 105 -65 105q-16 0 -20.5 6.5t-4.5 19.5q0 14 6.5 23t20 12.5t24 4.5t27.5 1h217q78 0 78 -41q0 -26 -29 -26q-63 0 -63 -105v-1114q0 -48 7 -60t32 -12h129q125 0 174 19q24 9 43.5 19.5t36 24.5t27 23t24 28.5t18.5 27.5t19 32
t18 31q15 28 22.5 34.5t24.5 6.5q27 0 27 -41q0 -63 -27 -164q-10 -35 -14.5 -50.5t-13.5 -36t-18 -28t-24 -16t-34.5 -10.5t-48.5 -2h-625q-78 0 -78 41z" />
    <glyph glyph-name="M" unicode="M" horiz-adv-x="1693" 
d="M82 41q0 25 29 25q27 0 45 29t18 91v1102q0 62 -18 83.5t-47 21.5q-25 0 -25 26q0 14 6.5 23t19.5 12.5t24 4.5t28 1h200q25 0 44.5 -17t26.5 -35l7 -17l420 -1123l430 1145q16 47 76 47h178q80 0 80 -41q0 -26 -29 -26q-22 0 -41.5 -30.5t-19.5 -78.5v-1112
q0 -106 61 -106q18 0 23.5 -6t5.5 -19q0 -41 -80 -41h-213q-17 0 -28 1t-24 4.5t-19.5 12.5t-6.5 23t5 19.5t22 5.5q63 0 63 106v1077h-14l-446 -1167q-22 -59 -40 -80.5t-46 -21.5q-24 0 -39.5 20t-30.5 61l-440 1188h-17l15 -1063q3 -120 61 -120q12 0 20.5 -7.5
t8.5 -17.5q0 -18 -11.5 -27.5t-25.5 -11.5t-39 -2h-137q-80 0 -80 41z" />
    <glyph glyph-name="N" unicode="N" horiz-adv-x="1423" 
d="M92 41q0 25 31 25q25 0 43 29t18 91v1102q0 105 -63 105q-27 0 -27 26q0 14 6.5 23t20 12.5t25 4.5t28.5 1h141q39 0 74 -51l750 -1112l-4 977q0 63 -18 91t-42 28q-13 0 -20.5 4.5t-9 9t-1.5 12.5q0 18 12 27.5t26.5 11.5t39.5 2h135q82 0 82 -41q0 -26 -30 -26
q-25 0 -43.5 -28t-18.5 -91l-2 -1217q0 -32 -18 -51.5t-47 -19.5q-26 0 -47 12.5t-30 24t-28 38.5l-784 1147l6 -1022q0 -62 18 -91t43 -29q19 0 25 -6.5t6 -18.5q0 -18 -12 -27.5t-26.5 -11.5t-39.5 -2h-137q-82 0 -82 41z" />
    <glyph glyph-name="O" unicode="O" horiz-adv-x="1417" 
d="M88 690q0 191 49.5 344t137.5 252t206.5 151t257.5 52q275 0 441 -194t166 -521q0 -180 -49.5 -332t-136 -255.5t-205.5 -161.5t-255 -58q-130 0 -240.5 46.5t-193.5 135t-130.5 227.5t-47.5 314zM299 784q0 -357 102.5 -540t331.5 -183q64 0 121 20.5t109 67t89 115.5
t59 173.5t22 234.5q0 174 -23 304.5t-72.5 226.5t-133 145t-199.5 49q-192 0 -299 -148.5t-107 -464.5z" />
    <glyph glyph-name="P" unicode="P" horiz-adv-x="1208" 
d="M94 41q0 13 5.5 19t21.5 6q63 0 63 106v1116q0 34 -5.5 56.5t-16.5 32.5t-20.5 13t-22.5 3q-16 0 -20.5 6.5t-4.5 19.5q0 14 6.5 23t19 12.5t23.5 4.5t27 1h502q66 0 127.5 -9.5t127.5 -36t114 -67.5t79 -110t31 -158q0 -111 -38.5 -198.5t-95.5 -138t-130.5 -83.5
t-135 -44t-118.5 -11q-178 0 -258 35v-467q0 -106 63 -106q18 0 23.5 -6t5.5 -19q0 -41 -78 -41h-217q-78 0 -78 41zM375 819q0 -64 58 -92.5t171 -28.5q58 0 107 10t93.5 34.5t75.5 62t49.5 96.5t18.5 135q0 77 -19 136t-51 96t-79 59.5t-96.5 31.5t-110.5 9
q-141 0 -179 -13.5t-38 -80.5v-455z" />
    <glyph glyph-name="Q" unicode="Q" horiz-adv-x="1431" 
d="M88 690q0 191 49.5 344t137.5 252t206.5 151t257.5 52q275 0 441 -194t166 -521q0 -497 -326 -708q44 -44 197 -209q26 -26 53 -44.5t42.5 -25t25.5 -15.5t10 -22q0 -18 -35 -31.5t-78 -13.5q-47 0 -88 16.5t-77 50.5t-63 65.5t-66.5 82t-66.5 80.5q-72 -33 -174 -33
q-130 0 -240.5 46.5t-193.5 135t-130.5 227.5t-47.5 314zM299 784q0 -357 102.5 -540t331.5 -183q25 0 45 1.5t28 3.5l7 2q-10 13 -33 35t-37 39t-14 30q0 35 49 35q71 0 172 -74q183 141 183 539q0 174 -23 304.5t-72.5 226.5t-133 145t-199.5 49q-192 0 -299 -148.5
t-107 -464.5z" />
    <glyph glyph-name="R" unicode="R" horiz-adv-x="1255" 
d="M94 41q0 13 5.5 19t21.5 6q63 0 63 106v1116q0 105 -65 105q-16 0 -20.5 6.5t-4.5 19.5q0 41 76 41h217q38 0 143.5 2t171.5 2q29 0 57.5 -2t73 -10.5t82.5 -23t78.5 -41.5t69 -63t47 -92t18.5 -124q0 -73 -22 -140.5t-66 -127.5t-119 -103.5t-173 -60.5
q173 -300 286 -445q38 -51 79 -87t59 -51.5t18 -29.5q0 -29 -31 -52t-92 -23q-22 0 -41 4.5t-46.5 19t-59 47.5t-64.5 84q-41 60 -142.5 239.5t-135.5 227.5q-11 19 -27 29q-24 14 -62 14l-114 9v-490q0 -106 63 -106q18 0 23.5 -6t5.5 -19q0 -41 -78 -41h-217q-78 0 -78 41
zM375 776q0 -35 174 -35h10h23q160 0 252 90t92 234q0 158 -79 230.5t-255 72.5q-141 0 -179 -13.5t-38 -80.5v-498z" />
    <glyph glyph-name="S" unicode="S" horiz-adv-x="1126" 
d="M84 223q0 89 22.5 137t63.5 48q17 0 28.5 -19t17.5 -47t23.5 -73t43.5 -83q79 -125 274 -125q141 0 229 79t88 200q0 75 -47.5 134.5t-117.5 100.5q-61 35 -209.5 108t-223.5 122q-174 117 -174 303q0 165 129.5 266t327.5 101q159 0 291 -48q125 -46 125 -149
q0 -78 -24.5 -143.5t-65.5 -65.5q-20 0 -31 19t-21 61t-18 61q-12 32 -24.5 55t-34 46t-49.5 37t-70.5 23t-97.5 9q-110 0 -183 -59.5t-73 -153.5q0 -75 20 -122t94 -95q77 -50 263 -137t262 -151q74 -61 103.5 -125.5t29.5 -153.5q0 -76 -33 -149t-93.5 -133t-157.5 -97
t-214 -37q-95 0 -176 13.5t-149.5 42.5t-108 80t-39.5 120z" />
    <glyph glyph-name="T" unicode="T" horiz-adv-x="1171" 
d="M47 1348q0 26 0.5 38.5t3.5 31t9 27t17.5 15t28.5 6.5q20 0 61.5 -3t53.5 -3h731q11 0 52.5 3t60.5 3q22 0 35 -8t18.5 -27.5t6.5 -35t1 -47.5q0 -232 -47 -232q-22 0 -34.5 26.5t-23.5 70.5t-20 63q-45 92 -198 92h-123v-1196q0 -106 65 -106q16 0 21.5 -6t5.5 -19
q0 -41 -78 -41h-217q-78 0 -78 41q0 13 5.5 19t23.5 6q64 0 64 106v1196h-123q-152 0 -197 -92q-9 -19 -20 -63t-23.5 -70.5t-34.5 -26.5q-47 0 -47 232z" />
    <glyph glyph-name="U" unicode="U" horiz-adv-x="1355" 
d="M96 1419q0 14 6.5 23t19.5 12.5t24 4.5t28 1h213q80 0 80 -41q0 -26 -31 -26q-61 0 -61 -105v-770q0 -78 7.5 -137.5t29.5 -118.5t59.5 -97t101.5 -61.5t152 -23.5q171 0 258.5 94.5t87.5 265.5v848q0 105 -65 105q-17 0 -22 6.5t-5 19.5q0 14 6.5 23t20 12.5t25 4.5
t28.5 1h139q80 0 80 -41q0 -26 -29 -26q-63 0 -63 -105v-848q0 -98 -29 -177.5t-76.5 -130.5t-111 -85t-129.5 -48.5t-135 -14.5q-86 0 -158.5 12.5t-141 44t-116.5 81t-76.5 128t-28.5 180.5v858q0 105 -63 105q-16 0 -20.5 6.5t-4.5 19.5z" />
    <glyph glyph-name="V" unicode="V" horiz-adv-x="1269" 
d="M37 1419q0 14 6.5 23t20 12.5t25 4.5t28.5 1h221q80 0 80 -41q0 -26 -29 -26q-9 0 -18 -3t-18 -16.5t-9 -34.5q0 -13 16 -67l332 -1022l316 1024q14 54 14 65q0 54 -39 54q-27 0 -27 26q0 41 97 41h121q17 0 28 -1t23.5 -4.5t19 -12.5t6.5 -23q0 -13 -4 -19.5t-20 -6.5
q-32 0 -54.5 -28t-42.5 -85l-405 -1200q-22 -67 -42 -96t-50 -29q-14 0 -24.5 6.5t-19.5 24t-13.5 30t-14.5 43.5l-414 1221q-23 67 -40.5 90t-43.5 23q-17 0 -21.5 6.5t-4.5 19.5z" />
    <glyph glyph-name="W" unicode="W" horiz-adv-x="1804" 
d="M29 1419q0 14 6.5 23t20 12.5t25 4.5t28.5 1h215q79 0 79 -41q0 -26 -28 -26q-9 0 -18 -3t-18 -16.5t-9 -34.5q0 -41 12 -102l170 -928l381 1082q21 59 31 71.5t34 12.5q27 0 38 -13.5t28 -70.5l307 -1082l215 963q13 57 13 67q0 54 -39 54q-29 0 -29 26q0 41 98 41h117
q17 0 27.5 -1t24 -4.5t20 -12.5t6.5 -23q0 -13 -4.5 -19.5t-20.5 -6.5q-69 0 -96 -115l-291 -1198q-19 -74 -34.5 -99.5t-43.5 -25.5q-26 0 -40 24t-29 80l-312 1086l-378 -1065q-3 -7 -7.5 -20.5l-7 -21t-7 -19t-8 -18t-8.5 -15t-9.5 -13.5t-10.5 -9.5t-12.5 -6.5t-13.5 -2
q-27 0 -42.5 26t-25.5 78l-244 1219q-22 115 -84 115q-17 0 -21.5 6.5t-4.5 19.5z" />
    <glyph glyph-name="X" unicode="X" horiz-adv-x="1226" 
d="M41 41q0 11 8 18t19 7q36 0 78.5 38t70.5 82l334 516l-334 578q-41 72 -62 91q-25 22 -53 22q-17 0 -21.5 6.5t-4.5 19.5q0 14 6.5 23t20 12.5t25 4.5t28.5 1h266q78 0 78 -41q0 -26 -29 -26q-8 0 -16.5 -3t-17.5 -16.5t-9 -34.5q0 -19 23 -67l215 -402l225 402
q27 49 27 67q0 30 -12.5 42t-26.5 12q-31 0 -31 26q0 41 100 41h144q17 0 28.5 -1t24.5 -4.5t19.5 -12.5t6.5 -23q0 -9 -1 -13.5t-7 -8.5t-18 -4q-23 0 -44 -15t-34.5 -33.5t-34.5 -51.5q-5 -9 -8 -13l-307 -496l340 -594q23 -39 36.5 -60t38.5 -42.5t50 -21.5q26 0 26 -25
q0 -14 -6.5 -23t-20 -12.5t-25 -4.5t-28.5 -1h-258q-79 0 -79 41q0 25 28 25q11 0 17.5 1.5t14 12t7.5 31.5q0 33 -24 79l-232 435l-254 -435q-24 -55 -24 -71q0 -53 38 -53q17 0 22 -5.5t5 -19.5q0 -41 -98 -41h-170q-17 0 -28.5 1t-25 4.5t-20 12.5t-6.5 23z" />
    <glyph glyph-name="Y" unicode="Y" horiz-adv-x="1173" 
d="M41 1419q0 14 6.5 23t20 12.5t24 4.5t27.5 1h215q78 0 78 -41q0 -10 -8 -18t-19 -8q-7 0 -13.5 -2t-12.5 -9.5t-7.5 -19.5t4 -35.5t19.5 -54.5l268 -596l260 596q25 56 25 86q0 35 -33 35q-29 0 -29 26q0 41 80 41h119q17 0 28.5 -1t25 -4.5t20 -12.5t6.5 -23
q0 -10 -8 -18t-19 -8q-31 0 -45.5 -18.5t-50.5 -94.5l-317 -670q-17 -35 -17 -80v-358q0 -62 17 -84t45 -22q16 0 21 -6t5 -19q0 -41 -78 -41h-211q-79 0 -79 41q0 13 5.5 19t22.5 6q64 0 64 110v348q0 46 -11 72l-327 684q-39 83 -52 96q-16 17 -44 17q-25 0 -25 26z" />
    <glyph glyph-name="Z" unicode="Z" horiz-adv-x="1062" 
d="M61 45q0 15 2 28t8.5 27.5t11 23.5t16.5 29t18 31l665 1184h-348q-154 0 -196 -92q-9 -18 -20.5 -63t-24.5 -71t-35 -26q-47 0 -47 232q0 32 1 47.5t6.5 35t18.5 27.5t35 8q19 0 60.5 -3t54.5 -3h645q39 0 51 -7.5t12 -29.5q0 -41 -53 -133l-666 -1188h283q127 0 178 19
q21 8 39 18t31 19t26.5 22.5t21 21.5t19 25t16.5 25t16.5 27.5t15.5 27.5q17 28 24.5 34.5t20.5 6.5q30 0 30 -41q0 -61 -30 -164q-8 -28 -11.5 -39t-10.5 -30.5t-11.5 -26t-13.5 -18t-17.5 -14.5t-22 -8t-29.5 -6t-38 -1h-657h-12h-13.5t-13.5 0.5t-14.5 1.5t-13 3
t-11.5 5.5t-8.5 8t-6.5 11.5t-2 15z" />
    <glyph glyph-name="bracketleft" unicode="[" horiz-adv-x="677" 
d="M219 -418v1919h367v-86h-201v-1747h201v-86h-367z" />
    <glyph glyph-name="backslash" unicode="\" horiz-adv-x="827" 
d="M8 1491l86 37l723 -1915l-78 -35z" />
    <glyph glyph-name="bracketright" unicode="]" horiz-adv-x="659" 
d="M102 -332h201v1747h-201v86h367v-1919h-367v86z" />
    <glyph glyph-name="asciicircum" unicode="^" horiz-adv-x="962" 
d="M115 1077l362 422l367 -422h-86l-281 197l-276 -197h-86z" />
    <glyph glyph-name="underscore" unicode="_" horiz-adv-x="1052" 
d="M8 -213h1041v-82h-1041v82z" />
    <glyph glyph-name="grave" unicode="`" horiz-adv-x="571" 
d="M104 1438q0 35 30.5 56.5t68.5 21.5q28 0 46.5 -19.5t33.5 -64.5l106 -318h-37l-219 244q-29 26 -29 80z" />
    <glyph glyph-name="a" unicode="a" horiz-adv-x="960" 
d="M78 217q0 44 11 81.5t27 64.5t45.5 51.5t54.5 39.5t66 31.5t68.5 25.5t74.5 23.5t71 22.5q68 24 106.5 49t38.5 62v149q0 44 -32 80.5t-109 36.5q-80 0 -126.5 -35.5t-76.5 -99.5q-3 -6 -14.5 -33.5t-18.5 -40t-22 -26t-31 -13.5t-27 16.5t-15.5 42t-6.5 45.5t-2 37
q0 104 51 134q32 15 111 34q106 25 204 25q58 0 104 -8.5t89.5 -30t67.5 -66t24 -108.5v-631q0 -59 10.5 -82.5t38.5 -23.5q27 0 27 -27t-28.5 -43t-59.5 -16h-13q-28 0 -42.5 0.5t-37.5 7.5t-34.5 20t-21 39.5t-9.5 65.5v45q-31 -43 -59 -72.5t-67.5 -58.5t-90.5 -43.5
t-113 -14.5q-98 0 -165.5 62t-67.5 182zM254 250q0 -26 5 -49.5t18 -50t42 -42.5t70 -16q46 0 89 20t74.5 52.5t53 64.5t35.5 64v250q-9 -9 -19 -16t-24.5 -14t-21.5 -10t-26 -10t-22 -8q-17 -7 -47 -17.5t-49 -17.5t-45.5 -19t-43 -22.5t-35.5 -27.5t-29.5 -35t-17.5 -42.5
t-7 -53.5z" />
    <glyph glyph-name="b" unicode="b" horiz-adv-x="1110" 
d="M82 1434q0 47 74 47h141q13 0 21 -8.5t11.5 -26t4 -29.5t0.5 -33v-512q47 83 132.5 119.5t170.5 36.5q190 0 294.5 -127t104.5 -389q0 -150 -52.5 -271.5t-156 -194.5t-241.5 -73q-180 0 -277 123q-15 -40 -45.5 -68t-56.5 -28q-8 0 -14.5 1.5t-11.5 4.5t-8 6.5t-5 10
t-3 12t-1 15v16v19.5v21v1199q0 48 -17.5 75t-42.5 27q-22 0 -22 27zM334 373q0 -142 67 -223.5t183 -81.5q129 0 198.5 113.5t69.5 330.5q0 111 -20.5 192.5t-57 127.5t-81 67t-99.5 21q-118 0 -189 -81.5t-71 -244.5v-221z" />
    <glyph glyph-name="c" unicode="c" horiz-adv-x="927" 
d="M88 483q0 121 30 218t77.5 156.5t111 99.5t124.5 55.5t124 15.5q127 0 258 -67q53 -24 53 -82q0 -71 -19 -130t-54 -59q-21 0 -35.5 23.5t-23 55t-29 70.5t-50.5 62q-57 39 -125 39q-113 0 -187.5 -105t-74.5 -305q0 -96 16.5 -172.5t43.5 -126.5t64.5 -83.5t77.5 -47.5
t83 -14q40 0 76.5 10.5t58 21.5t47 34t33 32t25.5 31q21 27 43 27q41 0 41 -37q0 -23 -9 -39q-44 -88 -136 -140.5t-216 -52.5q-212 0 -320 138t-108 372z" />
    <glyph glyph-name="d" unicode="d" horiz-adv-x="1071" 
d="M82 483q0 91 15 168.5t40.5 132.5t61 98t73.5 70t81 44.5t80.5 24.5t74.5 7q79 0 150.5 -25.5t109.5 -84.5v387q0 49 -16 75.5t-39 26.5q-25 0 -25 27q0 47 74 47h133q15 0 23.5 -7t12 -23.5t4.5 -29t1 -37.5v-1208q0 -35 4.5 -56.5t15 -29.5t18.5 -10t23 -2q25 0 25 -27
q0 -51 -74 -51h-137q-15 0 -24.5 10.5t-13 26.5t-5 36t-0.5 39t0 35q-51 -85 -138.5 -129.5t-176.5 -44.5q-54 0 -104 15.5t-99.5 53t-86 94t-59 146t-22.5 201.5zM258 516q0 -109 19 -190.5t46 -126t66 -71.5t70.5 -34.5t66.5 -7.5q94 0 168 78t74 205v274
q0 81 -20.5 139.5t-56.5 90t-76.5 45.5t-88.5 14q-40 0 -76 -11.5t-72 -41.5t-62 -75.5t-42 -119.5t-16 -168z" />
    <glyph glyph-name="e" unicode="e" horiz-adv-x="995" 
d="M82 485q0 254 118.5 398.5t317.5 144.5q192 0 298 -115.5t106 -296.5q0 -112 -76 -112h-580q0 -63 7.5 -118.5t27.5 -112t52 -97t85.5 -65.5t122.5 -25q93 0 150.5 35t109.5 104q20 35 47 35q16 0 28.5 -9.5t12.5 -27.5q0 -25 -10 -43q-47 -94 -154 -150.5t-233 -56.5
q-192 0 -311 132t-119 380zM268 633q0 -28 6.5 -33.5t32.5 -5.5h359q43 0 55 14.5t12 63.5q0 38 -6.5 74t-22.5 71.5t-40.5 62.5t-63.5 43.5t-88 16.5q-58 0 -103.5 -23.5t-71 -57.5t-42 -78.5t-22 -80t-5.5 -67.5z" />
    <glyph glyph-name="f" unicode="f" horiz-adv-x="669" 
d="M53 905q0 68 82 68h58v84q0 146 33.5 221.5t90.5 126.5q116 86 295 86q19 0 36 -4.5t33.5 -24t16.5 -51.5q0 -63 -16.5 -83.5t-42.5 -20.5q-17 0 -35 14t-32 31t-40.5 31t-58.5 14q-66 0 -88.5 -77.5t-22.5 -283.5v-63h248q23 0 31 -3t8 -16q0 -29 -27.5 -51t-62.5 -22
h-197v-705q0 -35 4.5 -56.5t15 -29.5t18 -10t22.5 -2q27 0 27 -27q0 -51 -76 -51h-189q-31 0 -54.5 11.5t-23.5 39.5q0 27 29 27q14 0 21 2t17.5 10t15 29.5t4.5 56.5v705h-93q-2 0 -10.5 -0.5t-13.5 -0.5t-11 2t-9 8t-3 15z" />
    <glyph glyph-name="g" unicode="g" horiz-adv-x="1003" 
d="M0 -244q0 75 46.5 139t105.5 99q-80 41 -80 129q0 44 26.5 81t66.5 59.5t70 34.5t54 17q-108 41 -168 132t-60 212q0 86 33 157.5t88 117t125 70t146 24.5q107 0 160.5 -19.5t109.5 -66.5q9 4 77 49t97 45q66 0 66 -63q0 -14 -2.5 -24.5t-10 -18t-14 -12.5t-22 -9
t-25.5 -6t-33 -5.5t-37 -6.5l-41 -8q72 -81 72 -228q0 -110 -56.5 -195.5t-144.5 -128t-190 -42.5h-3h-3h-3h-3h-3h-3h-3h-3h-9q-42 0 -87.5 -12.5t-80.5 -39.5t-35 -61q0 -51 71 -66q62 -12 207 -12h42h15q87 0 152 -10q70 -12 128.5 -40t89 -83t30.5 -135
q0 -109 -75.5 -196.5t-191.5 -133t-245 -45.5q-31 0 -68.5 4t-91 14.5t-101.5 32.5t-91 53.5t-68.5 82.5t-25.5 114zM145 -219q0 -109 86.5 -170.5t251.5 -61.5q152 0 243 64.5t91 173.5q0 30 -12 53t-28.5 37.5t-47 25t-52 15t-60 7.5t-55.5 3h-52q-210 0 -301 39
q-1 -1 -8.5 -9.5t-10 -12l-10 -14t-11 -18.5t-9 -23t-8.5 -30t-5 -35.5t-2 -43.5zM248 655q0 -78 18 -137.5t66 -100t121 -40.5q113 0 162 63.5t49 204.5q0 150 -49 222.5t-162 72.5q-55 0 -96 -23.5t-64 -65t-34 -90.5t-11 -106z" />
    <glyph glyph-name="h" unicode="h" horiz-adv-x="1116" 
d="M80 51q0 10 6.5 18.5t19.5 8.5q19 0 29 3.5t19.5 26t9.5 68.5v1129q0 49 -16.5 75.5t-41.5 26.5q-22 0 -22 27q0 47 74 47h129q17 0 27 -8.5t14 -26t5 -29.5t1 -33v-593q59 105 168.5 171t204.5 66q122 0 180.5 -73.5t58.5 -239.5v-539q0 -35 4 -56.5t13.5 -29.5
t16.5 -10t21 -2q15 0 22 -8.5t7 -18.5q0 -51 -76 -51h-186q-28 0 -52 12t-24 39q0 9 7 18t20 9q14 0 21.5 2t17.5 10t14 29.5t4 56.5v451v9q0 31 -0.5 48t-3 48.5t-8 50.5t-16 43t-26 38t-39 23.5t-54.5 9.5q-86 0 -154.5 -53.5t-104.5 -139t-36 -182.5v-346q0 -35 4 -56.5
t13.5 -29.5t16.5 -10t21 -2q15 0 22 -8.5t7 -18.5q0 -51 -76 -51h-186q-30 0 -53 11.5t-23 39.5z" />
    <glyph glyph-name="i" unicode="i" horiz-adv-x="495" 
d="M80 51q0 27 26 27q14 0 21 2t17.5 10t15 29.5t4.5 56.5v641q0 52 -17.5 77.5t-40.5 25.5q-26 0 -26 26t23.5 37.5t52.5 11.5h131q13 0 22 -5.5t14 -17t8 -23.5t3.5 -30.5t0.5 -32.5t-0.5 -35.5t-0.5 -33.5v-641q0 -35 4 -56.5t13 -29.5t16 -10t20 -2q17 0 24 -8.5
t7 -18.5q0 -51 -78 -51h-184q-30 0 -53 11.5t-23 39.5zM119 1264q0 44 33.5 77t76.5 33q46 0 80.5 -33t34.5 -77q0 -43 -35 -77t-80 -34q-43 0 -76.5 34t-33.5 77z" />
    <glyph glyph-name="j" unicode="j" horiz-adv-x="454" 
d="M-80 -422q0 121 68 121q13 0 48 -4t44 -4q12 0 27.5 8t33.5 25t30.5 52.5t12.5 82.5q0 51 -10 156.5t-10 179.5v622q0 55 -17.5 79t-42.5 24q-24 0 -24 26t23 37.5t51 11.5h137q17 0 27 -10t13.5 -32t4.5 -39t-0.5 -50.5t-1.5 -46.5v-633q0 -177 -46.5 -318t-103.5 -220
q-56 -76 -100.5 -115t-95.5 -39q-33 0 -50.5 23t-17.5 63zM119 1264q0 44 34 77t78 33q45 0 79 -33t34 -77q0 -43 -34.5 -77t-78.5 -34t-78 34t-34 77z" />
    <glyph glyph-name="k" unicode="k" horiz-adv-x="974" 
d="M82 51q0 27 27 27h5q17 0 25.5 3t16.5 25.5t8 67.5v1133q0 52 -16.5 77t-41.5 25q-22 0 -22 27q0 47 74 47h129q17 0 27 -8.5t14 -26t5 -29.5t1 -33v-841q97 28 190 112q140 131 140 228q0 18 -13.5 25.5t-25.5 7.5q-17 0 -22 6.5t-5 19.5q0 49 78 49h153q21 0 33 -1.5
t25.5 -12t13.5 -31.5q0 -11 -8 -21t-26.5 -26t-30.5 -29q-3 -4 -23 -26.5t-25.5 -29t-24.5 -28.5t-27.5 -31t-27.5 -29t-31 -31.5t-31 -30t-34.5 -32t-34.5 -29.5t-38 -30q8 -10 38.5 -50t61.5 -81q22 -30 48 -65l39 -52.5t36.5 -46.5t54.5 -65q69 -79 92 -98
q13 -11 33 -24.5t27.5 -20.5t7.5 -13q0 -27 -34 -51t-85 -24q-62 0 -102.5 34.5t-120.5 143.5q-36 49 -91 130t-90.5 130t-54.5 67q-11 -3 -27.5 -9.5t-27.5 -11.5l-10 -5v-287q0 -34 4.5 -55.5t13.5 -30t16.5 -10.5t20.5 -2q15 0 22 -8.5t7 -18.5q0 -51 -78 -51h-184
q-29 0 -51.5 11.5t-22.5 39.5z" />
    <glyph glyph-name="l" unicode="l" horiz-adv-x="501" 
d="M80 51q0 10 6 18.5t18 8.5q15 0 23 2t18 10t14.5 29.5t4.5 56.5v1131q0 47 -17.5 74.5t-40.5 27.5q-24 0 -24 27q0 47 76 47h129q17 0 27 -8.5t14 -26t5 -29.5t1 -33v-1210q0 -35 4 -56.5t13.5 -29.5t16.5 -10t21 -2q29 0 29 -27q0 -51 -78 -51h-182q-31 0 -54.5 11.5
t-23.5 39.5z" />
    <glyph glyph-name="m" unicode="m" horiz-adv-x="1595" 
d="M80 51q0 10 6.5 18.5t19.5 8.5q19 0 29 3.5t19.5 26t9.5 68.5v641q0 47 -17.5 75t-40.5 28q-26 0 -26 26t23.5 37.5t52.5 11.5h133q18 0 28.5 -9t14.5 -32.5t4.5 -41.5t-1 -59t-1.5 -62q23 40 54 79t73 76t96 59.5t109 22.5q42 0 76 -13t54.5 -33.5t35 -45t21 -49.5
t10 -45.5t3.5 -33.5v-13q55 98 149.5 165.5t192.5 67.5q124 -1 173 -77t49 -238v-537q0 -35 4.5 -56.5t14 -29.5t16.5 -10t20 -2q17 0 24 -8.5t7 -18.5q0 -27 -24.5 -39t-53.5 -12h-189q-75 0 -75 51q0 27 30 27q13 0 20 2t17 10t14.5 29.5t4.5 56.5v410q0 59 -1 92.5
t-5 74.5t-13 63t-24 43t-38.5 29.5t-56.5 8.5q-103 0 -172 -104.5t-69 -282.5v-334q0 -35 5 -56.5t15 -29.5t17 -10t20 -2q25 0 25 -27q0 -51 -76 -51h-180q-76 0 -76 51q0 27 24 27q14 0 21 2t17.5 10t15 29.5t4.5 56.5v406q0 70 -2.5 114t-10 84.5t-22 62t-39 34
t-59.5 12.5q-93 0 -169.5 -110t-76.5 -263v-340q0 -35 4 -56.5t13.5 -29.5t16.5 -10t21 -2q15 0 22 -8.5t7 -18.5q0 -51 -76 -51h-186q-30 0 -53 11.5t-23 39.5z" />
    <glyph glyph-name="n" unicode="n" horiz-adv-x="1103" 
d="M80 51q0 10 6.5 18.5t19.5 8.5q19 0 29 3.5t19.5 26t9.5 68.5v641q0 48 -17 75.5t-41 27.5q-22 0 -22 28q0 47 74 47h129q17 0 27 -8t14 -25.5t5 -29.5t1 -33v-108q59 105 168.5 171t204.5 66q122 0 180.5 -73.5t58.5 -239.5v-539q0 -35 4 -56.5t13.5 -29.5t16.5 -10
t21 -2q15 0 22 -8.5t7 -18.5q0 -51 -76 -51h-186q-28 0 -52 12t-24 39q0 9 7 18t20 9q14 0 21.5 2t17.5 10t14 29.5t4 56.5v451v10q0 33 -0.5 50.5t-3 49t-8 50t-16 42.5t-26 36.5t-39 22t-54.5 9.5q-86 0 -154.5 -53.5t-104.5 -139t-36 -182.5v-346q0 -35 4 -56.5
t13.5 -29.5t16.5 -10t21 -2q15 0 22 -8.5t7 -18.5q0 -51 -76 -51h-186q-30 0 -53 11.5t-23 39.5z" />
    <glyph glyph-name="o" unicode="o" horiz-adv-x="1085" 
d="M82 506q0 123 38.5 223.5t103.5 165t147 99t172 34.5q218 0 342.5 -147t124.5 -381q0 -119 -39 -220t-103.5 -167t-146.5 -103t-170 -37q-219 0 -344 148.5t-125 384.5zM264 537q0 -214 76 -345t211 -131q133 0 204.5 105t71.5 303q0 213 -75.5 342t-208.5 129
q-136 0 -207.5 -103t-71.5 -300z" />
    <glyph glyph-name="p" unicode="p" horiz-adv-x="1105" 
d="M80 -496q0 27 24 27q19 0 30 5t20.5 28.5t9.5 68.5v1180q0 107 -60 107q-22 0 -22 26q0 24 23 36.5t51 12.5h125q13 0 22.5 -3.5t15 -13.5t9 -19t4.5 -27.5t1.5 -31t0.5 -38.5q98 166 317 166q176 0 283.5 -127.5t107.5 -388.5q0 -150 -51.5 -271t-155 -194.5
t-241.5 -73.5q-164 0 -260 107v-449q0 -36 4 -57.5t14 -30t17.5 -10.5t21.5 -2q27 0 27 -27q0 -51 -74 -51h-188q-76 0 -76 51zM334 340q0 -136 70.5 -204t173.5 -68q137 0 208.5 120t71.5 347q0 180 -69 281.5t-195 101.5q-84 0 -144.5 -43t-88 -108.5t-27.5 -143.5v-283z
" />
    <glyph glyph-name="q" unicode="q" horiz-adv-x="1085" 
d="M82 483q0 124 29 222t73.5 157t102.5 98t110 53.5t103 14.5q201 0 282 -131q26 68 57 93.5t70 25.5q9 0 13 -0.5t11 -4.5t10 -15t3 -29q0 -14 -3 -66t-3 -94v-1176q0 -47 9.5 -70t19.5 -26.5t30 -3.5q25 0 25 -27q0 -51 -74 -51h-200q-76 0 -76 47q0 31 26 31q19 0 28 2
t21 10.5t16.5 30t4.5 57.5v508q-78 -100 -150.5 -133t-166.5 -33q-50 0 -99 15.5t-99 53t-87.5 94t-61.5 146.5t-24 201zM258 516q0 -430 268 -430q94 0 168 78t74 205v274q0 77 -20 134.5t-55 90.5t-77 48.5t-90 15.5q-40 0 -76 -11t-72 -40t-62 -74t-42 -120t-16 -171z
" />
    <glyph glyph-name="r" unicode="r" horiz-adv-x="772" 
d="M80 51q0 27 24 27q15 0 23 2t18 10t14.5 29.5t4.5 56.5v641q0 49 -17 76t-43 27q-22 0 -22 22q0 27 23.5 40t52.5 13h141q15 0 24 -9t11.5 -30t2.5 -39t-1.5 -53t-1.5 -55q50 98 127.5 151.5t165.5 53.5q77 0 106 -19.5t29 -74.5q0 -62 -21 -94.5t-55 -32.5
q-16 0 -31.5 14t-27 31t-32 31t-46.5 14q-70 0 -120.5 -52t-72.5 -127t-22 -159v-369q0 -35 4 -56.5t14 -29.5t17.5 -10t21.5 -2q27 0 27 -27q0 -51 -74 -51h-188q-76 0 -76 51z" />
    <glyph glyph-name="s" unicode="s" horiz-adv-x="880" 
d="M80 150q0 151 63 151q20 0 31 -21t31 -63t53 -76q80 -80 199 -80q95 0 143.5 47.5t48.5 114.5q0 30 -9.5 55t-23 41.5t-41 34.5t-50 29.5t-63.5 32t-69 35.5q-148 80 -190 111q-90 66 -106 154q-5 25 -5 54q0 115 82 186.5t227 71.5q102 0 168.5 -14.5t132.5 -44.5
q52 -17 52 -76q0 -69 -18.5 -116.5t-53.5 -47.5q-18 0 -31.5 18t-22 41.5t-24.5 54.5t-37 50q-55 49 -151 49q-82 0 -126 -38t-44 -97q0 -34 9 -58t37.5 -49.5t63 -47t101.5 -58.5q26 -14 72.5 -35.5t81 -37t75.5 -42t67 -54t44 -69.5t18 -92q0 -131 -109.5 -211t-261.5 -80
q-69 0 -129.5 9t-115.5 28t-87 55t-32 85z" />
    <glyph glyph-name="t" unicode="t" horiz-adv-x="686" 
d="M68 907q0 40 53 60q45 18 82 67q19 25 31.5 58.5t16 55t9.5 62.5q9 79 19 97q12 24 40 24q34 0 46 -11.5t12 -49.5v-297h217q33 0 33 -31q0 -36 -22.5 -53t-47.5 -17h-180v-575v-19.5v-27t1 -28t3.5 -32.5t6.5 -29t10.5 -28.5t15.5 -21.5q6 -6 12 -11t13 -8t12.5 -6
t13 -4t12 -2t13 -1.5t12 -0.5h12.5h12q14 0 19 -1t8.5 -6t3.5 -16q0 -59 -121 -59q-38 0 -61 2t-53 9.5t-48 25t-35 45.5t-24.5 73.5t-7.5 106.5v614h-94q-45 0 -45 35z" />
    <glyph glyph-name="u" unicode="u" horiz-adv-x="1064" 
d="M84 946q0 26 23 37.5t51 11.5h137q14 0 22.5 -7.5t12 -24t4 -27t0.5 -31.5v-10v-506q0 -11 -0.5 -33.5t-0.5 -36.5t1 -37t3.5 -38t7.5 -34.5t13 -32.5t20.5 -27t28.5 -22t38 -13.5t49 -5.5q69 0 131 51.5t96.5 121.5t34.5 132v401q0 44 -19 74.5t-39 30.5q-16 0 -20 6.5
t-4 19.5q0 26 23 37.5t53 11.5h135q14 0 23 -8.5t12 -28t3.5 -29t0.5 -34.5v-715q0 -49 16 -77.5t37 -28.5q29 0 29 -27q0 -47 -78 -47h-131q-19 0 -29.5 11.5t-13.5 35.5t-2.5 45.5t2.5 59t2 59.5q-81 -131 -168.5 -181t-186.5 -50q-237 0 -237 321v514q0 46 -16 75.5
t-37 29.5q-27 0 -27 26z" />
    <glyph glyph-name="v" unicode="v" horiz-adv-x="1009" 
d="M16 946q0 26 23.5 37.5t52.5 11.5h195q75 0 75 -49q0 -26 -26 -26q-12 0 -22 -17.5t-7 -40.5q0 -37 21 -98l209 -543l227 594q12 32 12 64q0 41 -47 41q-20 0 -20 26q0 49 71 49h142q65 0 65 -49q0 -26 -26 -26q-23 0 -39 -22.5t-41 -78.5l-312 -729q-18 -42 -27 -60.5
t-24 -34t-33 -15.5t-35 20t-25 38.5t-20 52.5q-3 7 -4 11l-262 670q-34 89 -54.5 118.5t-41.5 29.5q-27 0 -27 26z" />
    <glyph glyph-name="w" unicode="w" horiz-adv-x="1415" 
d="M23 946q0 49 77 49h197q76 0 76 -49q0 -26 -27 -26q-39 0 -39 -58q0 -12 19 -119l102 -518l254 682q18 48 37.5 68t44.5 20q21 0 33 -20.5t32 -79.5l232 -670l115 590q8 32 8 53q0 25 -11.5 38.5t-29.5 13.5q-23 0 -23 26q0 49 74 49h129q68 0 68 -49q0 -26 -27 -26
q-26 0 -46 -22t-34 -79l-174 -729q-14 -58 -34 -84t-52 -26q-35 0 -59.5 30t-49.5 105l-204 610l-240 -635q-24 -63 -48.5 -86.5t-60.5 -23.5q-49 0 -73 122l-144 670q-20 91 -39 119.5t-57 28.5q-26 0 -26 26z" />
    <glyph glyph-name="x" unicode="x" horiz-adv-x="956" 
d="M39 51q0 9 7.5 18t19.5 9q50 0 120 96l228 301l-219 342q-40 62 -63.5 82.5t-51.5 20.5q-27 0 -27 26t23.5 37.5t54.5 11.5h213q76 0 76 -49q0 -26 -31 -26q-27 0 -27 -35q0 -23 27 -72l121 -205l121 205q35 59 35 84q0 10 -7 16.5t-18 6.5q-31 0 -31 26q0 49 78 49h146
q36 0 54.5 -10.5t18.5 -38.5q0 -26 -37 -26q-21 0 -44 -19t-74 -88l-195 -266l240 -373q62 -96 100 -96q29 0 29 -27q0 -51 -78 -51h-213q-14 0 -22.5 1t-22 5t-20.5 15.5t-7 29.5q0 9 7.5 18t21.5 9q31 0 31 37q0 26 -25 69l-135 226l-156 -226q-4 -8 -11.5 -21t-11.5 -20
t-7 -18t-3 -21q0 -26 21 -26q29 0 29 -27t-24 -39t-52 -12h-144q-32 0 -48.5 11t-16.5 40z" />
    <glyph glyph-name="y" unicode="y" horiz-adv-x="987" 
d="M12 946q0 26 23 37.5t53 11.5h193q73 0 73 -49q0 -13 -5.5 -19.5t-22.5 -6.5q-9 0 -15.5 -1.5t-14 -11.5t-7.5 -30q0 -42 28 -113l248 -653l193 704q8 27 8 62q0 43 -41 43q-29 0 -29 26q0 49 74 49h137q17 0 27.5 -1t23 -5t19 -13t6.5 -24q0 -32 -25 -32t-41.5 -17.5
t-37.5 -83.5l-248 -776q-42 -132 -80 -229.5t-82 -177.5t-91 -121t-97 -41q-51 0 -74 26.5t-23 87.5q0 109 80 109q10 0 36 -3t48 -3q50 0 82.5 56t32.5 122q0 59 -45 174l-285 729q-37 95 -54 121.5t-42 26.5t-25 26z" />
    <glyph glyph-name="z" unicode="z" horiz-adv-x="819" 
d="M55 43q0 13 3.5 24t6 16.5t12 20.5t13.5 21l485 786l-262 -10q-42 -2 -69.5 -22.5t-40 -49t-21.5 -57t-21 -48t-30 -19.5q-35 0 -35 147q0 88 13.5 118.5t42.5 30.5q28 0 62 -3t69 -3h413q6 0 16.5 0.5t15.5 0t12.5 -1t11 -2.5t7.5 -5.5t5.5 -9.5t1.5 -14q0 -42 -37 -101
l-477 -768h89q164 0 212 6q55 5 100 45q21 19 41.5 51.5t35.5 52t32 19.5q26 0 26 -30q0 -46 -30 -138q-8 -25 -15.5 -42.5t-16 -28.5t-13 -17.5t-15.5 -9t-15.5 -3t-19 0t-20.5 0.5h-506q-19 0 -30.5 1t-25 5t-20 13t-6.5 24z" />
    <glyph glyph-name="braceleft" unicode="{" horiz-adv-x="698" 
d="M113 573q0 25 4.5 31t19.5 6q51 0 78 19q51 34 72.5 99t19.5 171l-6 281q-3 171 67.5 268.5t196.5 97.5q11 0 16.5 -0.5t13 -7.5t7.5 -20q0 -14 -6 -21.5t-11.5 -9t-17 -2t-12.5 -0.5q-54 -9 -76 -57t-22 -168v-74l6 -293q2 -110 -57 -195t-166 -118v-11
q107 -33 166 -117.5t57 -193.5q-6 -275 -6 -293v-76q0 -121 20.5 -166.5t77.5 -56.5q1 0 12.5 -0.5t17 -2t11.5 -10t6 -22.5q0 -12 -7.5 -18.5t-13 -7t-16.5 -0.5q-126 0 -196.5 96.5t-67.5 269.5l6 281q2 105 -19.5 168.5t-72.5 99.5q-30 21 -78 21q-14 0 -19 5.5t-5 26.5z
" />
    <glyph glyph-name="bar" unicode="|" horiz-adv-x="370" 
d="M135 -444v2086h115v-2086h-115z" />
    <glyph glyph-name="braceright" unicode="}" horiz-adv-x="698" 
d="M123 -369q0 14 6 22.5t11.5 10t17 2t12.5 0.5q57 11 77.5 56.5t20.5 166.5v76l-6 293q-2 109 57 193.5t166 117.5v11q-107 33 -166 118t-57 195q6 275 6 293v74q0 120 -22 168t-76 57q-1 0 -12.5 0.5t-17 2t-11.5 9t-6 21.5q0 13 7.5 20t13 7.5t16.5 0.5
q126 0 196.5 -97.5t67.5 -268.5l-6 -281q-2 -106 19.5 -171t72.5 -99q27 -19 78 -19q15 0 19.5 -6t4.5 -31q0 -21 -5 -26.5t-19 -5.5q-48 0 -78 -21q-51 -36 -72.5 -99.5t-19.5 -168.5l6 -281q3 -173 -67.5 -269.5t-196.5 -96.5q-11 0 -16.5 0.5t-13 7t-7.5 18.5z" />
    <glyph glyph-name="asciitilde" unicode="~" horiz-adv-x="1179" 
d="M100 471q0 5 3 12.5l5 12.5l3 4q119 192 305 192q24 0 45 -3t45 -11t38.5 -14t46 -20.5t46.5 -20.5q17 -7 50.5 -22t52.5 -22.5t47.5 -14.5t54.5 -7q120 0 211 133q5 23 30 23q8 0 16.5 -7t8.5 -16q0 -6 -3 -13t-6 -11l-3 -4q-25 -40 -50.5 -71t-62.5 -63t-85.5 -49.5
t-104.5 -17.5q-29 0 -59.5 6.5t-47.5 12.5t-59 24t-58 24q-23 10 -60.5 27t-52.5 22.5t-39.5 11t-51.5 5.5q-126 0 -211 -123q-6 -22 -31 -22q-8 0 -15.5 6.5t-7.5 15.5z" />
    <glyph glyph-name="uni00A0" unicode="&#xa0;" horiz-adv-x="477" 
 />
    <glyph glyph-name="sterling" unicode="&#xa3;" horiz-adv-x="1179" 
d="M82 113q0 69 48.5 104t115.5 35q52 0 141 -37q12 59 12 117q0 47 -8 108.5t-16.5 106.5t-30.5 149h-211v84h191q-23 165 -23 203q0 210 113 346.5t280 136.5q110 0 189.5 -63t79.5 -143q0 -36 -20.5 -64.5t-61.5 -28.5q-31 0 -51 10t-28 28.5t-10.5 33t-3.5 34.5v5
q-2 56 -32 89.5t-88 33.5q-32 0 -62 -13t-58.5 -42t-45.5 -87t-17 -137q0 -77 8.5 -146t32.5 -196h289v-84h-280q24 -101 24 -262q0 -121 -67 -248q137 -59 214 -83.5t134 -24.5q120 0 196 86l35 -27q-111 -180 -305 -180q-61 0 -138 30t-200 105q-51 -64 -94 -91.5
t-111 -27.5t-104.5 39.5t-36.5 100.5zM174 102q0 -26 21.5 -43.5t46.5 -17.5q33 0 70 24t50 72q-23 16 -58.5 29.5t-57.5 13.5q-31 0 -51.5 -23t-20.5 -55z" />
    <glyph glyph-name="currency" unicode="&#xa4;" horiz-adv-x="1212" 
d="M76 174l164 164q-105 133 -105 293q0 158 105 291l-164 163l67 70l164 -166q133 105 291 105q160 0 293 -105l164 166l69 -70l-166 -163q105 -133 105 -291q0 -160 -105 -293l166 -164l-69 -70l-164 166q-131 -104 -293 -104q-160 0 -291 104l-164 -166zM231 631
q0 -155 108 -266t259 -111t259 111t108 266t-108 265t-259 110t-259 -110t-108 -265z" />
    <glyph glyph-name="section" unicode="&#xa7;" horiz-adv-x="1001" 
d="M106 688q0 102 57 175t163 130q-8 11 -30 41.5t-29.5 42t-22.5 39t-20.5 47.5t-11 51t-5.5 66q0 118 90.5 193t218.5 75q70 0 125 -16t88 -42t54.5 -61t29.5 -68.5t8 -70.5q0 -55 -25.5 -84.5t-64.5 -29.5q-41 0 -67.5 22.5t-26.5 71.5q0 9 6 45.5t6 50.5q0 46 -37 75
t-96 29q-79 0 -127.5 -41.5t-48.5 -109.5q0 -114 129 -232l256 -231q89 -79 129.5 -156t40.5 -170q0 -97 -53 -170t-162 -145q4 -6 24 -32.5t24.5 -32.5t19.5 -28.5t19 -33t13.5 -32t12 -38.5t5.5 -40.5t3 -49.5q0 -120 -90.5 -195t-218.5 -75q-87 0 -150 24t-95 64
t-46.5 82t-14.5 88q0 55 25 85t63 30q42 0 69.5 -21.5t27.5 -70.5q0 -11 -6.5 -48t-6.5 -49q0 -47 37.5 -76.5t96.5 -29.5q79 0 128.5 42.5t49.5 110.5q0 111 -129 228l-297 272q-138 129 -138 299zM244 768q0 -65 21.5 -110.5t90.5 -114.5l265 -267q72 51 103.5 97
t31.5 106q0 53 -28 96.5t-105 120.5l-238 238q-63 -25 -102 -67.5t-39 -98.5z" />
    <glyph glyph-name="dieresis" unicode="&#xa8;" horiz-adv-x="995" 
d="M254 1253q0 44 33.5 76.5t77.5 32.5q43 0 74.5 -32.5t31.5 -76.5q0 -43 -31.5 -74.5t-74.5 -31.5q-44 0 -77.5 31.5t-33.5 74.5zM588 1253q0 44 30.5 76.5t73.5 32.5q46 0 78.5 -32.5t32.5 -76.5q0 -43 -32.5 -74.5t-78.5 -31.5q-43 0 -73.5 31.5t-30.5 74.5z" />
    <glyph glyph-name="copyright" unicode="&#xa9;" horiz-adv-x="1628" 
d="M29 721q0 174 57.5 321t160.5 249t249 159t319 57q236 0 416.5 -104t275.5 -282t95 -400q0 -226 -95 -403.5t-275 -279t-417 -101.5q-172 0 -318.5 57t-249.5 159t-160.5 248t-57.5 320zM100 721q0 -155 55.5 -288.5t151.5 -227t227.5 -146.5t280.5 -53q210 0 373 89.5
t253.5 252.5t90.5 373q0 148 -53 279.5t-146 228t-227.5 153t-290.5 56.5q-199 0 -362 -90.5t-258 -255t-95 -371.5zM414 737q0 132 49.5 239t145.5 171.5t222 64.5q137 0 216 -47q20 -12 31.5 -21t22.5 -30.5t11 -50.5q0 -15 -3 -38t-9.5 -51t-20.5 -47.5t-32 -19.5
t-27.5 12.5t-15.5 43.5q-9 34 -21 53q-24 62 -60.5 94.5t-109.5 32.5q-105 0 -178.5 -103t-73.5 -252q0 -91 17 -164.5t44.5 -120t64 -78.5t72.5 -45t72 -13q139 0 216 104q3 4 10 14.5t11 15.5t9.5 11.5t11 9t11.5 2.5q35 0 35 -35q0 -18 -20 -52t-57.5 -73t-106.5 -67.5
t-152 -28.5q-57 0 -111 16t-104 52t-87.5 89.5t-60 133.5t-22.5 178z" />
    <glyph glyph-name="guillemotleft" unicode="&#xab;" horiz-adv-x="874" 
d="M88 508l432 442l41 -22l-242 -420l242 -402l-41 -16zM451 508l307 360l30 -14l-153 -344l153 -348l-30 -15z" />
    <glyph glyph-name="logicalnot" unicode="&#xac;" horiz-adv-x="1157" 
d="M109 473v90h919v-356h-94v266h-825z" />
    <glyph glyph-name="uni00AD" unicode="&#xad;" horiz-adv-x="815" 
d="M137 465v113h543v-113h-543z" />
    <glyph glyph-name="registered" unicode="&#xae;" horiz-adv-x="1619" 
d="M29 721q0 174 57.5 321t160.5 249t249 159t319 57q236 0 416.5 -104t275.5 -282t95 -400q0 -226 -95 -403.5t-275 -279t-417 -101.5q-172 0 -318.5 57t-249.5 159t-160.5 248t-57.5 320zM100 721q0 -155 55.5 -288.5t151.5 -227t227.5 -146.5t280.5 -53q210 0 373 89.5
t253.5 252.5t90.5 373q0 148 -53 279.5t-146 228t-227.5 153t-290.5 56.5q-199 0 -362 -90.5t-258 -255t-95 -371.5zM494 319q0 16 4.5 22.5t23.5 6.5q27 0 27 51v670q0 47 -27 47q-19 0 -23.5 7t-4.5 26q0 37 59 37h127q26 0 89.5 1t102.5 1q31 0 59.5 -3t70.5 -16.5
t71.5 -36t51.5 -67t22 -104.5q0 -95 -57.5 -171.5t-176.5 -103.5q3 -4 52 -69t79 -111q31 -45 62.5 -78.5t50.5 -46.5t31 -24t12 -21q0 -25 -27.5 -46.5t-78.5 -21.5q-44 0 -88 45t-107 142q-139 208 -147 213q-7 4 -60 10v-279q0 -51 21 -51q22 0 28.5 -7t6.5 -22
q0 -38 -68 -38h-127q-59 0 -59 38zM692 774q0 -9 7 -15t24 -8t28 -2.5t36 -0.5h14q100 0 147 51t47 135q0 90 -46.5 133t-143.5 43h-24.5t-21 0.5t-17.5 0t-15 -1t-11.5 -1.5t-9.5 -3.5t-6.5 -5.5t-4.5 -7t-2 -10t-1 -13v-295z" />
    <glyph glyph-name="degree" unicode="&#xb0;" horiz-adv-x="708" 
d="M59 1194q0 126 88.5 214.5t214.5 88.5t216 -88.5t90 -214.5q0 -127 -90 -216t-216 -89t-214.5 89t-88.5 216zM164 1194q0 -82 58 -140.5t140 -58.5t140.5 58t58.5 141q0 82 -58.5 139.5t-140.5 57.5t-140 -57.5t-58 -139.5z" />
    <glyph glyph-name="plusminus" unicode="&#xb1;" horiz-adv-x="1312" 
d="M162 170v123h993v-123h-993zM162 750v122l432 2v334h123v-334l438 -2v-122h-438v-326h-123v326h-432z" />
    <glyph glyph-name="acute" unicode="&#xb4;" horiz-adv-x="790" 
d="M383 1087l121 246q23 44 40 61t42 17q31 0 56.5 -16t25.5 -56q0 -36 -33 -77l-209 -201z" />
    <glyph glyph-name="mu" unicode="&#xb5;" horiz-adv-x="1132" 
d="M-27 -307q0 33 27.5 121.5t65.5 236t57 301.5l80 643h157l-67 -606q-10 -102 -10 -129q0 -65 37 -110.5t108 -45.5q93 0 150 61.5t71 174.5l82 655h164l-84 -659q-12 -106 -12 -123q0 -44 20.5 -76.5t63.5 -32.5q34 0 62.5 15t47.5 40t32.5 53t24 60t16.5 55q2 9 3 13
l43 -12q-5 -47 -26 -104t-55 -114t-87.5 -95t-114.5 -38q-133 0 -133 162v74h-10q-54 -124 -116 -180t-154 -56q-93 0 -144.5 62t-64.5 199h-10q-22 -99 -35 -207.5t-17 -178.5t-12 -131t-25.5 -89.5t-50.5 -28.5q-40 0 -62 23t-22 67z" />
    <glyph glyph-name="paragraph" unicode="&#xb6;" horiz-adv-x="1048" 
d="M78 1208q-2 116 73.5 195.5t206.5 79.5h607v-84h-172v-1782h-119v1782h-187v-1782h-120v1315q-284 -7 -289 276z" />
    <glyph glyph-name="guillemotright" unicode="&#xbb;" horiz-adv-x="839" 
d="M92 162l154 348l-154 344l31 14l307 -360l-307 -361zM319 106l242 402l-242 420l41 22l433 -442l-433 -418z" />
    <glyph glyph-name="divide" unicode="&#xf7;" horiz-adv-x="1124" 
d="M23 639v84h1079v-84h-1079zM473 367q0 37 25.5 62.5t62.5 25.5t62.5 -25.5t25.5 -62.5q0 -36 -26 -62t-62 -26q-35 0 -61.5 26.5t-26.5 61.5zM473 987q0 37 25.5 62.5t62.5 25.5t62.5 -25.5t25.5 -62.5q0 -35 -25.5 -60.5t-62.5 -25.5t-62.5 25.5t-25.5 60.5z" />
    <glyph glyph-name="uni0401" unicode="&#x401;" horiz-adv-x="1077" 
d="M92 41q0 25 27 25q65 0 65 108v1114q0 105 -65 105q-16 0 -20.5 6.5t-4.5 19.5q0 14 6.5 23t20 12.5t24 4.5t27.5 1h612q12 0 54 3t61 3q41 0 52.5 -28.5t11.5 -89.5q0 -232 -48 -232q-22 0 -35 26.5t-24 71t-20 62.5q-45 92 -197 92h-201q-36 0 -49.5 -12t-13.5 -53
v-502l299 20q100 8 117 8q27 0 40.5 -11.5t16 -24.5t2.5 -35q0 -21 -7.5 -34t-21.5 -18t-24 -6.5t-25 -1.5q-4 0 -170 9l-227 10v-543q0 -48 7 -60t32 -12h188q125 0 176 19q21 8 39.5 18.5t31.5 18t27 22.5t21 21.5t19.5 26t15.5 24t16 28t15 27.5q17 28 24.5 34.5
t22.5 6.5q28 0 28 -41q0 -68 -28 -164q-11 -41 -17.5 -59.5t-17.5 -39t-25.5 -27.5t-36.5 -12t-57 -5h-686q-78 0 -78 41zM291 1634q0 44 31.5 75.5t74.5 31.5t75 -31.5t32 -75.5q0 -43 -32 -74.5t-75 -31.5t-74.5 31.5t-31.5 74.5zM590 1634q0 44 30.5 75.5t73.5 31.5
q44 0 75.5 -31.5t31.5 -75.5q0 -43 -31.5 -74.5t-75.5 -31.5q-43 0 -73.5 31.5t-30.5 74.5z" />
    <glyph glyph-name="uni0402" unicode="&#x402;" horiz-adv-x="1449" 
d="M45 1348q0 26 0.5 38.5t3.5 31t9 27t17.5 15t28.5 6.5q20 0 61.5 -3t53.5 -3h748q14 0 55.5 3t60.5 3q21 0 34 -8t18.5 -27.5t6.5 -35.5t1 -47q0 -232 -47 -232q-22 0 -35 26t-24.5 71t-20.5 63q-45 92 -197 92h-203v-528q50 23 75.5 33.5t90 24t138.5 13.5
q224 0 348.5 -117.5t124.5 -318.5q0 -89 -20 -165t-51.5 -128t-74.5 -93.5t-86 -66t-88 -40t-78.5 -21.5t-60.5 -6q-56 0 -90.5 25.5t-34.5 97.5q0 47 20 70.5t50 23.5q25 0 45.5 -14.5t34 -32.5t36 -32.5t49.5 -14.5q79 0 114.5 88t35.5 272q0 98 -23.5 171t-57 111.5
t-80.5 61.5t-83 29t-76 6q-99 0 -178.5 -33.5t-79.5 -78.5v-533q0 -106 62 -106q19 0 25 -6t6 -19q0 -41 -80 -41h-213q-78 0 -78 41q0 13 5.5 19t21.5 6q63 0 63 106v1196h-61q-152 0 -197 -92q-9 -19 -20 -63t-23.5 -70.5t-34.5 -26.5q-47 0 -47 232z" />
    <glyph glyph-name="uni0403" unicode="&#x403;" horiz-adv-x="950" 
d="M70 1417q0 43 80 43h604q11 0 52 3t60 3q21 0 34 -8t18.5 -27.5t6.5 -35.5t1 -47q0 -232 -45 -232q-22 0 -35 26t-24.5 71t-20.5 63q-45 92 -197 92h-188q-36 0 -50 -12t-14 -53v-1131q0 -106 64 -106q17 0 22.5 -6t5.5 -19q0 -41 -79 -41h-213q-17 0 -28.5 1t-25 4.5
t-20 12.5t-6.5 23t4.5 19.5t23.5 5.5q64 0 64 106v1118q0 54 -14.5 77.5t-51.5 23.5q-13 0 -19.5 4t-7.5 8.5t-1 13.5zM459 1528l108 244q36 77 86 77q32 0 57 -16.5t25 -52.5q0 -39 -33 -80l-208 -201z" />
    <glyph glyph-name="uni0404" unicode="&#x404;" horiz-adv-x="1294" 
d="M98 717q0 158 46 298.5t129 245.5t209.5 166.5t277.5 61.5q209 0 344 -78q26 -15 36 -22t28 -24.5t25 -42t7 -58.5q0 -28 -2 -57.5t-9 -74.5t-25 -73.5t-44 -28.5q-16 0 -25.5 9.5t-13.5 21t-12 39.5q-13 48 -31 96q-41 103 -111.5 152t-209.5 49q-176 0 -302.5 -165
t-129.5 -419l471 12q51 2 69.5 -11.5t18.5 -55.5q0 -60 -74 -60l-483 29q4 -108 23 -197.5t47 -153t66.5 -112.5t79 -79t87.5 -49.5t89.5 -26.5t86.5 -7q69 0 126 15t100 43t70.5 53t57.5 61q45 56 58 65t30 9q33 0 33 -41q0 -21 -19 -59.5t-62 -87.5t-102 -91.5t-152 -72
t-199 -29.5q-95 0 -178.5 21t-164.5 74.5t-138.5 136.5t-92.5 215.5t-35 302.5z" />
    <glyph glyph-name="uni0405" unicode="&#x405;" horiz-adv-x="1126" 
d="M84 223q0 89 22.5 137t63.5 48q17 0 28.5 -19t17.5 -47t23.5 -73t43.5 -83q79 -125 274 -125q141 0 229 79t88 200q0 75 -47.5 134.5t-117.5 100.5q-61 35 -209.5 108t-223.5 122q-174 117 -174 303q0 165 129.5 266t327.5 101q159 0 291 -48q125 -46 125 -149
q0 -78 -24.5 -143.5t-65.5 -65.5q-20 0 -31 19t-21 61t-18 61q-12 32 -24.5 55t-34 46t-49.5 37t-70.5 23t-97.5 9q-110 0 -183 -59.5t-73 -153.5q0 -75 20 -122t94 -95q77 -50 263 -137t262 -151q74 -61 103.5 -125.5t29.5 -153.5q0 -76 -33 -149t-93.5 -133t-157.5 -97
t-214 -37q-95 0 -176 13.5t-149.5 42.5t-108 80t-39.5 120z" />
    <glyph glyph-name="uni0406" unicode="&#x406;" horiz-adv-x="577" 
d="M94 41q0 14 5 19.5t22 5.5q63 0 63 106v1116q0 105 -63 105q-17 0 -22 6.5t-5 19.5q0 14 6.5 23t20 12.5t25 4.5t28.5 1h213q78 0 78 -41q0 -26 -29 -26q-27 0 -44 -21.5t-17 -83.5v-1116q0 -106 61 -106q18 0 23.5 -6t5.5 -19q0 -41 -78 -41h-213q-17 0 -28.5 1t-25 4.5
t-20 12.5t-6.5 23z" />
    <glyph glyph-name="uni0407" unicode="&#x407;" horiz-adv-x="557" 
d="M39 1628q0 44 31.5 76.5t74.5 32.5t75 -32.5t32 -76.5q0 -43 -32 -74.5t-75 -31.5t-74.5 31.5t-31.5 74.5zM94 41q0 14 5 19.5t22 5.5q63 0 63 106v1116q0 105 -63 105q-17 0 -22 6.5t-5 19.5q0 14 6.5 23t20 12.5t25 4.5t28.5 1h213q78 0 78 -41q0 -26 -29 -26
q-27 0 -44 -21.5t-17 -83.5v-1116q0 -106 61 -106q18 0 23.5 -6t5.5 -19q0 -41 -78 -41h-213q-17 0 -28.5 1t-25 4.5t-20 12.5t-6.5 23zM317 1628q0 44 32 76.5t75 32.5t74.5 -32.5t31.5 -76.5q0 -43 -31.5 -74.5t-74.5 -31.5t-75 31.5t-32 74.5z" />
    <glyph glyph-name="uni0408" unicode="&#x408;" horiz-adv-x="675" 
d="M-43 -246q0 61 20 84t56 23q11 0 45 -5.5t57 -5.5q48 0 82.5 52.5t34.5 167.5q0 81 -8 210.5t-8 227.5v780q0 105 -64 105q-18 0 -23.5 6.5t-5.5 19.5q0 18 13.5 27.5t28.5 11.5t40 2h211q17 0 28 -1t24.5 -4.5t20.5 -12.5t7 -23q0 -26 -29 -26q-27 0 -44 -21.5
t-17 -83.5v-844q0 -142 -33 -310.5t-98 -274.5q-54 -85 -130.5 -145t-131.5 -60q-32 0 -54 26t-22 74z" />
    <glyph glyph-name="uni0409" unicode="&#x409;" horiz-adv-x="1970" 
d="M41 111q0 51 20.5 79.5t55.5 28.5q25 0 61.5 -11t59.5 -11q37 0 67.5 40t50.5 107.5t32.5 131t21.5 134.5q30 234 30 508q0 113 -17 173.5t-45.5 79t-78.5 18.5q-33 0 -33 28q0 43 119 43h770q82 0 82 -45q0 -29 -29 -29q-24 0 -42.5 -26t-18.5 -76v-457q88 39 264 39
q117 0 209.5 -24t149.5 -63t94.5 -93t52 -109.5t14.5 -117.5q0 -230 -149.5 -344.5t-417.5 -114.5h-418q-17 0 -28.5 1t-25 4.5t-20 12.5t-6.5 23t5 19.5t22 5.5q65 0 65 106v1124q0 43 -10 53.5t-53 10.5h-266q-46 0 -59.5 -22t-16.5 -89q0 -74 -16 -309q-17 -242 -33 -365
q-46 -313 -137 -471q-78 -131 -207 -131q-49 0 -84 37t-35 101zM1147 176q0 -49 24.5 -62.5t102.5 -13.5h104q344 0 344 351q0 158 -92.5 238.5t-251.5 80.5q-117 0 -174 -17.5t-57 -66.5v-510z" />
    <glyph glyph-name="uni040A" unicode="&#x40a;" horiz-adv-x="2031" 
d="M94 41q0 25 27 25q63 0 63 106v1116q0 105 -65 105q-16 0 -20.5 6.5t-4.5 19.5q0 14 6.5 23t20 12.5t24 4.5t27.5 1h217q78 0 78 -41q0 -26 -29 -26q-63 0 -63 -105v-459h637v459q0 105 -64 105q-13 0 -19 4t-6.5 8t-0.5 14q0 14 6.5 23t19 12.5t24 4.5t29.5 1h207
q82 0 82 -45q0 -29 -28 -29q-23 0 -41.5 -26t-18.5 -76v-457q88 39 262 39q146 0 252 -35.5t163 -96t82.5 -128.5t25.5 -147q0 -230 -150.5 -344.5t-419.5 -114.5h-416q-18 0 -29.5 1t-24 4.5t-19 12.5t-6.5 23q0 10 0.5 14t6.5 7.5t19 3.5q64 0 64 106v565h-637v-565
q0 -106 63 -106q29 0 29 -25q0 -41 -78 -41h-217q-78 0 -78 41zM1202 176q0 -49 24.5 -62.5t102.5 -13.5h105q28 0 53.5 2t62 10.5t66 22.5t61 40.5t53 62.5t35 90.5t13.5 122.5q0 158 -92.5 238.5t-251.5 80.5q-118 0 -175 -17.5t-57 -66.5v-510z" />
    <glyph glyph-name="uni040B" unicode="&#x40b;" horiz-adv-x="1523" 
d="M61 1348q0 25 0.5 38.5t3.5 31t9.5 26.5t18.5 15.5t30 6.5q19 0 60.5 -3t54.5 -3h749q11 0 52.5 3t60.5 3q22 0 35 -8t18.5 -27.5t6.5 -35t1 -47.5q0 -232 -47 -232q-22 0 -34.5 26.5t-23.5 70.5t-20 63q-42 92 -196 92h-205v-514q143 64 291 64q127 0 214.5 -29t139 -88
t74 -140t22.5 -194v-295q0 -35 6 -57.5t16.5 -32.5t19.5 -13t22 -3q28 0 28 -25q0 -41 -79 -41h-213q-78 0 -78 41q0 25 28 25t45 21.5t17 84.5v256q0 96 -14 165.5t-38 113t-64 69.5t-85 35.5t-106 9.5q-96 0 -171 -31t-75 -75v-543q0 -106 63 -106q16 0 21.5 -6t5.5 -19
q0 -41 -78 -41h-213q-80 0 -80 41q0 13 6 19t25 6q61 0 61 106v1196h-59q-154 0 -199 -92q-9 -18 -20 -62.5t-24 -71t-35 -26.5q-48 0 -48 232z" />
    <glyph glyph-name="uni040C" unicode="&#x40c;" horiz-adv-x="1236" 
d="M94 41q0 25 27 25q63 0 63 106v1116q0 105 -65 105q-16 0 -20.5 6.5t-4.5 19.5q0 14 6.5 23t20 12.5t24 4.5t27.5 1h217q78 0 78 -41q0 -26 -29 -26q-63 0 -63 -105v-512q16 7 43 21.5t104.5 68.5t145.5 119q217 207 217 342q0 27 -8 39t-27 18l-9 3t-8 3t-6 2.5t-5.5 3
t-3.5 4t-2.5 6t-0.5 7.5q0 28 21.5 37.5t60.5 9.5h180h11q27 0 39 -1.5t22 -10.5t10 -29q0 -13 -18.5 -34t-58 -61.5t-70.5 -78.5q-207 -262 -402 -418q17 -16 35.5 -40t33.5 -46t43 -64t50 -73q23 -32 113 -162t151 -211q30 -41 63.5 -72t55 -44t35.5 -26t14 -26
q0 -29 -32 -52t-93 -23q-65 0 -110.5 28t-110.5 127q-47 70 -122.5 187.5t-112.5 173.5q-112 168 -143 201q-16 17 -27 24l-78 -37v-520q0 -106 63 -106q18 0 23.5 -6t5.5 -19q0 -41 -78 -41h-217q-78 0 -78 41zM629 1581l108 244q37 78 86 78q32 0 57 -17t25 -53
q0 -39 -33 -80l-208 -201z" />
    <glyph glyph-name="uni040E" unicode="&#x40e;" horiz-adv-x="1216" 
d="M29 1415q0 45 88 45h239q80 0 80 -45q0 -15 -7 -22t-26 -7q-20 0 -28 -10.5t-8 -34.5q0 -33 16 -69l311 -746l267 746q12 50 12 67q0 47 -51 47q-18 0 -25.5 9.5t-7.5 19.5q0 27 21 36t61 9h170q67 0 67 -45q0 -10 -7.5 -19.5t-22.5 -9.5q-47 0 -91 -108l-380 -942
q-78 -195 -138 -275.5t-133 -80.5q-51 0 -85 40.5t-34 110.5q0 48 21.5 71t50.5 23q23 0 55 -11t60 -11q31 0 60.5 32.5t29.5 67.5q0 31 -8 47l-426 928q-26 58 -47.5 83t-51.5 25q-32 0 -32 29zM377 1681q0 80 96 80q46 0 68 -31t22 -67q0 -43 25 -67.5t92 -24.5
q119 0 119 92q0 36 22 67t68 31q96 0 96 -80q0 -50 -30 -87.5t-78 -57t-97.5 -28.5t-99.5 -9q-49 0 -98 9t-97 28.5t-78 57t-30 87.5z" />
    <glyph glyph-name="uni040F" unicode="&#x40f;" horiz-adv-x="1404" 
d="M96 41q0 25 27 25q61 0 61 106v1116q0 105 -63 105q-16 0 -20.5 6.5t-4.5 19.5q0 14 6.5 23t19.5 12.5t24 4.5t28 1h213q80 0 80 -41q0 -26 -31 -26q-61 0 -61 -105v-1124q0 -42 9.5 -52t51.5 -10h496q43 0 53 9.5t10 52.5v1124q0 62 -18 83.5t-47 21.5q-16 0 -20.5 6.5
t-4.5 19.5q0 14 6.5 23t19.5 12.5t24 4.5t28 1h213q80 0 80 -41q0 -26 -29 -26q-63 0 -63 -105v-1116q0 -106 63 -106q29 0 29 -25q0 -14 -6.5 -23t-20.5 -12.5t-26 -4.5t-31 -1h-338q-76 0 -99.5 -13.5t-23.5 -68.5q0 -29 13.5 -85t13.5 -81q0 -29 -19 -56.5t-57 -27.5
q-33 0 -51.5 28.5t-18.5 55.5q0 25 12.5 81t12.5 85q0 56 -21 69t-100 13h-338q-19 0 -30.5 1t-25 4.5t-20 12.5t-6.5 23z" />
    <glyph glyph-name="uni0410" unicode="&#x410;" horiz-adv-x="1318" 
d="M27 41q0 25 28 25q59 0 101 118l383 1098q28 84 -21 98q-33 13 -33 35q0 45 84 45h156q15 0 26 -3t19.5 -6t16.5 -13t12.5 -16.5t11 -25.5t10 -29.5t12 -39t13.5 -45.5l332 -1098q21 -68 38 -91t44 -23q19 0 24.5 -5.5t5.5 -17.5q0 -27 -18 -37t-53 -10h-261
q-86 0 -86 47q0 23 33 23q32 0 53 13.5t21 41.5q0 21 -12 63l-101 353h-475l-115 -353q-12 -40 -12 -63q0 -59 45 -59q37 0 37 -25q0 -41 -70 -41h-172q-77 0 -77 41zM422 635h418l-191 686z" />
    <glyph glyph-name="uni0411" unicode="&#x411;" horiz-adv-x="1218" 
d="M94 1417q0 43 78 43h674q14 0 56 3t61 3q17 0 28.5 -6.5t17.5 -15t9 -27t3.5 -31t0.5 -38.5q0 -232 -47 -232q-22 0 -36.5 26t-28 71.5t-21.5 62.5q-45 92 -197 92h-256q-35 0 -48 -12t-13 -53v-476q42 19 120 29t142 10q117 0 209 -24t150 -63t96 -93t53.5 -109.5
t15.5 -117.5q0 -216 -150 -337.5t-419 -121.5h-418q-17 0 -28 1t-24 4.5t-19.5 12.5t-6.5 23t4.5 19.5t20.5 5.5q63 0 63 106v1116q0 66 -12 84.5t-53 18.5q-16 0 -20.5 6.5t-4.5 19.5zM375 176q0 -49 25.5 -62.5t103.5 -13.5h104q23 0 46 2t58.5 10.5t66.5 22.5t64 40.5
t56 62t38 91t15 122.5q0 319 -344 319q-117 0 -175 -17.5t-58 -66.5v-510z" />
    <glyph glyph-name="uni0412" unicode="&#x412;" horiz-adv-x="1239" 
d="M94 41q0 14 4.5 19.5t20.5 5.5q65 0 65 106v1116q0 105 -65 105q-16 0 -20.5 6.5t-4.5 19.5q0 14 6.5 23t20 12.5t24 4.5t27.5 1h473q447 0 447 -307q0 -147 -81 -241.5t-218 -129.5v-8q100 -12 174 -47.5t114.5 -86.5t59 -105.5t18.5 -114.5q0 -108 -43 -190.5
t-117 -131.5t-165.5 -73.5t-196.5 -24.5h-465q-17 0 -27.5 1t-24 4.5t-20 12.5t-6.5 23zM373 176q0 -49 25.5 -62.5t103.5 -13.5h125q39 0 77.5 6.5t84.5 28.5t80.5 56.5t57.5 96t23 142.5q0 289 -375 289h-202v-543zM373 807h180q91 0 159.5 25t106.5 67t56 88.5t18 97.5
q0 56 -10.5 100.5t-26 74t-42.5 50.5t-52 32t-62 17t-64.5 7.5t-68.5 1.5h-36.5h-33.5t-28.5 -0.5t-26 -2t-20.5 -4.5t-18 -7.5t-13 -11.5t-10.5 -16.5t-5 -21.5t-2.5 -28v-469z" />
    <glyph glyph-name="uni0413" unicode="&#x413;" horiz-adv-x="950" 
d="M70 1417q0 43 80 43h604q11 0 52 3t60 3q21 0 34 -8t18.5 -27.5t6.5 -35.5t1 -47q0 -232 -45 -232q-22 0 -35 26t-24.5 71t-20.5 63q-45 92 -197 92h-188q-36 0 -50 -12t-14 -53v-1131q0 -106 64 -106q17 0 22.5 -6t5.5 -19q0 -41 -79 -41h-213q-17 0 -28.5 1t-25 4.5
t-20 12.5t-6.5 23t4.5 19.5t23.5 5.5q64 0 64 106v1118q0 54 -14.5 77.5t-51.5 23.5q-13 0 -19.5 4t-7.5 8.5t-1 13.5z" />
    <glyph glyph-name="uni0414" unicode="&#x414;" horiz-adv-x="1386" 
d="M45 51q0 11 3 19.5t9.5 13.5t12 8.5t16 4.5t15.5 1.5t16.5 0t13.5 -0.5q47 0 94 53.5t80 133.5q57 142 92 375.5t35 457.5q0 114 -16.5 174t-45 78.5t-79.5 18.5q-31 0 -31 28q0 43 115 43h792q82 0 82 -45q0 -29 -30 -29q-22 0 -41 -26.5t-19 -75.5v-1112q0 -38 19 -57
t82 -19h18.5t15.5 -2t15 -6.5t8 -13.5t4 -23q0 -325 -70 -325q-19 0 -30.5 35.5t-21 87.5t-17.5 71q-12 28 -32 45t-53 24.5t-59.5 9t-74.5 1.5h-613h-32t-34.5 -4.5t-40 -12.5t-32 -26.5t-27.5 -44.5q-6 -15 -18 -70.5t-26.5 -91t-35.5 -35.5q-59 0 -59 336zM332 102h637
v1194q0 43 -10.5 53.5t-51.5 10.5h-286q-46 0 -59.5 -22t-16.5 -89q0 -5 -2 -85t-6 -165.5t-20.5 -222.5t-43.5 -264q-60 -289 -141 -410z" />
    <glyph glyph-name="uni0415" unicode="&#x415;" horiz-adv-x="1077" 
d="M92 41q0 25 27 25q65 0 65 108v1114q0 105 -65 105q-16 0 -20.5 6.5t-4.5 19.5q0 14 6.5 23t20 12.5t24 4.5t27.5 1h612q12 0 54 3t61 3q41 0 52.5 -28.5t11.5 -89.5q0 -232 -48 -232q-22 0 -35 26.5t-24 71t-20 62.5q-45 92 -197 92h-201q-36 0 -49.5 -12t-13.5 -53
v-502l299 20q100 8 117 8q27 0 40.5 -11.5t16 -24.5t2.5 -35q0 -21 -7.5 -34t-21.5 -18t-24 -6.5t-25 -1.5q-4 0 -170 9l-227 10v-543q0 -48 7 -60t32 -12h188q125 0 176 19q21 8 39.5 18.5t31.5 18t27 22.5t21 21.5t19.5 26t15.5 24t16 28t15 27.5q17 28 24.5 34.5
t22.5 6.5q28 0 28 -41q0 -68 -28 -164q-11 -41 -17.5 -59.5t-17.5 -39t-25.5 -27.5t-36.5 -12t-57 -5h-686q-78 0 -78 41z" />
    <glyph glyph-name="uni0416" unicode="&#x416;" horiz-adv-x="1830" 
d="M20 63q0 19 20.5 34t63 48.5t80.5 85.5q47 63 95.5 130.5t99.5 141.5t70 101q27 37 63 91.5t57.5 83t42.5 48.5q-83 65 -159 150t-224 268q-31 39 -70 79.5t-57 61t-18 33.5q0 12 4 20t8 12.5t16 6.5t18.5 2h24.5h11h180q39 0 60.5 -9.5t21.5 -37.5q0 -4 -0.5 -7t-1.5 -5
t-3.5 -4t-3.5 -3t-5 -2.5t-6.5 -2.5t-8 -2.5t-8.5 -2.5q-19 -6 -27 -18.5t-8 -38.5q0 -58 41.5 -134t167.5 -208q65 -68 131.5 -121t100.5 -72l34 -20v516q0 105 -65 105q-17 0 -22 6.5t-5 19.5q0 14 6.5 23t20 12.5t25 4.5t28.5 1h213q78 0 78 -41q0 -26 -27 -26
q-29 0 -46 -21.5t-17 -83.5v-516q13 7 37 21.5t94 69t135 122.5q126 132 167.5 208t41.5 134q0 27 -9 39t-30 18q-3 1 -9 3.5t-8.5 3.5t-6.5 3t-5.5 4.5t-2.5 6t-1 8.5q0 28 21 37.5t59 9.5h183h11q20 0 29 -0.5t20 -4t15 -12.5t4 -24q0 -13 -18 -33.5t-58 -61.5t-71 -79
q-145 -181 -221 -266.5t-158 -151.5q17 -16 35.5 -40t33.5 -46t43 -64t50 -73q8 -12 104 -150.5t158 -222.5q39 -52 82.5 -86.5t64.5 -49.5t21 -32q0 -27 -32.5 -51t-92.5 -24q-63 0 -108.5 28.5t-110.5 126.5q-53 82 -238 361q-114 170 -144 203q-14 16 -24 22l-61 -37
v-506q0 -104 65 -104q14 0 21.5 -7.5t7.5 -17.5q0 -28 -23 -42.5t-59 -14.5h-213q-36 0 -60 14.5t-24 42.5q0 25 31 25q13 0 22.5 3.5t20.5 13t16.5 32t5.5 55.5v506q-32 19 -61 37q-39 -22 -172 -225q-47 -70 -121 -187t-112 -174q-65 -99 -111 -127t-111 -28q-59 0 -91 24
t-32 51z" />
    <glyph glyph-name="uni0417" unicode="&#x417;" horiz-adv-x="1144" 
d="M92 223q0 89 22.5 137t65.5 48q17 0 27.5 -19t17 -47t23.5 -73t43 -83q83 -125 266 -125q44 0 84.5 10t80 35t68.5 63t46.5 98t17.5 136q0 143 -82.5 223.5t-222.5 80.5q-64 0 -119.5 -12.5t-79.5 -12.5q-35 0 -35 72q0 24 11.5 36.5t25 14.5t37.5 2q27 0 70.5 -1
t66.5 -1q137 0 214 85.5t77 227.5q0 147 -60.5 214t-195.5 67q-58 0 -107.5 -19t-81.5 -49.5t-51 -57.5t-30 -54q-6 -15 -16.5 -49t-17.5 -52t-22.5 -34.5t-35.5 -16.5q-32 0 -42 51.5t-10 132.5q0 43 8.5 73.5t26 48.5t32.5 27t38 17q196 72 362 72q199 0 306.5 -78
t107.5 -256q0 -132 -87.5 -235t-223.5 -144v-10q176 -26 266 -123.5t90 -220.5q0 -207 -144.5 -331t-371.5 -124q-196 0 -330.5 71t-134.5 185z" />
    <glyph glyph-name="uni0418" unicode="&#x418;" horiz-adv-x="1388" 
d="M94 41q0 14 5 19.5t22 5.5q63 0 63 106v1116q0 105 -63 105q-17 0 -22 6.5t-5 19.5q0 14 6.5 23t20 12.5t25 4.5t28.5 1h213q80 0 80 -41q0 -26 -31 -26q-61 0 -61 -105v-977l657 1006v12q0 30 -14 47t-31 17t-21.5 6.5t-4.5 19.5q0 14 6.5 23t19.5 12.5t24.5 4.5t28.5 1
h195q78 0 78 -41q0 -26 -27 -26q-29 0 -46 -21.5t-17 -83.5v-1116q0 -62 17.5 -84t45.5 -22q16 0 21.5 -6t5.5 -19q0 -41 -78 -41h-215q-17 0 -28.5 1t-25 4.5t-20 12.5t-6.5 23t5 19.5t22 5.5q65 0 65 106v981l-657 -1006v-14q0 -36 18 -51.5t43 -15.5q19 0 25 -6t6 -19
q0 -41 -80 -41h-213q-17 0 -28.5 1t-25 4.5t-20 12.5t-6.5 23z" />
    <glyph glyph-name="uni0419" unicode="&#x419;" horiz-adv-x="1388" 
d="M94 41q0 14 5 19.5t22 5.5q63 0 63 106v1116q0 105 -63 105q-17 0 -22 6.5t-5 19.5q0 14 6.5 23t20 12.5t25 4.5t28.5 1h213q80 0 80 -41q0 -26 -31 -26q-61 0 -61 -105v-977l657 1006v12q0 30 -14 47t-31 17t-21.5 6.5t-4.5 19.5q0 14 6.5 23t19.5 12.5t24.5 4.5t28.5 1
h195q78 0 78 -41q0 -26 -27 -26q-29 0 -46 -21.5t-17 -83.5v-1116q0 -62 17.5 -84t45.5 -22q16 0 21.5 -6t5.5 -19q0 -41 -78 -41h-215q-17 0 -28.5 1t-25 4.5t-20 12.5t-6.5 23t5 19.5t22 5.5q65 0 65 106v981l-657 -1006v-14q0 -36 18 -51.5t43 -15.5q19 0 25 -6t6 -19
q0 -41 -80 -41h-213q-17 0 -28.5 1t-25 4.5t-20 12.5t-6.5 23zM416 1681q0 80 96 80q46 0 68 -31t22 -67q0 -43 25 -67.5t92 -24.5q119 0 119 92q0 36 22 67t68 31q96 0 96 -80q0 -50 -30 -87.5t-78 -57t-97.5 -28.5t-99.5 -9q-49 0 -98 9t-97 28.5t-78 57t-30 87.5z" />
    <glyph glyph-name="uni041A" unicode="&#x41a;" horiz-adv-x="1236" 
d="M94 41q0 25 27 25q63 0 63 106v1116q0 105 -65 105q-16 0 -20.5 6.5t-4.5 19.5q0 14 6.5 23t20 12.5t24 4.5t27.5 1h217q78 0 78 -41q0 -26 -29 -26q-63 0 -63 -105v-512q16 7 43 21.5t104.5 68.5t145.5 119q217 207 217 342q0 27 -8 39t-27 18l-9 3t-8 3t-6 2.5t-5.5 3
t-3.5 4t-2.5 6t-0.5 7.5q0 28 21.5 37.5t60.5 9.5h180h11q27 0 39 -1.5t22 -10.5t10 -29q0 -13 -18.5 -34t-58 -61.5t-70.5 -78.5q-207 -262 -402 -418q17 -16 35.5 -40t33.5 -46t43 -64t50 -73q23 -32 113 -162t151 -211q30 -41 63.5 -72t55 -44t35.5 -26t14 -26
q0 -29 -32 -52t-93 -23q-65 0 -110.5 28t-110.5 127q-47 70 -122.5 187.5t-112.5 173.5q-112 168 -143 201q-16 17 -27 24l-78 -37v-520q0 -106 63 -106q18 0 23.5 -6t5.5 -19q0 -41 -78 -41h-217q-78 0 -78 41z" />
    <glyph glyph-name="uni041B" unicode="&#x41b;" horiz-adv-x="1308" 
d="M35 111q0 51 20.5 79.5t55.5 28.5q25 0 61 -11t59 -11q37 0 67.5 40t50.5 107.5t32.5 131t21.5 134.5q31 263 31 508q0 114 -16.5 174t-45 78.5t-79.5 18.5q-31 0 -31 28q0 43 115 43h774q82 0 82 -45q0 -29 -29 -29q-25 0 -44 -26t-19 -76v-1112q0 -106 65 -106
q16 0 21.5 -6t5.5 -19q0 -41 -78 -41h-215q-17 0 -28.5 1t-25 4.5t-20 12.5t-6.5 23t4.5 19.5t20.5 5.5q67 0 67 106v1124q0 43 -10 53.5t-53 10.5h-266q-46 0 -59.5 -22t-16.5 -89q-1 -9 -3.5 -54.5t-7 -118t-8.5 -136.5q-22 -314 -30 -365q-46 -310 -138 -471
q-78 -131 -206 -131q-49 0 -84 37t-35 101z" />
    <glyph glyph-name="uni041C" unicode="&#x41c;" horiz-adv-x="1693" 
d="M82 41q0 25 29 25q27 0 45 29t18 91v1102q0 62 -18 83.5t-47 21.5q-25 0 -25 26q0 14 6.5 23t19.5 12.5t24 4.5t28 1h200q25 0 44.5 -17t26.5 -35l7 -17l420 -1123l430 1145q16 47 76 47h178q80 0 80 -41q0 -26 -29 -26q-22 0 -41.5 -30.5t-19.5 -78.5v-1112
q0 -106 61 -106q18 0 23.5 -6t5.5 -19q0 -41 -80 -41h-213q-17 0 -28 1t-24 4.5t-19.5 12.5t-6.5 23t5 19.5t22 5.5q63 0 63 106v1077h-14l-446 -1167q-22 -59 -40 -80.5t-46 -21.5q-24 0 -39.5 20t-30.5 61l-440 1188h-17l15 -1063q3 -120 61 -120q12 0 20.5 -7.5
t8.5 -17.5q0 -18 -11.5 -27.5t-25.5 -11.5t-39 -2h-137q-80 0 -80 41z" />
    <glyph glyph-name="uni041D" unicode="&#x41d;" horiz-adv-x="1370" 
d="M96 41q0 25 27 25q61 0 61 106v1116q0 105 -63 105q-16 0 -20.5 6.5t-4.5 19.5q0 14 6.5 23t19.5 12.5t24 4.5t28 1h213q80 0 80 -41q0 -26 -31 -26q-61 0 -61 -105v-459h637v459q0 105 -66 105q-12 0 -17.5 4t-6 8t-0.5 14q0 14 6.5 23t19 12.5t23.5 4.5t28 1h215
q78 0 78 -41q0 -9 -1 -13.5t-7 -8.5t-18 -4q-64 0 -64 -105v-1116q0 -106 64 -106q26 0 26 -25q0 -41 -78 -41h-215q-77 0 -77 41q0 25 26 25q64 0 64 106v565h-637v-565q0 -106 61 -106q31 0 31 -25q0 -41 -80 -41h-213q-78 0 -78 41z" />
    <glyph glyph-name="uni041E" unicode="&#x41e;" horiz-adv-x="1417" 
d="M88 690q0 191 49.5 344t137.5 252t206.5 151t257.5 52q275 0 441 -194t166 -521q0 -180 -49.5 -332t-136 -255.5t-205.5 -161.5t-255 -58q-130 0 -240.5 46.5t-193.5 135t-130.5 227.5t-47.5 314zM299 784q0 -357 102.5 -540t331.5 -183q64 0 121 20.5t109 67t89 115.5
t59 173.5t22 234.5q0 174 -23 304.5t-72.5 226.5t-133 145t-199.5 49q-192 0 -299 -148.5t-107 -464.5z" />
    <glyph glyph-name="uni041F" unicode="&#x41f;" horiz-adv-x="1345" 
d="M90 1415q0 45 88 45h1010q88 0 88 -45q0 -29 -31 -29q-23 0 -42 -26t-19 -76v-1112q0 -106 63 -106q18 0 23.5 -6t5.5 -19q0 -41 -80 -41h-213q-17 0 -28.5 1t-25 4.5t-20 12.5t-6.5 23t5 19.5t22 5.5q65 0 65 106v1124q0 43 -10 53.5t-53 10.5h-496q-41 0 -51 -10.5
t-10 -53.5v-1124q0 -106 61 -106q19 0 25 -6t6 -19q0 -41 -80 -41h-213q-17 0 -28.5 1t-25 4.5t-20 12.5t-6.5 23t5 19.5t22 5.5q63 0 63 106v1112q0 46 -20 74t-43 28q-31 0 -31 29z" />
    <glyph glyph-name="uni0420" unicode="&#x420;" horiz-adv-x="1165" 
d="M94 41q0 13 5.5 19t21.5 6q63 0 63 106v1116q0 34 -5.5 56.5t-16.5 32.5t-20.5 13t-22.5 3q-16 0 -20.5 6.5t-4.5 19.5q0 14 6.5 23t19 12.5t23.5 4.5t27 1h502q66 0 127.5 -9.5t127.5 -36t114 -67.5t79 -110t31 -158q0 -111 -38.5 -198.5t-95.5 -138t-130.5 -83.5
t-135 -44t-118.5 -11q-178 0 -258 35v-467q0 -106 63 -106q18 0 23.5 -6t5.5 -19q0 -41 -78 -41h-217q-78 0 -78 41zM375 819q0 -64 58 -92.5t171 -28.5q58 0 107 10t93.5 34.5t75.5 62t49.5 96.5t18.5 135q0 77 -19 136t-51 96t-79 59.5t-96.5 31.5t-110.5 9
q-141 0 -179 -13.5t-38 -80.5v-455z" />
    <glyph glyph-name="uni0421" unicode="&#x421;" horiz-adv-x="1273" 
d="M98 717q0 168 45.5 310t129.5 244.5t209 160t278 57.5q178 0 323 -78q4 -3 16 -10.5t17 -11t15.5 -12t15.5 -15t12 -17.5t10.5 -22t6 -26t2.5 -33q0 -28 -2 -57.5t-9 -74.5t-24 -73.5t-43 -28.5q-14 0 -23 8t-13.5 19.5t-11.5 32.5q-1 3 -1.5 5.5t-1.5 4.5q-31 95 -31 96
q-41 101 -109.5 151t-191.5 50q-192 0 -312 -154.5t-120 -439.5q0 -156 26.5 -279.5t70 -201t102 -128.5t117.5 -71.5t122 -20.5q233 0 369 174q5 6 12 14.5t10.5 13t8.5 10.5l7.5 9t6.5 7t6 5.5t5.5 3.5t6 3t6 1.5t6.5 0.5q41 0 41 -43q0 -61 -125 -180
q-168 -154 -397 -154q-91 0 -173.5 24.5t-159 81.5t-132.5 141.5t-89.5 213.5t-33.5 289z" />
    <glyph glyph-name="uni0422" unicode="&#x422;" horiz-adv-x="1171" 
d="M47 1348q0 26 0.5 38.5t3.5 31t9 27t17.5 15t28.5 6.5q20 0 61.5 -3t53.5 -3h731q11 0 52.5 3t60.5 3q22 0 35 -8t18.5 -27.5t6.5 -35t1 -47.5q0 -232 -47 -232q-22 0 -34.5 26.5t-23.5 70.5t-20 63q-45 92 -198 92h-123v-1196q0 -106 65 -106q16 0 21.5 -6t5.5 -19
q0 -41 -78 -41h-217q-78 0 -78 41q0 13 5.5 19t23.5 6q64 0 64 106v1196h-123q-152 0 -197 -92q-9 -19 -20 -63t-23.5 -70.5t-34.5 -26.5q-47 0 -47 232z" />
    <glyph glyph-name="uni0423" unicode="&#x423;" horiz-adv-x="1216" 
d="M29 1415q0 45 88 45h239q80 0 80 -45q0 -15 -7 -22t-26 -7q-20 0 -28 -10.5t-8 -34.5q0 -33 16 -69l311 -746l267 746q12 50 12 67q0 47 -51 47q-18 0 -25.5 9.5t-7.5 19.5q0 27 21 36t61 9h170q67 0 67 -45q0 -10 -7.5 -19.5t-22.5 -9.5q-47 0 -91 -108l-380 -942
q-78 -195 -138 -275.5t-133 -80.5q-51 0 -85 40.5t-34 110.5q0 48 21.5 71t50.5 23q23 0 55 -11t60 -11q31 0 60.5 32.5t29.5 67.5q0 31 -8 47l-426 928q-26 58 -47.5 83t-51.5 25q-32 0 -32 29z" />
    <glyph glyph-name="uni0424" unicode="&#x424;" horiz-adv-x="1613" 
d="M80 735q0 128 48 228.5t131 162t188 92.5t225 31h51v51q0 103 -61 103q-17 0 -22 6t-5 18q0 17 13 26.5t27 11t38 1.5h205q75 0 75 -39q0 -12 -5.5 -18t-22.5 -6q-60 0 -60 -103v-51h53q96 0 181 -17.5t161 -57t130.5 -98t86 -146t31.5 -195.5q0 -112 -37.5 -208.5
t-113 -174.5t-202 -123t-290.5 -45v-61q0 -103 60 -103q18 0 23 -5.5t5 -18.5q0 -39 -75 -39h-205q-24 0 -38 1.5t-27 11t-13 26.5q0 13 5 18.5t22 5.5q61 0 61 103v61q-643 0 -643 551zM274 717q0 -67 11 -126.5t42 -121.5t79 -106.5t129.5 -72.5t187.5 -28v909h-41
q-113 0 -193.5 -32t-127 -93.5t-67 -142t-20.5 -186.5zM905 262q106 0 187.5 28t129.5 72.5t79 106.5t42 121.5t11 126.5q0 106 -20.5 186.5t-67 142t-127 93.5t-193.5 32h-41v-909z" />
    <glyph glyph-name="uni0425" unicode="&#x425;" horiz-adv-x="1226" 
d="M41 41q0 11 8 18t19 7q36 0 78.5 38t70.5 82l334 516l-334 578q-41 72 -62 91q-25 22 -53 22q-17 0 -21.5 6.5t-4.5 19.5q0 14 6.5 23t20 12.5t25 4.5t28.5 1h266q78 0 78 -41q0 -26 -29 -26q-8 0 -16.5 -3t-17.5 -16.5t-9 -34.5q0 -19 23 -67l215 -402l225 402
q27 49 27 67q0 30 -12.5 42t-26.5 12q-31 0 -31 26q0 41 100 41h144q17 0 28.5 -1t24.5 -4.5t19.5 -12.5t6.5 -23q0 -9 -1 -13.5t-7 -8.5t-18 -4q-23 0 -44 -15t-34.5 -33.5t-34.5 -51.5q-5 -9 -8 -13l-307 -496l340 -594q23 -39 36.5 -60t38.5 -42.5t50 -21.5q26 0 26 -25
q0 -14 -6.5 -23t-20 -12.5t-25 -4.5t-28.5 -1h-258q-79 0 -79 41q0 25 28 25q11 0 17.5 1.5t14 12t7.5 31.5q0 33 -24 79l-232 435l-254 -435q-24 -55 -24 -71q0 -53 38 -53q17 0 22 -5.5t5 -19.5q0 -41 -98 -41h-170q-17 0 -28.5 1t-25 4.5t-20 12.5t-6.5 23z" />
    <glyph glyph-name="uni0426" unicode="&#x426;" horiz-adv-x="1454" 
d="M94 41q0 25 29 25q61 0 61 106v1116q0 105 -63 105q-17 0 -22 6.5t-5 19.5q0 14 6.5 23t20 12.5t25 4.5t28.5 1h213q80 0 80 -41q0 -26 -31 -26q-61 0 -61 -105v-1124q0 -42 9.5 -52t51.5 -10h496q43 0 53 9.5t10 52.5v1124q0 105 -65 105q-17 0 -22 6.5t-5 19.5
q0 14 6.5 23t20 12.5t25 4.5t28.5 1h213q80 0 80 -41q0 -26 -29 -26q-63 0 -63 -105v-1102q0 -59 16.5 -73.5t63.5 -14.5q20 0 31.5 -1.5t23.5 -12.5t12 -33q0 -33 -2.5 -76t-9.5 -107.5t-24 -107.5t-42 -43q-20 0 -30.5 40.5t-18.5 96t-16 74.5q-22 46 -56.5 59t-142.5 13
h-811q-19 0 -31 1t-26 4.5t-20.5 12.5t-6.5 23z" />
    <glyph glyph-name="uni0427" unicode="&#x427;" horiz-adv-x="1286" 
d="M94 1419q0 14 6.5 23t20 12.5t24 4.5t27.5 1h217q78 0 78 -41q0 -26 -29 -26q-63 0 -63 -105v-354q0 -248 252 -248q95 0 188.5 36t128.5 87v479q0 105 -65 105q-17 0 -22 6.5t-5 19.5q0 14 6.5 23t20 12.5t24 4.5t27.5 1h217q78 0 78 -41q0 -26 -27 -26q-29 0 -47 -21.5
t-18 -83.5v-1116q0 -106 65 -106q27 0 27 -25q0 -41 -78 -41h-219q-76 0 -76 41q0 25 29 25q63 0 63 106v522q-7 -5 -19.5 -12.5t-52.5 -27.5t-82 -35.5t-104.5 -28t-122.5 -12.5q-379 0 -379 362v348q0 105 -65 105q-16 0 -20.5 6.5t-4.5 19.5z" />
    <glyph glyph-name="uni0428" unicode="&#x428;" horiz-adv-x="1970" 
d="M94 41q0 25 29 25q61 0 61 106v1116q0 105 -63 105q-17 0 -22 6.5t-5 19.5q0 14 6.5 23t20 12.5t25 4.5t28.5 1h213q80 0 80 -41q0 -26 -31 -26q-61 0 -61 -105v-1124q0 -42 9.5 -52t51.5 -10h406q43 0 53 9.5t10 52.5v1124q0 62 -18 83.5t-47 21.5q-16 0 -20.5 6.5
t-4.5 19.5q0 14 6.5 23t19.5 12.5t24 4.5t28 1h213q80 0 80 -41q0 -26 -29 -26q-63 0 -63 -105v-1124q0 -43 10 -52.5t53 -9.5h404q43 0 53 9.5t10 52.5v1124q0 105 -65 105q-16 0 -20.5 6.5t-4.5 19.5q0 14 6.5 23t20 12.5t24 4.5t27.5 1h215q78 0 78 -41q0 -13 -5 -19.5
t-22 -6.5q-63 0 -63 -105v-1116q0 -106 63 -106q27 0 27 -25q0 -41 -82 -41h-1649q-80 0 -80 41z" />
    <glyph glyph-name="uni0429" unicode="&#x429;" horiz-adv-x="2027" 
d="M94 41q0 25 29 25q61 0 61 106v1116q0 105 -63 105q-17 0 -22 6.5t-5 19.5q0 14 6.5 23t20 12.5t25 4.5t28.5 1h213q80 0 80 -41q0 -26 -31 -26q-61 0 -61 -105v-1124q0 -42 9.5 -52t51.5 -10h406q43 0 53 9.5t10 52.5v1124q0 62 -18 83.5t-47 21.5q-16 0 -20.5 6.5
t-4.5 19.5q0 14 6.5 23t19.5 12.5t24 4.5t28 1h213q80 0 80 -41q0 -26 -29 -26q-63 0 -63 -105v-1124q0 -43 10 -52.5t53 -9.5h404q43 0 53 9.5t10 52.5v1124q0 50 -20 77.5t-45 27.5q-16 0 -20.5 6.5t-4.5 19.5q0 14 6.5 23t20 12.5t24 4.5t27.5 1h215q78 0 78 -41
q0 -13 -5 -19.5t-22 -6.5q-63 0 -63 -105v-1102q0 -59 16 -73.5t65 -14.5q14 0 22 -1t19.5 -5t17 -14t5.5 -27q0 -32 -2.5 -76t-9 -108t-22.5 -107t-40 -43q-21 0 -31.5 40.5t-18.5 96t-17 74.5q-22 46 -57 59t-144 13h-1444q-80 0 -80 41z" />
    <glyph glyph-name="uni042A" unicode="&#x42a;" horiz-adv-x="1476" 
d="M47 1348q0 26 0.5 38.5t3.5 31t9 27t17.5 15t28.5 6.5q20 0 61.5 -3t53.5 -3h438q25 0 39.5 -2t26.5 -11.5t12 -27.5q0 -26 -28 -26q-29 0 -46.5 -21.5t-17.5 -83.5v-461q43 19 121.5 29t142.5 10q116 0 208 -24t150 -63t96 -93t53.5 -109.5t15.5 -117.5
q0 -216 -150.5 -337.5t-419.5 -121.5h-418q-17 0 -28.5 1t-24.5 4.5t-19.5 12.5t-6.5 23q0 10 1 14t7 7.5t18 3.5q66 0 66 106v1196h-88q-152 0 -197 -92q-9 -19 -20 -63t-23.5 -70.5t-34.5 -26.5q-47 0 -47 232zM645 176q0 -49 26 -62.5t103 -13.5h107q22 0 45 2t58.5 10.5
t66 22.5t63.5 40.5t56 62t38 91t15 122.5q0 160 -87.5 239.5t-254.5 79.5q-119 0 -177.5 -17.5t-58.5 -66.5v-510z" />
    <glyph glyph-name="uni042B" unicode="&#x42b;" horiz-adv-x="1722" 
d="M96 41q0 14 4.5 19.5t20.5 5.5q63 0 63 106v1116q0 105 -63 105q-16 0 -20.5 6.5t-4.5 19.5q0 14 6.5 23t19.5 12.5t24 4.5t28 1h213q80 0 80 -41q0 -26 -31 -26q-61 0 -61 -105v-461q42 19 120 29t142 10q117 0 209 -24t150 -63t96 -93t53.5 -109.5t15.5 -117.5
q0 -216 -150 -337.5t-419 -121.5h-418q-17 0 -28 1t-24 4.5t-19.5 12.5t-6.5 23zM375 176q0 -49 25.5 -62.5t103.5 -13.5h104q23 0 46 2t58.5 10.5t66.5 22.5t64 40.5t56 62t38 91t15 122.5q0 319 -344 319q-117 0 -175 -17.5t-58 -66.5v-510zM1282 41q0 14 5 19.5t22 5.5
q63 0 63 106v1116q0 105 -63 105q-17 0 -22 6.5t-5 19.5q0 14 6.5 23t20 12.5t25 4.5t28.5 1h213q78 0 78 -41q0 -26 -29 -26q-27 0 -44 -21.5t-17 -83.5v-1116q0 -106 61 -106q18 0 23.5 -6t5.5 -19q0 -41 -78 -41h-213q-17 0 -28.5 1t-25 4.5t-20 12.5t-6.5 23z" />
    <glyph glyph-name="uni042C" unicode="&#x42c;" horiz-adv-x="1208" 
d="M96 41q0 14 4.5 19.5t20.5 5.5q63 0 63 106v1116q0 105 -63 105q-16 0 -20.5 6.5t-4.5 19.5q0 14 6.5 23t19.5 12.5t24 4.5t28 1h213q80 0 80 -41q0 -26 -31 -26q-61 0 -61 -105v-461q42 19 120 29t142 10q117 0 209 -24t150 -63t96 -93t53.5 -109.5t15.5 -117.5
q0 -216 -150 -337.5t-419 -121.5h-418q-17 0 -28 1t-24 4.5t-19.5 12.5t-6.5 23zM375 176q0 -49 25.5 -62.5t103.5 -13.5h104q23 0 46 2t58.5 10.5t66.5 22.5t64 40.5t56 62t38 91t15 122.5q0 319 -344 319q-117 0 -175 -17.5t-58 -66.5v-510z" />
    <glyph glyph-name="uni042D" unicode="&#x42d;" horiz-adv-x="1226" 
d="M72 199q0 55 47 55q25 0 42 -12t38.5 -39.5t36.5 -40.5q107 -94 274 -94q185 0 303.5 168.5t118.5 459.5l-275 -18q-146 -10 -272 -10q-32 0 -44.5 16.5t-12.5 52.5q0 74 57 74q16 0 256 -12l291 -17q0 103 -11.5 191t-40 167.5t-72 135.5t-111 88.5t-154.5 32.5
q-91 0 -155 -33t-114 -111q-21 -34 -37.5 -71t-23.5 -56.5t-18.5 -33t-28.5 -13.5q-34 0 -53 49t-19 125q0 100 133 168t334 68q126 0 226 -37t166.5 -102t110.5 -157.5t63.5 -198.5t19.5 -230q0 -122 -22.5 -235.5t-73 -216.5t-124 -179t-183 -121t-242.5 -45
q-90 0 -165.5 17t-123 43t-81 58.5t-47 61t-13.5 52.5z" />
    <glyph glyph-name="uni042E" unicode="&#x42e;" horiz-adv-x="1972" 
d="M96 41q0 14 4.5 19.5t20.5 5.5q63 0 63 106v1116q0 105 -63 105q-16 0 -20.5 6.5t-4.5 19.5q0 14 6.5 23t19.5 12.5t24 4.5t28 1h213q80 0 80 -41q0 -26 -31 -26q-61 0 -61 -105v-475h266q17 174 73.5 305t144 210t195.5 118t236 39q276 0 442 -194t166 -521
q0 -180 -49.5 -332t-136 -255.5t-205.5 -161.5t-256 -58q-279 0 -447.5 206t-168.5 550h-260v-547q0 -106 61 -106q19 0 25 -6t6 -19q0 -41 -80 -41h-213q-17 0 -28 1t-24 4.5t-19.5 12.5t-6.5 23zM850 780q0 -236 42.5 -393t141 -243.5t254.5 -86.5q64 0 120.5 20.5
t108.5 67t89.5 115.5t59.5 173.5t22 234.5q0 174 -23 304.5t-73.5 226.5t-134.5 145t-202 49q-191 0 -298 -148.5t-107 -464.5z" />
    <glyph glyph-name="uni042F" unicode="&#x42f;" horiz-adv-x="1318" 
d="M82 33q0 10 6 18t24.5 23.5t30.5 27.5q20 19 39 41t49 63t43 58q45 58 118.5 159t120 160t73.5 81q-46 3 -95.5 16.5t-105 44t-99 73t-72 110.5t-28.5 151q0 77 21 140t53 104t79.5 71.5t91.5 46t98 25t90.5 12t76.5 2.5h453q17 0 28 -1t24.5 -4.5t20.5 -12.5t7 -23
q0 -26 -29 -26q-63 0 -63 -105v-1116q0 -106 63 -106q18 0 23.5 -6t5.5 -19q0 -41 -80 -41h-213q-17 0 -28 1t-24 4.5t-19.5 12.5t-6.5 23t4.5 19.5t20.5 5.5q65 0 65 106v483q-118 -10 -153 -10q-27 -12 -66 -59t-74 -100.5t-100 -154.5t-115 -173q-44 -64 -79 -102
t-70 -54.5t-59.5 -20.5t-69.5 -4q-39 0 -59.5 19t-20.5 37zM389 1059q0 -81 24.5 -143t60.5 -96.5t84.5 -56t89 -28t81.5 -6.5h35q24 -1 47.5 -0.5t44 1.5t37.5 5t29 10.5t19 17t7 25.5v498q0 45 -17 63.5t-50 18.5h-185q-150 0 -228.5 -72.5t-78.5 -236.5z" />
    <glyph glyph-name="uni0430" unicode="&#x430;" horiz-adv-x="960" 
d="M78 217q0 44 11 81.5t27 64.5t45.5 51.5t54.5 39.5t66 31.5t68.5 25.5t74.5 23.5t71 22.5q68 24 106.5 49t38.5 62v149q0 44 -32 80.5t-109 36.5q-80 0 -126.5 -35.5t-76.5 -99.5q-3 -6 -14.5 -33.5t-18.5 -40t-22 -26t-31 -13.5t-27 16.5t-15.5 42t-6.5 45.5t-2 37
q0 104 51 134q32 15 111 34q106 25 204 25q58 0 104 -8.5t89.5 -30t67.5 -66t24 -108.5v-631q0 -59 10.5 -82.5t38.5 -23.5q27 0 27 -27t-28.5 -43t-59.5 -16h-13q-28 0 -42.5 0.5t-37.5 7.5t-34.5 20t-21 39.5t-9.5 65.5v45q-31 -43 -59 -72.5t-67.5 -58.5t-90.5 -43.5
t-113 -14.5q-98 0 -165.5 62t-67.5 182zM254 250q0 -26 5 -49.5t18 -50t42 -42.5t70 -16q46 0 89 20t74.5 52.5t53 64.5t35.5 64v250q-9 -9 -19 -16t-24.5 -14t-21.5 -10t-26 -10t-22 -8q-17 -7 -47 -17.5t-49 -17.5t-45.5 -19t-43 -22.5t-35.5 -27.5t-29.5 -35t-17.5 -42.5
t-7 -53.5z" />
    <glyph glyph-name="uni0431" unicode="&#x431;" horiz-adv-x="1101" 
d="M90 575q0 331 78 517q27 67 73.5 125t91.5 96t110 75.5t104 55t101.5 43t76.5 31.5q62 27 108 50t61 32.5t28 14.5t28 5q14 0 21.5 -12t7.5 -47q0 -91 -107 -162q-71 -46 -225 -105q-147 -58 -210 -95q-102 -59 -163 -136q-55 -70 -74 -138t-32 -186l14 -2
q65 159 170 226t246 67q193 0 310.5 -129.5t117.5 -394.5q0 -117 -40.5 -219t-106 -169.5t-147.5 -106t-167 -38.5q-235 0 -355 158t-120 444zM285 537q0 -217 71.5 -346.5t208.5 -129.5q135 0 205 104t70 304q0 137 -27.5 240.5t-91 168t-156.5 64.5q-71 0 -124 -31
t-82 -75t-46.5 -103.5t-22.5 -105t-5 -90.5z" />
    <glyph glyph-name="uni0432" unicode="&#x432;" horiz-adv-x="991" 
d="M80 51q0 10 6.5 18.5t19.5 8.5q19 0 29 3.5t19.5 26t9.5 68.5v641q0 62 -15.5 82.5t-42.5 20.5q-26 0 -26 26t23 37.5t51 11.5h411q33 0 63 -3t68 -10.5t68.5 -23.5t57.5 -40t42 -62.5t15 -87.5q0 -23 -4.5 -44.5t-10 -38t-17.5 -33.5t-20.5 -28t-25.5 -24.5t-25.5 -20
t-27.5 -17t-25 -13.5t-25 -11.5t-20 -9.5v-6q38 -5 76 -20t77.5 -42.5t64 -75t24.5 -108.5q0 -67 -27 -118t-66.5 -80t-93 -47.5t-99 -24.5t-91.5 -6h-387q-30 0 -53 11.5t-23 39.5zM334 172q0 -49 9.5 -64.5t45.5 -15.5h166q16 0 34.5 2.5t47 14.5t49.5 31.5t37 58.5t16 90
q0 33 -9.5 62.5t-31.5 58t-65 45t-103 16.5h-196v-299zM334 557h180q91 0 141 46t50 140q0 80 -46.5 119t-115.5 39h-111q-57 0 -77.5 -10t-20.5 -51v-283z" />
    <glyph glyph-name="uni0433" unicode="&#x433;" horiz-adv-x="790" 
d="M80 51q0 10 6.5 18.5t19.5 8.5q19 0 29 3.5t19.5 26t9.5 68.5v641q0 62 -15.5 82.5t-42.5 20.5q-26 0 -26 26t23 37.5t51 11.5h387q73 0 123 7.5t51 7.5q17 0 27.5 -10.5t14.5 -37t4.5 -45t0.5 -59.5v-18q0 -50 -11 -97t-36 -47q-20 0 -35 32t-25 70.5t-39 70.5t-75 32
h-207v-725q0 -35 4 -56.5t13.5 -29.5t16.5 -10t21 -2q15 0 22 -8.5t7 -18.5q0 -51 -76 -51h-186q-30 0 -53 11.5t-23 39.5z" />
    <glyph glyph-name="uni0434" unicode="&#x434;" horiz-adv-x="1077" 
d="M12 -6q0 49 9 73.5t40 24.5q53 0 97 39q72 63 118 213.5t46 294.5q0 152 -19 207q-16 38 -46 56t-60 18q-18 0 -23.5 5t-5.5 17q0 53 82 53h649q27 0 52.5 -13.5t25.5 -39.5q0 -22 -27 -22q-18 0 -29 -5.5t-20.5 -29.5t-9.5 -68v-661q0 -44 13.5 -54t66.5 -10
q55 0 55 -43v-49q0 -35 -2.5 -70.5t-8 -78t-18.5 -69t-32 -26.5q-20 0 -32.5 33.5t-24 80t-23.5 64.5q-24 35 -52 50.5t-81 15.5h-451q-66 0 -92.5 -11.5t-50.5 -43.5q-13 -16 -25.5 -65.5t-26.5 -86.5t-34 -37q-28 0 -44 79.5t-16 158.5zM262 92h434q8 0 11.5 0.5t7.5 3.5
t5 10t1 19v741q0 21 -5.5 28t-19.5 7h-192q-86 0 -86 -102v-88q0 -190 -45.5 -365t-110.5 -254z" />
    <glyph glyph-name="uni0435" unicode="&#x435;" horiz-adv-x="956" 
d="M82 485q0 254 118.5 398.5t317.5 144.5q192 0 298 -115.5t106 -296.5q0 -112 -76 -112h-580q0 -63 7.5 -118.5t27.5 -112t52 -97t85.5 -65.5t122.5 -25q93 0 150.5 35t109.5 104q20 35 47 35q16 0 28.5 -9.5t12.5 -27.5q0 -25 -10 -43q-47 -94 -154 -150.5t-233 -56.5
q-192 0 -311 132t-119 380zM268 633q0 -28 6.5 -33.5t32.5 -5.5h359q43 0 55 14.5t12 63.5q0 38 -6.5 74t-22.5 71.5t-40.5 62.5t-63.5 43.5t-88 16.5q-58 0 -103.5 -23.5t-71 -57.5t-42 -78.5t-22 -80t-5.5 -67.5z" />
    <glyph glyph-name="uni0436" unicode="&#x436;" horiz-adv-x="1443" 
d="M33 61q0 14 10 23.5t26 18.5t49 37.5t68 70.5q62 73 127 157.5t100.5 132.5t43.5 54q-49 35 -110.5 100t-120 133t-76.5 86q-12 12 -32 28t-29 26.5t-9 21.5q0 21 13 31.5t24.5 12t32.5 1.5h155q78 0 78 -53q0 -12 -5.5 -17t-23.5 -5q-11 0 -25 -7.5t-14 -23.5
q0 -85 111 -203q56 -60 117 -96.5t106 -50.5v278q0 63 -15 83t-40 20q-33 0 -33 22q0 27 23.5 40t58.5 13h176q35 0 58.5 -13t23.5 -40q0 -22 -31 -22q-17 0 -27.5 -5.5t-20 -29.5t-9.5 -68v-278q46 14 107 50.5t116 96.5q111 120 111 203q0 16 -13.5 23.5t-25.5 7.5
q-17 0 -22 5t-5 17q0 53 78 53h154q20 0 31.5 -1.5t24.5 -12t13 -31.5q0 -9 -6.5 -18t-14.5 -16t-23 -19.5t-25 -22.5q-18 -18 -76 -86t-119.5 -133t-111.5 -100q8 -6 43.5 -54t100 -132t126.5 -158q35 -42 68 -70.5t49.5 -37.5t26.5 -18.5t10 -23.5q0 -28 -33 -50.5
t-84 -22.5q-47 0 -91.5 37.5t-115.5 136.5q-55 78 -111 160t-80 116.5t-38 48.5q-9 -5 -24.5 -11t-26.5 -10l-11 -3v-287q0 -35 4 -56.5t13.5 -29.5t16.5 -10t21 -2q17 0 24 -8.5t7 -18.5q0 -51 -78 -51h-184q-30 0 -54 11.5t-24 39.5q0 10 7 18.5t24 8.5q13 0 20 2t16.5 10
t14 29.5t4.5 56.5v287q-41 12 -59 24q-15 -14 -39 -47t-82.5 -119t-110.5 -159q-70 -99 -113.5 -136.5t-92.5 -37.5q-51 0 -84 22.5t-33 50.5z" />
    <glyph glyph-name="uni0437" unicode="&#x437;" horiz-adv-x="856" 
d="M49 184q0 44 15.5 74.5t44.5 30.5q25 0 38 -22t31 -65t45 -73q61 -70 176 -70q98 0 152.5 54.5t54.5 167.5q0 95 -60 135.5t-153 40.5q-31 0 -61.5 -3t-36.5 -3q-17 0 -26.5 1.5t-20 14.5t-10.5 37q0 15 5 25.5t11 15.5t17 7.5t15.5 2.5h14.5q15 0 46 -2t52 -2
q72 0 124 50.5t52 152.5q0 192 -167 192q-65 0 -105 -20.5t-72 -71.5q-16 -26 -33 -67t-30.5 -58.5t-38.5 -17.5q-24 0 -37.5 34.5t-13.5 94.5q0 56 22.5 85t63.5 50q51 25 127.5 39t140.5 14q50 0 96 -7.5t88.5 -25t73.5 -43.5t49.5 -66t18.5 -89q0 -54 -18 -100t-44 -75.5
t-60 -52t-61 -34t-53 -17.5v-6q133 -20 202 -82.5t69 -163.5q0 -63 -24.5 -114t-63 -84t-89.5 -55t-102 -31t-102 -9q-100 0 -180 17t-140 71q-43 38 -43 123z" />
    <glyph glyph-name="uni0438" unicode="&#x438;" horiz-adv-x="1107" 
d="M80 51q0 23 26 23q19 0 29.5 5t19.5 28.5t9 68.5v641q0 62 -15.5 82.5t-42.5 20.5q-26 0 -26 26t23 37.5t51 11.5h186q78 0 78 -49q0 -26 -29 -26q-26 0 -40.5 -20t-14.5 -83v-543l434 566q12 12 12 28q0 18 -3 29.5t-10 16t-12.5 5.5t-15.5 1q-28 0 -28 26t23 37.5
t50 11.5h172q78 0 78 -49q0 -26 -28 -26q-27 0 -41.5 -19.5t-14.5 -83.5v-641q0 -46 9 -68.5t18 -26t27 -3.5q30 0 30 -27q0 -51 -76 -51h-186q-28 0 -52 12t-24 39q0 9 7 18t20 9q14 0 21.5 2t17.5 10t14 29.5t4 56.5v543l-432 -557q-14 -21 -14 -31q0 -35 8.5 -46
t28.5 -11q28 0 28 -23q0 -26 -23 -38.5t-52 -12.5h-168q-76 0 -76 51z" />
    <glyph glyph-name="uni0439" unicode="&#x439;" horiz-adv-x="1107" 
d="M80 51q0 23 26 23q19 0 29.5 5t19.5 28.5t9 68.5v641q0 62 -15.5 82.5t-42.5 20.5q-26 0 -26 26t23 37.5t51 11.5h186q78 0 78 -49q0 -26 -29 -26q-26 0 -40.5 -20t-14.5 -83v-543l434 566q12 12 12 28q0 18 -3 29.5t-10 16t-12.5 5.5t-15.5 1q-28 0 -28 26t23 37.5
t50 11.5h172q78 0 78 -49q0 -26 -28 -26q-27 0 -41.5 -19.5t-14.5 -83.5v-641q0 -46 9 -68.5t18 -26t27 -3.5q30 0 30 -27q0 -51 -76 -51h-186q-28 0 -52 12t-24 39q0 9 7 18t20 9q14 0 21.5 2t17.5 10t14 29.5t4 56.5v543l-432 -557q-14 -21 -14 -31q0 -35 8.5 -46
t28.5 -11q28 0 28 -23q0 -26 -23 -38.5t-52 -12.5h-168q-76 0 -76 51zM279 1260q0 77 94 77q45 0 66.5 -26t21.5 -66q0 -43 24.5 -73.5t85.5 -30.5q111 0 111 104q0 40 21.5 66t66.5 26q94 0 94 -77q0 -62 -51 -106.5t-115 -62.5t-127 -18q-45 0 -93.5 11t-94 32t-75 59
t-29.5 85z" />
    <glyph glyph-name="uni043A" unicode="&#x43a;" horiz-adv-x="1001" 
d="M80 51q0 10 6.5 18.5t19.5 8.5q19 0 29 3.5t19.5 26t9.5 68.5v641q0 62 -15.5 82.5t-42.5 20.5q-26 0 -26 26t23 37.5t51 11.5h186q78 0 78 -49q0 -26 -29 -26q-26 0 -40.5 -20t-14.5 -83v-272q49 14 115.5 52t121.5 91q127 125 127 201q0 16 -13.5 23.5t-25.5 7.5
q-17 0 -21.5 5t-4.5 17q0 53 78 53h153q15 0 24 -1t21.5 -4.5t18.5 -13.5t6 -26q0 -9 -5.5 -18t-12.5 -15.5t-21.5 -19.5t-24.5 -23q-31 -29 -89 -91t-115.5 -116.5t-116.5 -97.5q15 -19 93.5 -125t170.5 -225q4 -5 16 -19.5t17.5 -21t15.5 -18t20 -21t21 -18.5
q12 -9 26.5 -18t22.5 -14t13.5 -12.5t5.5 -17.5q0 -30 -33.5 -52.5t-85.5 -22.5q-67 0 -108.5 36t-114.5 142q-34 50 -86 131.5t-84.5 129.5t-50.5 66q-15 -7 -33.5 -13.5t-29.5 -9.5l-11 -3v-287q0 -35 4 -56.5t13.5 -29.5t16.5 -10t21 -2q15 0 22 -8.5t7 -18.5
q0 -51 -76 -51h-186q-30 0 -53 11.5t-23 39.5z" />
    <glyph glyph-name="uni043B" unicode="&#x43b;" horiz-adv-x="1046" 
d="M16 94q0 58 23 81.5t53 23.5q22 0 48 -11.5t42 -11.5q40 0 64 38t45 128q26 117 26 297q0 162 -18 207q-16 38 -46.5 56t-59.5 18q-18 0 -23.5 5t-5.5 17q0 53 82 53h651q76 0 76 -51q0 -26 -29 -26q-13 0 -20.5 -2t-17.5 -10.5t-14.5 -30t-4.5 -56.5v-643
q0 -35 4.5 -56.5t14.5 -29.5t17 -10t21 -2q15 0 22 -8.5t7 -18.5q0 -51 -76 -51h-186q-31 0 -54.5 11.5t-23.5 39.5q0 10 7 18.5t22 8.5q14 0 21 2t16.5 10t13.5 29.5t4 56.5v690q0 24 -5 29.5t-20 5.5h-200q-78 0 -78 -123v-145q0 -123 -22 -272.5t-73 -239.5
q-45 -81 -92.5 -112.5t-107.5 -31.5q-49 0 -76 34.5t-27 82.5z" />
    <glyph glyph-name="uni043C" unicode="&#x43c;" horiz-adv-x="1384" 
d="M84 51q0 11 8.5 19t22.5 8q49 0 49 98v641q0 62 -15.5 82.5t-42.5 20.5q-22 0 -22 32q0 22 21.5 32.5t48.5 10.5h192q42 0 53 -30l299 -744l320 754q10 20 33 20h180q78 0 78 -51q0 -26 -31 -26q-13 0 -20.5 -2t-16.5 -10.5t-13.5 -30t-4.5 -56.5v-643q0 -35 4 -56.5
t13.5 -29.5t16.5 -10t21 -2q17 0 24 -8.5t7 -18.5q0 -51 -78 -51h-187q-30 0 -53.5 11.5t-23.5 39.5q0 27 30 27q13 0 20 2t17 10t14.5 29.5t4.5 56.5v643h-9l-325 -753q-20 -47 -34 -63.5t-34 -16.5q-18 0 -28.5 14t-30.5 61l-324 758h-8v-643q0 -46 17 -72t38 -26
q17 0 24 -8.5t7 -18.5q0 -51 -80 -51h-123q-30 0 -44.5 11t-14.5 40z" />
    <glyph glyph-name="uni043D" unicode="&#x43d;" horiz-adv-x="1075" 
d="M80 51q0 10 6.5 18.5t19.5 8.5q19 0 29 3.5t19.5 26t9.5 68.5v641q0 62 -15.5 82.5t-42.5 20.5q-26 0 -26 26t23 37.5t51 11.5h186q78 0 78 -49q0 -26 -29 -26q-26 0 -40.5 -20t-14.5 -83v-239h418v239q0 63 -16.5 83t-41.5 20q-28 0 -28 26t23.5 37.5t51.5 11.5h185
q80 0 80 -49q0 -26 -29 -26q-16 0 -26.5 -5.5t-19.5 -29.5t-9 -68v-641q0 -35 4 -56.5t13.5 -29.5t16 -10t19.5 -2q31 0 31 -27q0 -51 -78 -51h-185q-30 0 -53.5 11.5t-23.5 39.5q0 27 28 27q13 0 20 2t17.5 10t15.5 29.5t5 56.5v311h-418v-311q0 -35 4 -56.5t13.5 -29.5
t16.5 -10t21 -2q15 0 22 -8.5t7 -18.5q0 -51 -76 -51h-186q-30 0 -53 11.5t-23 39.5z" />
    <glyph glyph-name="uni043E" unicode="&#x43e;" horiz-adv-x="1085" 
d="M82 506q0 123 38.5 223.5t103.5 165t147 99t172 34.5q218 0 342.5 -147t124.5 -381q0 -119 -39 -220t-103.5 -167t-146.5 -103t-170 -37q-219 0 -344 148.5t-125 384.5zM264 537q0 -214 76 -345t211 -131q133 0 204.5 105t71.5 303q0 213 -75.5 342t-208.5 129
q-136 0 -207.5 -103t-71.5 -300z" />
    <glyph glyph-name="uni043F" unicode="&#x43f;" horiz-adv-x="1079" 
d="M80 51q0 10 6.5 18.5t19.5 8.5q19 0 29 3.5t19.5 26t9.5 68.5v641q0 62 -15.5 82.5t-42.5 20.5q-15 0 -20.5 7t-5.5 25q0 43 74 43h776q78 0 78 -51q0 -26 -31 -26q-13 0 -20 -2t-16.5 -10.5t-14 -30t-4.5 -56.5v-643q0 -34 4.5 -55.5t13.5 -30t16 -10.5t19 -2
q31 0 31 -27q0 -51 -78 -51h-183q-30 0 -53.5 11.5t-23.5 39.5q0 27 28 27q13 0 20 2t17.5 10t15.5 29.5t5 56.5v690q0 24 -6 29.5t-23 5.5h-367q-10 0 -14 -1.5t-7 -9t-3 -24.5v-690q0 -35 4 -56.5t13.5 -29.5t16.5 -10t21 -2q15 0 22 -8.5t7 -18.5q0 -51 -76 -51h-186
q-30 0 -53 11.5t-23 39.5z" />
    <glyph glyph-name="uni0440" unicode="&#x440;" horiz-adv-x="1105" 
d="M80 -496q0 27 24 27q19 0 30 5t20.5 28.5t9.5 68.5v1180q0 107 -60 107q-22 0 -22 26q0 24 23 36.5t51 12.5h125q13 0 22.5 -3.5t15 -13.5t9 -19t4.5 -27.5t1.5 -31t0.5 -38.5q98 166 317 166q176 0 283.5 -127.5t107.5 -388.5q0 -150 -51.5 -271t-155 -194.5
t-241.5 -73.5q-164 0 -260 107v-449q0 -36 4 -57.5t14 -30t17.5 -10.5t21.5 -2q27 0 27 -27q0 -51 -74 -51h-188q-76 0 -76 51zM334 340q0 -136 70.5 -204t173.5 -68q137 0 208.5 120t71.5 347q0 180 -69 281.5t-195 101.5q-84 0 -144.5 -43t-88 -108.5t-27.5 -143.5v-283z
" />
    <glyph glyph-name="uni0441" unicode="&#x441;" horiz-adv-x="927" 
d="M88 483q0 121 30 218t77.5 156.5t111 99.5t124.5 55.5t124 15.5q127 0 258 -67q53 -24 53 -82q0 -71 -19 -130t-54 -59q-21 0 -35.5 23.5t-23 55t-29 70.5t-50.5 62q-57 39 -125 39q-113 0 -187.5 -105t-74.5 -305q0 -96 16.5 -172.5t43.5 -126.5t64.5 -83.5t77.5 -47.5
t83 -14q40 0 76.5 10.5t58 21.5t47 34t33 32t25.5 31q21 27 43 27q41 0 41 -37q0 -23 -9 -39q-44 -88 -136 -140.5t-216 -52.5q-212 0 -320 138t-108 372z" />
    <glyph glyph-name="uni0442" unicode="&#x442;" horiz-adv-x="903" 
d="M43 840v17q0 40 1 60t5 45.5t14.5 36.5t28.5 11q7 0 25.5 -4t56.5 -7.5t92 -3.5h379q53 0 91 3.5t57 7.5t26 4q33 0 41 -37t8 -116v-17q0 -49 -12 -96.5t-37 -47.5q-20 0 -32.5 32t-21 70.5t-37 70.5t-75.5 32h-112v-725q0 -35 4 -56.5t13 -29.5t16 -10t20 -2
q14 0 22.5 -9t8.5 -18q0 -51 -76 -51h-187q-28 0 -51.5 12t-23.5 39q0 10 6.5 18.5t19.5 8.5q19 0 29 3.5t19.5 26t9.5 68.5v725h-113q-47 0 -75.5 -32t-37 -70.5t-21 -70.5t-32.5 -32q-25 0 -37 47.5t-12 96.5z" />
    <glyph glyph-name="uni0443" unicode="&#x443;" horiz-adv-x="987" 
d="M12 946q0 26 23 37.5t53 11.5h193q73 0 73 -49q0 -13 -5.5 -19.5t-22.5 -6.5q-9 0 -15.5 -1.5t-14 -11.5t-7.5 -30q0 -42 28 -113l248 -653l193 704q8 27 8 62q0 43 -41 43q-29 0 -29 26q0 49 74 49h137q17 0 27.5 -1t23 -5t19 -13t6.5 -24q0 -32 -25 -32t-41.5 -17.5
t-37.5 -83.5l-248 -776q-42 -132 -80 -229.5t-82 -177.5t-91 -121t-97 -41q-51 0 -74 26.5t-23 87.5q0 109 80 109q10 0 36 -3t48 -3q50 0 82.5 56t32.5 122q0 59 -45 174l-285 729q-37 95 -54 121.5t-42 26.5t-25 26z" />
    <glyph glyph-name="uni0444" unicode="&#x444;" horiz-adv-x="1470" 
d="M98 496q0 111 29 199t77 145.5t115 95.5t138.5 54t150.5 16h56v294q0 53 -14.5 72t-51.5 19q-15 0 -22 9t-7 19q0 47 78 47h146q10 0 16.5 -2.5t10.5 -10.5t6.5 -13.5t3.5 -20t1 -21.5v-26v-366h54q79 0 151 -16t139.5 -54t116 -95.5t78 -145.5t29.5 -199
q0 -109 -33 -199t-85.5 -148.5t-121 -99.5t-137.5 -58.5t-137 -17.5h-54v-342q0 -36 4.5 -57.5t14 -30t16 -10.5t19.5 -2q33 0 33 -27q0 -51 -78 -51h-185q-30 0 -53.5 11.5t-23.5 39.5q0 10 7 18.5t21 8.5t21 2t17.5 10.5t15 30t4.5 57.5v342h-56q-67 0 -135.5 17.5
t-136.5 58.5t-120.5 99.5t-85 148.5t-32.5 199zM283 496q0 -104 22.5 -184t57 -126t80.5 -75.5t86.5 -39.5t82.5 -10h52v857h-52q-46 0 -84.5 -7t-86 -32.5t-80.5 -69t-55.5 -124t-22.5 -189.5zM831 61h50q43 0 84 10t87 39.5t80.5 75.5t57 126t22.5 184q0 109 -22.5 189.5
t-55.5 124t-81 69t-86.5 32.5t-85.5 7h-50v-857z" />
    <glyph glyph-name="uni0445" unicode="&#x445;" horiz-adv-x="956" 
d="M39 51q0 9 7.5 18t19.5 9q50 0 120 96l228 301l-219 342q-40 62 -63.5 82.5t-51.5 20.5q-27 0 -27 26t23.5 37.5t54.5 11.5h213q76 0 76 -49q0 -26 -31 -26q-27 0 -27 -35q0 -23 27 -72l121 -205l121 205q35 59 35 84q0 10 -7 16.5t-18 6.5q-31 0 -31 26q0 49 78 49h146
q36 0 54.5 -10.5t18.5 -38.5q0 -26 -37 -26q-21 0 -44 -19t-74 -88l-195 -266l240 -373q62 -96 100 -96q29 0 29 -27q0 -51 -78 -51h-213q-14 0 -22.5 1t-22 5t-20.5 15.5t-7 29.5q0 9 7.5 18t21.5 9q31 0 31 37q0 26 -25 69l-135 226l-156 -226q-4 -8 -11.5 -21t-11.5 -20
t-7 -18t-3 -21q0 -26 21 -26q29 0 29 -27t-24 -39t-52 -12h-144q-32 0 -48.5 11t-16.5 40z" />
    <glyph glyph-name="uni0446" unicode="&#x446;" horiz-adv-x="1101" 
d="M80 51q0 10 6.5 18.5t19.5 8.5q14 0 22 2t17.5 10.5t14 30t4.5 55.5v641q0 61 -15.5 82t-42.5 21q-26 0 -26 26t23 37.5t51 11.5h186q78 0 78 -49q0 -26 -29 -26q-26 0 -40.5 -20t-14.5 -83v-692q0 -23 5 -28t19 -5h365q12 0 17 1t8.5 8.5t3.5 23.5v692q0 63 -16.5 83
t-41.5 20q-28 0 -28 26t23.5 37.5t51.5 11.5h183q80 0 80 -49q0 -26 -29 -26q-25 0 -39 -19.5t-14 -83.5v-665q0 -43 15.5 -51.5t74.5 -8.5q45 0 45 -41v-57q0 -75 -14.5 -156.5t-47.5 -81.5q-20 0 -32.5 36.5t-22.5 86t-22 66.5q-21 32 -52 43.5t-90 11.5h-622
q-28 0 -51 12t-23 39z" />
    <glyph glyph-name="uni0447" unicode="&#x447;" horiz-adv-x="1019" 
d="M53 946q0 26 24 37.5t52 11.5h184q80 0 80 -49q0 -26 -28 -26q-58 0 -58 -103v-184q0 -84 36.5 -122t127.5 -38q82 0 151.5 47t69.5 90v207q0 103 -57 103q-29 0 -29 26t23.5 37.5t50.5 11.5h188q80 0 80 -49q0 -11 -7.5 -18.5t-20.5 -7.5q-27 0 -42.5 -21t-15.5 -82
v-641q0 -35 4.5 -56.5t14 -29.5t16.5 -10t21 -2q30 0 30 -27q0 -51 -78 -51h-188q-28 0 -52 12t-24 39q0 10 7 18.5t22 8.5q14 0 21 2t17 10t14.5 29.5t4.5 56.5v307q-5 -5 -14 -12.5t-39.5 -26.5t-63 -34t-83 -27t-101.5 -12q-135 0 -193.5 58t-58.5 169v219q0 103 -57 103
q-29 0 -29 26z" />
    <glyph glyph-name="uni0448" unicode="&#x448;" horiz-adv-x="1587" 
d="M80 51q0 10 6.5 18.5t19.5 8.5q58 0 58 98v641q0 62 -15.5 82.5t-42.5 20.5q-26 0 -26 26t23 37.5t51 11.5h186q78 0 78 -49q0 -26 -29 -26q-14 0 -21.5 -2.5t-16.5 -11.5t-13 -31t-4 -58v-692q0 -23 5 -28t19 -5h324q12 0 17 1t8.5 8.5t3.5 23.5v692q0 63 -16.5 83
t-41.5 20q-28 0 -28 26t23.5 37.5t51.5 11.5h185q80 0 80 -49q0 -26 -29 -26q-13 0 -20.5 -2.5t-16.5 -11.5t-13.5 -31t-4.5 -58v-692q0 -23 4.5 -28t21.5 -5h322q9 0 12.5 0.5t7.5 3.5t5 10t1 19v692q0 63 -15 83t-40 20q-31 0 -31 26t24 37.5t54 11.5h185q79 0 79 -49
q0 -26 -28 -26q-14 0 -22 -2.5t-17.5 -11.5t-14 -31t-4.5 -58v-641q0 -98 56 -98q24 0 24 -27q0 -28 -22 -39.5t-51 -11.5h-1278q-28 0 -51 12t-23 39z" />
    <glyph glyph-name="uni0449" unicode="&#x449;" horiz-adv-x="1607" 
d="M80 51q0 10 6.5 18.5t19.5 8.5q58 0 58 98v641q0 62 -15.5 82.5t-42.5 20.5q-26 0 -26 26t23 37.5t51 11.5h186q78 0 78 -49q0 -26 -29 -26q-14 0 -21.5 -2t-16.5 -11t-13 -31t-4 -59v-692q0 -23 5 -28t19 -5h324q12 0 17 1t8.5 8.5t3.5 23.5v692q0 103 -58 103
q-28 0 -28 26t23.5 37.5t51.5 11.5h185q80 0 80 -49q0 -26 -29 -26q-26 0 -40.5 -20t-14.5 -83v-692q0 -23 4.5 -28t21.5 -5h322q9 0 12.5 0.5t7.5 3.5t5 10t1 19v692q0 62 -15.5 82.5t-39.5 20.5q-31 0 -31 26t24 37.5t54 11.5h185q79 0 79 -49q0 -26 -28 -26
q-14 0 -21.5 -2t-17.5 -11t-14.5 -31.5t-4.5 -58.5v-665q0 -43 16 -51.5t77 -8.5q45 0 45 -41v-57q0 -42 -4.5 -91t-20 -98t-39.5 -49q-20 0 -32 36.5t-22.5 86t-23.5 66.5q-22 32 -51 43.5t-88 11.5h-1128q-28 0 -51 12t-23 39z" />
    <glyph glyph-name="uni044A" unicode="&#x44a;" horiz-adv-x="1173" 
d="M45 723v10v10.5v10.5q0 100 35 207q5 14 20.5 28.5t42.5 14.5q14 0 42.5 -4.5t39.5 -4.5h344q80 0 80 -49q0 -26 -28 -26q-26 0 -42 -20.5t-16 -82.5v-211q70 21 191 21q26 0 47 -1t60 -7t69.5 -16.5t66.5 -32.5t59.5 -52t39.5 -77.5t16 -106.5q0 -81 -28 -143t-70 -97
t-98.5 -57.5t-104.5 -29.5t-98 -7h-330q-30 0 -53 11.5t-23 39.5q0 27 29 27q13 0 20 2t16.5 10t14 29.5t4.5 56.5v639q0 61 -7 74q-10 18 -48 18h-68q-29 0 -54 -22.5t-42 -55t-32.5 -64.5t-33.5 -54.5t-38 -22.5q-4 0 -7.5 1t-6 3.5t-4.5 5.5t-3 7.5t-1.5 8t-0.5 9.5z
M563 193q0 -53 13.5 -77t58.5 -24h82q38 0 72.5 10.5t67 35t52 71.5t19.5 113q0 110 -51 165.5t-164 55.5q-45 0 -82.5 -6.5t-52.5 -12.5l-15 -6v-325z" />
    <glyph glyph-name="uni044B" unicode="&#x44b;" horiz-adv-x="1353" 
d="M80 51q0 10 6.5 18.5t19.5 8.5q19 0 29 3.5t19.5 26t9.5 68.5v641q0 36 -4.5 58t-14.5 30.5t-17.5 10.5t-21.5 2q-26 0 -26 26t23.5 38.5t52.5 12.5h186q76 0 76 -51q0 -26 -29 -26q-14 0 -21.5 -2t-16.5 -10.5t-13 -30.5t-4 -58v-211q67 21 186 21q26 0 47.5 -1t61 -7
t70 -16.5t66.5 -32.5t60 -52t40 -77.5t16 -106.5q0 -81 -28.5 -143t-70.5 -97t-98.5 -57.5t-105.5 -29.5t-99 -7h-325q-28 0 -51 12t-23 39zM334 193q0 -53 13.5 -77t58.5 -24h79q38 0 72.5 10.5t68 35t53 71.5t19.5 113q0 110 -52.5 165.5t-166.5 55.5q-44 0 -80.5 -6.5
t-50.5 -12.5l-14 -6v-325zM936 51q0 9 7.5 18t21.5 9t21.5 2t17.5 10t14 29.5t4 56.5v641q0 63 -14.5 83t-42.5 20q-13 0 -21 7.5t-8 18.5q0 49 80 49h184q78 0 78 -49q0 -26 -29 -26q-27 0 -42 -20.5t-15 -82.5v-641q0 -35 4 -56.5t14 -29.5t17.5 -10t21.5 -2q15 0 22 -8.5
t7 -18.5q0 -51 -76 -51h-188q-30 0 -54 11.5t-24 39.5z" />
    <glyph glyph-name="uni044C" unicode="&#x44c;" horiz-adv-x="944" 
d="M80 51q0 10 6.5 18.5t19.5 8.5q19 0 29 3.5t19.5 26t9.5 68.5v641q0 36 -4.5 58t-14.5 30.5t-17.5 10.5t-21.5 2q-26 0 -26 26t23.5 38.5t52.5 12.5h186q76 0 76 -51q0 -26 -29 -26q-14 0 -21.5 -2t-16.5 -10.5t-13 -30.5t-4 -58v-211q67 21 186 21q26 0 47.5 -1t61 -7
t70 -16.5t66.5 -32.5t60 -52t40 -77.5t16 -106.5q0 -81 -28.5 -143t-70.5 -97t-98.5 -57.5t-105.5 -29.5t-99 -7h-325q-28 0 -51 12t-23 39zM334 193q0 -53 13.5 -77t58.5 -24h79q38 0 72.5 10.5t68 35t53 71.5t19.5 113q0 110 -52.5 165.5t-166.5 55.5q-44 0 -80.5 -6.5
t-50.5 -12.5l-14 -6v-325z" />
    <glyph glyph-name="uni044D" unicode="&#x44d;" horiz-adv-x="925" 
d="M66 154q0 24 12 37.5t33 13.5q23 0 45 -25q83 -96 213 -96q78 0 137 35t91 93.5t47 124.5t15 140l-174 -14q-148 -12 -180 -12q-53 0 -53 57q0 35 12.5 51t42.5 16q7 0 154 -10l198 -12q0 51 -5 98.5t-20.5 102t-40 94t-69 66t-102.5 26.5q-48 0 -83.5 -13.5t-51.5 -27
t-43 -43.5q-15 -17 -34 -53t-36.5 -57t-40.5 -21q-56 0 -49 137q1 12 3 23t4.5 19.5t8 17t9 13.5t11.5 11.5t12 9t13.5 7.5t12.5 6.5t13.5 6t12.5 5.5q54 23 126 35t130 12q179 0 293.5 -131t114.5 -379q0 -129 -38 -234t-103 -172t-150 -103t-180 -36q-201 0 -295 136
q-16 19 -16 45z" />
    <glyph glyph-name="uni044E" unicode="&#x44e;" horiz-adv-x="1538" 
d="M80 51q0 10 6.5 18.5t19.5 8.5q19 0 29 3.5t19.5 26t9.5 68.5v641q0 62 -15.5 82.5t-42.5 20.5q-26 0 -26 26t23 37.5t51 11.5h186q78 0 78 -49q0 -26 -29 -26q-26 0 -40.5 -20t-14.5 -83v-262h211q12 149 80 258.5t166 162t213 52.5q145 0 251.5 -68.5t160.5 -187.5
t54 -272q0 -119 -38.5 -220t-102.5 -167t-146.5 -103t-172.5 -37q-209 0 -332.5 136t-134.5 356h-209v-289q0 -35 4 -56.5t13.5 -29.5t16.5 -10t21 -2q15 0 22 -8.5t7 -18.5q0 -51 -76 -51h-186q-30 0 -53 11.5t-23 39.5zM727 537q0 -214 74.5 -345t208.5 -131t204 104.5
t70 303.5q0 214 -74 342.5t-206 128.5q-135 0 -206 -102.5t-71 -300.5z" />
    <glyph glyph-name="uni044F" unicode="&#x44f;" horiz-adv-x="1003" 
d="M43 37q0 16 16.5 30.5t61 53t90.5 90.5l178 205q-258 53 -258 291q0 288 387 288h336q76 0 76 -51q0 -26 -29 -26q-13 0 -20.5 -2t-16.5 -10.5t-13.5 -30.5t-4.5 -58v-641q0 -35 4 -56.5t13.5 -29.5t16.5 -10t21 -2q15 0 22 -8.5t7 -18.5q0 -51 -76 -51h-184
q-30 0 -53 11.5t-23 39.5q0 27 27 27q14 0 21 2t16.5 10t13.5 29.5t4 56.5v230q-49 -13 -115 -17q-14 -13 -29 -32.5t-47.5 -65t-60.5 -82.5q-94 -129 -130 -165q-68 -67 -151 -67q-100 0 -100 60zM309 694q0 -53 15 -94t39 -65t57.5 -39.5t66 -21t68.5 -5.5q72 0 96.5 11
t24.5 44v312q0 39 -9 52t-44 13h-103q-25 0 -48 -3t-54.5 -15.5t-54 -33.5t-38.5 -61t-16 -94z" />
    <glyph glyph-name="uni0451" unicode="&#x451;" horiz-adv-x="995" 
d="M82 485q0 254 118.5 398.5t317.5 144.5q192 0 298 -115.5t106 -296.5q0 -112 -76 -112h-580q0 -63 7.5 -118.5t27.5 -112t52 -97t85.5 -65.5t122.5 -25q93 0 150.5 35t109.5 104q20 35 47 35q16 0 28.5 -9.5t12.5 -27.5q0 -25 -10 -43q-47 -94 -154 -150.5t-233 -56.5
q-192 0 -311 132t-119 380zM254 1253q0 44 33.5 76.5t77.5 32.5q43 0 74.5 -32.5t31.5 -76.5q0 -43 -31.5 -74.5t-74.5 -31.5q-44 0 -77.5 31.5t-33.5 74.5zM268 633q0 -28 6.5 -33.5t32.5 -5.5h359q43 0 55 14.5t12 63.5q0 38 -6.5 74t-22.5 71.5t-40.5 62.5t-63.5 43.5
t-88 16.5q-58 0 -103.5 -23.5t-71 -57.5t-42 -78.5t-22 -80t-5.5 -67.5zM588 1253q0 44 30.5 76.5t73.5 32.5q46 0 78.5 -32.5t32.5 -76.5q0 -43 -32.5 -74.5t-78.5 -31.5q-43 0 -73.5 31.5t-30.5 74.5z" />
    <glyph glyph-name="uni0452" unicode="&#x452;" horiz-adv-x="1024" 
d="M51 1165q0 27 15.5 47.5t52.5 20.5h45v72q0 49 -16.5 75.5t-41.5 26.5q-22 0 -22 27q0 47 74 47h129q17 0 27 -8.5t14 -26t5 -29.5t1 -33v-151h256q21 0 29 -3.5t8 -17.5q0 -30 -17 -49.5t-53 -19.5h-223v-326q126 211 311 211q77 0 136.5 -36.5t94.5 -100.5t52.5 -144.5
t17.5 -175.5v-71q0 -132 -25 -264t-63 -232.5t-75.5 -172.5t-71.5 -114q-42 -52 -69.5 -82.5t-67.5 -58t-74 -27.5q-35 0 -58.5 27t-23.5 70q0 54 20 77t60 23h51q55 0 94 28.5t74 96.5q28 56 43.5 162t15.5 219v272q0 373 -209 373q-107 0 -170 -110.5t-63 -264.5v-346
q0 -35 4 -56.5t13.5 -29.5t16.5 -10t21 -2q15 0 22 -8.5t7 -18.5q0 -51 -76 -51h-186q-30 0 -53 11.5t-23 39.5q0 10 6.5 18.5t19.5 8.5q19 0 29 3.5t19.5 26t9.5 68.5v967h-84q-9 0 -13.5 0.5t-10 5.5t-5.5 16z" />
    <glyph glyph-name="uni0453" unicode="&#x453;" horiz-adv-x="790" 
d="M80 51q0 10 6.5 18.5t19.5 8.5q19 0 29 3.5t19.5 26t9.5 68.5v641q0 62 -15.5 82.5t-42.5 20.5q-26 0 -26 26t23 37.5t51 11.5h387q73 0 123 7.5t51 7.5q17 0 27.5 -10.5t14.5 -37t4.5 -45t0.5 -59.5v-18q0 -50 -11 -97t-36 -47q-20 0 -35 32t-25 70.5t-39 70.5t-75 32
h-207v-725q0 -35 4 -56.5t13.5 -29.5t16.5 -10t21 -2q15 0 22 -8.5t7 -18.5q0 -51 -76 -51h-186q-30 0 -53 11.5t-23 39.5zM383 1087l121 246q23 44 40 61t42 17q31 0 56.5 -16t25.5 -56q0 -36 -33 -77l-209 -201z" />
    <glyph glyph-name="uni0454" unicode="&#x454;" horiz-adv-x="927" 
d="M88 483q0 121 30 218t77.5 156.5t111 99.5t124.5 55.5t124 15.5q127 0 258 -67q53 -24 53 -82q0 -71 -19 -130t-54 -59q-21 0 -35.5 23.5t-23 55t-29 70.5t-50.5 62q-57 39 -125 39q-107 0 -180 -97.5t-82 -281.5l232 12q26 1 50.5 3t47.5 2q32 0 46.5 -14t14.5 -48
q0 -30 -14.5 -42.5t-46.5 -12.5q-13 0 -33.5 2t-62 6.5t-92.5 7.5l-142 10q5 -109 31 -189.5t67 -125t87.5 -65.5t99.5 -21q40 0 76.5 10.5t58 21.5t47 34t33 32t25.5 31q21 27 43 27q41 0 41 -37q0 -23 -9 -39q-44 -88 -136 -140.5t-216 -52.5q-212 0 -320 138t-108 372z
" />
    <glyph glyph-name="uni0455" unicode="&#x455;" horiz-adv-x="880" 
d="M80 150q0 151 63 151q20 0 31 -21t31 -63t53 -76q80 -80 199 -80q95 0 143.5 47.5t48.5 114.5q0 30 -9.5 55t-23 41.5t-41 34.5t-50 29.5t-63.5 32t-69 35.5q-148 80 -190 111q-90 66 -106 154q-5 25 -5 54q0 115 82 186.5t227 71.5q102 0 168.5 -14.5t132.5 -44.5
q52 -17 52 -76q0 -69 -18.5 -116.5t-53.5 -47.5q-18 0 -31.5 18t-22 41.5t-24.5 54.5t-37 50q-55 49 -151 49q-82 0 -126 -38t-44 -97q0 -34 9 -58t37.5 -49.5t63 -47t101.5 -58.5q26 -14 72.5 -35.5t81 -37t75.5 -42t67 -54t44 -69.5t18 -92q0 -131 -109.5 -211t-261.5 -80
q-69 0 -129.5 9t-115.5 28t-87 55t-32 85z" />
    <glyph glyph-name="uni0456" unicode="&#x456;" horiz-adv-x="495" 
d="M80 51q0 27 26 27q14 0 21 2t17.5 10t15 29.5t4.5 56.5v641q0 52 -17.5 77.5t-40.5 25.5q-26 0 -26 26t23.5 37.5t52.5 11.5h131q13 0 22 -5.5t14 -17t8 -23.5t3.5 -30.5t0.5 -32.5t-0.5 -35.5t-0.5 -33.5v-641q0 -35 4 -56.5t13 -29.5t16 -10t20 -2q17 0 24 -8.5
t7 -18.5q0 -51 -78 -51h-184q-30 0 -53 11.5t-23 39.5zM119 1264q0 44 33.5 77t76.5 33q46 0 80.5 -33t34.5 -77q0 -43 -35 -77t-80 -34q-43 0 -76.5 34t-33.5 77z" />
    <glyph glyph-name="uni0457" unicode="&#x457;" horiz-adv-x="536" 
d="M43 1255q0 41 30 72t70 31q41 0 72 -31t31 -72q0 -40 -31 -69t-72 -29q-40 0 -70 29t-30 69zM119 51q0 27 26 27q14 0 21 2t17.5 10t15 29.5t4.5 56.5v641q0 52 -17.5 77.5t-40.5 25.5q-26 0 -26 26t23.5 37.5t52.5 11.5h131q13 0 22.5 -5.5t14.5 -17t8 -23.5t3.5 -30.5
t0 -32.5t-1 -35.5t-0.5 -33.5v-641q0 -35 4 -56.5t13 -29.5t16 -10t20 -2q17 0 24 -8.5t7 -18.5q0 -51 -78 -51h-184q-30 0 -53 11.5t-23 39.5zM281 1255q0 41 30.5 72t71.5 31q40 0 70 -31t30 -72q0 -40 -30 -69t-70 -29q-41 0 -71.5 29t-30.5 69z" />
    <glyph glyph-name="uni0458" unicode="&#x458;" horiz-adv-x="552" 
d="M-80 -422q0 121 68 121q13 0 48 -4t44 -4q12 0 27.5 8t33.5 25t30.5 52.5t12.5 82.5q0 51 -10 156.5t-10 179.5v622q0 55 -17.5 79t-42.5 24q-24 0 -24 26t23 37.5t51 11.5h137q17 0 27 -10t13.5 -32t4.5 -39t-0.5 -50.5t-1.5 -46.5v-633q0 -177 -46.5 -318t-103.5 -220
q-56 -76 -100.5 -115t-95.5 -39q-33 0 -50.5 23t-17.5 63zM119 1264q0 44 34 77t78 33q45 0 79 -33t34 -77q0 -43 -34.5 -77t-78.5 -34t-78 34t-34 77z" />
    <glyph glyph-name="uni0459" unicode="&#x459;" horiz-adv-x="1503" 
d="M16 94q0 58 23 81.5t53 23.5q22 0 48 -11.5t42 -11.5q40 0 64 38t45 128q26 117 26 297q0 155 -18 207q-13 33 -39.5 53.5t-54.5 20.5q-24 0 -32.5 4.5t-8.5 17.5q0 19 8.5 30.5t25.5 16t28.5 5.5t31.5 1h639q27 0 52.5 -13.5t25.5 -39.5q0 -22 -27 -22q-18 0 -29.5 -5.5
t-21.5 -29.5t-10 -68v-211q77 21 198 21q19 0 34.5 -0.5t43.5 -3.5t50.5 -8t52 -15.5t52 -25t45.5 -37t38.5 -50.5t25 -67.5t9.5 -85.5q0 -81 -28.5 -143t-70 -97t-98.5 -57.5t-105 -29.5t-98 -7h-325q-31 0 -54.5 11.5t-23.5 39.5q0 10 7 18.5t22 8.5q14 0 21 2t16.5 10
t13.5 29.5t4 56.5v690q0 24 -5 29.5t-20 5.5h-200q-29 0 -53.5 -24t-24.5 -86v-158q0 -123 -22 -272.5t-73 -239.5q-45 -81 -92.5 -112.5t-107.5 -31.5q-49 0 -76 34.5t-27 82.5zM887 193q0 -52 14.5 -76.5t61.5 -24.5h77q38 0 72.5 10.5t68 35t53 71.5t19.5 113
q0 110 -52 165.5t-165 55.5q-45 0 -82.5 -6.5t-51.5 -12.5l-15 -6v-325z" />
    <glyph glyph-name="uni045A" unicode="&#x45a;" horiz-adv-x="1529" 
d="M80 51q0 10 6.5 18.5t19.5 8.5q19 0 29 3.5t19.5 26t9.5 68.5v641q0 62 -15.5 82.5t-42.5 20.5q-26 0 -26 26t23 37.5t51 11.5h186q78 0 78 -49q0 -26 -29 -26q-26 0 -40.5 -20t-14.5 -83v-239h418v239q0 63 -16.5 83t-41.5 20q-28 0 -28 26t23.5 37.5t51.5 11.5h185
q80 0 80 -49q0 -26 -29 -26q-16 0 -26.5 -5.5t-19.5 -29.5t-9 -68v-211q67 21 188 21q26 0 47.5 -1t60.5 -7t69.5 -16.5t66 -32.5t59 -52t39.5 -77.5t16 -106.5q0 -81 -28 -143t-70 -97t-98.5 -57.5t-104.5 -29.5t-98 -7h-326q-30 0 -53.5 11.5t-23.5 39.5q0 27 28 27
q13 0 20 2t17.5 10t15.5 29.5t5 56.5v311h-418v-311q0 -35 4 -56.5t13.5 -29.5t16.5 -10t21 -2q15 0 22 -8.5t7 -18.5q0 -51 -76 -51h-186q-30 0 -53 11.5t-23 39.5zM922 193q0 -28 1.5 -42.5t8.5 -30t22.5 -22t40.5 -6.5h78q39 0 73.5 10.5t67.5 35t52.5 71.5t19.5 113
q0 110 -52 165.5t-165 55.5q-45 0 -82 -6.5t-51 -12.5l-14 -6v-325z" />
    <glyph glyph-name="uni045B" unicode="&#x45b;" horiz-adv-x="1116" 
d="M51 1165q0 27 15.5 47.5t52.5 20.5h45v72q0 49 -16.5 75.5t-41.5 26.5q-22 0 -22 27q0 47 74 47h129q17 0 27 -8.5t14 -26t5 -29.5t1 -33v-151h256q21 0 29 -3.5t8 -17.5q0 -30 -17 -49.5t-53 -19.5h-223v-352q59 105 168.5 171t204.5 66q122 0 180.5 -73.5t58.5 -239.5
v-539q0 -35 4 -56.5t13.5 -29.5t16.5 -10t21 -2q15 0 22 -8.5t7 -18.5q0 -51 -76 -51h-186q-28 0 -52 12t-24 39q0 9 7 18t20 9q14 0 21.5 2t17.5 10t14 29.5t4 56.5v451q0 125 -13 171q-28 99 -134 99q-86 0 -154.5 -53.5t-104.5 -139t-36 -182.5v-346q0 -35 4 -56.5
t13.5 -29.5t16.5 -10t21 -2q15 0 22 -8.5t7 -18.5q0 -51 -76 -51h-186q-30 0 -53 11.5t-23 39.5q0 10 6.5 18.5t19.5 8.5q19 0 29 3.5t19.5 26t9.5 68.5v967h-84q-9 0 -13.5 0.5t-10 5.5t-5.5 16z" />
    <glyph glyph-name="uni045C" unicode="&#x45c;" horiz-adv-x="1001" 
d="M80 51q0 10 6.5 18.5t19.5 8.5q19 0 29 3.5t19.5 26t9.5 68.5v641q0 62 -15.5 82.5t-42.5 20.5q-26 0 -26 26t23 37.5t51 11.5h186q78 0 78 -49q0 -26 -29 -26q-26 0 -40.5 -20t-14.5 -83v-272q49 14 115.5 52t121.5 91q127 125 127 201q0 16 -13.5 23.5t-25.5 7.5
q-17 0 -21.5 5t-4.5 17q0 53 78 53h153q15 0 24 -1t21.5 -4.5t18.5 -13.5t6 -26q0 -9 -5.5 -18t-12.5 -15.5t-21.5 -19.5t-24.5 -23q-31 -29 -89 -91t-115.5 -116.5t-116.5 -97.5q15 -19 93.5 -125t170.5 -225q4 -5 16 -19.5t17.5 -21t15.5 -18t20 -21t21 -18.5
q12 -9 26.5 -18t22.5 -14t13.5 -12.5t5.5 -17.5q0 -30 -33.5 -52.5t-85.5 -22.5q-67 0 -108.5 36t-114.5 142q-34 50 -86 131.5t-84.5 129.5t-50.5 66q-15 -7 -33.5 -13.5t-29.5 -9.5l-11 -3v-287q0 -35 4 -56.5t13.5 -29.5t16.5 -10t21 -2q15 0 22 -8.5t7 -18.5
q0 -51 -76 -51h-186q-30 0 -53 11.5t-23 39.5zM483 1102l121 246q22 44 39 60.5t43 16.5q18 0 34.5 -4.5t32 -21.5t15.5 -45q0 -37 -33 -78l-209 -201z" />
    <glyph glyph-name="uni045E" unicode="&#x45e;" horiz-adv-x="987" 
d="M12 946q0 26 23 37.5t53 11.5h193q73 0 73 -49q0 -13 -5.5 -19.5t-22.5 -6.5q-9 0 -15.5 -1.5t-14 -11.5t-7.5 -30q0 -42 28 -113l248 -653l193 704q8 27 8 62q0 43 -41 43q-29 0 -29 26q0 49 74 49h137q17 0 27.5 -1t23 -5t19 -13t6.5 -24q0 -32 -25 -32t-41.5 -17.5
t-37.5 -83.5l-248 -776q-42 -132 -80 -229.5t-82 -177.5t-91 -121t-97 -41q-51 0 -74 26.5t-23 87.5q0 109 80 109q10 0 36 -3t48 -3q50 0 82.5 56t32.5 122q0 59 -45 174l-285 729q-37 95 -54 121.5t-42 26.5t-25 26zM260 1260q0 77 94 77q45 0 66.5 -26t21.5 -66
q0 -43 25 -73.5t86 -30.5q111 0 111 104q0 40 21.5 66t66.5 26q94 0 94 -77q0 -62 -51 -106.5t-115 -62.5t-127 -18t-127 18t-115 62.5t-51 106.5z" />
    <glyph glyph-name="uni045F" unicode="&#x45f;" horiz-adv-x="1101" 
d="M80 51q0 10 6.5 18.5t19.5 8.5q14 0 22 2t17.5 10.5t14 30t4.5 55.5v641q0 61 -15.5 82t-42.5 21q-26 0 -26 26t23 37.5t51 11.5h186q78 0 78 -49q0 -26 -29 -26q-26 0 -40.5 -20t-14.5 -83v-692q0 -23 5 -28t19 -5h365q12 0 17 1t8.5 8.5t3.5 23.5v692q0 63 -16.5 83
t-41.5 20q-28 0 -28 26t23.5 37.5t51.5 11.5h183q80 0 80 -49q0 -26 -29 -26q-25 0 -39 -19.5t-14 -83.5v-641q0 -34 4.5 -55.5t14 -30t17 -10.5t19.5 -2q29 0 29 -27q0 -28 -23 -39.5t-53 -11.5h-238q-70 0 -91 -12.5t-21 -61.5q0 -26 12 -77.5t12 -73.5q0 -29 -14.5 -52.5
t-48.5 -23.5q-32 0 -50 25t-18 51q0 22 13.5 73.5t13.5 77.5q0 49 -20.5 61.5t-90.5 12.5h-235q-28 0 -51 12t-23 39z" />
    <glyph glyph-name="uni0490" unicode="&#x490;" horiz-adv-x="897" 
d="M92 1417q0 43 80 43h393q60 0 99 6t61.5 21.5t32 29t22.5 39.5q9 19 23 59t26 56.5t31 16.5q14 0 22.5 -15t12 -45t4 -49t0.5 -51v-8q0 -92 -18 -126t-82 -34q-15 0 -66 4t-67 4h-236q-34 0 -44.5 -9.5t-10.5 -45.5v-1141q0 -106 61 -106q19 0 25 -6t6 -19q0 -41 -80 -41
h-213q-17 0 -28.5 1t-25 4.5t-20 12.5t-6.5 23t5 19.5t22 5.5q63 0 63 106v1118q0 55 -13.5 78t-51.5 23q-17 0 -22 6.5t-5 19.5z" />
    <glyph glyph-name="uni0491" unicode="&#x491;" horiz-adv-x="776" 
d="M80 51q0 10 6.5 18.5t19.5 8.5q19 0 29 3.5t19.5 26t9.5 68.5v641q0 62 -15.5 82.5t-42.5 20.5q-26 0 -26 26t23 37.5t51 11.5h366q38 0 64.5 20t40 48.5t23 56.5t21 48t27.5 20q24 0 30.5 -36t6.5 -110q0 -159 -65 -159q-20 0 -70.5 9t-108.5 9h-155v-725q0 -35 4 -56.5
t13.5 -29.5t16.5 -10t21 -2q15 0 22 -8.5t7 -18.5q0 -51 -76 -51h-186q-30 0 -53 11.5t-23 39.5z" />
    <glyph glyph-name="uni2000" unicode="&#x2000;" horiz-adv-x="951" 
 />
    <glyph glyph-name="uni2001" unicode="&#x2001;" horiz-adv-x="1903" 
 />
    <glyph glyph-name="uni2002" unicode="&#x2002;" horiz-adv-x="951" 
 />
    <glyph glyph-name="uni2003" unicode="&#x2003;" horiz-adv-x="1903" 
 />
    <glyph glyph-name="uni2004" unicode="&#x2004;" horiz-adv-x="634" 
 />
    <glyph glyph-name="uni2005" unicode="&#x2005;" horiz-adv-x="475" 
 />
    <glyph glyph-name="uni2006" unicode="&#x2006;" horiz-adv-x="317" 
 />
    <glyph glyph-name="uni2007" unicode="&#x2007;" horiz-adv-x="317" 
 />
    <glyph glyph-name="uni2008" unicode="&#x2008;" horiz-adv-x="237" 
 />
    <glyph glyph-name="uni2009" unicode="&#x2009;" horiz-adv-x="380" 
 />
    <glyph glyph-name="uni200A" unicode="&#x200a;" horiz-adv-x="105" 
 />
    <glyph glyph-name="uni2010" unicode="&#x2010;" horiz-adv-x="815" 
d="M137 465v113h543v-113h-543z" />
    <glyph glyph-name="uni2011" unicode="&#x2011;" horiz-adv-x="815" 
d="M137 465v113h543v-113h-543z" />
    <glyph glyph-name="figuredash" unicode="&#x2012;" horiz-adv-x="815" 
d="M137 465v113h543v-113h-543z" />
    <glyph glyph-name="endash" unicode="&#x2013;" horiz-adv-x="1298" 
d="M100 465v113h1100v-113h-1100z" />
    <glyph glyph-name="emdash" unicode="&#x2014;" horiz-adv-x="1730" 
d="M109 465v113h1511v-113h-1511z" />
    <glyph glyph-name="quoteleft" unicode="&#x2018;" horiz-adv-x="489" 
d="M156 1106q0 137 82 243.5t194 137.5l6 -41q-61 -24 -109 -85.5t-48 -111.5q0 -30 12.5 -60.5t40.5 -41.5q49 -21 75 -48.5t23 -68.5q-2 -46 -32 -79t-91 -33q-67 0 -110 49.5t-43 138.5z" />
    <glyph glyph-name="quoteright" unicode="&#x2019;" horiz-adv-x="483" 
d="M53 940q61 24 109.5 85.5t48.5 111.5q0 30 -12.5 60.5t-40.5 41.5q-104 44 -99 117q2 46 32 79t91 33q67 0 110.5 -49.5t43.5 -138.5q0 -137 -82 -243.5t-195 -137.5z" />
    <glyph glyph-name="quotedblleft" unicode="&#x201c;" horiz-adv-x="753" 
d="M139 1061q0 137 82 243.5t195 137.5l6 -41q-61 -24 -109.5 -85.5t-48.5 -111.5q0 -30 12.5 -60.5t40.5 -41.5q104 -44 99 -117q-2 -46 -32 -79.5t-91 -33.5q-67 0 -110.5 50t-43.5 139zM475 1057q0 137 82 243.5t195 137.5l6 -41q-61 -24 -109.5 -85.5t-48.5 -111.5
q0 -30 12.5 -60.5t40.5 -41.5q104 -44 99 -117q-2 -46 -32 -79.5t-91 -33.5q-67 0 -110.5 50t-43.5 139z" />
    <glyph glyph-name="quotedblright" unicode="&#x201d;" horiz-adv-x="747" 
d="M23 913q61 24 109 85.5t48 111.5q0 30 -12.5 60.5t-40.5 41.5q-49 21 -75 48.5t-23 68.5q2 46 32 79.5t91 33.5q67 0 110 -50t43 -139q0 -137 -82 -243.5t-194 -137.5zM362 913q61 24 109.5 85.5t48.5 111.5q0 30 -12.5 60.5t-40.5 41.5q-49 21 -75 48.5t-23 68.5
q2 46 32 79.5t91 33.5q67 0 110 -50t43 -139q0 -137 -82 -243.5t-194 -137.5z" />
    <glyph glyph-name="quotedblbase" unicode="&#x201e;" horiz-adv-x="751" 
d="M74 -319q61 24 109 85t48 111q0 30 -12.5 61t-40.5 42q-49 21 -75 48t-23 68q2 46 32 79.5t91 33.5q67 0 110 -50t43 -139q0 -137 -81.5 -243t-194.5 -137zM422 -319q61 25 109.5 85.5t48.5 110.5q0 30 -13 61t-41 42q-49 21 -75 48t-23 68q2 46 32 79.5t91 33.5
q67 0 110.5 -50t43.5 -139q0 -137 -82 -243t-195 -137z" />
    <glyph glyph-name="dagger" unicode="&#x2020;" horiz-adv-x="997" 
d="M66 995q0 49 24 82t72 33q35 0 112 -37t125 -37h66v84q0 67 -36 152t-36 133q0 55 29.5 84t83.5 29q43 0 73.5 -29.5t30.5 -83.5q0 -55 -40 -138t-40 -147v-84h66q54 0 130 37t112 37q43 0 67.5 -33.5t24.5 -81.5q0 -44 -25 -74t-67 -30t-116.5 40t-127.5 40h-64
q0 -160 86 -252q-31 -55 -57.5 -278.5t-26.5 -503.5v-306h-71v301q0 285 -25 508t-55 277q84 90 84 254h-64q-51 0 -128 -40t-111 -40q-45 0 -70.5 29.5t-25.5 74.5z" />
    <glyph glyph-name="bullet" unicode="&#x2022;" horiz-adv-x="1058" 
d="M254 686q0 133 91 228.5t222 95.5q132 0 223 -95.5t91 -228.5t-91 -228.5t-223 -95.5q-131 0 -222 95.5t-91 228.5z" />
    <glyph glyph-name="ellipsis" unicode="&#x2026;" horiz-adv-x="1574" 
d="M106 115q0 52 36.5 88.5t86.5 36.5q53 0 89 -36t36 -89q0 -50 -36.5 -86.5t-88.5 -36.5q-49 0 -86 37t-37 86zM659 115q0 52 36.5 88.5t86.5 36.5q52 0 88.5 -36t36.5 -89q0 -50 -36.5 -86.5t-88.5 -36.5q-50 0 -86.5 37t-36.5 86zM1212 115q0 52 36.5 88.5t86.5 36.5
q53 0 89 -36t36 -89q0 -50 -36.5 -86.5t-88.5 -36.5q-49 0 -86 37t-37 86z" />
    <glyph glyph-name="uni202F" unicode="&#x202f;" horiz-adv-x="380" 
 />
    <glyph glyph-name="uni205F" unicode="&#x205f;" horiz-adv-x="475" 
 />
    <glyph glyph-name="Euro" unicode="&#x20ac;" 
d="M8 575q8 55 41 84q12 11 19.5 16t21 9.5t33.5 5.5q0 67 2 98h-117q8 55 41 84q20 17 36.5 24.5t51.5 8.5q40 270 191 427t370 157q130 0 271 -66q22 -11 35.5 -20t28.5 -25.5t22.5 -42t7.5 -59.5q0 -28 -2 -57.5t-9 -74.5t-24 -73.5t-43 -28.5q-14 0 -23 8t-13.5 19.5
t-11.5 32.5q-1 3 -1.5 5.5t-1.5 4.5q-31 95 -31 96q-40 100 -94.5 144.5t-153.5 44.5q-42 0 -83 -14t-84.5 -50t-78 -90t-60.5 -141t-36 -197h561q-7 -55 -40 -84q-36 -33 -117 -33h-408l2 -96h445q-8 -55 -41 -84q-36 -33 -117 -33h-279q42 -473 322 -473q105 0 171.5 46.5
t117.5 127.5q28 44 40 56t29 12q48 0 48 -43q0 -33 -31 -89.5t-86 -109.5q-46 -42 -81.5 -67t-104 -46.5t-152.5 -21.5q-61 0 -120.5 21t-117 68.5t-103.5 116.5t-78.5 172.5t-43.5 229.5h-121z" />
    <glyph glyph-name="trademark" unicode="&#x2122;" horiz-adv-x="1746" 
d="M23 1341q0 19 0.5 28t2.5 21.5t6.5 18t13.5 10t22 4.5q12 0 37 -2t32 -2h432q9 0 33.5 2t34.5 2q30 0 39.5 -20t9.5 -62q0 -40 -10 -92.5t-29 -52.5q-16 0 -25.5 15t-18.5 48t-11 39q-17 26 -38.5 34.5t-70.5 8.5h-61v-694q0 -53 27 -53q17 0 21.5 -5t4.5 -20
q0 -17 -18 -25.5t-39 -8.5h-127q-22 0 -40 8.5t-18 25.5q0 14 5 19.5t22 5.5q10 0 19.5 12t9.5 41v694h-66q-44 0 -67.5 -9t-40.5 -34q-2 -6 -11.5 -39t-18.5 -48t-24 -15q-21 0 -29.5 50t-8.5 95zM727 569q0 25 29 25q6 0 11.5 5.5t10 20t4.5 35.5v654q0 25 -5.5 37t-9 13
t-13.5 1q-17 0 -22 6t-5 20q0 33 57 33h125q19 0 32.5 -11.5t17.5 -22.5l4 -11l237 -645l256 657q0 1 0.5 3.5t4 8t9 10t17.5 8t29 3.5h102q59 0 59 -33q0 -26 -30 -26q-9 0 -17 -15t-8 -36v-662q0 -53 25 -53q30 0 30 -25q0 -17 -19 -25.5t-40 -8.5h-125q-55 0 -55 34v7.5
v6t0.5 4.5t2 3.5t4 2t7 1.5h10.5q12 0 21.5 12t9.5 41v627l-268 -682q-29 -72 -58 -72q-27 0 -47 58l-260 700v-623q0 -61 29 -61q11 0 21 -8t10 -17q0 -34 -60 -34h-76q-22 0 -39.5 8.5t-17.5 25.5z" />
    <glyph glyph-name="uni25FC" unicode="&#x25fc;" horiz-adv-x="993" 
d="M0 0v993h993v-993h-993z" />
  </font>
</defs>
</svg>
