<?xml version="1.0" standalone="no"?>
<!DOCTYPE svg PUBLIC "-//W3C//DTD SVG 1.1//EN" "http://www.w3.org/Graphics/SVG/1.1/DTD/svg11.dtd" >
<svg xmlns="http://www.w3.org/2000/svg" xmlns:xlink="http://www.w3.org/1999/xlink" version="1.1">
<metadata>
Created by FontForge 20161003 at Tue Apr 11 19:56:41 2017
 By www-data
</metadata>
<defs>
<font id="SegoeUILightwebfont" horiz-adv-x="0" >
  <font-face 
    font-family="SegoeUILightwebfont"
    font-weight="300"
    font-stretch="normal"
    units-per-em="2048"
    panose-1="2 11 5 2 4 2 4 2 2 3"
    ascent="1638"
    descent="-410"
    x-height="1024"
    cap-height="1434"
    bbox="-431 -550 2677 2000"
    underline-thickness="119"
    underline-position="-355"
    unicode-range="U+000D-FB04"
  />
<missing-glyph horiz-adv-x="748" 
d="M68 0v1365h544v-1365h-544zM136 68h408v1229h-408v-1229z" />
    <glyph glyph-name=".notdef" horiz-adv-x="748" 
d="M68 0v1365h544v-1365h-544zM136 68h408v1229h-408v-1229z" />
    <glyph glyph-name="glyph1" 
 />
    <glyph glyph-name="uni000D" unicode="&#xd;" horiz-adv-x="199" 
 />
    <glyph glyph-name="space" unicode=" " horiz-adv-x="561" 
 />
    <glyph glyph-name="exclam" unicode="!" horiz-adv-x="582" 
d="M211 63q0 35 23 57.5t57 22.5t58 -22.5t24 -57.5q0 -34 -24 -57.5t-58 -23.5t-57 23.5t-23 57.5zM236 1434h106l-10 -1031h-86z" />
    <glyph glyph-name="quotedbl" unicode="&#x22;" horiz-adv-x="686" 
d="M177 985v449h86v-449h-86zM425 985v449h86v-449h-86z" />
    <glyph glyph-name="numbersign" unicode="#" horiz-adv-x="1237" 
d="M53 522l19 78h280l76 346h-293l19 78h290l88 410h80l-88 -410h269l88 410h80l-89 -410h275l-19 -78h-272l-76 -346h285l-18 -78h-283l-86 -399h-80l86 399h-268l-86 -399h-80l86 399h-283zM432 600h268l76 346h-268z" />
    <glyph glyph-name="dollar" unicode="$" horiz-adv-x="1055" 
d="M162 80v102q152 -98 327 -98v598q-197 113 -262 194.5t-65 194.5q0 136 88 237t239 124v182h78v-180q152 0 260 -43v-103q-103 60 -260 60v-607q184 -101 255 -185.5t71 -199.5q0 -140 -85.5 -235t-240.5 -117v-213h-78v209q-188 0 -327 80zM258 1083q0 -88 46 -152.5
t185 -144.5v560q-107 -17 -169 -88t-62 -175zM567 86q114 20 172 87.5t58 164.5q0 92 -48.5 156t-181.5 141v-549z" />
    <glyph glyph-name="percent" unicode="%" horiz-adv-x="1606" 
d="M82 1092q0 175 94.5 272.5t247.5 97.5q150 0 238 -97t88 -271q0 -156 -91.5 -260.5t-244.5 -104.5q-154 0 -243 101t-89 262zM174 1090q0 -129 64.5 -205t177.5 -76q114 0 178.5 78t64.5 209q0 141 -64 212.5t-173 71.5q-115 0 -181.5 -76.5t-66.5 -213.5zM317 -33
l863 1465h96l-860 -1465h-99zM866 338q0 177 96 274t246 97t238 -98t88 -271q0 -156 -91.5 -260.5t-244.5 -104.5t-242.5 101t-89.5 262zM958 336q0 -129 64.5 -205t177.5 -76q115 0 179.5 77.5t64.5 209.5q0 141 -64 213t-174 72q-114 0 -181 -78t-67 -213z" />
    <glyph glyph-name="ampersand" unicode="&#x26;" horiz-adv-x="1427" 
d="M141 360q0 276 332 424q-162 187 -162 342q0 139 98.5 235.5t254.5 96.5q143 0 225 -81.5t82 -207.5q0 -137 -83 -233.5t-261 -177.5q150 -159 440 -434q125 186 133 434h96q-7 -267 -166 -498q171 -168 273 -262l-143 2l-193 188q-201 -213 -479 -213q-211 0 -329 108.5
t-118 276.5zM238 367q0 -135 95.5 -221.5t262.5 -86.5q229 0 410 191q-332 321 -469 469q-299 -130 -299 -352zM408 1124q0 -128 155 -301q174 77 242.5 154t68.5 180q0 99 -63 158t-156 59q-113 0 -180 -72.5t-67 -177.5z" />
    <glyph glyph-name="quotesingle" unicode="'" horiz-adv-x="438" 
d="M177 985v449h86v-449h-86z" />
    <glyph glyph-name="parenleft" unicode="(" horiz-adv-x="578" 
d="M150 545q0 540 307 889h98q-313 -360 -313 -887q0 -497 309 -873h-98q-303 354 -303 871z" />
    <glyph glyph-name="parenright" unicode=")" horiz-adv-x="578" 
d="M23 1434h98q307 -351 307 -889q0 -519 -303 -871h-98q309 376 309 873q0 527 -313 887z" />
    <glyph glyph-name="asterisk" unicode="*" horiz-adv-x="831" 
d="M70 1126l26 86l289 -102l-16 324h94l-14 -324l286 102l27 -86l-293 -75l199 -267l-76 -51l-174 277l-178 -277l-74 51l199 267z" />
    <glyph glyph-name="plus" unicode="+" horiz-adv-x="1331" 
d="M213 555v84h412v412h84v-412h411v-84h-411v-412h-84v412h-412z" />
    <glyph glyph-name="comma" unicode="," horiz-adv-x="455" 
d="M47 -248l150 475h102l-174 -475h-78z" />
    <glyph glyph-name="hyphen" unicode="-" horiz-adv-x="815" 
d="M145 555v90h547v-90h-547z" />
    <glyph glyph-name="period" unicode="." horiz-adv-x="455" 
d="M147 63q0 35 23 57.5t57 22.5t58 -22.5t24 -57.5q0 -34 -24 -57.5t-58 -23.5t-57 23.5t-23 57.5z" />
    <glyph glyph-name="slash" unicode="/" horiz-adv-x="750" 
d="M-29 -238l693 1672h96l-697 -1672h-92z" />
    <glyph glyph-name="zero" unicode="0" horiz-adv-x="1055" 
d="M94 686q0 383 117.5 577.5t335.5 194.5q414 0 414 -735q0 -366 -117 -557t-328 -191q-198 0 -310 182t-112 529zM190 698q0 -308 88 -473.5t250 -165.5q159 0 247.5 168.5t88.5 481.5q0 665 -325 665q-165 0 -257 -169t-92 -507z" />
    <glyph glyph-name="one" unicode="1" horiz-adv-x="730" 
d="M83 1122v84q63 21 117 47.5t103.5 58.5t96 70.5t94.5 83.5h32v-1466h-92v1321q-69 -66 -157.5 -114t-193.5 -85z" />
    <glyph glyph-name="two" unicode="2" horiz-adv-x="1055" 
d="M96 0v67q0 67 11 120.5t33.5 98.5t56 84.5t78 79t101 81t123.5 90.5q65 47 121.5 93t98.5 99t66.5 116.5t24.5 145.5q0 142 -78.5 220.5t-220.5 78.5q-96 0 -185 -42t-174 -117v108q82 63 177 99t198 36q86 0 156 -26t119.5 -74t76.5 -116t27 -152q0 -99 -28.5 -175.5
t-77.5 -139t-114.5 -115t-138.5 -104.5q-97 -69 -164 -122.5t-109 -104.5t-60.5 -105t-18.5 -125v-15h713v-84h-812z" />
    <glyph glyph-name="three" unicode="3" horiz-adv-x="1055" 
d="M115 51v105q164 -97 309 -97q173 0 271 88.5t98 231.5q0 159 -112.5 241t-320.5 82h-110v84h98q192 0 292.5 81.5t100.5 230.5q0 129 -73 202.5t-213 73.5q-135 0 -283 -94v98q162 80 297 80q170 0 269.5 -92t99.5 -244q0 -291 -279 -370v-4q150 -15 240 -111.5
t90 -243.5q0 -188 -130 -303t-337 -115q-160 0 -307 76z" />
    <glyph glyph-name="four" unicode="4" horiz-adv-x="1087" 
d="M50 375v90q96 109 195 234.5t189.5 253.5t166.5 252t127 229h98v-976h224v-83h-224v-375h-92v375h-684zM156 458h578v812q-73 -126 -151.5 -244t-155 -222.5t-146.5 -192.5t-125 -153z" />
    <glyph glyph-name="five" unicode="5" horiz-adv-x="1055" 
d="M160 29v106q138 -76 274 -76q176 0 275 97t99 258q0 350 -399 350q-90 0 -206 -12l43 682h597v-84h-515l-33 -510q103 8 148 8q227 0 344 -111.5t117 -310.5q0 -201 -124 -326t-354 -125q-151 0 -266 54z" />
    <glyph glyph-name="six" unicode="6" horiz-adv-x="1055" 
d="M123 629q0 188 37 341t108.5 261.5t175 167.5t236.5 59q118 0 209 -35v-98q-102 49 -211 49q-107 0 -192 -52.5t-145 -147.5t-92 -226.5t-32 -290.5h4q105 240 359 240q88 0 160 -34t123.5 -94t79.5 -140.5t28 -173.5q0 -104 -31.5 -192t-88.5 -152t-135.5 -100
t-172.5 -36q-99 0 -177 42.5t-132 125t-82.5 205t-28.5 281.5zM229 469q0 -82 23 -156.5t65 -130.5t101.5 -89.5t132.5 -33.5q69 0 128.5 28.5t102.5 79t67.5 119.5t24.5 150q0 84 -21.5 153.5t-62.5 119t-99.5 77t-131.5 27.5q-71 0 -131.5 -29.5t-104.5 -78t-69 -110.5
t-25 -126z" />
    <glyph glyph-name="seven" unicode="7" horiz-adv-x="1022" 
d="M70 1350v84h882v-34q-101 -185 -189 -356.5t-159.5 -340.5t-124.5 -341.5t-83 -361.5h-103q31 185 84 357t123 337.5t153 328t175 327.5h-758z" />
    <glyph glyph-name="eight" unicode="8" horiz-adv-x="1055" 
d="M107 400q0 57 16.5 112.5t50 104.5t83.5 88t118 63q-50 24 -91 58t-70 75.5t-44.5 90t-15.5 100.5q0 79 28.5 146t78.5 116t119 76.5t149 27.5q81 0 150 -28t119 -77t78 -116t28 -145q0 -53 -15.5 -101t-43.5 -90t-68 -75.5t-89 -57.5q66 -24 115 -63t82 -88t49 -104.5
t16 -112.5q0 -100 -31 -178.5t-86.5 -133t-133 -83t-171.5 -28.5q-92 0 -169 28.5t-133 82.5t-87.5 132.5t-31.5 179.5zM202 390q0 -75 24 -136t66.5 -104.5t102 -67t131.5 -23.5q71 0 131 23.5t103.5 67t67.5 104.5t24 136q0 67 -23 127t-65.5 105t-103 71.5t-134.5 26.5
q-69 0 -128.5 -24.5t-103 -68t-68 -104.5t-24.5 -133zM252 1089q0 -60 21.5 -111.5t59 -89.5t88 -60t107.5 -22t108 22t88.5 60.5t59.5 90t22 110.5q0 61 -21.5 113t-59 90.5t-88 60t-109.5 21.5q-62 0 -112.5 -22.5t-87 -61t-56.5 -90.5t-20 -111z" />
    <glyph glyph-name="nine" unicode="9" horiz-adv-x="1055" 
d="M102 985q0 106 32.5 193t90.5 149t137.5 96.5t172.5 34.5q95 0 172 -40.5t131 -122t83 -203t29 -283.5q0 -200 -36.5 -355t-107.5 -261.5t-176 -162t-243 -55.5q-107 0 -209 37v101q115 -54 211 -54q227 0 346 181.5t119 535.5h-4q-99 -231 -352 -231q-89 0 -161.5 33
t-125 91.5t-81 139t-28.5 176.5zM199 1004q0 -87 23.5 -156.5t65.5 -118t101 -74.5t131 -26q66 0 125 26.5t102.5 71t69 104t25.5 125.5q0 91 -23.5 168t-66 132.5t-101.5 86.5t-129 31t-129.5 -28t-102.5 -77.5t-67 -117.5t-24 -147z" />
    <glyph glyph-name="colon" unicode=":" horiz-adv-x="455" 
d="M147 63q0 35 23 57.5t57 22.5t58 -22.5t24 -57.5q0 -34 -24 -57.5t-58 -23.5t-57 23.5t-23 57.5zM147 963q0 34 23 56.5t57 22.5t58 -22.5t24 -56.5t-24 -58t-58 -24t-57 24t-23 58z" />
    <glyph glyph-name="semicolon" unicode=";" horiz-adv-x="455" 
d="M47 -248l150 475h102l-174 -475h-78zM156 963q0 34 22.5 56.5t57.5 22.5q34 0 57.5 -22.5t23.5 -56.5t-23.5 -58t-57.5 -24q-35 0 -57.5 24t-22.5 58z" />
    <glyph glyph-name="less" unicode="&#x3c;" horiz-adv-x="1331" 
d="M250 580v18l833 467v-94l-677 -379v-4l677 -334v-96z" />
    <glyph glyph-name="equal" unicode="=" horiz-adv-x="1331" 
d="M213 362v84h907v-84h-907zM213 750v84h907v-84h-907z" />
    <glyph glyph-name="greater" unicode="&#x3e;" horiz-adv-x="1331" 
d="M250 158v96l678 334v4l-678 379v94l833 -467v-18z" />
    <glyph glyph-name="question" unicode="?" horiz-adv-x="881" 
d="M119 1245v107q71 54 149.5 80t174.5 26q74 0 137.5 -21t110 -61.5t73 -99t26.5 -133.5q0 -57 -16 -104t-41.5 -87t-58.5 -75t-67 -68q-53 -50 -86.5 -84.5t-52.5 -62.5t-26.5 -54.5t-7.5 -62.5q0 -46 8 -83.5t16 -63.5h-81q-10 25 -17.5 65.5t-7.5 80.5q0 47 12.5 85.5
t35 72.5t54 66t69.5 65q32 29 63 60.5t55 67.5t38.5 78.5t14.5 93.5q0 55 -18.5 98.5t-51.5 74t-79.5 46.5t-102.5 16q-94 0 -173.5 -33t-149.5 -90zM333 63q0 35 22.5 57.5t56.5 22.5q35 0 58.5 -22.5t23.5 -57.5q0 -34 -23.5 -57.5t-58.5 -23.5q-34 0 -56.5 23.5
t-22.5 57.5z" />
    <glyph glyph-name="at" unicode="@" horiz-adv-x="1933" 
d="M168 616q0 359 235.5 600.5t589.5 241.5q351 0 562.5 -206t211.5 -523q0 -237 -107.5 -389t-268.5 -152q-222 0 -238 238h-4q-90 -238 -293 -238q-140 0 -221.5 100.5t-81.5 268.5q0 227 114 378.5t300 151.5q78 0 137 -40t78 -93h4q4 61 10 119h88l-51 -584
q0 -217 153 -217q124 0 204.5 125t80.5 322q0 299 -181 477t-507 178q-318 0 -518.5 -218t-200.5 -540q0 -327 191 -523.5t520 -196.5q249 0 426 88v-93q-196 -79 -436 -79q-361 0 -579 223t-218 581zM649 565q0 -135 57.5 -214t159.5 -79q136 0 216.5 139t80.5 355
q0 117 -53.5 177.5t-146.5 60.5q-144 0 -229 -120t-85 -319z" />
    <glyph glyph-name="A" unicode="A" horiz-adv-x="1288" 
d="M59 0l541 1434h94l535 -1434h-111l-164 446h-622l-164 -446h-109zM367 537h553l-242 663q-11 30 -18 59q-7 25 -15 50h-4q-17 -66 -33 -107z" />
    <glyph glyph-name="B" unicode="B" horiz-adv-x="1114" 
d="M184 0v1434h377q169 0 269 -91t100 -241q0 -125 -66.5 -216.5t-185.5 -129.5v-4q149 -14 235 -106.5t86 -235.5q0 -181 -117 -295.5t-313 -114.5h-385zM283 90h266q169 0 258.5 81t89.5 230q0 297 -403 297h-211v-608zM283 788h200q156 0 250 80t94 217q0 258 -305 258
h-239v-555z" />
    <glyph glyph-name="C" unicode="C" horiz-adv-x="1272" 
d="M109 688q0 349 201 559.5t511 210.5q165 0 316 -53v-105q-151 68 -318 68q-270 0 -439 -183t-169 -487q0 -293 161.5 -462.5t409.5 -169.5q198 0 355 77v-96q-174 -72 -363 -72q-294 0 -479.5 197.5t-185.5 515.5z" />
    <glyph glyph-name="D" unicode="D" horiz-adv-x="1380" 
d="M184 0v1434h359q357 0 543 -178t186 -519q0 -328 -199.5 -532.5t-550.5 -204.5h-338zM283 90h225q319 0 490 165.5t171 477.5q0 610 -641 610h-245v-1253z" />
    <glyph glyph-name="E" unicode="E" horiz-adv-x="1024" 
d="M184 0v1434h670v-91h-571v-575h530v-90h-530v-588h604v-90h-703z" />
    <glyph glyph-name="F" unicode="F" horiz-adv-x="952" 
d="M184 0v1434h670v-91h-571v-585h530v-90h-530v-668h-99z" />
    <glyph glyph-name="G" unicode="G" horiz-adv-x="1368" 
d="M109 696q0 326 195 544t521 218q189 0 367 -76v-108q-195 94 -381 94q-271 0 -435.5 -185t-164.5 -472q0 -302 154.5 -473.5t416.5 -171.5q194 0 340 84v473h-338v90h437v-613q-222 -125 -457 -125q-293 0 -474 199t-181 522z" />
    <glyph glyph-name="H" unicode="H" horiz-adv-x="1386" 
d="M184 0v1434h99v-656h821v656h98v-1434h-98v688h-821v-688h-99z" />
    <glyph glyph-name="I" unicode="I" horiz-adv-x="467" 
d="M184 0v1434h99v-1434h-99z" />
    <glyph glyph-name="J" unicode="J" horiz-adv-x="664" 
d="M18 -10v96q59 -20 111 -20q138 0 199 104.5t61 325.5v938h98v-940q0 -519 -360 -519q-56 0 -109 15z" />
    <glyph glyph-name="K" unicode="K" horiz-adv-x="1079" 
d="M184 0v1434h99v-676h4q12 21 26 35l580 641h129l-629 -695l668 -739h-139l-611 686q-17 19 -24 33h-4v-719h-99z" />
    <glyph glyph-name="L" unicode="L" horiz-adv-x="938" 
d="M184 0v1434h99v-1344h575v-90h-674z" />
    <glyph glyph-name="M" unicode="M" horiz-adv-x="1706" 
d="M184 0v1434h92l535 -1155q5 -10 11 -27t13 -34q10 -26 21 -58h6l11 32q1 4 34 95l527 1147h88v-1434h-95v1018q0 37 11 211h-4q-31 -81 -52 -125l-510 -1104h-32l-512 1098q-25 53 -47 135h-5q7 -96 7 -191v-1042h-99z" />
    <glyph glyph-name="N" unicode="N" horiz-adv-x="1452" 
d="M184 0v1434h76l848 -1149q28 -38 61 -92h5q-5 70 -5 120v1121h99v-1434h-70l-854 1159q-26 35 -46 70l-13 20h-4q2 -26 2 -63v-1186h-99z" />
    <glyph glyph-name="O" unicode="O" horiz-adv-x="1559" 
d="M109 702q0 343 185.5 549.5t506.5 206.5q290 0 469.5 -198.5t179.5 -520.5q0 -356 -184 -560t-492 -204q-304 0 -484.5 202t-180.5 525zM211 713q0 -296 153 -471.5t408 -175.5q266 0 421 173.5t155 483.5q0 304 -151.5 474.5t-412.5 170.5q-250 0 -411.5 -181
t-161.5 -474z" />
    <glyph glyph-name="P" unicode="P" horiz-adv-x="1114" 
d="M184 0v1434h346q221 0 338 -102.5t117 -299.5q0 -200 -130.5 -328.5t-365.5 -128.5h-206v-575h-99zM283 666h204q194 0 295 92.5t101 261.5q0 323 -371 323h-229v-677z" />
    <glyph glyph-name="Q" unicode="Q" horiz-adv-x="1544" 
d="M109 702q0 343 185.5 549.5t506.5 206.5q290 0 469.5 -198.5t179.5 -520.5q0 -356 -184 -560q-57 -64 -127 -107l348 -265h-167l-271 218q-122 -50 -275 -50q-304 0 -484.5 202t-180.5 525zM211 713q0 -296 153 -471.5t408 -175.5q266 0 421 173.5t155 483.5
q0 304 -151.5 474.5t-412.5 170.5q-250 0 -411.5 -181t-161.5 -474z" />
    <glyph glyph-name="R" unicode="R" horiz-adv-x="1137" 
d="M184 0v1434h398q190 0 298.5 -102.5t108.5 -270.5q0 -155 -89 -259t-249 -134v-4q85 -34 166 -207l213 -457h-112l-191 420q-59 130 -118 174.5t-148 44.5h-178v-639h-99zM283 729h247q164 0 260.5 86t96.5 236q0 137 -87 214.5t-249 77.5h-268v-614z" />
    <glyph glyph-name="S" unicode="S" horiz-adv-x="1018" 
d="M139 51v113q154 -98 312 -98q168 0 255 69.5t87 194.5q0 110 -58.5 175.5t-253.5 178.5q-218 127 -276 212.5t-58 197.5q0 152 118 258t315 106q128 0 256 -43v-104q-126 57 -269 57q-146 0 -231.5 -74t-85.5 -188q0 -110 58.5 -175t252.5 -177q201 -114 267.5 -202.5
t66.5 -203.5q0 -165 -114.5 -269t-323.5 -104q-74 0 -170.5 23t-147.5 53z" />
    <glyph glyph-name="T" unicode="T" horiz-adv-x="1047" 
d="M61 1343v91h926v-91h-414v-1343h-98v1343h-414z" />
    <glyph glyph-name="U" unicode="U" horiz-adv-x="1327" 
d="M166 551v883h98v-869q0 -499 406 -499q393 0 393 485v883h98v-861q0 -598 -510 -598q-485 0 -485 576z" />
    <glyph glyph-name="V" unicode="V" horiz-adv-x="1237" 
d="M41 1434h111l415 -1155q26 -72 37 -136h4q10 51 41 138l441 1153h106l-557 -1434h-74z" />
    <glyph glyph-name="W" unicode="W" horiz-adv-x="1833" 
d="M51 1434h111l327 -1149q22 -78 31 -127h4q6 37 35 127l354 1149h50l325 -1149q23 -80 31 -127h4q5 28 16 64l336 1212h107l-420 -1434h-82l-319 1079q-24 83 -27 135h-4q-3 -44 -31 -133l-340 -1081h-82z" />
    <glyph glyph-name="X" unicode="X" horiz-adv-x="1153" 
d="M61 0l453 723l-426 711h119l321 -539q25 -42 52 -96h4l53 96l319 539h115l-430 -709l440 -725h-120l-330 547q-31 51 -53 100h-5q-27 -55 -57 -100l-336 -547h-119z" />
    <glyph glyph-name="Y" unicode="Y" horiz-adv-x="1106" 
d="M61 1434h111l334 -691q18 -36 45 -106h4q14 37 49 104l350 693h107l-463 -889v-545h-98v543z" />
    <glyph glyph-name="Z" unicode="Z" horiz-adv-x="1167" 
d="M66 0v31l868 1312h-799v91h952v-27l-872 -1317h858v-90h-1007z" />
    <glyph glyph-name="bracketleft" unicode="[" horiz-adv-x="578" 
d="M209 -326v1760h317v-84h-225v-1592h225v-84h-317z" />
    <glyph glyph-name="backslash" unicode="\" horiz-adv-x="750" 
d="M-29 1434h97l692 -1672h-92z" />
    <glyph glyph-name="bracketright" unicode="]" horiz-adv-x="578" 
d="M51 -242h225v1592h-225v84h318v-1760h-318v84z" />
    <glyph glyph-name="asciicircum" unicode="^" horiz-adv-x="1331" 
d="M260 702l385 756h41l385 -756h-96l-307 613h-4l-308 -613h-96z" />
    <glyph glyph-name="underscore" unicode="_" horiz-adv-x="850" 
d="M0 -178h850v-90h-850v90z" />
    <glyph glyph-name="grave" unicode="`" horiz-adv-x="508" 
d="M76 1516h104l234 -328h-90z" />
    <glyph glyph-name="a" unicode="a" horiz-adv-x="1012" 
d="M106 264q0 268 355 324l315 47q0 330 -248 330q-169 0 -329 -136v111q57 45 154.5 77t183.5 32q158 0 244.5 -98t86.5 -285v-666h-92v205h-4q-49 -105 -142.5 -167.5t-207.5 -62.5q-146 0 -231 82t-85 207zM203 268q0 -91 60.5 -150t168.5 -59q148 0 246 109.5t98 282.5
v100l-282 -41q-161 -23 -226 -74.5t-65 -167.5z" />
    <glyph glyph-name="b" unicode="b" horiz-adv-x="1147" 
d="M164 0v1516h92v-703h4q55 113 157.5 174.5t225.5 61.5q195 0 304.5 -134.5t109.5 -365.5q0 -257 -127 -415.5t-330 -158.5q-230 0 -340 207h-4v-182h-92zM256 434q0 -154 97 -264.5t255 -110.5q157 0 255 134.5t98 353.5q0 192 -90 305t-240 113q-179 0 -277 -120
t-98 -282v-129z" />
    <glyph glyph-name="c" unicode="c" horiz-adv-x="909" 
d="M90 494q0 244 144 399.5t370 155.5q117 0 227 -48v-104q-110 68 -241 68q-180 0 -292 -129.5t-112 -335.5q0 -199 102.5 -320t270.5 -121q154 0 268 82v-96q-114 -70 -272 -70q-209 0 -337 143.5t-128 375.5z" />
    <glyph glyph-name="d" unicode="d" horiz-adv-x="1147" 
d="M90 494q0 248 130.5 401.5t338.5 153.5q230 0 328 -189h4v656h92v-1516h-92v186h-4q-50 -97 -148 -154t-221 -57q-189 0 -308.5 138t-119.5 381zM186 502q0 -212 94.5 -327.5t243.5 -115.5q175 0 271 108.5t96 264.5v191q0 143 -90.5 242.5t-243.5 99.5
q-161 0 -266 -123.5t-105 -339.5z" />
    <glyph glyph-name="e" unicode="e" horiz-adv-x="1034" 
d="M90 518q0 224 127.5 377.5t331.5 153.5q191 0 293 -134t102 -366v-41h-758q0 -211 97.5 -330t267.5 -119q172 0 336 127v-98q-159 -113 -355 -113q-198 0 -320 142t-122 401zM190 592h658q-6 177 -85 275t-218 98q-144 0 -238.5 -96.5t-116.5 -276.5z" />
    <glyph glyph-name="f" unicode="f" horiz-adv-x="565" 
d="M35 940v84h184v178q0 162 81.5 246t203.5 84q65 0 108 -19v-94q-37 29 -112 29q-189 0 -189 -254v-170h271v-84h-271v-940h-92v940h-184z" />
    <glyph glyph-name="g" unicode="g" horiz-adv-x="1147" 
d="M90 494q0 245 129 400t340 155q226 0 328 -187h4v162h92v-948q0 -289 -126 -423t-392 -134q-148 0 -305 78v96q162 -90 307 -90q424 0 424 448v133h-4q-121 -209 -369 -209q-189 0 -308.5 137t-119.5 382zM186 502q0 -210 94.5 -326.5t249.5 -116.5q165 0 263 107t98 262
v203q0 136 -91.5 235t-238.5 99q-169 0 -272 -127t-103 -336z" />
    <glyph glyph-name="h" unicode="h" horiz-adv-x="1096" 
d="M164 0v1516h92v-676h4q121 209 352 209q166 0 253 -107t87 -307v-635h-92v614q0 182 -66 266.5t-206 84.5q-132 0 -232 -103t-100 -295v-567h-92z" />
    <glyph glyph-name="i" unicode="i" horiz-adv-x="420" 
d="M133 1360q0 33 23.5 53.5t52.5 20.5q31 0 54.5 -20t23.5 -54q0 -32 -23 -55t-55 -23q-30 0 -53 22t-23 56zM164 0v1024h92v-1024h-92z" />
    <glyph glyph-name="j" unicode="j" horiz-adv-x="420" 
d="M-252 -350q80 -47 156 -47q260 0 260 409v1012h92v-995q0 -510 -362 -510q-72 0 -146 35v96zM133 1360q0 33 23.5 53.5t52.5 20.5q31 0 54.5 -20t23.5 -54q0 -32 -23 -55t-55 -23q-30 0 -53 22t-23 56z" />
    <glyph glyph-name="k" unicode="k" horiz-adv-x="909" 
d="M164 0v1516h92v-977h4l465 485h119l-486 -496l525 -528h-133l-490 506h-4v-506h-92z" />
    <glyph glyph-name="l" unicode="l" horiz-adv-x="420" 
d="M164 0v1516h92v-1516h-92z" />
    <glyph glyph-name="m" unicode="m" horiz-adv-x="1683" 
d="M164 0v1024h92v-170h4q107 195 313 195q112 0 191.5 -64.5t107.5 -169.5q48 111 137.5 172.5t194.5 61.5q336 0 336 -416v-633h-92v616q0 193 -60.5 271t-191.5 78q-121 0 -209 -104t-88 -261v-600h-92v623q0 342 -260 342q-125 0 -208 -104.5t-83 -270.5v-590h-92z" />
    <glyph glyph-name="n" unicode="n" horiz-adv-x="1096" 
d="M164 0v1024h92v-186h4q112 211 350 211q166 0 254 -110.5t88 -315.5v-623h-92v596q0 369 -266 369q-148 0 -243 -108.5t-95 -268.5v-588h-92z" />
    <glyph glyph-name="o" unicode="o" horiz-adv-x="1149" 
d="M90 506q0 255 136.5 399t359.5 144q219 0 346 -143t127 -396q0 -239 -129.5 -387t-354.5 -148q-224 0 -354.5 147.5t-130.5 383.5zM186 504q0 -201 105 -323t287 -122q185 0 285 120t100 333q0 219 -99.5 336t-281.5 117q-181 0 -288.5 -122t-107.5 -339z" />
    <glyph glyph-name="p" unicode="p" horiz-adv-x="1147" 
d="M164 -471v1495h92v-211h4q55 113 157.5 174.5t225.5 61.5q195 0 304.5 -134.5t109.5 -365.5q0 -257 -125.5 -415.5t-331.5 -158.5q-230 0 -340 207h-4v-653h-92zM256 434q0 -154 97 -264.5t255 -110.5q157 0 255 134.5t98 353.5q0 192 -90 305t-240 113q-179 0 -277 -120
t-98 -282v-129z" />
    <glyph glyph-name="q" unicode="q" horiz-adv-x="1147" 
d="M90 496q0 255 133 404t338 149q229 0 326 -191h4v166h92v-1495h-92v659h-4q-114 -213 -371 -213q-192 0 -309 141t-117 380zM186 500q0 -206 93.5 -323.5t242.5 -117.5q179 0 274 110t95 269v176q0 153 -89 252t-247 99q-159 0 -264 -122.5t-105 -342.5z" />
    <glyph glyph-name="r" unicode="r" horiz-adv-x="676" 
d="M164 0v1024h90v-227h4q35 117 111 182t176 65q57 0 102 -18v-98q-46 33 -108 33q-121 0 -203 -125t-82 -355v-481h-90z" />
    <glyph glyph-name="s" unicode="s" horiz-adv-x="795" 
d="M111 45v111q52 -45 126 -71t128 -26q241 0 241 197q0 68 -53 116t-172 99q-147 64 -206.5 132.5t-59.5 166.5q0 125 95.5 202t235.5 77q132 0 226 -54v-104q-114 74 -236 74q-101 0 -163 -52.5t-62 -136.5q0 -73 39 -118.5t172 -104.5q160 -72 220 -133.5t60 -163.5
q0 -122 -91.5 -201.5t-252.5 -79.5q-148 0 -247 70z" />
    <glyph glyph-name="t" unicode="t" horiz-adv-x="608" 
d="M23 940v84h184v266q22 8 46 16q24 7 46 15v-297h270v-84h-270v-676q0 -106 33.5 -153.5t113.5 -47.5q57 0 123 37v-86q-72 -34 -135 -34q-227 0 -227 272v688h-184z" />
    <glyph glyph-name="u" unicode="u" horiz-adv-x="1096" 
d="M143 432v592h93v-569q0 -208 68.5 -302t215.5 -94q143 0 231.5 105t88.5 280v580h92v-1024h-92v186h-4q-107 -211 -330 -211q-363 0 -363 457z" />
    <glyph glyph-name="v" unicode="v" horiz-adv-x="928" 
d="M20 1024h103l305 -815q22 -59 31 -107h4q13 63 29 103l315 819h100l-407 -1024h-84z" />
    <glyph glyph-name="w" unicode="w" horiz-adv-x="1386" 
d="M37 1024h102l238 -817q9 -32 14 -86h8q2 29 19 86l260 817h63l232 -817q8 -29 14 -86h8q0 29 17 86l243 817h95l-318 -1024h-86l-223 772q-9 32 -16 86h-5q-2 -23 -20 -84l-250 -774h-86z" />
    <glyph glyph-name="x" unicode="x" horiz-adv-x="862" 
d="M33 0l342 500l-336 524h108l228 -367q44 -71 53 -88h4l51 84l238 371h108l-348 -522l334 -502h-117l-270 432h-4l-36 -57q-7 -12 -17 -27l-226 -348h-112z" />
    <glyph glyph-name="y" unicode="y" horiz-adv-x="928" 
d="M20 1024h103l309 -834q10 -27 14 -41q4 -19 9 -34h4l24 69l330 840h100l-499 -1233q-56 -138 -124 -205t-175 -67q-45 0 -80 14v92q36 -14 84 -14q123 0 194 170l95 227z" />
    <glyph glyph-name="z" unicode="z" horiz-adv-x="950" 
d="M57 0v35l680 905h-631v84h787v-25l-686 -915h661v-84h-811z" />
    <glyph glyph-name="braceleft" unicode="{" horiz-adv-x="578" 
d="M94 522v64q156 22 156 243v314q0 152 64.5 219t191.5 72v-84q-88 -5 -124 -57t-36 -179v-293q0 -222 -145 -266v-4q145 -46 145 -281v-276q0 -127 36 -179t124 -57v-84q-127 5 -191.5 72t-64.5 219v297q0 237 -156 260z" />
    <glyph glyph-name="bar" unicode="|" horiz-adv-x="463" 
d="M184 -481v2048h95v-2048h-95z" />
    <glyph glyph-name="braceright" unicode="}" horiz-adv-x="578" 
d="M72 -242q82 5 120.5 53t38.5 183v276q0 235 146 281v4q-146 45 -146 266v293q0 135 -38.5 183t-120.5 53v84q127 -5 191.5 -71.5t64.5 -219.5v-314q0 -221 155 -243v-64q-155 -23 -155 -260v-297q0 -153 -64.5 -219.5t-191.5 -71.5v84z" />
    <glyph glyph-name="asciitilde" unicode="~" horiz-adv-x="1331" 
d="M246 479q6 113 68 177.5t165 64.5q95 0 195 -80q70 -55 105 -72.5t79 -17.5q133 0 152 160h77q-7 -114 -68.5 -178t-164.5 -64q-95 0 -201 84q-105 84 -176 84q-141 0 -153 -158h-78z" />
    <glyph glyph-name="uni00A0" unicode="&#xa0;" horiz-adv-x="561" 
 />
    <glyph glyph-name="exclamdown" unicode="&#xa1;" horiz-adv-x="582" 
d="M211 961q0 34 24 57.5t58 23.5t57 -23.5t23 -57.5q0 -35 -23 -57.5t-57 -22.5t-58 22.5t-24 57.5zM242 -408l10 1031h86l10 -1031h-106z" />
    <glyph glyph-name="cent" unicode="&#xa2;" horiz-adv-x="1055" 
d="M166 657q0 215 114.5 365.5t309.5 183.5v199h92v-193q118 0 225 -47v-104q-104 63 -225 67v-903q130 10 221 80v-96q-91 -56 -221 -68v-198h-92v198q-194 17 -309 157.5t-115 358.5zM262 664q0 -183 87 -300.5t241 -138.5v897q-153 -29 -240.5 -153.5t-87.5 -304.5z" />
    <glyph glyph-name="sterling" unicode="&#xa3;" horiz-adv-x="1055" 
d="M80 0v86q248 103 248 365v211h-228v90h228v290q0 188 99 302t263 114q96 0 182 -35v-94q-90 45 -186 45q-125 0 -195.5 -88t-70.5 -256v-278h307v-90h-307v-177q0 -295 -213 -401h741v-84h-868z" />
    <glyph glyph-name="currency" unicode="&#xa4;" horiz-adv-x="1139" 
d="M133 354l137 131q-84 116 -84 240q0 140 84 240l-137 133l60 61l135 -135q113 84 241 84q137 0 240 -84l137 135l60 -61l-138 -133q84 -101 84 -240q0 -132 -84 -240l138 -131l-60 -61l-135 135q-105 -86 -242 -86q-140 0 -241 86l-135 -135zM270 727q0 -121 89.5 -211
t209.5 -90q122 0 210.5 89t88.5 212q0 126 -90 211.5t-207 85.5q-128 0 -214.5 -88t-86.5 -209z" />
    <glyph glyph-name="yen" unicode="&#xa5;" horiz-adv-x="1055" 
d="M74 1434h102l307 -572q37 -68 47 -96h5q20 66 43 100l311 568h96l-383 -689h344v-83h-373v-246h373v-84h-373v-332h-92v332h-372v84h372v246h-372v83h342z" />
    <glyph glyph-name="brokenbar" unicode="&#xa6;" horiz-adv-x="463" 
d="M184 371h95v-852h-95v852zM184 715v852h95v-852h-95z" />
    <glyph glyph-name="section" unicode="&#xa7;" horiz-adv-x="918" 
d="M166 737q0 172 162 256q-123 83 -123 219q0 125 82 202t227 77q110 0 195 -37v-96q-86 49 -197 49q-211 0 -211 -188q0 -80 55.5 -132t212.5 -122q203 -94 203 -279q0 -162 -154 -283q95 -71 95 -200q0 -114 -89 -191.5t-231 -77.5q-107 0 -217 50v98q118 -64 219 -64
q109 0 165 50.5t56 132.5q0 54 -30.5 102t-140.5 101q-177 84 -228 160.5t-51 172.5zM262 743q0 -98 59 -155.5t224 -130.5q69 51 100 100t31 129q0 77 -48 130t-222 130q-144 -65 -144 -203z" />
    <glyph glyph-name="dieresis" unicode="&#xa8;" horiz-adv-x="817" 
d="M170 1260q0 31 22 50t48 19q29 0 52 -19.5t23 -49.5q0 -31 -21 -51.5t-52 -20.5q-28 0 -50 19.5t-22 52.5zM504 1260q0 31 21.5 50t47.5 19q29 0 52.5 -19.5t23.5 -49.5q0 -31 -21.5 -51.5t-52.5 -20.5q-27 0 -49 19.5t-22 52.5z" />
    <glyph glyph-name="copyright" unicode="&#xa9;" horiz-adv-x="1804" 
d="M156 715q0 310 219.5 526.5t525.5 216.5q308 0 528 -217t220 -524q0 -308 -218.5 -525t-527.5 -217q-311 0 -529 216.5t-218 523.5zM236 715q0 -273 195 -468.5t470 -195.5q277 0 472.5 196t195.5 468q0 275 -196.5 471t-471.5 196q-272 0 -468.5 -196t-196.5 -471z
M436 690q0 246 145.5 390.5t366.5 144.5q127 0 230 -54v-86q-106 58 -246 58q-170 0 -287 -117.5t-117 -314.5q0 -192 121.5 -310t292.5 -118q130 0 240 67v-80q-123 -71 -250 -71q-209 0 -352.5 141t-143.5 350z" />
    <glyph glyph-name="ordfeminine" unicode="&#xaa;" horiz-adv-x="745" 
d="M76 903q0 200 256 236l225 32q0 203 -166 203q-134 0 -254 -92v96q129 76 262 76q248 0 248 -274v-463h-90v143h-4q-37 -75 -106.5 -117.5t-147.5 -42.5q-105 0 -164 59t-59 144zM168 907q0 -57 39 -92t110 -35q96 0 168 83t72 188v45l-188 -27q-114 -16 -157.5 -50.5
t-43.5 -111.5z" />
    <glyph glyph-name="guillemotleft" unicode="&#xab;" horiz-adv-x="952" 
d="M123 537l276 344h113l-281 -344l281 -336h-113zM440 537l277 344h114l-282 -344l280 -336h-112z" />
    <glyph glyph-name="logicalnot" unicode="&#xac;" horiz-adv-x="1331" 
d="M213 555v84h907v-492h-86v408h-821z" />
    <glyph glyph-name="uni00AD" unicode="&#xad;" horiz-adv-x="815" 
d="M145 555v90h547v-90h-547z" />
    <glyph glyph-name="registered" unicode="&#xae;" horiz-adv-x="1804" 
d="M296 853q0 251 176.5 426t423.5 175q248 0 425 -175.5t177 -422.5q0 -250 -175.5 -425.5t-425.5 -175.5t-425.5 175t-175.5 423zM368 853q0 -218 153.5 -374t371.5 -156q220 0 376.5 156t156.5 374q0 220 -157 376.5t-376 156.5q-216 0 -370.5 -156.5t-154.5 -376.5z
M674 482v772h211q128 0 197 -55.5t69 -147.5q0 -177 -202 -214v-3q68 -14 128 -140l102 -212h-92l-92 197q-40 86 -77.5 115.5t-84.5 29.5h-77v-342h-82zM756 888h139q78 0 125 40t47 110q0 153 -191 153h-120v-303z" />
    <glyph glyph-name="macron" unicode="&#xaf;" horiz-adv-x="850" 
d="M0 1641v90h850v-90h-850z" />
    <glyph glyph-name="degree" unicode="&#xb0;" horiz-adv-x="791" 
d="M143 1184q0 102 73.5 176t176.5 74q105 0 179.5 -73.5t74.5 -176.5q0 -105 -73.5 -179.5t-176.5 -74.5q-104 0 -179 75t-75 179zM225 1184q0 -73 49.5 -125.5t118.5 -52.5q70 0 120 52.5t50 125.5q0 74 -48 124t-118 50q-71 0 -121.5 -51.5t-50.5 -122.5z" />
    <glyph glyph-name="plusminus" unicode="&#xb1;" horiz-adv-x="1331" 
d="M213 0v84h907v-84h-907zM213 633v84h412v411h84v-411h411v-84h-411v-412h-84v412h-412z" />
    <glyph glyph-name="uni00B2" unicode="&#xb2;" horiz-adv-x="674" 
d="M78 884v100l239 234q61 59 97.5 102t56 77t25.5 62.5t6 59.5q0 153 -158 153q-109 0 -221 -98v102q56 38 112 58t115 20q57 0 102 -16t76.5 -45.5t48.5 -70.5t17 -91q0 -39 -9.5 -77t-34 -81t-67 -94t-108.5 -115l-193 -186v-4h414v-90h-518z" />
    <glyph glyph-name="uni00B3" unicode="&#xb3;" horiz-adv-x="674" 
d="M88 906v96q100 -63 195 -63q91 0 141.5 47t50.5 125q0 168 -235 168h-70v80h61q215 0 215 172q0 137 -153 137q-71 0 -172 -53v90q49 23 96.5 34t93.5 11q52 0 93.5 -15t70.5 -42.5t44.5 -65.5t15.5 -84q0 -162 -148 -215v-4q85 -19 129.5 -77t44.5 -136q0 -54 -19 -100
t-55 -79.5t-88 -53t-118 -19.5q-107 0 -193 47z" />
    <glyph glyph-name="acute" unicode="&#xb4;" horiz-adv-x="508" 
d="M137 1188l234 328h104l-248 -328h-90z" />
    <glyph glyph-name="mu" unicode="&#xb5;" horiz-adv-x="1116" 
d="M164 -391v1415h92v-569q0 -210 69.5 -303t215.5 -93q144 0 231.5 105.5t87.5 279.5v580h92v-1024h-92v186h-4q-105 -211 -330 -211q-176 0 -262 123h-8v-489h-92z" />
    <glyph glyph-name="paragraph" unicode="&#xb6;" horiz-adv-x="971" 
d="M113 1167q0 121 75.5 194t180.5 73h495v-86h-131v-1348h-86v1348h-198v-1348h-87v903q-105 0 -177 76t-72 188z" />
    <glyph glyph-name="periodcentered" unicode="&#xb7;" horiz-adv-x="455" 
d="M147 707q0 34 23 56.5t57 22.5t58 -22.5t24 -56.5t-24 -58t-58 -24t-57 24t-23 58z" />
    <glyph glyph-name="cedilla" unicode="&#xb8;" horiz-adv-x="412" 
d="M57 -356q50 -6 86 -6q160 0 160 92q0 86 -145 86q-32 0 -64 -4v188h72v-117q225 0 225 -147q0 -170 -254 -170q-36 0 -80 4v74z" />
    <glyph glyph-name="uni00B9" unicode="&#xb9;" horiz-adv-x="674" 
d="M115 1578v88l295 94v-794h190v-82h-471v82h195v682z" />
    <glyph glyph-name="ordmasculine" unicode="&#xba;" horiz-adv-x="811" 
d="M72 1073q0 179 98.5 280t255.5 101q158 0 250 -101t92 -278q0 -163 -94 -271t-254 -108q-158 0 -253 106t-95 271zM166 1071q0 -133 70 -213t186 -80q119 0 184.5 79.5t65.5 219.5q0 139 -65 218t-183 79q-117 0 -187.5 -81t-70.5 -222z" />
    <glyph glyph-name="guillemotright" unicode="&#xbb;" horiz-adv-x="952" 
d="M121 201l285 344l-285 336h115l276 -336l-274 -344h-117zM440 201l283 344l-283 336h113l278 -336l-278 -344h-113z" />
    <glyph glyph-name="onequarter" unicode="&#xbc;" horiz-adv-x="1513" 
d="M115 1278v88l295 94v-794h190v-82h-471v82h195v682zM332 0l862 1434h96l-860 -1434h-98zM883 219v64l385 567h90v-553h110v-78h-110v-219h-82v219h-393zM983 297h293v369l2 75h-4q-33 -61 -45 -77z" />
    <glyph glyph-name="onehalf" unicode="&#xbd;" horiz-adv-x="1622" 
d="M115 1278v88l295 94v-794h190v-82h-471v82h195v682zM332 0l862 1434h96l-860 -1434h-98zM1024 0v100l240 234q60 59 96.5 102t56 77t25.5 62.5t6 59.5q0 153 -158 153q-111 0 -221 -98v103q112 77 227 77q57 0 102 -16t76.5 -45.5t48.5 -70.5t17 -91q0 -38 -9.5 -76
t-34 -81t-67 -94t-108.5 -115l-193 -187v-4h414v-90h-518z" />
    <glyph glyph-name="threequarters" unicode="&#xbe;" horiz-adv-x="1513" 
d="M88 606v96q100 -63 195 -63q91 0 141.5 47t50.5 125q0 168 -235 168h-70v80h61q215 0 215 172q0 137 -153 137q-71 0 -172 -53v90q49 23 96.5 34t93.5 11q52 0 93.5 -15t70.5 -42.5t44.5 -65.5t15.5 -84q0 -162 -148 -215v-4q85 -19 129.5 -77t44.5 -136q0 -54 -19 -100
t-55 -79.5t-88 -53t-118 -19.5q-107 0 -193 47zM332 0l862 1434h96l-860 -1434h-98zM883 219v64l385 567h90v-553h110v-78h-110v-219h-82v219h-393zM983 297h293v369l2 75h-4q-33 -61 -45 -77z" />
    <glyph glyph-name="questiondown" unicode="&#xbf;" horiz-adv-x="881" 
d="M144 -119q0 57 16 104t41.5 87t58.5 75t67 68q52 50 86 84.5t53 62.5t26.5 54.5t7.5 62.5q0 46 -8 83.5t-16 63.5h81q10 -25 17.5 -65.5t7.5 -80.5q0 -47 -12.5 -85.5t-35 -72.5t-54 -66t-69.5 -65q-32 -29 -63 -60.5t-55 -67.5t-38.5 -78.5t-14.5 -93.5
q0 -55 18.5 -98.5t51.5 -74t79.5 -46.5t102.5 -16q94 0 173.5 33t149.5 90v-107q-71 -54 -149.5 -80t-174.5 -26q-74 0 -137.5 21t-110 61.5t-73 99t-26.5 133.5zM440 961q0 34 23.5 57.5t58.5 23.5q34 0 56.5 -23.5t22.5 -57.5q0 -35 -22.5 -57.5t-56.5 -22.5
q-35 0 -58.5 22.5t-23.5 57.5z" />
    <glyph glyph-name="Agrave" unicode="&#xc0;" horiz-adv-x="1288" 
d="M59 0l541 1434h94l535 -1434h-111l-164 446h-622l-164 -446h-109zM367 537h553l-242 663q-11 30 -18 59q-7 25 -15 50h-4q-17 -66 -33 -107zM471 1864h104l234 -328h-90z" />
    <glyph glyph-name="Aacute" unicode="&#xc1;" horiz-adv-x="1288" 
d="M59 0l541 1434h94l535 -1434h-111l-164 446h-622l-164 -446h-109zM367 537h553l-242 663q-11 30 -18 59q-7 25 -15 50h-4q-17 -66 -33 -107zM474 1530l234 328h104l-248 -328h-90z" />
    <glyph glyph-name="Acircumflex" unicode="&#xc2;" horiz-adv-x="1288" 
d="M59 0l541 1434h94l535 -1434h-111l-164 446h-622l-164 -446h-109zM367 537h553l-242 663q-11 30 -18 59q-7 25 -15 50h-4q-17 -66 -33 -107zM400 1535l221 336h45l219 -336h-86l-157 239l-160 -239h-82z" />
    <glyph glyph-name="Atilde" unicode="&#xc3;" horiz-adv-x="1288" 
d="M59 0l541 1434h94l535 -1434h-111l-164 446h-622l-164 -446h-109zM342 1533q0 100 48 160.5t128 60.5q72 0 160 -72q67 -59 117 -59q40 0 68 37t28 108h74q0 -103 -48.5 -163t-130.5 -60q-66 0 -151 76q-64 55 -119 55q-102 0 -102 -143h-72zM367 537h553l-242 663
q-11 30 -18 59q-7 25 -15 50h-4q-17 -66 -33 -107z" />
    <glyph glyph-name="Adieresis" unicode="&#xc4;" horiz-adv-x="1288" 
d="M59 0l541 1434h94l535 -1434h-111l-164 446h-622l-164 -446h-109zM367 537h553l-242 663q-11 30 -18 59q-7 25 -15 50h-4q-17 -66 -33 -107zM407 1602q0 31 22 50t48 19q29 0 52 -19.5t23 -49.5q0 -31 -21 -51.5t-52 -20.5q-28 0 -50 19.5t-22 52.5zM741 1602
q0 31 21.5 50t47.5 19q29 0 52.5 -19.5t23.5 -49.5q0 -31 -21.5 -51.5t-52.5 -20.5q-27 0 -49 19.5t-22 52.5z" />
    <glyph glyph-name="Aring" unicode="&#xc5;" horiz-adv-x="1288" 
d="M59 0l519 1374q-134 42 -134 176q0 81 59 133t142 52q86 0 143.5 -50.5t57.5 -134.5q0 -129 -131 -174l514 -1376h-111l-164 446h-622l-164 -446h-109zM367 537h553l-242 663q-11 30 -18 59q-7 25 -15 50h-4q-17 -66 -33 -107zM518 1550q0 -52 36.5 -84t90.5 -32
q57 0 93 32t36 84q0 57 -37.5 87t-91.5 30q-57 0 -92 -32t-35 -85z" />
    <glyph glyph-name="AE" unicode="&#xc6;" horiz-adv-x="1706" 
d="M16 0l697 1434h803v-97h-572v-571h531v-90h-531v-586h604v-90h-702v446h-502l-219 -446h-109zM385 537h461v800h-78z" />
    <glyph glyph-name="Ccedilla" unicode="&#xc7;" horiz-adv-x="1272" 
d="M109 688q0 349 201 559.5t511 210.5q165 0 316 -53v-105q-151 68 -318 68q-270 0 -439 -183t-169 -487q0 -293 161.5 -462.5t409.5 -169.5q198 0 355 77v-96q-216 -85 -420 -70v-94q225 0 225 -147q0 -170 -254 -170q-36 0 -80 4v74q50 -6 86 -6q160 0 160 92
q0 86 -145 86q-32 0 -64 -4v174q-252 46 -394 237t-142 465z" />
    <glyph glyph-name="Egrave" unicode="&#xc8;" horiz-adv-x="1024" 
d="M184 0v1434h670v-91h-571v-575h530v-90h-530v-588h604v-90h-703zM308 1864h104l234 -328h-90z" />
    <glyph glyph-name="Eacute" unicode="&#xc9;" horiz-adv-x="1024" 
d="M184 0v1434h670v-91h-571v-575h530v-90h-530v-588h604v-90h-703zM416 1533l234 328h104l-248 -328h-90z" />
    <glyph glyph-name="Ecircumflex" unicode="&#xca;" horiz-adv-x="1024" 
d="M184 0v1434h670v-91h-571v-575h530v-90h-530v-588h604v-90h-703zM300 1537l221 336h45l219 -336h-86l-157 239l-160 -239h-82z" />
    <glyph glyph-name="Edieresis" unicode="&#xcb;" horiz-adv-x="1024" 
d="M184 0v1434h670v-91h-571v-575h530v-90h-530v-588h604v-90h-703zM309 1608q0 31 22 50t48 19q29 0 52 -19.5t23 -49.5q0 -31 -21 -51.5t-52 -20.5q-28 0 -50 19.5t-22 52.5zM643 1608q0 31 21.5 50t47.5 19q29 0 52.5 -19.5t23.5 -49.5q0 -31 -21.5 -51.5t-52.5 -20.5
q-27 0 -49 19.5t-22 52.5z" />
    <glyph glyph-name="Igrave" unicode="&#xcc;" horiz-adv-x="467" 
d="M-37 1864h104l234 -328h-90zM184 0v1434h99v-1434h-99z" />
    <glyph glyph-name="Iacute" unicode="&#xcd;" horiz-adv-x="467" 
d="M170 1536l234 328h104l-248 -328h-90zM184 0v1434h99v-1434h-99z" />
    <glyph glyph-name="Icircumflex" unicode="&#xce;" horiz-adv-x="467" 
d="M-10 1537l221 336h45l219 -336h-86l-157 239l-160 -239h-82zM184 0v1434h99v-1434h-99z" />
    <glyph glyph-name="Idieresis" unicode="&#xcf;" horiz-adv-x="467" 
d="M-8 1608q0 31 22 50t48 19q29 0 52 -19.5t23 -49.5q0 -31 -21 -51.5t-52 -20.5q-28 0 -50 19.5t-22 52.5zM184 0v1434h99v-1434h-99zM326 1608q0 31 21.5 50t47.5 19q29 0 52.5 -19.5t23.5 -49.5q0 -31 -21.5 -51.5t-52.5 -20.5q-27 0 -49 19.5t-22 52.5z" />
    <glyph glyph-name="Eth" unicode="&#xd0;" horiz-adv-x="1380" 
d="M35 668v88h149v678h359q358 0 543.5 -177.5t185.5 -519.5q0 -332 -201.5 -534.5t-548.5 -202.5h-338v668h-149zM283 90h225q318 0 489.5 165t171.5 478q0 610 -641 610h-245v-587h403v-88h-403v-578z" />
    <glyph glyph-name="Ntilde" unicode="&#xd1;" horiz-adv-x="1452" 
d="M184 0v1434h76l848 -1149q28 -38 61 -92h5q-5 70 -5 120v1121h99v-1434h-70l-854 1159q-26 35 -46 70l-13 20h-4q2 -26 2 -63v-1186h-99zM478 1533q0 100 48 160.5t128 60.5q72 0 160 -72q67 -59 117 -59q40 0 68 37t28 108h74q0 -103 -48.5 -163t-130.5 -60
q-66 0 -151 76q-64 55 -119 55q-102 0 -102 -143h-72z" />
    <glyph glyph-name="Ograve" unicode="&#xd2;" horiz-adv-x="1559" 
d="M109 702q0 343 185.5 549.5t506.5 206.5q290 0 469.5 -198.5t179.5 -520.5q0 -356 -184 -560t-492 -204q-304 0 -484.5 202t-180.5 525zM211 713q0 -296 153 -471.5t408 -175.5q266 0 421 173.5t155 483.5q0 304 -151.5 474.5t-412.5 170.5q-250 0 -411.5 -181
t-161.5 -474zM618 1863h104l234 -328h-90z" />
    <glyph glyph-name="Oacute" unicode="&#xd3;" horiz-adv-x="1559" 
d="M109 702q0 343 185.5 549.5t506.5 206.5q290 0 469.5 -198.5t179.5 -520.5q0 -356 -184 -560t-492 -204q-304 0 -484.5 202t-180.5 525zM211 713q0 -296 153 -471.5t408 -175.5q266 0 421 173.5t155 483.5q0 304 -151.5 474.5t-412.5 170.5q-250 0 -411.5 -181
t-161.5 -474zM641 1536l234 328h104l-248 -328h-90z" />
    <glyph glyph-name="Ocircumflex" unicode="&#xd4;" horiz-adv-x="1559" 
d="M109 702q0 343 185.5 549.5t506.5 206.5q290 0 469.5 -198.5t179.5 -520.5q0 -356 -184 -560t-492 -204q-304 0 -484.5 202t-180.5 525zM211 713q0 -296 153 -471.5t408 -175.5q266 0 421 173.5t155 483.5q0 304 -151.5 474.5t-412.5 170.5q-250 0 -411.5 -181
t-161.5 -474zM536 1536l221 336h45l219 -336h-86l-157 239l-160 -239h-82z" />
    <glyph glyph-name="Otilde" unicode="&#xd5;" horiz-adv-x="1559" 
d="M109 702q0 343 185.5 549.5t506.5 206.5q290 0 469.5 -198.5t179.5 -520.5q0 -356 -184 -560t-492 -204q-304 0 -484.5 202t-180.5 525zM211 713q0 -296 153 -471.5t408 -175.5q266 0 421 173.5t155 483.5q0 304 -151.5 474.5t-412.5 170.5q-250 0 -411.5 -181
t-161.5 -474zM468 1532q0 100 48 160.5t128 60.5q72 0 160 -72q67 -59 117 -59q40 0 68 37t28 108h74q0 -103 -48.5 -163t-130.5 -60q-66 0 -151 76q-64 55 -119 55q-102 0 -102 -143h-72z" />
    <glyph glyph-name="Odieresis" unicode="&#xd6;" horiz-adv-x="1559" 
d="M109 702q0 343 185.5 549.5t506.5 206.5q290 0 469.5 -198.5t179.5 -520.5q0 -356 -184 -560t-492 -204q-304 0 -484.5 202t-180.5 525zM211 713q0 -296 153 -471.5t408 -175.5q266 0 421 173.5t155 483.5q0 304 -151.5 474.5t-412.5 170.5q-250 0 -411.5 -181
t-161.5 -474zM545 1605q0 31 22 50t48 19q29 0 52 -19.5t23 -49.5q0 -31 -21 -51.5t-52 -20.5q-28 0 -50 19.5t-22 52.5zM879 1605q0 31 21.5 50t47.5 19q29 0 52.5 -19.5t23.5 -49.5q0 -31 -21.5 -51.5t-52.5 -20.5q-27 0 -49 19.5t-22 52.5z" />
    <glyph glyph-name="multiply" unicode="&#xd7;" horiz-adv-x="1331" 
d="M272 262l334 334l-334 336l60 59l334 -336l333 336l60 -59l-334 -336l334 -334l-60 -59l-333 336l-334 -336z" />
    <glyph glyph-name="Oslash" unicode="&#xd8;" horiz-adv-x="1559" 
d="M84 -4l178 213q-153 200 -153 493q0 343 185.5 549.5t506.5 206.5q235 0 399 -131l139 166l64 -53l-141 -168q188 -201 188 -533q0 -356 -184 -560t-492 -204q-274 0 -457 172l-170 -202zM211 713q0 -258 117 -426l811 966q-144 115 -355 115q-250 0 -411.5 -181
t-161.5 -474zM381 223q153 -157 391 -157q266 0 421 173.5t155 483.5q0 298 -150 473z" />
    <glyph glyph-name="Ugrave" unicode="&#xd9;" horiz-adv-x="1327" 
d="M166 551v883h98v-869q0 -499 406 -499q393 0 393 485v883h98v-861q0 -598 -510 -598q-485 0 -485 576zM435 1864h104l234 -328h-90z" />
    <glyph glyph-name="Uacute" unicode="&#xda;" horiz-adv-x="1327" 
d="M166 551v883h98v-869q0 -499 406 -499q393 0 393 485v883h98v-861q0 -598 -510 -598q-485 0 -485 576zM573 1535l234 328h104l-248 -328h-90z" />
    <glyph glyph-name="Ucircumflex" unicode="&#xdb;" horiz-adv-x="1327" 
d="M166 551v883h98v-869q0 -499 406 -499q393 0 393 485v883h98v-861q0 -598 -510 -598q-485 0 -485 576zM460 1537l221 336h45l219 -336h-86l-157 239l-160 -239h-82z" />
    <glyph glyph-name="Udieresis" unicode="&#xdc;" horiz-adv-x="1327" 
d="M166 551v883h98v-869q0 -499 406 -499q393 0 393 485v883h98v-861q0 -598 -510 -598q-485 0 -485 576zM455 1609q0 31 22 50t48 19q29 0 52 -19.5t23 -49.5q0 -31 -21 -51.5t-52 -20.5q-28 0 -50 19.5t-22 52.5zM789 1609q0 31 21.5 50t47.5 19q29 0 52.5 -19.5
t23.5 -49.5q0 -31 -21.5 -51.5t-52.5 -20.5q-27 0 -49 19.5t-22 52.5z" />
    <glyph glyph-name="Yacute" unicode="&#xdd;" horiz-adv-x="1106" 
d="M61 1434h111l334 -691q18 -36 45 -106h4q14 37 49 104l350 693h107l-463 -889v-545h-98v543zM442 1567l234 328h104l-248 -328h-90z" />
    <glyph glyph-name="Thorn" unicode="&#xde;" horiz-adv-x="1114" 
d="M184 0v1434h99v-238h247q455 0 455 -403q0 -204 -133 -329.5t-367 -125.5h-202v-338h-99zM283 428h204q191 0 293.5 91.5t102.5 260.5q0 326 -371 326h-229v-678z" />
    <glyph glyph-name="germandbls" unicode="&#xdf;" horiz-adv-x="1061" 
d="M164 2v1114q0 196 101 306t270 110q149 0 240 -92t91 -242q0 -264 -256 -375v-4q170 -45 267.5 -161.5t97.5 -270.5q0 -179 -111 -295.5t-289 -116.5q-69 0 -145 19v94q73 -29 141 -29q141 0 224.5 88t83.5 234q0 155 -109 257t-307 134v80q307 70 307 332
q0 122 -64.5 193t-179.5 71q-128 0 -199 -91t-71 -255v-1100h-92z" />
    <glyph glyph-name="agrave" unicode="&#xe0;" horiz-adv-x="1012" 
d="M106 264q0 268 355 324l315 47q0 330 -248 330q-169 0 -329 -136v111q57 45 154.5 77t183.5 32q158 0 244.5 -98t86.5 -285v-666h-92v205h-4q-49 -105 -142.5 -167.5t-207.5 -62.5q-146 0 -231 82t-85 207zM203 268q0 -91 60.5 -150t168.5 -59q148 0 246 109.5t98 282.5
v100l-282 -41q-161 -23 -226 -74.5t-65 -167.5zM271 1516h104l234 -328h-90z" />
    <glyph glyph-name="aacute" unicode="&#xe1;" horiz-adv-x="1012" 
d="M106 264q0 268 355 324l315 47q0 330 -248 330q-169 0 -329 -136v111q57 45 154.5 77t183.5 32q158 0 244.5 -98t86.5 -285v-666h-92v205h-4q-49 -105 -142.5 -167.5t-207.5 -62.5q-146 0 -231 82t-85 207zM203 268q0 -91 60.5 -150t168.5 -59q148 0 246 109.5t98 282.5
v100l-282 -41q-161 -23 -226 -74.5t-65 -167.5zM362 1188l234 328h104l-248 -328h-90z" />
    <glyph glyph-name="acircumflex" unicode="&#xe2;" horiz-adv-x="1012" 
d="M106 264q0 268 355 324l315 47q0 330 -248 330q-169 0 -329 -136v111q57 45 154.5 77t183.5 32q158 0 244.5 -98t86.5 -285v-666h-92v205h-4q-49 -105 -142.5 -167.5t-207.5 -62.5q-146 0 -231 82t-85 207zM203 268q0 -91 60.5 -150t168.5 -59q148 0 246 109.5t98 282.5
v100l-282 -41q-161 -23 -226 -74.5t-65 -167.5zM271 1188l221 336h45l219 -336h-86l-157 239l-160 -239h-82z" />
    <glyph glyph-name="atilde" unicode="&#xe3;" horiz-adv-x="1012" 
d="M106 264q0 268 355 324l315 47q0 330 -248 330q-169 0 -329 -136v111q57 45 154.5 77t183.5 32q158 0 244.5 -98t86.5 -285v-666h-92v205h-4q-49 -105 -142.5 -167.5t-207.5 -62.5q-146 0 -231 82t-85 207zM201 1188q0 100 48 160.5t128 60.5q72 0 160 -72
q67 -59 117 -59q40 0 68 37t28 108h74q0 -103 -48.5 -163t-130.5 -60q-66 0 -151 76q-64 55 -119 55q-102 0 -102 -143h-72zM203 268q0 -91 60.5 -150t168.5 -59q148 0 246 109.5t98 282.5v100l-282 -41q-161 -23 -226 -74.5t-65 -167.5z" />
    <glyph glyph-name="adieresis" unicode="&#xe4;" horiz-adv-x="1012" 
d="M106 264q0 268 355 324l315 47q0 330 -248 330q-169 0 -329 -136v111q57 45 154.5 77t183.5 32q158 0 244.5 -98t86.5 -285v-666h-92v205h-4q-49 -105 -142.5 -167.5t-207.5 -62.5q-146 0 -231 82t-85 207zM203 268q0 -91 60.5 -150t168.5 -59q148 0 246 109.5t98 282.5
v100l-282 -41q-161 -23 -226 -74.5t-65 -167.5zM260 1260q0 31 22 50t48 19q29 0 52 -19.5t23 -49.5q0 -31 -21 -51.5t-52 -20.5q-28 0 -50 19.5t-22 52.5zM594 1260q0 31 21.5 50t47.5 19q29 0 52.5 -19.5t23.5 -49.5q0 -31 -21.5 -51.5t-52.5 -20.5q-27 0 -49 19.5
t-22 52.5z" />
    <glyph glyph-name="aring" unicode="&#xe5;" horiz-adv-x="1012" 
d="M106 264q0 268 355 324l315 47q0 330 -248 330q-169 0 -329 -136v111q57 45 154.5 77t183.5 32q158 0 244.5 -98t86.5 -285v-666h-92v205h-4q-49 -105 -142.5 -167.5t-207.5 -62.5q-146 0 -231 82t-85 207zM203 268q0 -91 60.5 -150t168.5 -59q148 0 246 109.5t98 282.5
v100l-282 -41q-161 -23 -226 -74.5t-65 -167.5zM320 1372q0 80 57 132t144 52q88 0 144.5 -50.5t56.5 -133.5q0 -80 -58 -132t-143 -52q-86 0 -143.5 50.5t-57.5 133.5zM394 1372q0 -53 36.5 -85t90.5 -32q57 0 93 32.5t36 84.5q0 57 -37.5 87t-91.5 30q-57 0 -92 -32
t-35 -85z" />
    <glyph glyph-name="ae" unicode="&#xe6;" horiz-adv-x="1718" 
d="M106 264q0 143 99 225t287 91l284 12q0 373 -239 373q-186 0 -338 -134v109q161 109 348 109q230 0 295 -254h4q126 254 383 254q190 0 293.5 -133t103.5 -367v-41h-758q0 -211 97.5 -330t267.5 -119q172 0 336 127v-98q-159 -113 -355 -113q-136 0 -240 74.5t-151 210.5
h-4q-133 -285 -391 -285q-150 0 -236 80.5t-86 208.5zM203 268q0 -98 63.5 -153.5t171.5 -55.5q136 0 237 107.5t101 259.5v82l-264 -8q-156 -5 -232.5 -58.5t-76.5 -173.5zM872 592h658q-6 177 -85 275t-218 98q-144 0 -238.5 -96.5t-116.5 -276.5z" />
    <glyph glyph-name="ccedilla" unicode="&#xe7;" horiz-adv-x="909" 
d="M90 494q0 244 144 399.5t370 155.5q117 0 227 -48v-104q-110 68 -241 68q-180 0 -292 -129.5t-112 -335.5q0 -199 102.5 -320t270.5 -121q154 0 268 82v-96q-114 -70 -272 -70q-209 0 -337 143.5t-128 375.5zM403 -356q50 -6 86 -6q160 0 160 92q0 86 -145 86
q-32 0 -64 -4v188h72v-117q225 0 225 -147q0 -170 -254 -170q-36 0 -80 4v74z" />
    <glyph glyph-name="egrave" unicode="&#xe8;" horiz-adv-x="1034" 
d="M90 518q0 224 127.5 377.5t331.5 153.5q191 0 293 -134t102 -366v-41h-758q0 -211 97.5 -330t267.5 -119q172 0 336 127v-98q-159 -113 -355 -113q-198 0 -320 142t-122 401zM190 592h658q-6 177 -85 275t-218 98q-144 0 -238.5 -96.5t-116.5 -276.5zM321 1516h104
l234 -328h-90z" />
    <glyph glyph-name="eacute" unicode="&#xe9;" horiz-adv-x="1034" 
d="M90 518q0 224 127.5 377.5t331.5 153.5q191 0 293 -134t102 -366v-41h-758q0 -211 97.5 -330t267.5 -119q172 0 336 127v-98q-159 -113 -355 -113q-198 0 -320 142t-122 401zM190 592h658q-6 177 -85 275t-218 98q-144 0 -238.5 -96.5t-116.5 -276.5zM399 1188l234 328
h104l-248 -328h-90z" />
    <glyph glyph-name="ecircumflex" unicode="&#xea;" horiz-adv-x="1034" 
d="M90 518q0 224 127.5 377.5t331.5 153.5q191 0 293 -134t102 -366v-41h-758q0 -211 97.5 -330t267.5 -119q172 0 336 127v-98q-159 -113 -355 -113q-198 0 -320 142t-122 401zM190 592h658q-6 177 -85 275t-218 98q-144 0 -238.5 -96.5t-116.5 -276.5zM305 1188l221 336
h45l219 -336h-86l-157 239l-160 -239h-82z" />
    <glyph glyph-name="edieresis" unicode="&#xeb;" horiz-adv-x="1034" 
d="M90 518q0 224 127.5 377.5t331.5 153.5q191 0 293 -134t102 -366v-41h-758q0 -211 97.5 -330t267.5 -119q172 0 336 127v-98q-159 -113 -355 -113q-198 0 -320 142t-122 401zM190 592h658q-6 177 -85 275t-218 98q-144 0 -238.5 -96.5t-116.5 -276.5zM297 1260
q0 31 22 50t48 19q29 0 52 -19.5t23 -49.5q0 -31 -21 -51.5t-52 -20.5q-28 0 -50 19.5t-22 52.5zM631 1260q0 31 21.5 50t47.5 19q29 0 52.5 -19.5t23.5 -49.5q0 -31 -21.5 -51.5t-52.5 -20.5q-27 0 -49 19.5t-22 52.5z" />
    <glyph glyph-name="igrave" unicode="&#xec;" horiz-adv-x="420" 
d="M6 1516h104l234 -328h-90zM164 0v1024h92v-1024h-92z" />
    <glyph glyph-name="iacute" unicode="&#xed;" horiz-adv-x="420" 
d="M83 1188l234 328h104l-248 -328h-90zM164 0v1024h92v-1024h-92z" />
    <glyph glyph-name="icircumflex" unicode="&#xee;" horiz-adv-x="420" 
d="M-30 1188l221 336h45l219 -336h-86l-157 239l-160 -239h-82zM164 0v1024h92v-1024h-92z" />
    <glyph glyph-name="idieresis" unicode="&#xef;" horiz-adv-x="420" 
d="M-28 1260q0 31 22 50t48 19q29 0 52 -19.5t23 -49.5q0 -31 -21 -51.5t-52 -20.5q-28 0 -50 19.5t-22 52.5zM164 0v1024h92v-1024h-92zM306 1260q0 31 21.5 50t47.5 19q29 0 52.5 -19.5t23.5 -49.5q0 -31 -21.5 -51.5t-52.5 -20.5q-27 0 -49 19.5t-22 52.5z" />
    <glyph glyph-name="eth" unicode="&#xf0;" horiz-adv-x="1090" 
d="M90 506q0 241 128.5 392t338.5 151q147 0 244 -93l4 5q-102 180 -219 296l-299 -149l-35 70l276 133q-127 115 -252 202h150q81 -58 186 -155l301 149l35 -71l-280 -136q163 -169 247 -377t84 -413q0 -235 -121 -385t-331 -150q-220 0 -338.5 144t-118.5 387zM186 504
q0 -207 96.5 -326t266.5 -119q163 0 258.5 122t95.5 331q0 453 -346 453q-167 0 -269 -127t-102 -334z" />
    <glyph glyph-name="ntilde" unicode="&#xf1;" horiz-adv-x="1096" 
d="M164 0v1024h92v-186h4q112 211 350 211q166 0 254 -110.5t88 -315.5v-623h-92v596q0 369 -266 369q-148 0 -243 -108.5t-95 -268.5v-588h-92zM273 1188q0 100 48 160.5t128 60.5q72 0 160 -72q67 -59 117 -59q40 0 68 37t28 108h74q0 -103 -48.5 -163t-130.5 -60
q-66 0 -151 76q-64 55 -119 55q-102 0 -102 -143h-72z" />
    <glyph glyph-name="ograve" unicode="&#xf2;" horiz-adv-x="1149" 
d="M90 506q0 255 136.5 399t359.5 144q219 0 346 -143t127 -396q0 -239 -129.5 -387t-354.5 -148q-224 0 -354.5 147.5t-130.5 383.5zM186 504q0 -201 105 -323t287 -122q185 0 285 120t100 333q0 219 -99.5 336t-281.5 117q-181 0 -288.5 -122t-107.5 -339zM344 1516h104
l234 -328h-90z" />
    <glyph glyph-name="oacute" unicode="&#xf3;" horiz-adv-x="1149" 
d="M90 506q0 255 136.5 399t359.5 144q219 0 346 -143t127 -396q0 -239 -129.5 -387t-354.5 -148q-224 0 -354.5 147.5t-130.5 383.5zM186 504q0 -201 105 -323t287 -122q185 0 285 120t100 333q0 219 -99.5 336t-281.5 117q-181 0 -288.5 -122t-107.5 -339zM451 1188
l234 328h104l-248 -328h-90z" />
    <glyph glyph-name="ocircumflex" unicode="&#xf4;" horiz-adv-x="1149" 
d="M90 506q0 255 136.5 399t359.5 144q219 0 346 -143t127 -396q0 -239 -129.5 -387t-354.5 -148q-224 0 -354.5 147.5t-130.5 383.5zM186 504q0 -201 105 -323t287 -122q185 0 285 120t100 333q0 219 -99.5 336t-281.5 117q-181 0 -288.5 -122t-107.5 -339zM349 1188
l221 336h45l219 -336h-86l-157 239l-160 -239h-82z" />
    <glyph glyph-name="otilde" unicode="&#xf5;" horiz-adv-x="1149" 
d="M90 506q0 255 136.5 399t359.5 144q219 0 346 -143t127 -396q0 -239 -129.5 -387t-354.5 -148q-224 0 -354.5 147.5t-130.5 383.5zM186 504q0 -201 105 -323t287 -122q185 0 285 120t100 333q0 219 -99.5 336t-281.5 117q-181 0 -288.5 -122t-107.5 -339zM288 1188
q0 100 48 160.5t128 60.5q72 0 160 -72q67 -59 117 -59q40 0 68 37t28 108h74q0 -103 -48.5 -163t-130.5 -60q-66 0 -151 76q-64 55 -119 55q-102 0 -102 -143h-72z" />
    <glyph glyph-name="odieresis" unicode="&#xf6;" horiz-adv-x="1149" 
d="M90 506q0 255 136.5 399t359.5 144q219 0 346 -143t127 -396q0 -239 -129.5 -387t-354.5 -148q-224 0 -354.5 147.5t-130.5 383.5zM186 504q0 -201 105 -323t287 -122q185 0 285 120t100 333q0 219 -99.5 336t-281.5 117q-181 0 -288.5 -122t-107.5 -339zM344 1260
q0 31 22 50t48 19q29 0 52 -19.5t23 -49.5q0 -31 -21 -51.5t-52 -20.5q-28 0 -50 19.5t-22 52.5zM678 1260q0 31 21.5 50t47.5 19q29 0 52.5 -19.5t23.5 -49.5q0 -31 -21.5 -51.5t-52.5 -20.5q-27 0 -49 19.5t-22 52.5z" />
    <glyph glyph-name="divide" unicode="&#xf7;" horiz-adv-x="1331" 
d="M213 555v84h907v-84h-907zM590 252q0 32 23 54t55 22t53.5 -22t21.5 -54t-21.5 -55t-53.5 -23t-55 23t-23 55zM590 944q0 32 23 54t55 22t53.5 -22t21.5 -54t-21.5 -55t-53.5 -23t-55 23t-23 55z" />
    <glyph glyph-name="oslash" unicode="&#xf8;" horiz-adv-x="1149" 
d="M29 -39l170 189q-109 146 -109 356q0 255 136.5 399t359.5 144q199 0 321 -115l172 190l62 -55l-180 -199q98 -140 98 -360q0 -239 -129.5 -387t-354.5 -148q-192 0 -319 113l-166 -184zM186 504q0 -167 76 -285l584 647q-99 99 -264 99q-181 0 -288.5 -122t-107.5 -339z
M315 156q104 -97 263 -97q185 0 285 120t100 333q0 171 -66 287z" />
    <glyph glyph-name="ugrave" unicode="&#xf9;" horiz-adv-x="1096" 
d="M143 432v592h93v-569q0 -208 68.5 -302t215.5 -94q143 0 231.5 105t88.5 280v580h92v-1024h-92v186h-4q-107 -211 -330 -211q-363 0 -363 457zM310 1516h104l234 -328h-90z" />
    <glyph glyph-name="uacute" unicode="&#xfa;" horiz-adv-x="1096" 
d="M143 432v592h93v-569q0 -208 68.5 -302t215.5 -94q143 0 231.5 105t88.5 280v580h92v-1024h-92v186h-4q-107 -211 -330 -211q-363 0 -363 457zM453 1188l234 328h104l-248 -328h-90z" />
    <glyph glyph-name="ucircumflex" unicode="&#xfb;" horiz-adv-x="1096" 
d="M143 432v592h93v-569q0 -208 68.5 -302t215.5 -94q143 0 231.5 105t88.5 280v580h92v-1024h-92v186h-4q-107 -211 -330 -211q-363 0 -363 457zM327 1188l221 336h45l219 -336h-86l-157 239l-160 -239h-82z" />
    <glyph glyph-name="udieresis" unicode="&#xfc;" horiz-adv-x="1096" 
d="M143 432v592h93v-569q0 -208 68.5 -302t215.5 -94q143 0 231.5 105t88.5 280v580h92v-1024h-92v186h-4q-107 -211 -330 -211q-363 0 -363 457zM330 1260q0 31 22 50t48 19q29 0 52 -19.5t23 -49.5q0 -31 -21 -51.5t-52 -20.5q-28 0 -50 19.5t-22 52.5zM664 1260
q0 31 21.5 50t47.5 19q29 0 52.5 -19.5t23.5 -49.5q0 -31 -21.5 -51.5t-52.5 -20.5q-27 0 -49 19.5t-22 52.5z" />
    <glyph glyph-name="yacute" unicode="&#xfd;" horiz-adv-x="928" 
d="M20 1024h103l309 -834q10 -27 14 -41q4 -19 9 -34h4l24 69l330 840h100l-499 -1233q-56 -138 -124 -205t-175 -67q-45 0 -80 14v92q36 -14 84 -14q123 0 194 170l95 227zM358 1188l234 328h104l-248 -328h-90z" />
    <glyph glyph-name="thorn" unicode="&#xfe;" horiz-adv-x="1147" 
d="M164 -471v1987h92v-703h4q55 113 157.5 174.5t225.5 61.5q195 0 304.5 -134.5t109.5 -365.5q0 -257 -125.5 -415.5t-331.5 -158.5q-230 0 -340 207h-4v-653h-92zM256 434q0 -154 97 -264.5t255 -110.5q157 0 255 134.5t98 353.5q0 192 -90 305t-240 113q-179 0 -277 -120
t-98 -282v-129z" />
    <glyph glyph-name="ydieresis" unicode="&#xff;" horiz-adv-x="928" 
d="M20 1024h103l309 -834q10 -27 14 -41q4 -19 9 -34h4l24 69l330 840h100l-499 -1233q-56 -138 -124 -205t-175 -67q-45 0 -80 14v92q36 -14 84 -14q123 0 194 170l95 227zM231 1260q0 31 22 50t48 19q29 0 52 -19.5t23 -49.5q0 -31 -21 -51.5t-52 -20.5q-28 0 -50 19.5
t-22 52.5zM565 1260q0 31 21.5 50t47.5 19q29 0 52.5 -19.5t23.5 -49.5q0 -31 -21.5 -51.5t-52.5 -20.5q-27 0 -49 19.5t-22 52.5z" />
    <glyph glyph-name="OE" unicode="&#x152;" horiz-adv-x="1935" 
d="M109 702q0 344 187 550t515 206q141 0 266 -24h670v-91h-571v-575h530v-90h-530v-588h604v-90h-703q-174 -25 -282 -25q-326 0 -506 203t-180 524zM211 713q0 -292 152 -469.5t430 -177.5q139 0 284 30v1245q-130 27 -272 27q-273 0 -433.5 -183t-160.5 -472z" />
    <glyph glyph-name="oe" unicode="&#x153;" horiz-adv-x="1886" 
d="M90 506q0 258 137 400.5t359 142.5q156 0 268 -80t156 -217h4q115 297 407 297q190 0 292 -132.5t102 -367.5v-41h-758q0 -209 96.5 -329t267.5 -120q174 0 336 127v-98q-157 -113 -350 -113q-294 0 -395 297h-4q-116 -297 -433 -297q-226 0 -355.5 149t-129.5 382z
M186 504q0 -201 105 -323t287 -122q185 0 285 120t100 333q0 219 -99.5 336t-281.5 117q-181 0 -288.5 -122t-107.5 -339zM1061 592h657q-6 177 -85 275t-218 98q-145 0 -240 -98t-114 -275z" />
    <glyph glyph-name="Ydieresis" unicode="&#x178;" horiz-adv-x="1106" 
d="M61 1434h111l334 -691q18 -36 45 -106h4q14 37 49 104l350 693h107l-463 -889v-545h-98v543zM311 1607q0 31 22 50t48 19q29 0 52 -19.5t23 -49.5q0 -31 -21 -51.5t-52 -20.5q-28 0 -50 19.5t-22 52.5zM645 1607q0 31 21.5 50t47.5 19q29 0 52.5 -19.5t23.5 -49.5
q0 -31 -21.5 -51.5t-52.5 -20.5q-27 0 -49 19.5t-22 52.5z" />
    <glyph glyph-name="circumflex" unicode="&#x2c6;" horiz-adv-x="766" 
d="M129 1188l221 336h45l219 -336h-86l-157 239l-160 -239h-82z" />
    <glyph glyph-name="ring" unicode="&#x2da;" horiz-adv-x="594" 
d="M96 1372q0 80 57 132t144 52q88 0 144.5 -50.5t56.5 -133.5q0 -80 -58 -132t-143 -52q-86 0 -143.5 50.5t-57.5 133.5zM170 1372q0 -53 36.5 -85t90.5 -32q57 0 93 32.5t36 84.5q0 57 -37.5 87t-91.5 30q-57 0 -92 -32t-35 -85z" />
    <glyph glyph-name="tilde" unicode="&#x2dc;" horiz-adv-x="649" 
d="M41 1188q0 100 48 160.5t128 60.5q72 0 160 -72q67 -59 117 -59q40 0 68 37t28 108h74q0 -103 -48.5 -163t-130.5 -60q-66 0 -151 76q-64 55 -119 55q-102 0 -102 -143h-72z" />
    <glyph glyph-name="uni0400" unicode="&#x400;" horiz-adv-x="1024" 
d="M184 0v1434h670v-91h-571v-575h530v-90h-530v-588h604v-90h-703zM308 1864h104l234 -328h-90z" />
    <glyph glyph-name="uni0401" unicode="&#x401;" horiz-adv-x="1024" 
d="M184 0v1434h670v-91h-571v-575h530v-90h-530v-588h604v-90h-703zM309 1608q0 31 22 50t48 19q29 0 52 -19.5t23 -49.5q0 -31 -21 -51.5t-52 -20.5q-28 0 -50 19.5t-22 52.5zM643 1608q0 31 21.5 50t47.5 19q29 0 52.5 -19.5t23.5 -49.5q0 -31 -21.5 -51.5t-52.5 -20.5
q-27 0 -49 19.5t-22 52.5z" />
    <glyph glyph-name="uni0402" unicode="&#x402;" horiz-adv-x="1409" 
d="M61 1343v91h926v-91h-455v-544h295q99 0 183.5 -25.5t145.5 -78t95.5 -132.5t34.5 -188q0 -80 -22.5 -152.5t-68.5 -127.5t-117.5 -87.5t-168.5 -32.5q-45 0 -87.5 8t-71.5 17v100q31 -12 74 -22t85 -10q72 0 123.5 25.5t84.5 68t48 97.5t15 114q0 74 -23.5 136
t-69.5 106.5t-114.5 69t-159.5 24.5h-281v-709h-98v1343h-373z" />
    <glyph glyph-name="uni0403" unicode="&#x403;" horiz-adv-x="889" 
d="M184 0v1434h674v-91h-575v-1343h-99zM434 1556l234 328h104l-248 -328h-90z" />
    <glyph glyph-name="uni0404" unicode="&#x404;" horiz-adv-x="1272" 
d="M109 688q0 186 57 329.5t154 241.5t226.5 148.5t274.5 50.5q111 0 186.5 -17t129.5 -36v-105q-62 28 -138.5 48t-179.5 20q-123 0 -229 -40.5t-186.5 -118t-130.5 -189.5t-60 -256h702v-92h-704q4 -156 53.5 -270t129 -189t180.5 -111t208 -36q113 0 202.5 22.5
t152.5 54.5v-96q-27 -11 -62.5 -23.5t-80 -23.5t-99.5 -18t-121 -7q-148 0 -270.5 52t-210 145.5t-136 225t-48.5 290.5z" />
    <glyph glyph-name="uni0405" unicode="&#x405;" horiz-adv-x="1018" 
d="M139 51v113q154 -98 312 -98q168 0 255 69.5t87 194.5q0 110 -58.5 175.5t-253.5 178.5q-218 127 -276 212.5t-58 197.5q0 152 118 258t315 106q128 0 256 -43v-104q-126 57 -269 57q-146 0 -231.5 -74t-85.5 -188q0 -110 58.5 -175t252.5 -177q201 -114 267.5 -202.5
t66.5 -203.5q0 -165 -114.5 -269t-323.5 -104q-74 0 -170.5 23t-147.5 53z" />
    <glyph glyph-name="uni0406" unicode="&#x406;" horiz-adv-x="467" 
d="M184 0v1434h99v-1434h-99z" />
    <glyph glyph-name="uni0407" unicode="&#x407;" horiz-adv-x="467" 
d="M-8 1608q0 31 22 50t48 19q29 0 52 -19.5t23 -49.5q0 -31 -21 -51.5t-52 -20.5q-28 0 -50 19.5t-22 52.5zM184 0v1434h99v-1434h-99zM326 1608q0 31 21.5 50t47.5 19q29 0 52.5 -19.5t23.5 -49.5q0 -31 -21.5 -51.5t-52.5 -20.5q-27 0 -49 19.5t-22 52.5z" />
    <glyph glyph-name="uni0408" unicode="&#x408;" horiz-adv-x="664" 
d="M18 -10v96q59 -20 111 -20q138 0 199 104.5t61 325.5v938h98v-940q0 -519 -360 -519q-56 0 -109 15z" />
    <glyph glyph-name="uni0409" unicode="&#x409;" horiz-adv-x="1995" 
d="M31 -4v100q40 -20 92 -20q45 0 79 23t59.5 66t45 104.5t36.5 138.5q11 48 23.5 115t27 148.5t29 174t29 190.5t28.5 199t26 199h635v-637h325q85 0 158.5 -21.5t127.5 -67.5t85 -118.5t31 -175.5q0 -85 -28 -160t-82.5 -131.5t-135 -89.5t-184.5 -33h-396v1341h-454
q-17 -133 -37 -275t-41 -274t-40.5 -245t-35.5 -187q-17 -78 -41 -146.5t-60 -120t-86.5 -81.5t-119.5 -30q-32 0 -55 4t-41 10zM1141 90h276q92 0 158 24t108 66t62 100t20 126q0 81 -23 138t-68 93t-111 53t-152 17h-270v-617z" />
    <glyph glyph-name="uni040A" unicode="&#x40a;" horiz-adv-x="2056" 
d="M184 0v1434h99v-637h821v637h98v-637h326q84 0 157.5 -21.5t127.5 -67.5t85 -118.5t31 -175.5q0 -85 -28 -160t-82.5 -131.5t-134.5 -89.5t-185 -33h-395v707h-821v-707h-99zM1202 90h277q92 0 158 24t108 66t62 100t20 126q0 81 -23 138t-68 93t-111 53t-152 17h-271
v-617z" />
    <glyph glyph-name="uni040B" unicode="&#x40b;" horiz-adv-x="1421" 
d="M61 1343v91h926v-91h-414v-524h301q97 0 174 -24t130 -76t81.5 -134t28.5 -198v-387h-98v383q0 81 -17.5 145.5t-55.5 109t-99 68t-148 23.5h-297v-729h-98v1343h-414z" />
    <glyph glyph-name="uni040C" unicode="&#x40c;" horiz-adv-x="1079" 
d="M184 0v1434h99v-676h4q12 21 26 35l580 641h129l-629 -695l668 -739h-139l-611 686q-17 19 -24 33h-4v-719h-99zM508 1556l234 328h104l-248 -328h-90z" />
    <glyph glyph-name="uni040D" unicode="&#x40d;" horiz-adv-x="1452" 
d="M184 0v1434h99v-1121q0 -24 -1 -58.5t-3 -61.5h4q11 18 29 45t32 47l848 1149h76v-1434h-99v1122v30.5v33.5t0.5 33.5t1.5 29.5h-4q-5 -8 -12.5 -20.5t-16 -25t-17 -24.5t-13.5 -20l-854 -1159h-70zM464 1865h104l234 -328h-90z" />
    <glyph glyph-name="uni040E" unicode="&#x40e;" horiz-adv-x="1098" 
d="M61 1434h111l358 -811q6 -12 13 -28t14.5 -34l15 -36t13.5 -33h4q12 34 26 64.5t23 53.5l344 824h104l-456 -1057q-38 -89 -79 -163t-90 -127t-108.5 -82.5t-134.5 -29.5q-43 0 -80.5 8.5t-63.5 20.5v107q32 -19 72 -31t72 -12q58 0 101.5 22.5t80 64t68.5 100.5t66 132z
M233 1795h98q5 -41 22 -79t47 -67t73 -46t100 -17h2q58 0 104.5 17t80 46t53 67t24.5 79h98q-10 -54 -37.5 -105.5t-72.5 -91.5t-108 -64t-143 -24t-140 24t-101 64t-65.5 91.5t-34.5 105.5z" />
    <glyph glyph-name="uni040F" unicode="&#x40f;" horiz-adv-x="1386" 
d="M184 0v1434h99v-1344h821v1344h98v-1434h-464v-384h-96v384h-458z" />
    <glyph glyph-name="uni0410" unicode="&#x410;" horiz-adv-x="1288" 
d="M59 0l541 1434h94l535 -1434h-111l-164 446h-622l-164 -446h-109zM367 537h553l-242 663q-11 30 -18 59q-7 25 -15 50h-4q-17 -66 -33 -107z" />
    <glyph glyph-name="uni0411" unicode="&#x411;" horiz-adv-x="1102" 
d="M184 0v1434h721v-91h-622v-546h325q85 0 158.5 -21.5t127.5 -67.5t85 -118.5t31 -175.5q0 -85 -28 -160t-82.5 -131.5t-135 -89.5t-184.5 -33h-396zM283 90h276q92 0 158 24t108 66t62 100t20 126q0 81 -23 138t-68 93t-111 53t-152 17h-270v-617z" />
    <glyph glyph-name="uni0412" unicode="&#x412;" horiz-adv-x="1114" 
d="M184 0v1434h377q169 0 269 -91t100 -241q0 -125 -66.5 -216.5t-185.5 -129.5v-4q149 -14 235 -106.5t86 -235.5q0 -181 -117 -295.5t-313 -114.5h-385zM283 90h266q169 0 258.5 81t89.5 230q0 297 -403 297h-211v-608zM283 788h200q156 0 250 80t94 217q0 258 -305 258
h-239v-555z" />
    <glyph glyph-name="uni0413" unicode="&#x413;" horiz-adv-x="889" 
d="M184 0v1434h674v-91h-575v-1343h-99z" />
    <glyph glyph-name="uni0414" unicode="&#x414;" horiz-adv-x="1351" 
d="M20 90h116q74 144 141 312t118 344t82.5 352t34.5 336h618v-1344h201v-474h-96v384h-1115v-384h-100v474zM244 90h788v1253h-428q-3 -84 -18 -182.5t-39 -206t-56 -220t-71 -224t-83.5 -218t-92.5 -202.5z" />
    <glyph glyph-name="uni0415" unicode="&#x415;" horiz-adv-x="1024" 
d="M184 0v1434h670v-91h-571v-575h530v-90h-530v-588h604v-90h-703z" />
    <glyph glyph-name="uni0416" unicode="&#x416;" horiz-adv-x="1692" 
d="M18 0l668 739l-629 695h129l580 -641q5 -5 13.5 -15.5t13.5 -19.5h4v676h98v-676h4q5 9 13.5 19.5t13.5 15.5l579 641h129l-628 -695l667 -739h-139l-610 686q-5 5 -12 13.5t-13 19.5h-4v-719h-98v719h-4q-7 -11 -13.5 -19.5t-11.5 -13.5l-610 -686h-140z" />
    <glyph glyph-name="uni0417" unicode="&#x417;" horiz-adv-x="1104" 
d="M123 72v106q41 -31 88 -53.5t96 -37t97.5 -21.5t93.5 -7q99 0 173.5 26t124 70t74.5 102t25 122q0 83 -30 144t-87 100.5t-139 59t-186 19.5h-129v84h98q95 0 171.5 21.5t130.5 62.5t83 99.5t29 132.5q0 57 -19 107t-57 86.5t-95 57.5t-133 21q-92 0 -174 -28t-147 -76
v98q33 18 68.5 34t76 28.5t86.5 20t99 7.5q94 0 167 -26t123 -71.5t75.5 -108t25.5 -134.5q0 -139 -76 -233t-219 -131v-4q89 -6 155.5 -39t110.5 -82.5t66 -110.5t22 -125q0 -81 -31.5 -156.5t-94 -133.5t-155 -93t-214.5 -35q-119 0 -213 27.5t-160 69.5z" />
    <glyph glyph-name="uni0418" unicode="&#x418;" horiz-adv-x="1452" 
d="M184 0v1434h99v-1121q0 -24 -1 -58.5t-3 -61.5h4q11 18 29 45t32 47l848 1149h76v-1434h-99v1122v30.5v33.5t0.5 33.5t1.5 29.5h-4q-5 -8 -12.5 -20.5t-16 -25t-17 -24.5t-13.5 -20l-854 -1159h-70z" />
    <glyph glyph-name="uni0419" unicode="&#x419;" horiz-adv-x="1452" 
d="M184 0v1434h99v-1121q0 -24 -1 -58.5t-3 -61.5h4q11 18 29 45t32 47l848 1149h76v-1434h-99v1122v30.5v33.5t0.5 33.5t1.5 29.5h-4q-5 -8 -12.5 -20.5t-16 -25t-17 -24.5t-13.5 -20l-854 -1159h-70zM382 1795h98q5 -41 22 -79t47 -67t73 -46t100 -17h2q58 0 104.5 17
t80 46t53 67t24.5 79h98q-10 -54 -37.5 -105.5t-72.5 -91.5t-108 -64t-143 -24t-140 24t-101 64t-65.5 91.5t-34.5 105.5z" />
    <glyph glyph-name="uni041A" unicode="&#x41a;" horiz-adv-x="1079" 
d="M184 0v1434h99v-676h4q12 21 26 35l580 641h129l-629 -695l668 -739h-139l-611 686q-17 19 -24 33h-4v-719h-99z" />
    <glyph glyph-name="uni041B" unicode="&#x41b;" horiz-adv-x="1325" 
d="M31 -4v100q40 -20 92 -20q45 0 79 23t59.5 66t45 104.5t36.5 138.5q11 48 23.5 115t27 148.5t29 174t29 190.5t28.5 199t26 199h635v-1434h-99v1341h-454q-17 -133 -37 -275t-41 -274t-40.5 -245t-35.5 -187q-17 -78 -41 -146.5t-60 -120t-86.5 -81.5t-119.5 -30
q-32 0 -55 4t-41 10z" />
    <glyph glyph-name="uni041C" unicode="&#x41c;" horiz-adv-x="1706" 
d="M184 0v1434h92l535 -1155q5 -10 11 -27t13 -34q10 -26 21 -58h6l11 32q1 4 34 95l527 1147h88v-1434h-95v1018q0 37 11 211h-4q-31 -81 -52 -125l-510 -1104h-32l-512 1098q-25 53 -47 135h-5q7 -96 7 -191v-1042h-99z" />
    <glyph glyph-name="uni041D" unicode="&#x41d;" horiz-adv-x="1386" 
d="M184 0v1434h99v-656h821v656h98v-1434h-98v688h-821v-688h-99z" />
    <glyph glyph-name="uni041E" unicode="&#x41e;" horiz-adv-x="1559" 
d="M109 702q0 343 185.5 549.5t506.5 206.5q290 0 469.5 -198.5t179.5 -520.5q0 -356 -184 -560t-492 -204q-304 0 -484.5 202t-180.5 525zM211 713q0 -296 153 -471.5t408 -175.5q266 0 421 173.5t155 483.5q0 304 -151.5 474.5t-412.5 170.5q-250 0 -411.5 -181
t-161.5 -474z" />
    <glyph glyph-name="uni041F" unicode="&#x41f;" horiz-adv-x="1386" 
d="M184 0v1434h1018v-1434h-98v1343h-821v-1343h-99z" />
    <glyph glyph-name="uni0420" unicode="&#x420;" horiz-adv-x="1114" 
d="M184 0v1434h346q221 0 338 -102.5t117 -299.5q0 -200 -130.5 -328.5t-365.5 -128.5h-206v-575h-99zM283 666h204q194 0 295 92.5t101 261.5q0 323 -371 323h-229v-677z" />
    <glyph glyph-name="uni0421" unicode="&#x421;" horiz-adv-x="1272" 
d="M109 688q0 349 201 559.5t511 210.5q165 0 316 -53v-105q-151 68 -318 68q-270 0 -439 -183t-169 -487q0 -293 161.5 -462.5t409.5 -169.5q198 0 355 77v-96q-174 -72 -363 -72q-294 0 -479.5 197.5t-185.5 515.5z" />
    <glyph glyph-name="uni0422" unicode="&#x422;" horiz-adv-x="1047" 
d="M61 1343v91h926v-91h-414v-1343h-98v1343h-414z" />
    <glyph glyph-name="uni0423" unicode="&#x423;" horiz-adv-x="1098" 
d="M61 1434h111l358 -811q6 -12 13 -28t14.5 -34l15 -36t13.5 -33h4q12 34 26 64.5t23 53.5l344 824h104l-456 -1057q-38 -89 -79 -163t-90 -127t-108.5 -82.5t-134.5 -29.5q-43 0 -80.5 8.5t-63.5 20.5v107q32 -19 72 -31t72 -12q58 0 101.5 22.5t80 64t68.5 100.5t66 132z
" />
    <glyph glyph-name="uni0424" unicode="&#x424;" horiz-adv-x="1442" 
d="M102 756q0 110 37.5 207.5t106.5 170.5t167 115.5t220 42.5h39v183h98v-183h39q121 0 219 -41.5t167 -113.5t106.5 -170t37.5 -211q0 -114 -38 -216t-107 -178t-166.5 -120.5t-216.5 -44.5h-41v-217h-98v217h-41q-119 0 -216.5 43.5t-167 119.5t-107.5 178t-38 218z
M207 754q0 -108 31.5 -194t88 -147t134.5 -93.5t170 -32.5h41v915h-39q-93 0 -171 -33t-135 -92t-88.5 -141.5t-31.5 -181.5zM770 287h41q92 0 170 33t134.5 94t88 147.5t31.5 192.5q0 101 -31.5 184t-88 141.5t-134.5 90.5t-172 32h-39v-915z" />
    <glyph glyph-name="uni0425" unicode="&#x425;" horiz-adv-x="1153" 
d="M61 0l453 723l-426 711h119l321 -539q25 -42 52 -96h4l53 96l319 539h115l-430 -709l440 -725h-120l-330 547q-31 51 -53 100h-5q-27 -55 -57 -100l-336 -547h-119z" />
    <glyph glyph-name="uni0426" unicode="&#x426;" horiz-adv-x="1436" 
d="M184 0v1434h99v-1344h821v1344h98v-1344h182v-474h-96v384h-1104z" />
    <glyph glyph-name="uni0427" unicode="&#x427;" horiz-adv-x="1255" 
d="M164 891v543h98v-529q0 -131 67 -202.5t201 -71.5q103 0 216.5 29t226.5 75v699h98v-1434h-98v649q-113 -44 -225.5 -76t-227.5 -32q-94 0 -161 25.5t-110.5 72t-64 110.5t-20.5 142z" />
    <glyph glyph-name="uni0428" unicode="&#x428;" horiz-adv-x="1776" 
d="M184 0v1434h99v-1344h553v1344h100v-1344h555v1344h100v-1434h-1407z" />
    <glyph glyph-name="uni0429" unicode="&#x429;" horiz-adv-x="1825" 
d="M184 0v1434h99v-1344h553v1344h100v-1344h555v1344h100v-1344h183v-474h-96v384h-1494z" />
    <glyph glyph-name="uni042A" unicode="&#x42a;" horiz-adv-x="1423" 
d="M61 1343v91h512v-637h326q84 0 157.5 -21.5t127.5 -67.5t85 -118.5t31 -175.5q0 -85 -28 -160t-82.5 -131.5t-134.5 -89.5t-185 -33h-395v1343h-414zM573 90h277q92 0 158 24t108 66t62 100t20 126q0 81 -23 138t-68 93t-111 53t-152 17h-271v-617z" />
    <glyph glyph-name="uni042B" unicode="&#x42b;" horiz-adv-x="1544" 
d="M184 0v1434h99v-637h325q85 0 158.5 -21.5t127.5 -67.5t85 -118.5t31 -175.5q0 -85 -28 -160t-82.5 -131.5t-135 -89.5t-184.5 -33h-396zM283 90h276q92 0 158 24t108 66t62 100t20 126q0 81 -23 138t-68 93t-111 53t-152 17h-270v-617zM1262 0v1434h98v-1434h-98z" />
    <glyph glyph-name="uni042C" unicode="&#x42c;" horiz-adv-x="1135" 
d="M184 0v1434h99v-637h325q85 0 158.5 -21.5t127.5 -67.5t85 -118.5t31 -175.5q0 -85 -28 -160t-82.5 -131.5t-135 -89.5t-184.5 -33h-396zM283 90h276q92 0 158 24t108 66t62 100t20 126q0 81 -23 138t-68 93t-111 53t-152 17h-270v-617z" />
    <glyph glyph-name="uni042D" unicode="&#x42d;" horiz-adv-x="1262" 
d="M125 45v98q63 -32 153.5 -54.5t202.5 -22.5q107 0 208 36t180 111t128.5 189t53.5 270h-704v92h702q-9 130 -52.5 240.5t-120 191.5t-184.5 126.5t-246 45.5q-103 0 -181 -20t-140 -48v97q27 9 61 19.5t74.5 20t88.5 15.5t104 6q145 0 272.5 -47t222.5 -141t150 -233.5
t55 -325.5q0 -159 -50.5 -294t-140.5 -233t-214.5 -153.5t-272.5 -55.5q-66 0 -119 7t-95 17.5t-75.5 22.5t-60.5 23z" />
    <glyph glyph-name="uni042E" unicode="&#x42e;" horiz-adv-x="1989" 
d="M184 0v1434h99v-643h321q12 146 60 268.5t131 211t200 138t267 49.5q142 0 256 -53.5t194.5 -148.5t124 -227.5t43.5 -289.5q0 -191 -49 -334t-135 -238.5t-203.5 -143.5t-255.5 -48q-155 0 -273.5 56.5t-199.5 155t-122.5 230.5t-41.5 283h-317v-700h-99zM702 713
q0 -149 38 -269t107.5 -204t167.5 -129t218 -45t220 41.5t172 124t112.5 205.5t40.5 286q0 160 -39.5 280.5t-110.5 201.5t-169.5 122t-215.5 41q-116 0 -215 -46t-171.5 -131t-113.5 -206.5t-41 -271.5z" />
    <glyph glyph-name="uni042F" unicode="&#x42f;" horiz-adv-x="1137" 
d="M66 0l211 453q22 46 44.5 80t46 59t47.5 42t48 28v4q-64 10 -123.5 38t-105.5 74.5t-74 112.5t-28 151q0 41 11 86t33.5 88.5t58 83t84.5 69.5t113 47.5t143 17.5h377v-1434h-98v639h-209q-57 0 -98.5 -16t-73.5 -45.5t-57 -70.5t-49 -91l-189 -416h-112zM235 1042
q0 -87 32 -146.5t83.5 -96.5t118 -53.5t135.5 -16.5h250v614h-268q-99 0 -166 -27.5t-108.5 -70.5t-59 -97t-17.5 -106z" />
    <glyph glyph-name="uni0430" unicode="&#x430;" horiz-adv-x="1012" 
d="M106 264q0 268 355 324l315 47q0 330 -248 330q-169 0 -329 -136v111q57 45 154.5 77t183.5 32q158 0 244.5 -98t86.5 -285v-666h-92v205h-4q-49 -105 -142.5 -167.5t-207.5 -62.5q-146 0 -231 82t-85 207zM203 268q0 -91 60.5 -150t168.5 -59q148 0 246 109.5t98 282.5
v100l-282 -41q-161 -23 -226 -74.5t-65 -167.5z" />
    <glyph glyph-name="uni0431" unicode="&#x431;" horiz-adv-x="1126" 
d="M133 610q0 174 21 303.5t59.5 221t91.5 149.5t117 90q40 20 87.5 34.5t97 26t98 20t90.5 15.5q35 7 75 19t68 31v-97q-22 -14 -58.5 -26.5t-82.5 -20.5q-44 -7 -92.5 -15.5t-95 -19t-89 -24t-74.5 -31.5q-88 -52 -142 -175.5t-66 -328.5h4q22 43 58.5 82.5t84 69.5
t105 47.5t122.5 17.5q111 0 191 -40.5t131.5 -110.5t76.5 -162.5t25 -196.5q0 -59 -10.5 -120t-33.5 -118.5t-58.5 -107.5t-85 -87.5t-114 -59t-144.5 -21.5q-112 0 -197.5 43.5t-143 125t-87 199.5t-29.5 267zM236 563q0 -100 20.5 -191t64 -160.5t111.5 -111t164 -41.5
q84 0 147.5 33.5t106 91t63.5 133.5t21 160q0 100 -21 180t-63.5 136.5t-106.5 87t-149 30.5q-60 0 -113.5 -19.5t-99.5 -52.5t-82 -77t-61 -94q0 -17 -1 -46.5t-1 -58.5z" />
    <glyph glyph-name="uni0432" unicode="&#x432;" horiz-adv-x="981" 
d="M164 0v1024h389q77 0 132.5 -19t91.5 -52t53.5 -78t17.5 -97q0 -47 -13.5 -87.5t-38 -73t-60 -54.5t-79.5 -31q57 -6 100.5 -26.5t72.5 -52t44 -72.5t15 -88q0 -65 -22.5 -118.5t-63.5 -92.5t-97.5 -60.5t-123.5 -21.5h-418zM256 84h307q57 0 100 14.5t72 41t43.5 63.5
t14.5 82q0 41 -13.5 77.5t-44 63.5t-81 43t-124.5 16h-274v-401zM256 569h260q68 0 113.5 16.5t72.5 44t38.5 62.5t11.5 72q0 35 -10.5 67t-35.5 56t-65 38.5t-100 14.5h-285v-371z" />
    <glyph glyph-name="uni0433" unicode="&#x433;" horiz-adv-x="694" 
d="M164 0v1024h500v-84h-408v-940h-92z" />
    <glyph glyph-name="uni0434" unicode="&#x434;" horiz-adv-x="1075" 
d="M45 84h90q67 97 118.5 209t86.5 233t54 247t22 251h456v-940h158v-354h-84v270h-817v-270h-84v354zM238 84h542v856h-280q-8 -107 -27 -218t-51.5 -221t-78 -215.5t-105.5 -201.5z" />
    <glyph glyph-name="uni0435" unicode="&#x435;" horiz-adv-x="1034" 
d="M90 518q0 224 127.5 377.5t331.5 153.5q191 0 293 -134t102 -366v-41h-758q0 -211 97.5 -330t267.5 -119q172 0 336 127v-98q-159 -113 -355 -113q-198 0 -320 142t-122 401zM190 592h658q-6 177 -85 275t-218 98q-144 0 -238.5 -96.5t-116.5 -276.5z" />
    <glyph glyph-name="uni0436" unicode="&#x436;" horiz-adv-x="1362" 
d="M20 0l512 524l-495 500h119l475 -489h4v489h92v-489h4l475 489h119l-496 -500l512 -524h-129l-481 502h-4v-502h-92v502h-4l-481 -502h-130z" />
    <glyph glyph-name="uni0437" unicode="&#x437;" horiz-adv-x="936" 
d="M86 43v96q35 -19 75.5 -34t83 -25t84.5 -15.5t81 -5.5q100 0 165.5 18t104 47.5t53.5 68.5t15 81q0 61 -23.5 102t-67 66t-106 35t-139.5 10h-140v84h127q150 0 223.5 49t73.5 154q0 42 -16 77t-49 60.5t-84 39.5t-121 14q-84 0 -167.5 -22t-152.5 -54v90q29 12 66 24.5
t79.5 22.5t89.5 16.5t97 6.5q97 0 164.5 -22.5t110 -59.5t61.5 -84.5t19 -96.5q0 -99 -55.5 -164t-157.5 -83v-4q63 -3 112 -23.5t83 -53.5t51.5 -77.5t17.5 -95.5q0 -59 -22.5 -115t-73.5 -99.5t-134.5 -69.5t-205.5 -26q-41 0 -86 5t-88.5 14t-82 21.5t-65.5 27.5z" />
    <glyph glyph-name="uni0438" unicode="&#x438;" horiz-adv-x="1128" 
d="M164 0v1024h92v-848q6 11 12 21t13 18l610 809h74v-1024h-93v856q-8 -11 -15.5 -22t-12.5 -17l-615 -817h-65z" />
    <glyph glyph-name="uni0439" unicode="&#x439;" horiz-adv-x="1128" 
d="M164 0v1024h92v-848q6 11 12 21t13 18l610 809h74v-1024h-93v856q-8 -11 -15.5 -22t-12.5 -17l-615 -817h-65zM216 1475h98q5 -41 22 -79t47 -67t73 -46t100 -17h2q58 0 104.5 17t80 46t53 67t24.5 79h98q-10 -54 -37.5 -105.5t-72.5 -91.5t-108 -64t-143 -24t-140 24
t-101 64t-65.5 91.5t-34.5 105.5z" />
    <glyph glyph-name="uni043A" unicode="&#x43a;" horiz-adv-x="891" 
d="M164 0v1024h92v-489h4l475 489h119l-496 -500l512 -524h-129l-481 502h-4v-502h-92z" />
    <glyph glyph-name="uni043B" unicode="&#x43b;" horiz-adv-x="1026" 
d="M31 -6v82q8 -3 26 -5.5t29 -2.5q67 0 117 62.5t86 184t60.5 300t39.5 409.5h473v-1024h-92v940h-299q-17 -228 -44.5 -405.5t-72 -299.5t-109.5 -185.5t-157 -63.5q-15 0 -30.5 2.5t-26.5 5.5z" />
    <glyph glyph-name="uni043C" unicode="&#x43c;" horiz-adv-x="1300" 
d="M164 0v1024h110l312 -709q11 -24 23.5 -56.5t23.5 -62.5q13 -35 26 -71q14 35 28 69q11 29 24 61t22 56l291 713h113v-1024h-90v885l-27 -72q-11 -30 -23.5 -62t-21.5 -55l-277 -696h-75l-299 696q-10 21 -22 53t-23 62q-13 35 -27 74v-885h-88z" />
    <glyph glyph-name="uni043D" unicode="&#x43d;" horiz-adv-x="1116" 
d="M164 0v1024h92v-451h604v451h92v-1024h-92v489h-604v-489h-92z" />
    <glyph glyph-name="uni043E" unicode="&#x43e;" horiz-adv-x="1149" 
d="M90 506q0 255 136.5 399t359.5 144q219 0 346 -143t127 -396q0 -239 -129.5 -387t-354.5 -148q-224 0 -354.5 147.5t-130.5 383.5zM186 504q0 -201 105 -323t287 -122q185 0 285 120t100 333q0 219 -99.5 336t-281.5 117q-181 0 -288.5 -122t-107.5 -339z" />
    <glyph glyph-name="uni043F" unicode="&#x43f;" horiz-adv-x="1116" 
d="M164 0v1024h788v-1024h-92v940h-604v-940h-92z" />
    <glyph glyph-name="uni0440" unicode="&#x440;" horiz-adv-x="1147" 
d="M164 -471v1495h92v-211h4q55 113 157.5 174.5t225.5 61.5q195 0 304.5 -134.5t109.5 -365.5q0 -257 -125.5 -415.5t-331.5 -158.5q-230 0 -340 207h-4v-653h-92zM256 434q0 -154 97 -264.5t255 -110.5q157 0 255 134.5t98 353.5q0 192 -90 305t-240 113q-179 0 -277 -120
t-98 -282v-129z" />
    <glyph glyph-name="uni0441" unicode="&#x441;" horiz-adv-x="909" 
d="M90 494q0 244 144 399.5t370 155.5q117 0 227 -48v-104q-110 68 -241 68q-180 0 -292 -129.5t-112 -335.5q0 -199 102.5 -320t270.5 -121q154 0 268 82v-96q-114 -70 -272 -70q-209 0 -337 143.5t-128 375.5z" />
    <glyph glyph-name="uni0442" unicode="&#x442;" horiz-adv-x="756" 
d="M27 940v84h706v-84h-307v-940h-92v940h-307z" />
    <glyph glyph-name="uni0443" unicode="&#x443;" horiz-adv-x="928" 
d="M20 1024h103l309 -834q10 -27 14 -41q4 -19 9 -34h4l24 69l330 840h100l-499 -1233q-56 -138 -124 -205t-175 -67q-45 0 -80 14v92q36 -14 84 -14q123 0 194 170l95 227z" />
    <glyph glyph-name="uni0444" unicode="&#x444;" horiz-adv-x="1321" 
d="M86 506q0 118 35 214t99 163.5t153.5 104t199.5 36.5h41v434h93v-434h41q109 0 199 -36.5t154 -104t99 -163.5t35 -214q0 -111 -37.5 -204t-103.5 -160t-156 -104.5t-195 -37.5h-36v-481h-93v481h-36q-105 0 -195 37.5t-156 104.5t-103.5 160t-37.5 204zM182 504
q0 -99 30 -177t84 -132t128 -82.5t162 -28.5h28v856h-39q-84 0 -156 -27t-124.5 -81.5t-82.5 -136.5t-30 -191zM707 84h28q88 0 162 28.5t128 82.5t84 132t30 177q0 109 -30 191t-83 136.5t-125.5 81.5t-157.5 27h-36v-856z" />
    <glyph glyph-name="uni0445" unicode="&#x445;" horiz-adv-x="862" 
d="M33 0l342 500l-336 524h108l228 -367q44 -71 53 -88h4l51 84l238 371h108l-348 -522l334 -502h-117l-270 432h-4l-36 -57q-7 -12 -17 -27l-226 -348h-112z" />
    <glyph glyph-name="uni0446" unicode="&#x446;" horiz-adv-x="1155" 
d="M164 0v1024h92v-940h604v940h92v-940h158v-457h-84v373h-862z" />
    <glyph glyph-name="uni0447" unicode="&#x447;" horiz-adv-x="1071" 
d="M143 690v334h93v-326q0 -60 10.5 -110.5t36 -87t69 -57.5t109.5 -21q97 0 185 29t169 75v498h92v-1024h-92v446q-97 -52 -185 -80t-179 -28q-66 0 -122 19.5t-97.5 61.5t-65 109t-23.5 162z" />
    <glyph glyph-name="uni0448" unicode="&#x448;" horiz-adv-x="1538" 
d="M164 0v1024h92v-940h467v940h92v-940h467v940h92v-1024h-1210z" />
    <glyph glyph-name="uni0449" unicode="&#x449;" horiz-adv-x="1577" 
d="M164 0v1024h92v-940h467v940h92v-940h467v940h92v-940h158v-457h-84v373h-1284z" />
    <glyph glyph-name="uni044A" unicode="&#x44a;" horiz-adv-x="1133" 
d="M27 940v84h413v-420h293q74 0 133 -20t100 -58.5t63 -93.5t22 -125q0 -78 -27 -136t-71 -96t-99.5 -56.5t-112.5 -18.5h-393v940h-321zM440 84h277q64 0 109.5 17.5t73.5 48t41 71t13 86.5q0 45 -14.5 84t-44 67.5t-74.5 45t-106 16.5h-275v-436z" />
    <glyph glyph-name="uni044B" unicode="&#x44b;" horiz-adv-x="1346" 
d="M164 0v1024h92v-420h293q73 0 132 -20t100 -58.5t63 -93.5t22 -125q0 -78 -27 -136t-70.5 -96t-99 -56.5t-112.5 -18.5h-393zM256 84h276q65 0 110 17.5t73.5 48t41.5 71t13 86.5q0 45 -14.5 84t-44.5 67.5t-75 45t-106 16.5h-274v-436zM1090 0v1024h92v-1024h-92z" />
    <glyph glyph-name="uni044C" unicode="&#x44c;" horiz-adv-x="948" 
d="M164 0v1024h92v-420h293q73 0 132 -20t100 -58.5t63 -93.5t22 -125q0 -78 -27 -136t-70.5 -96t-99 -56.5t-112.5 -18.5h-393zM256 84h276q65 0 110 17.5t73.5 48t41.5 71t13 86.5q0 45 -14.5 84t-44.5 67.5t-75 45t-106 16.5h-274v-436z" />
    <glyph glyph-name="uni044D" unicode="&#x44d;" horiz-adv-x="918" 
d="M86 39v98q42 -32 111.5 -55t158.5 -23q78 0 145 28t117 81t79.5 129.5t33.5 173.5h-504v80h504q-6 88 -32.5 164t-75 131.5t-119.5 87t-166 31.5q-81 0 -145.5 -19.5t-102.5 -44.5v90q21 11 50.5 21.5t63.5 18.5t70.5 13t71.5 5q111 0 200 -37t151.5 -106.5t96 -169.5
t33.5 -226q0 -114 -34.5 -212t-97 -170t-150 -112.5t-193.5 -40.5q-96 0 -162 19.5t-104 44.5z" />
    <glyph glyph-name="uni044E" unicode="&#x44e;" horiz-adv-x="1595" 
d="M164 0v1024h92v-451h348q9 126 51 216t105 148t142 85t163 27q100 0 181.5 -36t139 -104.5t88.5 -169t31 -229.5q0 -107 -27 -204t-82.5 -170.5t-140.5 -117t-200 -43.5q-111 0 -195 41t-140.5 111.5t-86 164t-31.5 197.5h-346v-489h-92zM698 504q0 -98 24 -180t70 -141
t112.5 -91.5t152.5 -32.5q90 0 156.5 33.5t110 94t64.5 143.5t21 182q0 114 -24.5 199.5t-69.5 141.5t-109.5 84t-144.5 28q-82 0 -149 -31t-114.5 -90t-73.5 -144.5t-26 -195.5z" />
    <glyph glyph-name="uni044F" unicode="&#x44f;" horiz-adv-x="987" 
d="M102 0l129 285q29 66 73.5 113.5t101.5 70.5q-125 15 -185.5 86.5t-60.5 183.5q0 52 17.5 103t57.5 91.5t105 65.5t160 25h323v-1024h-96v446h-170q-27 0 -57 -7.5t-60 -28t-58 -56t-52 -90.5l-115 -264h-113zM262 739q0 -57 17 -96.5t48.5 -64.5t75.5 -36.5t97 -11.5
h227v414h-221q-122 0 -183 -54.5t-61 -150.5z" />
    <glyph glyph-name="uni0450" unicode="&#x450;" horiz-adv-x="1034" 
d="M90 518q0 224 127.5 377.5t331.5 153.5q191 0 293 -134t102 -366v-41h-758q0 -211 97.5 -330t267.5 -119q172 0 336 127v-98q-159 -113 -355 -113q-198 0 -320 142t-122 401zM190 592h658q-6 177 -85 275t-218 98q-144 0 -238.5 -96.5t-116.5 -276.5zM321 1516h104
l234 -328h-90z" />
    <glyph glyph-name="uni0451" unicode="&#x451;" horiz-adv-x="1034" 
d="M90 518q0 224 127.5 377.5t331.5 153.5q191 0 293 -134t102 -366v-41h-758q0 -211 97.5 -330t267.5 -119q172 0 336 127v-98q-159 -113 -355 -113q-198 0 -320 142t-122 401zM190 592h658q-6 177 -85 275t-218 98q-144 0 -238.5 -96.5t-116.5 -276.5zM297 1260
q0 31 22 50t48 19q29 0 52 -19.5t23 -49.5q0 -31 -21 -51.5t-52 -20.5q-28 0 -50 19.5t-22 52.5zM631 1260q0 31 21.5 50t47.5 19q29 0 52.5 -19.5t23.5 -49.5q0 -31 -21.5 -51.5t-52.5 -20.5q-27 0 -49 19.5t-22 52.5z" />
    <glyph glyph-name="uni0452" unicode="&#x452;" horiz-adv-x="1153" 
d="M51 1231v84h135v201h93v-201h389v-84h-389v-420h4q24 42 55.5 81t72.5 68t92 46.5t113 17.5q107 0 184 -44t127 -125.5t73.5 -198t23.5 -261.5q0 -195 -26 -346t-79.5 -253.5t-134.5 -156t-192 -53.5q-20 0 -48 5.5t-52 13.5v90q22 -8 52 -15.5t50 -7.5q94 0 158 50
t103 143.5t56 226.5t17 299q0 148 -21.5 252.5t-63 170.5t-102.5 96t-139 30q-59 0 -117 -25t-104 -75t-74 -124.5t-28 -172.5v-543h-93v1231h-135z" />
    <glyph glyph-name="uni0453" unicode="&#x453;" horiz-adv-x="694" 
d="M164 0v1024h500v-84h-408v-940h-92zM285 1188l234 328h104l-248 -328h-90z" />
    <glyph glyph-name="uni0454" unicode="&#x454;" horiz-adv-x="918" 
d="M90 494q0 126 39 228t107.5 175t162.5 112.5t205 39.5q69 0 127 -14.5t100 -33.5v-104q-42 26 -101.5 47t-139.5 21q-86 0 -157 -30.5t-123 -85.5t-83.5 -131t-38.5 -167h502v-80h-504q4 -97 33.5 -173.5t79 -129.5t116 -81t144.5 -28q90 0 158 25t110 57v-96
q-38 -25 -107 -47.5t-165 -22.5q-106 0 -192 38t-146.5 106.5t-93.5 164t-33 210.5z" />
    <glyph glyph-name="uni0455" unicode="&#x455;" horiz-adv-x="795" 
d="M111 45v111q52 -45 126 -71t128 -26q241 0 241 197q0 68 -53 116t-172 99q-147 64 -206.5 132.5t-59.5 166.5q0 125 95.5 202t235.5 77q132 0 226 -54v-104q-114 74 -236 74q-101 0 -163 -52.5t-62 -136.5q0 -73 39 -118.5t172 -104.5q160 -72 220 -133.5t60 -163.5
q0 -122 -91.5 -201.5t-252.5 -79.5q-148 0 -247 70z" />
    <glyph glyph-name="uni0456" unicode="&#x456;" horiz-adv-x="420" 
d="M133 1360q0 33 23.5 53.5t52.5 20.5q31 0 54.5 -20t23.5 -54q0 -32 -23 -55t-55 -23q-30 0 -53 22t-23 56zM164 0v1024h92v-1024h-92z" />
    <glyph glyph-name="uni0457" unicode="&#x457;" horiz-adv-x="420" 
d="M-28 1260q0 31 22 50t48 19q29 0 52 -19.5t23 -49.5q0 -31 -21 -51.5t-52 -20.5q-28 0 -50 19.5t-22 52.5zM164 0v1024h92v-1024h-92zM306 1260q0 31 21.5 50t47.5 19q29 0 52.5 -19.5t23.5 -49.5q0 -31 -21.5 -51.5t-52.5 -20.5q-27 0 -49 19.5t-22 52.5z" />
    <glyph glyph-name="uni0458" unicode="&#x458;" horiz-adv-x="420" 
d="M-252 -350q80 -47 156 -47q260 0 260 409v1012h92v-995q0 -510 -362 -510q-72 0 -146 35v96zM133 1360q0 33 23.5 53.5t52.5 20.5q31 0 54.5 -20t23.5 -54q0 -32 -23 -55t-55 -23q-30 0 -53 22t-23 56z" />
    <glyph glyph-name="uni0459" unicode="&#x459;" horiz-adv-x="1583" 
d="M31 -6v82q8 -3 26 -5.5t29 -2.5q67 0 117 62.5t86 184t60.5 300t39.5 409.5h473v-420h293q74 0 133 -20t100 -58.5t63 -93.5t22 -125q0 -78 -27 -136t-71 -96t-99.5 -56.5t-112.5 -18.5h-393v940h-299q-17 -228 -44.5 -405.5t-72 -299.5t-109.5 -185.5t-157 -63.5
q-15 0 -30.5 2.5t-26.5 5.5zM862 84h277q64 0 109.5 17.5t73.5 48t41 71t13 86.5q0 45 -14.5 84t-44.5 67.5t-75 45t-105 16.5h-275v-436z" />
    <glyph glyph-name="uni045A" unicode="&#x45a;" horiz-adv-x="1673" 
d="M164 0v1024h92v-428h604v428h92v-428h293q74 0 133 -19.5t100 -57t63 -92t22 -124.5q0 -78 -27 -135.5t-71 -94.5t-99.5 -55t-112.5 -18h-393v512h-604v-512h-92zM952 84h277q64 0 109.5 17t73.5 46.5t41 69.5t13 86q0 45 -14.5 83.5t-44 66.5t-74.5 43.5t-106 15.5h-275
v-428z" />
    <glyph glyph-name="uni045B" unicode="&#x45b;" horiz-adv-x="1118" 
d="M51 1231v84h135v201h93v-201h389v-84h-389v-416h4q24 44 58.5 82t78.5 66.5t97.5 44.5t117.5 16q86 0 150 -28.5t106 -82t63 -130t21 -173.5v-610h-92v590q0 181 -66.5 265.5t-206.5 84.5q-29 0 -65 -7.5t-72.5 -25.5t-71.5 -48t-62 -74t-43.5 -104t-16.5 -138v-543h-93
v1231h-135z" />
    <glyph glyph-name="uni045C" unicode="&#x45c;" horiz-adv-x="891" 
d="M164 0v1024h92v-489h4l475 489h119l-496 -500l512 -524h-129l-481 502h-4v-502h-92zM425 1188l234 328h104l-248 -328h-90z" />
    <glyph glyph-name="uni045D" unicode="&#x45d;" horiz-adv-x="1128" 
d="M164 0v1024h92v-848q6 11 12 21t13 18l610 809h74v-1024h-93v856q-8 -11 -15.5 -22t-12.5 -17l-615 -817h-65zM298 1516h104l234 -328h-90z" />
    <glyph glyph-name="uni045E" unicode="&#x45e;" horiz-adv-x="928" 
d="M20 1024h103l309 -834q10 -27 14 -41q4 -19 9 -34h4l24 69l330 840h100l-499 -1233q-56 -138 -124 -205t-175 -67q-45 0 -80 14v92q36 -14 84 -14q123 0 194 170l95 227zM107 1475h98q5 -41 22 -79t47 -67t73 -46t100 -17h2q58 0 104.5 17t80 46t53 67t24.5 79h98
q-10 -54 -37.5 -105.5t-72.5 -91.5t-108 -64t-143 -24t-140 24t-101 64t-65.5 91.5t-34.5 105.5z" />
    <glyph glyph-name="uni045F" unicode="&#x45f;" horiz-adv-x="1116" 
d="M164 0v1024h92v-940h604v940h92v-1024h-350v-373h-84v373h-354z" />
    <glyph glyph-name="uni0460" unicode="&#x460;" horiz-adv-x="1640" 
d="M27 1434h100q16 -146 35 -266.5t43 -226t53 -201.5t67 -192.5t84.5 -199t105.5 -220.5l246 626q-23 75 -40.5 151.5t-32 159t-27 173.5t-23.5 196h100q16 -146 35 -266.5t43 -226t53 -201.5t67 -192.5t84.5 -199t105.5 -220.5q58 118 105 220.5t84.5 199t67 192.5
t53.5 201.5t42.5 226t35.5 266.5h99q-16 -145 -34 -265.5t-41.5 -228.5t-55 -211t-75 -213.5t-101 -236.5t-132.5 -279h-96q-47 95 -87 179t-73.5 160t-61.5 145.5t-52 135.5l-235 -620h-102q-76 153 -133.5 278.5t-101 236.5t-75 214t-55 211t-41.5 228t-34 266z" />
    <glyph glyph-name="uni0461" unicode="&#x461;" horiz-adv-x="1302" 
d="M67 1024h103q16 -108 31 -193.5t30.5 -157.5t34 -135t41 -127t51 -133t65.5 -152l208 491q-25 91 -45 192.5t-34 214.5h100q16 -107 32 -194t34 -161t37.5 -138.5t43 -128t50.5 -129t59 -140.5l261 891h97l-312 -1024h-86q-27 56 -55 120.5t-54 130.5t-49.5 130.5
t-41.5 121.5l-208 -503h-83q-40 85 -74 163t-63.5 154.5t-54 154.5t-45.5 163.5t-39 181.5t-34 207z" />
    <glyph glyph-name="uni0462" unicode="&#x462;" horiz-adv-x="1285" 
d="M41 1173v91h293v170h99v-170h413v-91h-413v-376h325q85 0 158.5 -21.5t127.5 -67.5t85 -118.5t31 -175.5q0 -85 -28 -160t-82.5 -131.5t-135 -89.5t-184.5 -33h-396v1173h-293zM433 90h276q92 0 158 24t108 66t62 100t20 126q0 81 -23 138t-68 93t-111 53t-152 17h-270
v-617z" />
    <glyph glyph-name="uni0463" unicode="&#x463;" horiz-adv-x="1131" 
d="M51 1231v84h268v201h92v-201h313v-84h-313v-627h293q73 0 132 -20t100 -58.5t63 -93.5t22 -125q0 -78 -27 -136t-70.5 -96t-99 -56.5t-112.5 -18.5h-393v1231h-268zM411 84h276q65 0 110 17.5t73.5 48t41.5 71t13 86.5q0 45 -14.5 84t-44.5 67.5t-75 45t-106 16.5h-274
v-436z" />
    <glyph glyph-name="uni0464" unicode="&#x464;" horiz-adv-x="1852" 
d="M184 0v1434h99v-671h408q12 168 72.5 297.5t156.5 218t219.5 134t261.5 45.5q111 0 186.5 -17t129.5 -36v-105q-62 28 -138.5 48t-179.5 20q-123 0 -229 -40.5t-186.5 -118t-130.5 -189.5t-60 -256h702v-92h-704q4 -156 53.5 -270t129 -189t180.5 -111t208 -36
q113 0 202.5 22.5t152.5 54.5v-96q-27 -11 -62.5 -23.5t-80 -23.5t-99.5 -18t-121 -7q-147 0 -268 50.5t-208.5 142.5t-137 220.5t-51.5 284.5h-406v-673h-99z" />
    <glyph glyph-name="uni0465" unicode="&#x465;" horiz-adv-x="1457" 
d="M164 0v1024h92v-472h384q9 113 51 205t109.5 157t157.5 100t194 35q69 0 127 -14.5t100 -33.5v-104q-42 26 -101.5 47t-139.5 21q-86 0 -157 -30.5t-123 -85.5t-83.5 -131t-38.5 -167h502v-80h-504q4 -97 33.5 -173.5t79 -129.5t116 -81t144.5 -28q90 0 158 25t110 57
v-96q-38 -25 -107 -47.5t-165 -22.5q-103 0 -187 36t-144.5 101t-95 155.5t-38.5 200.5h-382v-468h-92z" />
    <glyph glyph-name="uni0466" unicode="&#x466;" horiz-adv-x="1288" 
d="M59 0l541 1434h94l535 -1434h-111l-253 688l-182 -217v-471h-98v467l-168 213l-249 -680h-109zM452 776l183 -232l196 238l-153 418q-11 29 -18 55.5t-15 53.5h-4q-17 -67 -33 -107z" />
    <glyph glyph-name="uni0467" unicode="&#x467;" horiz-adv-x="1021" 
d="M20 0l440 1026h86l455 -1026h-100l-201 449l-146 -181v-268h-86v268l-153 180l-194 -448h-101zM351 536l160 -189l148 189l-92 220q-6 13 -14 33t-16 43.5t-15.5 47.5t-11.5 46h-6q-6 -23 -15 -48.5t-18 -49.5t-17 -44.5t-13 -32.5z" />
    <glyph glyph-name="uni0468" unicode="&#x468;" horiz-adv-x="1644" 
d="M184 0v1434h99v-671h420l253 671h94l535 -1434h-111l-253 688l-182 -217v-471h-98v467l-168 213l-249 -680h-109l254 673h-386v-673h-99zM808 776l183 -232l196 238l-153 418q-11 29 -18 55.5t-15 53.5h-4q-17 -67 -33 -107z" />
    <glyph glyph-name="uni0469" unicode="&#x469;" horiz-adv-x="1426" 
d="M164 0v1024h92v-428h424l185 430h86l455 -1026h-100l-201 449l-146 -181v-268h-86v268l-153 180l-194 -448h-101l219 512h-388v-512h-92zM756 536l160 -189l148 189l-92 220q-6 13 -14 33t-16 43.5t-15.5 47.5t-11.5 46h-6q-6 -23 -15 -48.5t-18 -49.5t-17 -44.5
t-13 -32.5z" />
    <glyph glyph-name="uni046A" unicode="&#x46a;" horiz-adv-x="1491" 
d="M109 0q15 144 47 260.5t94.5 207.5t162 159.5t248.5 116.5l-425 690l1095 -1l-424 -689q149 -48 248.5 -116.5t162.5 -159.5t95.5 -207.5t47.5 -260.5h-109q-15 136 -45.5 240.5t-89 184.5t-151 138.5t-232.5 102.5v-666h-98v666q-140 -44 -232.5 -102.5t-151 -138.5
t-89 -184.5t-45.5 -240.5h-109zM410 1343l307 -502q10 -16 20.5 -35.5t20.5 -38.5t18 -36.5t13 -28.5q8 26 23 58.5t38 71.5l307 511h-747z" />
    <glyph glyph-name="uni046B" unicode="&#x46b;" horiz-adv-x="1138" 
d="M40 0q24 111 52 195t74.5 147.5t117.5 109.5t181 81l-321 491h867l-331 -492q107 -36 176.5 -82t115.5 -108.5t74 -146t52 -195.5h-98q-15 115 -43 192.5t-73 129t-110 84.5t-155 59v-465h-92v465q-92 -25 -158.5 -58t-113 -85t-74.5 -129.5t-43 -192.5h-98zM306 940
l223 -358q12 -20 25 -44.5t20 -39.5q8 18 20 42t25 44l237 356h-550z" />
    <glyph glyph-name="uni046C" unicode="&#x46c;" horiz-adv-x="1764" 
d="M184 0v1434h99v-671h639l-413 671l1095 -1l-424 -689q149 -48 248.5 -116.5t162.5 -159.5t95.5 -207.5t47.5 -260.5h-109q-15 136 -45.5 240.5t-89 184.5t-151 138.5t-232.5 102.5v-666h-98v666q-140 -44 -232.5 -102.5t-151 -138.5t-89 -184.5t-45.5 -240.5h-109
q12 121 36 222t68 184t111 149.5t165 117.5h-479v-673h-99zM683 1343l307 -502q10 -16 20.5 -35.5t20.5 -38.5t18 -36.5t13 -28.5q8 26 23 58.5t38 71.5l307 511h-747z" />
    <glyph glyph-name="uni046D" unicode="&#x46d;" horiz-adv-x="1502" 
d="M164 0v1024h92v-428h532l-280 428h867l-331 -492q107 -36 176.5 -82t115.5 -108.5t74 -146t52 -195.5h-98q-15 115 -43 192.5t-73 129t-110 84.5t-155 59v-465h-92v465q-92 -25 -158.5 -58t-113 -85t-74.5 -129.5t-43 -192.5h-98q22 103 47.5 182.5t65.5 141t100.5 107.5
t151.5 81h-513v-512h-92zM670 940l223 -358q12 -20 25 -44.5t20 -39.5q8 18 20 42t25 44l237 356h-550z" />
    <glyph glyph-name="uni046E" unicode="&#x46e;" horiz-adv-x="1074" 
d="M54 -181q0 59 19.5 107t56.5 81.5t91.5 52t125.5 18.5q20 0 48.5 -2t59 -4t59 -4t49.5 -2q75 0 132 25t95 68t57 100t19 121q0 82 -30 143t-87 100.5t-139 59t-186 19.5h-129v84h98q95 0 171.5 21.5t130.5 62.5t83 99.5t29 132.5q0 57 -19 107t-57 86.5t-95 57.5t-133 21
q-92 0 -174 -28t-147 -76v98q33 18 68.5 34t76 28.5t86.5 20t99 7.5q94 0 167 -26t123 -71.5t75.5 -108t25.5 -134.5q0 -139 -76 -233t-219 -131v-4q89 -6 155 -39t110 -82.5t66 -110.5t22 -125q0 -81 -25.5 -156.5t-75 -133.5t-124 -93t-171.5 -35q-21 0 -53.5 1.5
t-65.5 3.5t-61.5 3.5t-41.5 1.5q-97 0 -145 -42t-48 -130q0 -81 55.5 -128.5t153.5 -47.5q53 0 185 40q128 38 195 38q95 0 147 -43.5t62 -123.5h-99q-18 79 -116 79q-13 0 -33.5 -3t-46 -8t-54.5 -13t-57 -17q-55 -19 -101.5 -28.5t-90.5 -9.5q-145 0 -220.5 67t-75.5 204z
M274 1871h86l158 -240l160 240h82l-221 -336h-45z" />
    <glyph glyph-name="uni046F" unicode="&#x46f;" horiz-adv-x="968" 
d="M8 -175q0 62 22 109t57.5 78t81 46.5t92.5 15.5q27 0 53 -2.5t54 -5t60 -5t71 -2.5q87 0 142 19t85.5 49.5t42 69t11.5 77.5q0 61 -23.5 102t-67 66t-106 35t-139.5 10h-140v84h127q150 0 223.5 49t73.5 154q0 42 -16 77t-49 60.5t-84 39.5t-121 14q-84 0 -167.5 -22
t-152.5 -54v90q29 12 66 24.5t79.5 22.5t89.5 16.5t97 6.5q97 0 164.5 -22.5t110 -59.5t61.5 -84.5t19 -96.5q0 -99 -55.5 -164t-157.5 -83v-4q63 -3 112 -23.5t83 -53.5t51.5 -77.5t17.5 -95.5q0 -59 -20.5 -115t-64 -99.5t-112 -69.5t-165.5 -26q-90 0 -154 7t-99 7
q-30 0 -58.5 -10t-51.5 -30.5t-37 -51t-14 -72.5q0 -81 48 -131t132 -50q55 0 149 41q42 19 78.5 27.5t65.5 8.5q78 0 120.5 -41t49.5 -121h-84q-6 42 -30 60t-68 18q-27 0 -60 -10.5t-71 -27.5q-49 -23 -88.5 -31.5t-63.5 -8.5q-57 0 -106 17t-85.5 50.5t-57.5 83.5
t-21 115zM232 1524h86l158 -240l160 240h82l-221 -336h-45z" />
    <glyph glyph-name="uni0470" unicode="&#x470;" horiz-adv-x="1537" 
d="M50 1434h98l163 -679q13 -56 35 -103t56.5 -80.5t83 -52.5t115.5 -19h92v934h99v-934h92q93 0 169.5 26t130.5 78.5t84 131.5t30 184v514h98v-521q0 -102 -32.5 -193.5t-97 -160t-160 -109t-222.5 -40.5h-92v-410h-99v410h-109q-68 0 -125.5 17t-104 57t-82 104.5
t-58.5 159.5z" />
    <glyph glyph-name="uni0471" unicode="&#x471;" horiz-adv-x="1477" 
d="M40 1024h100l149 -618q23 -91 52.5 -160t65.5 -108q76 -79 209 -79h46v1272h92v-1272h57q80 0 155 30t133.5 90.5t94 152.5t35.5 217v475h96v-473q0 -141 -41 -249t-111.5 -180.5t-163.5 -109.5t-198 -37h-57v-456h-92v456h-50q-161 0 -265 98q-100 96 -162 346
q-36 147 -73 302.5t-72 302.5z" />
    <glyph glyph-name="uni0472" unicode="&#x472;" horiz-adv-x="1559" 
d="M109 702q0 343 185 549q186 207 507 207q291 0 469 -199q180 -198 180 -520q0 -357 -184 -560q-185 -204 -492 -204q-304 0 -485 202q-180 202 -180 525zM211 716q152 50 246.5 77.5t136.5 27.5q55 0 189 -58q76 -32 124.5 -48.5t71.5 -16.5q19 0 55.5 8.5t84.5 23.5
t105.5 35.5t119.5 44.5q-20 244 -148 387q-152 171 -412 171q-250 0 -412 -181q-161 -182 -161 -471zM214 628q20 -239 150 -387q153 -175 408 -175q266 0 421 173q155 175 155 484q-62 -23 -119.5 -43.5t-106.5 -35.5t-88.5 -24t-64.5 -9q-55 0 -184 58q-144 64 -202 64
q-25 0 -120 -28t-249 -77z" />
    <glyph glyph-name="uni0473" unicode="&#x473;" horiz-adv-x="1149" 
d="M90 506q0 127 35.5 228t101 171t157 107t202.5 37q109 0 196.5 -37t149 -106.5t94.5 -169.5t33 -226q0 -118 -33 -216t-95.5 -169t-152.5 -110.5t-203 -39.5t-203 39t-152.5 109.5t-96 168t-33.5 214.5zM187 465q5 -92 34.5 -166.5t80 -128t120.5 -82.5t156 -29
q91 0 162 30t120 87t75 138.5t27 185.5q-56 -22 -95.5 -36.5t-67.5 -23.5t-46.5 -12.5t-33.5 -3.5q-23 0 -61.5 15.5t-92.5 42.5q-50 25 -84.5 38t-66.5 13q-30 0 -83.5 -17.5t-143.5 -50.5zM187 547q192 67 236 67q30 0 62.5 -12.5t88.5 -40.5q34 -16 58 -27t41.5 -17.5
t30 -9t24.5 -2.5q11 0 29 4t46 13t66.5 23.5t90.5 36.5q-16 186 -113 284.5t-265 98.5q-86 0 -156 -28t-121.5 -82t-81.5 -131.5t-36 -176.5z" />
    <glyph glyph-name="uni0474" unicode="&#x474;" horiz-adv-x="1457" 
d="M41 1434h111l415 -1155q26 -72 37 -136h4q10 51 41 138l374 974q22 56 46.5 95t53.5 63t62.5 35t72.5 11q168 0 199 -186h-100q-9 51 -35.5 73t-68.5 22q-24 0 -44 -10t-38 -32.5t-36 -58.5t-38 -88l-458 -1179h-74z" />
    <glyph glyph-name="uni0475" unicode="&#x475;" horiz-adv-x="1146" 
d="M20 1024h103l305 -815q11 -29 18.5 -56t12.5 -51h4q7 32 14 57.5t15 45.5l242 628q22 58 44 99t47.5 67t57.5 38t74 12q75 0 122 -42.5t62 -130.5h-93q-9 52 -32.5 70.5t-58.5 18.5q-24 0 -42 -9.5t-34.5 -30.5t-33 -55t-35.5 -82l-312 -788h-84z" />
    <glyph glyph-name="uni0476" unicode="&#x476;" horiz-adv-x="1457" 
d="M41 1434h111l415 -1155q26 -72 37 -136h4q10 51 41 138l374 974q22 56 46.5 95t53.5 63t62.5 35t72.5 11q168 0 199 -186h-100q-9 51 -35.5 73t-68.5 22q-24 0 -44 -10t-38 -32.5t-36 -58.5t-38 -88l-458 -1179h-74zM292 1853h110l211 -317h-74zM513 1853h110l211 -317
h-73z" />
    <glyph glyph-name="uni0477" unicode="&#x477;" horiz-adv-x="1146" 
d="M20 1024h103l305 -815q11 -29 18.5 -56t12.5 -51h4q7 32 14 57.5t15 45.5l242 628q22 58 44 99t47.5 67t57.5 38t74 12q75 0 122 -42.5t62 -130.5h-93q-9 52 -32.5 70.5t-58.5 18.5q-24 0 -42 -9.5t-34.5 -30.5t-33 -55t-35.5 -82l-312 -788h-84zM151 1505h110l211 -317
h-74zM372 1505h110l211 -317h-73z" />
    <glyph glyph-name="uni0478" unicode="&#x478;" horiz-adv-x="2682" 
d="M109 732q0 169 47 307t134 237t212 154t281 58v-50h18q144 0 263.5 -52.5t205 -147t133 -227t47.5 -292.5q0 -177 -48 -318.5t-136.5 -240.5t-213.5 -152t-278 -53v50q-152 0 -275 53.5t-209.5 150t-133.5 230t-47 293.5zM211 743q0 -147 40 -266.5t113 -204
t176.5 -130.5t231.5 -46h2v-50q133 0 239 45t180.5 129.5t114.5 206.5t40 276q0 152 -39.5 271.5t-113 202.5t-178 127t-233.5 44h-1v50q-124 0 -229 -48t-181 -134t-119 -206.5t-43 -266.5zM1556 1024h103l305 -815q11 -29 18.5 -56t12.5 -51h4q8 26 18.5 57.5t18.5 51.5
l234 622q22 58 43.5 99t47.5 67t58 38t74 12q75 0 122 -42.5t62 -130.5h-93q-9 52 -32.5 70.5t-58.5 18.5q-24 0 -42 -9.5t-34.5 -30.5t-33 -55t-35.5 -82l-449 -1198h-102l161 404z" />
    <glyph glyph-name="uni0479" unicode="&#x479;" horiz-adv-x="2238" 
d="M90 537q0 127 35.5 228t101 171t157 107t202.5 37v-31q109 0 196.5 -37t149 -106.5t94.5 -169.5t33 -226q0 -118 -33 -216t-95.5 -169t-152.5 -110.5t-203 -39.5v31q-113 0 -203 39t-152.5 109.5t-96 168t-33.5 214.5zM186 535q0 -100 27 -182t78 -140.5t123.5 -90.5
t163.5 -32v-31q93 0 164.5 31t120.5 89.5t74.5 142.5t25.5 190q0 220 -99 336.5t-282 116.5v31q-90 0 -163 -31.5t-125 -90.5t-80 -144.5t-28 -194.5zM1112 1024h103l305 -815q11 -29 18.5 -56t12.5 -51h4q8 26 18.5 57.5t18.5 51.5l234 622q22 58 43.5 99t47.5 67t58 38
t74 12q75 0 122 -42.5t62 -130.5h-93q-9 52 -32.5 70.5t-58.5 18.5q-24 0 -42 -9.5t-34.5 -30.5t-33 -55t-35.5 -82l-449 -1198h-102l161 404z" />
    <glyph glyph-name="uni047A" unicode="&#x47a;" horiz-adv-x="1679" 
d="M109 700q0 326 171.5 523.5t488.5 228.5q27 64 81 64q53 0 79 -62q304 -27 472.5 -218t168.5 -501q0 -333 -168 -530t-479 -225q-33 -55 -91 -55q-57 0 -91 56q-300 27 -466 217.5t-166 501.5zM211 715q0 -274 139.5 -442t389.5 -199q35 55 94 55q60 0 94 -55
q258 30 398 194t140 444q0 588 -532 648q-32 -53 -84 -53t-84 53q-261 -26 -408 -197.5t-147 -447.5z" />
    <glyph glyph-name="uni047B" unicode="&#x47b;" horiz-adv-x="1331" 
d="M116 500q0 488 469 542q33 60 93 60q62 0 95 -60q441 -50 441 -526q0 -222 -119 -362q-116 -138 -332 -170q-33 -64 -95 -64q-60 0 -95 62q-113 12 -198 53t-143 107.5t-87 156.5t-29 201zM212 506q0 -375 364 -431q34 55 94 55q62 0 94 -58q355 53 355 436
q0 376 -350 439q-33 -55 -90 -55q-61 0 -92 60q-375 -53 -375 -446z" />
    <glyph glyph-name="uni047C" unicode="&#x47c;" horiz-adv-x="2312" 
d="M109 688q0 174 53.5 316.5t148.5 243t225.5 155.5t284.5 55q51 0 101 -6t98 -17v-101q-41 14 -95 24t-106 10q-134 0 -246 -48t-192.5 -135.5t-125 -211t-44.5 -275.5q0 -147 43 -264t119.5 -199t181 -125.5t227.5 -43.5q50 0 99.5 6.5t97.5 18.5t93 28.5t84 35.5
q39 -19 84 -35.5t93 -28.5t98 -18.5t99 -6.5q123 0 227.5 43.5t181 125.5t119.5 199t43 264q0 152 -44.5 275.5t-125 211t-192.5 135.5t-246 48q-52 0 -106 -10t-95 -24v101q48 11 98 17t101 6q154 0 284.5 -55t225.5 -155.5t148.5 -243t53.5 -316.5q0 -158 -49 -289.5
t-137 -225.5t-210 -146t-269 -52q-47 0 -97 5.5t-99.5 16.5t-96.5 26.5t-89 35.5q-42 -20 -89 -35.5t-96.5 -26.5t-99.5 -16.5t-97 -5.5q-147 0 -269 52t-210 146t-137 225.5t-49 289.5zM842 1767q22 114 79.5 173.5t148.5 59.5q51 0 101.5 -23t101 -51t100.5 -51t100 -23
h57v-84h-55q-59 0 -111.5 23t-101.5 51t-96 51t-95 23q-54 0 -94 -35.5t-53 -113.5h-82zM1092 1708q0 31 20 49t61 18q44 0 66.5 -29t22.5 -72q0 -28 -9.5 -54t-28.5 -48t-46.5 -38t-63.5 -24l-18 37q45 12 71.5 39t29.5 53q-43 0 -74 16.5t-31 52.5z" />
    <glyph glyph-name="uni047D" unicode="&#x47d;" horiz-adv-x="1775" 
d="M90 506q0 119 33.5 218.5t95 171.5t149 112t194.5 40q126 0 222 -47v-105q-48 28 -100 47t-124 19q-80 0 -149 -31t-119.5 -89.5t-79.5 -142.5t-29 -190q0 -102 25.5 -185t75 -142t122 -91t166.5 -32q44 0 85.5 10t81 27t76.5 39t72 47q35 -25 72 -47t76 -39t80.5 -27
t84.5 -10q95 0 167.5 32t122 90.5t74.5 141.5t25 186q0 106 -27.5 190t-76 142.5t-116 89.5t-147.5 31q-72 0 -129.5 -19t-103.5 -47v105q95 46 226 46q107 0 194 -40.5t148.5 -112.5t94.5 -171.5t33 -217.5q0 -117 -33.5 -214t-96 -167.5t-152.5 -109.5t-203 -39
q-84 0 -161 30.5t-149 83.5q-73 -51 -151.5 -82t-163.5 -31q-112 0 -202 39t-153 109t-96.5 167.5t-33.5 214.5zM568 1399q22 114 79.5 173.5t148.5 59.5q51 0 101.5 -23t101 -51t100.5 -51t100 -23h57v-84h-55q-59 0 -111.5 23t-101.5 51t-96 51t-95 23q-54 0 -94 -35.5
t-53 -113.5h-82zM818 1340q0 31 20 49t61 18q44 0 66.5 -29t22.5 -72q0 -28 -9.5 -54t-28.5 -48t-46.5 -38t-63.5 -24l-18 37q45 12 71.5 39t29.5 53q-43 0 -74 16.5t-31 52.5z" />
    <glyph glyph-name="uni047E" unicode="&#x47e;" horiz-adv-x="1640" 
d="M27 1434h100q16 -146 35 -266.5t43 -226t53 -201.5t67 -192.5t84.5 -199t105.5 -220.5l246 626q-23 75 -40.5 151.5t-32 159t-27 173.5t-23.5 196h100q16 -146 35 -266.5t43 -226t53 -201.5t67 -192.5t84.5 -199t105.5 -220.5q58 118 105 220.5t84.5 199t67 192.5
t53.5 201.5t42.5 226t35.5 266.5h99q-16 -145 -34 -265.5t-41.5 -228.5t-55 -211t-75 -213.5t-101 -236.5t-132.5 -279h-96q-47 95 -87 179t-73.5 160t-61.5 145.5t-52 135.5l-235 -620h-102q-76 153 -133.5 278.5t-101 236.5t-75 214t-55 211t-41.5 228t-34 266zM383 1755
h874l-90 -195h-14l-48 120h-230l-48 -120h-14l-48 120h-230l-48 -120h-14z" />
    <glyph glyph-name="uni047F" unicode="&#x47f;" horiz-adv-x="1302" 
d="M67 1024h103q16 -108 31 -193.5t30.5 -157.5t34 -135t41 -127t51 -133t65.5 -152l208 491q-25 91 -45 192.5t-34 214.5h100q16 -107 32 -194t34 -161t37.5 -138.5t43 -128t50.5 -129t59 -140.5l261 891h97l-312 -1024h-86q-27 56 -55 120.5t-54 130.5t-49.5 130.5
t-41.5 121.5l-208 -503h-83q-40 85 -74 163t-63.5 154.5t-54 154.5t-45.5 163.5t-39 181.5t-34 207zM213 1408h874l-90 -195h-14l-48 120h-230l-48 -120h-14l-48 120h-230l-48 -120h-14z" />
    <glyph glyph-name="uni0480" unicode="&#x480;" horiz-adv-x="1204" 
d="M109 688q0 174 53.5 316.5t148.5 243t225.5 155.5t284.5 55q163 0 316 -53v-105q-153 68 -318 68q-134 0 -246 -48t-192.5 -135.5t-125 -211.5t-44.5 -275q0 -147 43 -264t119.5 -199t181 -125.5t227.5 -43.5q54 0 105 6v-483h-96v386h-17q-147 0 -269 52t-210 146
t-137 225.5t-49 289.5z" />
    <glyph glyph-name="uni0481" unicode="&#x481;" horiz-adv-x="897" 
d="M90 494q0 121 38.5 223t106.5 176t162.5 115t206.5 41q117 0 227 -48v-104q-110 68 -241 68q-90 0 -164 -34.5t-127.5 -96t-83 -147t-29.5 -187.5q0 -99 27 -180.5t76 -139.5t117.5 -89.5t152.5 -31.5q23 0 43 1.5t41 5.5v-537h-93v446q-104 1 -188.5 39.5t-145 107
t-93.5 163.5t-33 209z" />
    <glyph glyph-name="uni0482" unicode="&#x482;" horiz-adv-x="1024" 
d="M69 580l35 74l272 -122l183 422l-268 120l35 76l266 -120l173 404h90l-188 -436l289 -131l-32 -72l-292 129l-181 -425l284 -127l-35 -75l-281 127l-179 -424h-93l195 456z" />
    <glyph glyph-name="uni0483" unicode="&#x483;" horiz-adv-x="807" 
d="M125 1323q0 32 21.5 51t53.5 19h339q9 65 73 65q32 0 53.5 -19t21.5 -51t-21.5 -51t-53.5 -19h-338q-9 -65 -74 -65q-32 0 -53.5 19t-21.5 51z" />
    <glyph glyph-name="uni0484" unicode="&#x484;" horiz-adv-x="844" 
d="M94 1253v84h80q39 0 76.5 12t90.5 42q103 59 181 59q139 0 236 -232h-82q-30 78 -68 118.5t-87 40.5q-36 0 -71.5 -16t-84.5 -45t-91 -46t-94 -17h-86z" />
    <glyph glyph-name="uni0485" unicode="&#x485;" 
d="M-96 1453q0 61 29.5 90t70.5 29t64.5 -26t23.5 -64q0 -20 -8.5 -38t-23.5 -31.5t-36 -22t-46 -9.5q9 -58 39 -97.5t82 -70.5l-27 -38q-36 19 -66.5 46.5t-53 63t-35.5 78t-13 90.5z" />
    <glyph glyph-name="uni0486" unicode="&#x486;" 
d="M-96 1213q52 31 82 70.5t39 97.5q-26 1 -47 9.5t-36 22t-23 31.5t-8 38q0 38 23.5 64t64.5 26t70.5 -29t29.5 -90q0 -48 -13 -90.5t-35.5 -78t-53 -63t-66.5 -46.5z" />
    <glyph glyph-name="uni0487" unicode="&#x487;" horiz-adv-x="868" 
d="M95 1216q22 114 79.5 173.5t148.5 59.5q51 0 101.5 -23t101 -51t100.5 -51t100 -23h57v-84h-55q-59 0 -111.5 23t-101.5 51t-96 51t-95 23q-54 0 -94 -35.5t-53 -113.5h-82z" />
    <glyph glyph-name="uni0488" unicode="&#x488;" horiz-adv-x="2018" 
d="M33 444q7 83 61.5 132.5t133.5 49.5q82 0 134 -49t56 -133h-80q-8 107 -112 107q-100 0 -114 -107h-79zM166 -47q8 82 61.5 132t132.5 50q82 0 135 -49.5t56 -132.5h-80q-8 107 -111 107q-99 0 -112 -107h-82zM166 934q8 82 61.5 132t132.5 50q82 0 135 -49.5t56 -132.5
h-80q-8 106 -111 106q-99 0 -112 -106h-82zM801 -305q7 83 61.5 132.5t133.5 49.5q82 0 134 -49.5t56 -132.5h-80q-8 107 -112 107q-100 0 -114 -107h-79zM801 1188q7 83 61.5 132.5t133.5 49.5q82 0 134 -49.5t56 -132.5h-80q-8 106 -112 106q-100 0 -114 -106h-79z
M1452 -47q8 82 61.5 132t132.5 50q82 0 135 -49.5t56 -132.5h-80q-8 107 -111 107q-98 0 -112 -107h-82zM1452 934q8 82 61.5 132t132.5 50q82 0 135 -49.5t56 -132.5h-80q-8 106 -111 106q-98 0 -112 -106h-82zM1596 444q7 82 60.5 132t133.5 50q82 0 134.5 -49t55.5 -133
h-80q-8 107 -110 107q-100 0 -112 -107h-82z" />
    <glyph glyph-name="uni0489" unicode="&#x489;" horiz-adv-x="1944" 
d="M50 578v59l353 -92v-103zM231 -26l329 157l67 -79l-358 -123zM339 1194l38 45l211 -297l-66 -79zM862 -411l92 353h103l-136 -353h-59zM891 1081l136 353h59l-92 -353h-103zM1317 990l358 123l38 -45l-329 -157zM1348 86l66 79l183 -331l-38 -45zM1541 499v103l353 -136
v-59z" />
    <glyph glyph-name="uni048A" unicode="&#x48a;" horiz-adv-x="1487" 
d="M184 0v1434h99v-1121q0 -24 -1 -58.5t-3 -61.5h4q11 18 29 45t32 47l848 1149h76v-1350h147l-164 -470h-113l171 386h-140v1122v30.5v33.5t0.5 33.5t1.5 29.5h-4q-5 -8 -12.5 -20.5t-16 -25t-17 -24.5t-13.5 -20l-854 -1159h-70zM385 1795h98q5 -41 22 -79t47 -67t73 -46
t100 -17h2q58 0 104.5 17t80 46t53 67t24.5 79h98q-10 -54 -37.5 -105.5t-72.5 -91.5t-108 -64t-143 -24t-140 24t-101 64t-65.5 91.5t-34.5 105.5z" />
    <glyph glyph-name="uni048B" unicode="&#x48b;" horiz-adv-x="1143" 
d="M164 0v1024h92v-848q6 11 12 21t13 18l610 809h74v-940h146l-164 -470h-113l171 386h-133v856q-8 -11 -15.5 -22t-12.5 -17l-615 -817h-65zM214 1470h98q5 -41 22 -79t47 -67t73 -46t100 -17h2q58 0 104.5 17t80 46t53 67t24.5 79h98q-10 -54 -37.5 -105.5t-72.5 -91.5
t-108 -64t-143 -24t-140 24t-101 64t-65.5 91.5t-34.5 105.5z" />
    <glyph glyph-name="uni048C" unicode="&#x48c;" horiz-adv-x="1136" 
d="M38 1173v91h147v170h99v-170h164v-91h-164v-376h325q85 0 158.5 -21.5t127.5 -67.5t85 -118.5t31 -175.5q0 -85 -28 -160t-82.5 -131.5t-135 -89.5t-184.5 -33h-396v1173h-147zM284 90h276q92 0 158 24t108 66t62 100t20 126q0 81 -23 138t-68 93t-111 53t-152 17h-270
v-617z" />
    <glyph glyph-name="uni048D" unicode="&#x48d;" horiz-adv-x="978" 
d="M45 1231v84h121v201h92v-201h150v-84h-150v-627h293q73 0 132 -20t100 -58.5t63 -93.5t22 -125q0 -78 -27 -136t-70.5 -96t-99 -56.5t-112.5 -18.5h-393v1231h-121zM258 84h276q65 0 110 17.5t73.5 48t41.5 71t13 86.5q0 45 -14.5 84t-44.5 67.5t-75 45t-106 16.5h-274
v-436z" />
    <glyph glyph-name="uni048E" unicode="&#x48e;" horiz-adv-x="1114" 
d="M184 0v1434h346q221 0 338 -102.5t117 -299.5q0 -200 -131 -329q-34 -33 -75 -58l134 -200l-74 -49l-142 211q-91 -32 -208 -32h-206v-575h-99zM283 666h204q89 0 158 19l-123 181l73 50l134 -196q29 16 53 38q101 93 101 262q0 323 -371 323h-229v-677z" />
    <glyph glyph-name="uni048F" unicode="&#x48f;" horiz-adv-x="1147" 
d="M164 -471v1495h92v-211h4q55 113 157.5 174.5t225.5 61.5q195 0 304.5 -134.5t109.5 -365.5q0 -257 -126 -416q-26 -33 -56 -59l137 -205l-74 -49l-136 203q-89 -48 -202 -48q-230 0 -340 207h-4v-653h-92zM256 434q0 -154 97 -264.5t255 -110.5q80 0 145 35l-132 196
l73 50l130 -192q20 20 39 45q98 135 98 354q0 192 -90 305t-240 113q-179 0 -277 -120t-98 -282v-129z" />
    <glyph glyph-name="uni0490" unicode="&#x490;" horiz-adv-x="918" 
d="M184 0v1434h578v264h96v-355h-575v-1343h-99z" />
    <glyph glyph-name="uni0491" unicode="&#x491;" horiz-adv-x="743" 
d="M164 0v1024h434v270h84v-354h-426v-940h-92z" />
    <glyph glyph-name="uni0492" unicode="&#x492;" horiz-adv-x="938" 
d="M41 705v84h143v645h674v-91h-575v-554h501v-84h-501v-705h-99v705h-143z" />
    <glyph glyph-name="uni0493" unicode="&#x493;" horiz-adv-x="694" 
d="M30 485v85h134v454h500v-84h-408v-370h316v-85h-316v-485h-92v485h-134z" />
    <glyph glyph-name="uni0494" unicode="&#x494;" horiz-adv-x="1161" 
d="M184 0v1434h674v-91h-575v-545h116q145 0 263 -44.5t201 -127t128 -199.5t45 -263q0 -125 -36.5 -233.5t-107 -188.5t-173 -125.5t-234.5 -45.5q-161 0 -298 65v109q148 -82 294 -82q108 0 191.5 36t140.5 101.5t86.5 158.5t29.5 207q0 126 -37.5 226.5t-107 170
t-168 106.5t-221.5 37h-112v-706h-99z" />
    <glyph glyph-name="uni0495" unicode="&#x495;" horiz-adv-x="998" 
d="M164 0v1024h632v-84h-540v-370h72q144 0 254.5 -35t186.5 -99t115 -155t39 -203q0 -111 -29.5 -201t-87 -153.5t-141 -98.5t-191.5 -35q-80 0 -139 10.5t-112 31.5v98q51 -29 118.5 -42.5t137.5 -13.5q169 0 259 102t90 296q0 95 -31.5 171.5t-95.5 130t-161 82.5
t-227 29h-57v-485h-92z" />
    <glyph glyph-name="uni0496" unicode="&#x496;" horiz-adv-x="1722" 
d="M18 0l668 739l-629 695h129l580 -641q5 -5 13.5 -15.5t13.5 -19.5h4v676h98v-676h4q5 9 13.5 19.5t13.5 15.5l579 641h129l-628 -695l586 -649h115v-474h-96v384h-77l-610 686q-5 5 -12 13.5t-13 19.5h-4v-719h-98v719h-4q-7 -11 -13.5 -19.5t-11.5 -13.5l-610 -686h-140
z" />
    <glyph glyph-name="uni0497" unicode="&#x497;" horiz-adv-x="1383" 
d="M20 0l512 524l-495 500h119l475 -489h4v489h92v-489h4l475 489h119l-496 -500l432 -440h97v-457h-84v373h-62l-481 502h-4v-502h-92v502h-4l-481 -502h-130z" />
    <glyph glyph-name="uni0498" unicode="&#x498;" horiz-adv-x="1104" 
d="M123 72v106q41 -31 88 -53.5t96 -37t97.5 -21.5t93.5 -7q99 0 173.5 26t124 70t74.5 102t25 122q0 83 -30 144t-87 100.5t-139 59t-186 19.5h-129v84h98q95 0 171.5 21.5t130.5 62.5t83 99.5t29 132.5q0 57 -19 107t-57 86.5t-95 57.5t-133 21q-92 0 -174 -28t-147 -76
v98q33 18 68.5 34t76 28.5t86.5 20t99 7.5q94 0 167 -26t123 -71.5t75.5 -108t25.5 -134.5q0 -139 -76 -233t-219 -131v-4q89 -6 155.5 -39t110.5 -82.5t66 -110.5t22 -125q0 -71 -24 -138t-72 -122t-119 -94t-164 -55q51 -83 51 -150q0 -79 -45 -125.5t-120 -46.5
q-36 0 -68 6t-60 15v89q25 -13 53.5 -19t52.5 -6q42 0 66.5 21.5t24.5 65.5q0 62 -45 142q-7 -1 -13 -1h-13q-119 0 -213 27.5t-160 69.5z" />
    <glyph glyph-name="uni0499" unicode="&#x499;" horiz-adv-x="936" 
d="M86 43v96q35 -19 75.5 -34t83 -25t84.5 -15.5t81 -5.5q100 0 165.5 18t104 47.5t53.5 68.5t15 81q0 61 -23.5 102t-67 66t-106 35t-139.5 10h-140v84h127q150 0 223.5 49t73.5 154q0 42 -16 77t-49 60.5t-84 39.5t-121 14q-84 0 -167.5 -22t-152.5 -54v90q29 12 66 24.5
t79.5 22.5t89.5 16.5t97 6.5q97 0 164.5 -22.5t110 -59.5t61.5 -84.5t19 -96.5q0 -99 -55.5 -164t-157.5 -83v-4q63 -3 112 -23.5t83 -53.5t51.5 -77.5t17.5 -95.5q0 -53 -17.5 -102.5t-56.5 -91t-102.5 -70.5t-155.5 -40q51 -81 51 -147q0 -79 -45 -125.5t-120 -46.5
q-36 0 -68 6t-60 15v89q25 -13 53.5 -19t52.5 -6q42 0 66.5 21.5t24.5 65.5q0 62 -45 142q-4 0 -7 -0.5t-7 -0.5q-41 0 -86 5t-88.5 14t-82 21.5t-65.5 27.5z" />
    <glyph glyph-name="uni049A" unicode="&#x49a;" horiz-adv-x="1109" 
d="M184 0v1434h99v-676h4q12 21 26 35l580 641h129l-629 -695l586 -649h115v-474h-96v384h-76l-611 686q-17 19 -24 33h-4v-719h-99z" />
    <glyph glyph-name="uni049B" unicode="&#x49b;" horiz-adv-x="921" 
d="M164 0v1024h92v-485h4l465 485h119l-486 -496l441 -444h97v-457h-84v373h-62l-490 506h-4v-506h-92z" />
    <glyph glyph-name="uni049C" unicode="&#x49c;" horiz-adv-x="1079" 
d="M184 0v1434h99v-676h4q12 21 26 35l48 53v374h76v-290l456 504h129l-585 -647v-97l624 -690h-139l-485 544v-304h-76v390l-50 56q-17 19 -24 33h-4v-719h-99z" />
    <glyph glyph-name="uni049D" unicode="&#x49d;" horiz-adv-x="909" 
d="M164 0v1024h92v-485h4l85 88v268h76v-188l304 317h119l-423 -432v-128l462 -464h-133l-329 339v-225h-76v304l-85 88h-4v-506h-92z" />
    <glyph glyph-name="uni049E" unicode="&#x49e;" horiz-adv-x="1079" 
d="M38 1173v91h146v170h99v-170h165v-91h-165v-415h4q12 21 26 35l580 641h129l-629 -695l668 -739h-139l-611 686q-17 19 -24 33h-4v-719h-99v1173h-146z" />
    <glyph glyph-name="uni049F" unicode="&#x49f;" horiz-adv-x="909" 
d="M51 1231v84h113v201h92v-201h412v-84h-412v-692h4l465 485h119l-486 -496l525 -528h-133l-490 506h-4v-506h-92v1231h-113z" />
    <glyph glyph-name="uni04A0" unicode="&#x4a0;" horiz-adv-x="1369" 
d="M61 1343v91h512v-676h4q12 21 26 35l580 641h129l-629 -695l668 -739h-139l-611 686q-17 19 -24 33h-4v-719h-99v1343h-413z" />
    <glyph glyph-name="uni04A1" unicode="&#x4a1;" horiz-adv-x="1093" 
d="M27 940v84h413v-485h4l465 485h119l-486 -496l525 -528h-133l-490 506h-4v-506h-92v940h-321z" />
    <glyph glyph-name="uni04A2" unicode="&#x4a2;" horiz-adv-x="1436" 
d="M184 0v1434h99v-656h821v656h98v-1344h183v-474h-96v384h-185v688h-821v-688h-99z" />
    <glyph glyph-name="uni04A3" unicode="&#x4a3;" horiz-adv-x="1155" 
d="M164 0v1024h92v-451h604v451h92v-940h158v-457h-84v373h-166v489h-604v-489h-92z" />
    <glyph glyph-name="uni04A4" unicode="&#x4a4;" horiz-adv-x="1633" 
d="M184 0v1434h99v-656h821v655l-1 1h512v-91h-413v-1343h-98v688h-821v-688h-99z" />
    <glyph glyph-name="uni04A5" unicode="&#x4a5;" horiz-adv-x="1299" 
d="M164 0v1024h92v-451h604v451h413v-84h-321v-940h-92v489h-604v-489h-92z" />
    <glyph glyph-name="uni04A6" unicode="&#x4a6;" horiz-adv-x="2052" 
d="M184 0v1434h989v-636h117q145 0 263 -44.5t201 -127t128 -199.5t45 -263q0 -125 -36.5 -233.5t-107 -188.5t-173 -125.5t-234.5 -45.5q-161 0 -298 65v109q148 -82 294 -82q108 0 191.5 36t140.5 101.5t86.5 158.5t29.5 207q0 126 -37.5 226.5t-107 170t-168 106.5
t-221.5 37h-113v-706h-98v1343h-792v-1343h-99z" />
    <glyph glyph-name="uni04A7" unicode="&#x4a7;" horiz-adv-x="1694" 
d="M164 0v1024h788v-454h72q144 0 254.5 -35t186.5 -99t115 -155t39 -203q0 -111 -29.5 -201t-87 -153.5t-141 -98.5t-191.5 -35q-80 0 -139 10.5t-112 31.5v98q51 -29 118.5 -42.5t137.5 -13.5q169 0 259 102t90 296q0 95 -31.5 171.5t-95.5 130t-161 82.5t-227 29h-57
v-485h-92v940h-604v-940h-92z" />
    <glyph glyph-name="uni04A8" unicode="&#x4a8;" horiz-adv-x="1483" 
d="M109 700q0 170 48 309.5t137 239t216 154.5t285 55q78 0 155 -11.5t142 -40.5v-108q-40 18 -76.5 31t-73 21.5t-74.5 13t-82 4.5q-126 0 -231.5 -44.5t-182 -130t-119 -209.5t-42.5 -283q0 -147 40.5 -265t113.5 -201.5t174.5 -128t222.5 -44.5q45 0 93.5 8.5t86.5 19.5
q-53 27 -105 76.5t-93 115t-66.5 144.5t-25.5 166q0 107 26.5 189.5t75 138.5t116 85.5t149.5 29.5q87 0 155.5 -29.5t116 -85.5t72.5 -137.5t25 -185.5q0 -94 -23 -176.5t-59.5 -148.5t-81.5 -113t-88 -71q22 -10 60 -17.5t77 -7.5q22 0 47 3t50.5 8.5t49 13.5t42.5 19v-87
q-80 -40 -202 -40q-40 0 -72 4t-58 10.5t-48.5 16t-45.5 19.5q-21 -12 -52.5 -22t-69 -17t-78 -11t-78.5 -4q-140 0 -259 47.5t-205.5 139t-135.5 227t-49 310.5zM751 603q0 -84 22.5 -158.5t62 -136t93 -107.5t115.5 -72q50 28 94 69.5t76.5 99.5t51 133.5t18.5 171.5
q0 80 -17.5 143t-51 107t-82.5 67.5t-113 23.5q-70 0 -121 -25.5t-84 -71.5t-48.5 -108t-15.5 -136z" />
    <glyph glyph-name="uni04A9" unicode="&#x4a9;" horiz-adv-x="1087" 
d="M90 500q0 117 37 217.5t104 174t161.5 115.5t209.5 42q68 0 126.5 -14.5t102.5 -33.5v-104q-55 33 -113 50.5t-128 17.5q-93 0 -167.5 -35.5t-127 -97.5t-81 -147.5t-28.5 -186.5q0 -93 25.5 -173t73.5 -139t117.5 -93t157.5 -34q39 0 59.5 3t39.5 7q-36 18 -68 49
t-56.5 72t-38.5 90.5t-14 104.5q0 71 20 128.5t55 98t82.5 63t103.5 22.5q60 0 106.5 -22.5t79 -63t49.5 -98t17 -127.5q0 -64 -15 -116t-38 -92.5t-49.5 -68.5t-50.5 -44q11 -2 30 -4t39 -2q35 0 72 8.5t65 24.5v-87q-26 -13 -61 -20.5t-77 -7.5q-47 0 -89.5 8t-74.5 24
q-38 -15 -84.5 -24.5t-100.5 -9.5q-101 0 -187 34.5t-149 101t-99 164.5t-36 225zM576 383q0 -106 49.5 -177t128.5 -106q30 18 56.5 42.5t46.5 59t32 80t12 104.5q0 52 -11 94t-32 72t-51 46.5t-68 16.5q-42 0 -72.5 -18.5t-51 -50t-30 -73.5t-9.5 -90z" />
    <glyph glyph-name="uni04AA" unicode="&#x4aa;" horiz-adv-x="1272" 
d="M109 688q0 174 53.5 316.5t148.5 243t225.5 155.5t284.5 55q163 0 316 -53v-105q-153 68 -318 68q-134 0 -246 -48t-192.5 -135.5t-125 -211.5t-44.5 -275q0 -147 43 -264t119.5 -199t181 -125.5t227.5 -43.5q196 0 355 77v-96q-137 -57 -283 -69q49 -79 49 -144
q0 -79 -45 -125.5t-120 -46.5q-36 0 -68 6t-60 15v89q25 -13 53.5 -19t52.5 -6q42 0 66.5 21.5t24.5 65.5q0 63 -45 141q-144 2 -264.5 55t-206.5 147t-134 224t-48 287z" />
    <glyph glyph-name="uni04AB" unicode="&#x4ab;" horiz-adv-x="909" 
d="M90 494q0 121 38.5 223t106.5 176t162.5 115t206.5 41q117 0 227 -48v-104q-110 68 -241 68q-90 0 -164 -34.5t-127.5 -96t-83 -147t-29.5 -187.5q0 -99 27 -180.5t76 -139.5t117.5 -89.5t152.5 -31.5q155 0 268 82v-96q-99 -61 -232 -69q48 -78 48 -142
q0 -79 -45 -125.5t-120 -46.5q-36 0 -68 6t-60 15v89q25 -13 53.5 -19t52.5 -6q42 0 66.5 21.5t24.5 65.5q0 64 -44 144q-94 9 -170 50t-130 108.5t-83.5 158.5t-29.5 199z" />
    <glyph glyph-name="uni04AC" unicode="&#x4ac;" horiz-adv-x="1047" 
d="M61 1343v91h926v-91h-414v-1253h141v-474h-96v384h-143v1343h-414z" />
    <glyph glyph-name="uni04AD" unicode="&#x4ad;" horiz-adv-x="756" 
d="M27 940v84h706v-84h-307v-856h84v-457h-84v373h-92v940h-307z" />
    <glyph glyph-name="uni04AE" unicode="&#x4ae;" horiz-adv-x="1106" 
d="M61 1434h111l334 -691q18 -36 45 -106h4q14 37 49 104l350 693h107l-463 -889v-545h-98v543z" />
    <glyph glyph-name="uni04AF" unicode="&#x4af;" horiz-adv-x="928" 
d="M20 1024h103l305 -815q22 -59 31 -107h4q13 63 29 103l315 819h100l-403 -1014v-481h-92v481z" />
    <glyph glyph-name="uni04B0" unicode="&#x4b0;" horiz-adv-x="1106" 
d="M61 1434h111l334 -691q19 -38 45 -106h4q7 19 19.5 44.5t29.5 59.5l350 693h107l-463 -888h344v-91h-344v-455h-98v455h-336v91h334z" />
    <glyph glyph-name="uni04B1" unicode="&#x4b1;" horiz-adv-x="928" 
d="M20 1024h103l305 -815q22 -59 31 -107h4q13 63 29 103l315 819h100l-403 -1014v-10h346v-84h-346v-387h-92v387h-334v84h334v10z" />
    <glyph glyph-name="uni04B2" unicode="&#x4b2;" horiz-adv-x="1260" 
d="M61 0l453 723l-426 711h119l321 -539q25 -42 52 -96h4l53 96l319 539h115l-430 -709l385 -635h183v-474h-96v384h-152l-330 547q-31 51 -53 100h-5q-27 -55 -57 -100l-336 -547h-119z" />
    <glyph glyph-name="uni04B3" unicode="&#x4b3;" horiz-adv-x="962" 
d="M33 0l342 500l-336 524h108l228 -367q44 -71 53 -88h4l51 84l238 371h108l-348 -522l278 -418h158v-457h-84v373h-135l-270 432h-4l-36 -57q-7 -12 -17 -27l-226 -348h-112z" />
    <glyph glyph-name="uni04B4" unicode="&#x4b4;" horiz-adv-x="1727" 
d="M61 1343v91h926v-91h-413v-1253h821v1344h98v-1344h182v-474h-96v384h-1104v1343h-414z" />
    <glyph glyph-name="uni04B5" unicode="&#x4b5;" horiz-adv-x="1325" 
d="M27 940v84h706v-84h-307v-856h604v940h92v-940h158v-457h-84v373h-862v940h-307z" />
    <glyph glyph-name="uni04B6" unicode="&#x4b6;" horiz-adv-x="1306" 
d="M164 891v543h98v-529q0 -131 67 -202.5t201 -71.5q103 0 216.5 29t226.5 75v699h98v-1344h183v-474h-96v384h-185v649q-113 -44 -225.5 -76t-227.5 -32q-94 0 -161 25.5t-110.5 72t-64 110.5t-20.5 142z" />
    <glyph glyph-name="uni04B7" unicode="&#x4b7;" horiz-adv-x="1110" 
d="M143 690v334h93v-326q0 -60 10.5 -110.5t36 -87t69 -57.5t109.5 -21q97 0 185 29t169 75v498h92v-940h158v-457h-84v373h-166v446q-97 -52 -185 -80t-179 -28q-66 0 -122 19.5t-97.5 61.5t-65 109t-23.5 162z" />
    <glyph glyph-name="uni04B8" unicode="&#x4b8;" horiz-adv-x="1255" 
d="M164 891v543h98v-529q0 -131 67 -202.5t201 -71.5h22t22 1v402h76v-394q78 12 160 37t163 58v699h98v-1434h-98v649q-81 -32 -161.5 -58t-161.5 -39v-356h-76v347q-14 -2 -27 -2h-27q-94 0 -161 25.5t-110.5 72t-64 110.5t-20.5 142z" />
    <glyph glyph-name="uni04B9" unicode="&#x4b9;" horiz-adv-x="1071" 
d="M143 690v334h93v-326q0 -60 10.5 -110.5t36 -87t69 -57.5t109.5 -21h24v332h76v-324q68 12 131 37t123 59v498h92v-1024h-92v446q-68 -36 -130 -60.5t-124 -36.5v-235h-76v225q-9 -1 -17.5 -1h-16.5q-66 0 -122 19.5t-97.5 61.5t-65 109t-23.5 162z" />
    <glyph glyph-name="uni04BA" unicode="&#x4ba;" horiz-adv-x="1255" 
d="M184 0v1434h98v-649q113 44 225.5 76t227.5 32q94 0 161 -25.5t110.5 -72t64 -110.5t20.5 -142v-543h-98v529q0 131 -67 202.5t-201 71.5q-103 0 -216.5 -29t-226.5 -75v-699h-98z" />
    <glyph glyph-name="uni04BB" unicode="&#x4bb;" horiz-adv-x="1096" 
d="M164 0v1516h92v-676h4q121 209 352 209q166 0 253 -107t87 -307v-635h-92v614q0 182 -66 266.5t-206 84.5q-132 0 -232 -103t-100 -295v-567h-92z" />
    <glyph glyph-name="uni04BC" unicode="&#x4bc;" horiz-adv-x="1761" 
d="M82 870q0 36 6.5 73.5t15.5 64.5h93q-21 -59 -21 -130q0 -57 37 -86.5t106 -31.5h64q10 151 60.5 279t136 221.5t205 146t268.5 52.5q596 0 608 -790h-1177q10 -159 58 -273t124.5 -187.5t177.5 -108t219 -34.5q125 0 239.5 32.5t211.5 98.5v-100q-97 -67 -213 -94.5
t-252 -27.5q-144 0 -263 45t-205.5 133t-137.5 217.5t-60 298.5h-85q-49 0 -88.5 12.5t-68 37t-44 62.5t-15.5 89zM485 760h1066q-5 144 -41 257t-100.5 190.5t-155 118.5t-203.5 41q-118 0 -216 -41.5t-171.5 -120t-119.5 -191t-59 -254.5z" />
    <glyph glyph-name="uni04BD" unicode="&#x4bd;" horiz-adv-x="1296" 
d="M62 703q0 36 4.5 73.5t13.5 64.5h97q-21 -59 -21 -130q0 -57 37 -88t106 -31h57q10 97 47.5 181t97 145t138.5 96t172 35q96 0 169.5 -35t123.5 -99.5t76 -157.5t26 -208v-41h-758q0 -105 25 -188.5t72.5 -141.5t115 -88.5t152.5 -30.5q173 0 336 127v-98
q-160 -113 -355 -113q-98 0 -179 35.5t-139 104t-90.5 167.5t-33.5 226h-74q-49 0 -88.5 11.5t-68 35t-44 60.5t-15.5 88zM452 592h658q-3 88 -24.5 157.5t-60.5 117.5t-94 73t-124 25q-72 0 -132 -24.5t-106 -71.5t-76 -117t-41 -160z" />
    <glyph glyph-name="uni04BE" unicode="&#x4be;" horiz-adv-x="1761" 
d="M82 870q0 36 6.5 73.5t15.5 64.5h93q-21 -59 -21 -130q0 -57 37 -86.5t106 -31.5h64q10 151 60.5 279t136 221.5t205 146t268.5 52.5q596 0 608 -790h-1177q10 -159 58 -273t124.5 -187.5t177.5 -108t219 -34.5q125 0 239.5 32.5t211.5 98.5v-100q-97 -67 -213 -94.5
t-252 -27.5q-144 0 -263 45t-205.5 133t-137.5 217.5t-60 298.5h-85q-49 0 -88.5 12.5t-68 37t-44 62.5t-15.5 89zM485 760h1066q-5 144 -41 257t-100.5 190.5t-155 118.5t-203.5 41q-118 0 -216 -41.5t-171.5 -120t-119.5 -191t-59 -254.5zM1006 0h95v-384h-95v384z" />
    <glyph glyph-name="uni04BF" unicode="&#x4bf;" horiz-adv-x="1296" 
d="M62 703q0 36 4.5 73.5t13.5 64.5h97q-21 -59 -21 -130q0 -57 37 -88t106 -31h57q10 97 47.5 181t97 145t138.5 96t172 35q96 0 169.5 -35t123.5 -99.5t76 -157.5t26 -208v-41h-758q0 -105 25 -188.5t72.5 -141.5t115 -88.5t152.5 -30.5q173 0 336 127v-98
q-160 -113 -355 -113q-98 0 -179 35.5t-139 104t-90.5 167.5t-33.5 226h-74q-49 0 -88.5 11.5t-68 35t-44 60.5t-15.5 88zM452 592h658q-3 88 -24.5 157.5t-60.5 117.5t-94 73t-124 25q-72 0 -132 -24.5t-106 -71.5t-76 -117t-41 -160zM756 0h84v-373h-84v373z" />
    <glyph glyph-name="uni04C0" unicode="&#x4c0;" horiz-adv-x="467" 
d="M184 0v1434h99v-1434h-99z" />
    <glyph glyph-name="uni04C1" unicode="&#x4c1;" horiz-adv-x="1692" 
d="M18 0l668 739l-629 695h129l580 -641q5 -5 13.5 -15.5t13.5 -19.5h4v676h98v-676h4q5 9 13.5 19.5t13.5 15.5l579 641h129l-628 -695l667 -739h-139l-610 686q-5 5 -12 13.5t-13 19.5h-4v-719h-98v719h-4q-7 -11 -13.5 -19.5t-11.5 -13.5l-610 -686h-140zM579 1771h84
q6 -75 55.5 -117t126.5 -42q68 0 120.5 43.5t61.5 115.5h88q-16 -108 -89.5 -171.5t-182.5 -63.5q-110 0 -182.5 62t-81.5 173z" />
    <glyph glyph-name="uni04C2" unicode="&#x4c2;" horiz-adv-x="1362" 
d="M20 0l512 524l-495 500h119l475 -489h4v489h92v-489h4l475 489h119l-496 -500l512 -524h-129l-481 502h-4v-502h-92v502h-4l-481 -502h-130zM413 1423h84q6 -75 55.5 -117t126.5 -42q68 0 120.5 43.5t61.5 115.5h88q-16 -108 -89.5 -171.5t-182.5 -63.5q-110 0 -182.5 62
t-81.5 173z" />
    <glyph glyph-name="uni04C3" unicode="&#x4c3;" horiz-adv-x="1161" 
d="M184 0v1434h99v-636h4l606 636h129l-607 -638q147 -7 262 -54t195 -129t122 -195.5t42 -253.5q0 -125 -36.5 -233.5t-107 -188.5t-173 -125.5t-234.5 -45.5q-161 0 -298 65v109q148 -82 294 -82q108 0 191.5 36t140.5 101.5t86.5 158.5t29.5 207q0 126 -38 226.5
t-111.5 170t-181.5 106.5t-247 37h-68v-706h-99z" />
    <glyph glyph-name="uni04C4" unicode="&#x4c4;" horiz-adv-x="998" 
d="M164 0v1024h92v-454h5l464 454h119l-475 -456q138 -8 242 -46.5t173.5 -102t104 -150t34.5 -191.5q0 -111 -29.5 -201t-87 -153.5t-141 -98.5t-191.5 -35q-80 0 -139 10.5t-112 31.5v98q51 -29 118.5 -42.5t137.5 -13.5q169 0 259 102t90 296q0 95 -31.5 171.5t-95.5 130
t-161 82.5t-227 29h-57v-485h-92z" />
    <glyph glyph-name="uni04C5" unicode="&#x4c5;" horiz-adv-x="1360" 
d="M31 -4v100q40 -20 92 -20q45 0 79 23t59.5 66t45 104.5t36.5 138.5q11 48 23.5 115t27 148.5t29 174t29 190.5t28.5 199t26 199h635v-1350h147l-164 -470h-113l171 386h-140v1341h-454q-17 -133 -37 -275t-41 -274t-40.5 -245t-35.5 -187q-17 -78 -41 -146.5t-60 -120
t-86.5 -81.5t-119.5 -30q-32 0 -55 4t-41 10z" />
    <glyph glyph-name="uni04C6" unicode="&#x4c6;" horiz-adv-x="1041" 
d="M31 -6v82q8 -3 26 -5.5t29 -2.5q67 0 117 62.5t86 184t60.5 300t39.5 409.5h473v-940h147l-164 -470h-113l171 386h-133v940h-299q-17 -228 -44.5 -405.5t-72 -299.5t-109.5 -185.5t-157 -63.5q-15 0 -30.5 2.5t-26.5 5.5z" />
    <glyph glyph-name="uni04C7" unicode="&#x4c7;" horiz-adv-x="1386" 
d="M184 0v1434h99v-656h821v656h98v-1270q0 -125 -36.5 -233.5t-107 -188.5t-173 -125.5t-234.5 -45.5q-161 0 -298 65v109q148 -82 294 -82q108 0 193 35t143.5 100t89.5 157t31 206v527h-821v-688h-99z" />
    <glyph glyph-name="uni04C8" unicode="&#x4c8;" horiz-adv-x="1116" 
d="M164 0v1024h92v-451h604v451h92v-946q0 -111 -29.5 -201t-87 -153.5t-141 -98.5t-191.5 -35q-80 0 -139 10.5t-112 31.5v98q51 -29 118.5 -42.5t137.5 -13.5q169 0 260.5 101.5t91.5 295.5v418h-604v-489h-92z" />
    <glyph glyph-name="uni04C9" unicode="&#x4c9;" horiz-adv-x="1421" 
d="M184 0v1434h99v-656h821v656h98v-1350h147l-164 -470h-113l171 386h-139v688h-821v-688h-99z" />
    <glyph glyph-name="uni04CA" unicode="&#x4ca;" horiz-adv-x="1131" 
d="M164 0v1024h92v-451h604v451h92v-940h147l-164 -470h-113l171 386h-133v489h-604v-489h-92z" />
    <glyph glyph-name="uni04CB" unicode="&#x4cb;" horiz-adv-x="1255" 
d="M164 891v543h98v-529q0 -131 67 -202.5t201 -71.5q103 0 216.5 29t226.5 75v699h98v-1434h-145v-384h-96v474h143v559q-113 -44 -225.5 -76t-227.5 -32q-94 0 -161 25.5t-110.5 72t-64 110.5t-20.5 142z" />
    <glyph glyph-name="uni04CC" unicode="&#x4cc;" horiz-adv-x="1071" 
d="M143 690v334h93v-326q0 -60 10.5 -110.5t36 -87t69 -57.5t109.5 -21q97 0 185 29t169 75v498h92v-1024h-92v-373h-84v457h84v362q-97 -52 -185 -80t-179 -28q-66 0 -122 19.5t-97.5 61.5t-65 109t-23.5 162z" />
    <glyph glyph-name="uni04CD" unicode="&#x4cd;" horiz-adv-x="1741" 
d="M184 0v1434h92l535 -1155q5 -10 11 -27t13 -34q10 -26 21 -58h6l11 32q1 4 34 95l527 1147h88v-1350h147l-164 -470h-113l171 386h-136v1018q0 37 11 211h-4q-31 -81 -52 -125l-510 -1104h-32l-512 1098q-25 53 -47 135h-5q7 -96 7 -191v-1042h-99z" />
    <glyph glyph-name="uni04CE" unicode="&#x4ce;" horiz-adv-x="1316" 
d="M164 0v1024h110l312 -709q11 -24 23.5 -56.5t23.5 -62.5q13 -35 26 -71q14 35 28 69q11 29 24 61t22 56l291 713h113v-940h147l-164 -470h-113l171 386h-131v885l-27 -72q-11 -30 -23.5 -62t-21.5 -55l-277 -696h-75l-299 696q-10 21 -22 53t-23 62q-13 35 -27 74v-885
h-88z" />
    <glyph glyph-name="uni04CF" unicode="&#x4cf;" horiz-adv-x="420" 
d="M164 0v1516h92v-1516h-92z" />
    <glyph glyph-name="uni04D0" unicode="&#x4d0;" horiz-adv-x="1288" 
d="M59 0l541 1434h94l535 -1434h-111l-164 446h-622l-164 -446h-109zM367 537h553l-242 663q-11 30 -18 59q-7 25 -15 50h-4q-17 -66 -33 -107zM383 1772h84q6 -75 55.5 -117t126.5 -42q68 0 120.5 43.5t61.5 115.5h88q-16 -108 -89.5 -171.5t-182.5 -63.5q-110 0 -182.5 62
t-81.5 173z" />
    <glyph glyph-name="uni04D1" unicode="&#x4d1;" horiz-adv-x="1012" 
d="M106 264q0 268 355 324l315 47q0 330 -248 330q-169 0 -329 -136v111q57 45 154.5 77t183.5 32q158 0 244.5 -98t86.5 -285v-666h-92v205h-4q-49 -105 -142.5 -167.5t-207.5 -62.5q-146 0 -231 82t-85 207zM203 268q0 -91 60.5 -150t168.5 -59q148 0 246 109.5t98 282.5
v100l-282 -41q-161 -23 -226 -74.5t-65 -167.5zM248 1423h84q6 -75 55.5 -117t126.5 -42q68 0 120.5 43.5t61.5 115.5h88q-16 -108 -89.5 -171.5t-182.5 -63.5q-110 0 -182.5 62t-81.5 173z" />
    <glyph glyph-name="uni04D2" unicode="&#x4d2;" horiz-adv-x="1288" 
d="M59 0l541 1434h94l535 -1434h-111l-164 446h-622l-164 -446h-109zM367 537h553l-242 663q-11 30 -18 59q-7 25 -15 50h-4q-17 -66 -33 -107zM407 1602q0 31 22 50t48 19q29 0 52 -19.5t23 -49.5q0 -31 -21 -51.5t-52 -20.5q-28 0 -50 19.5t-22 52.5zM741 1602
q0 31 21.5 50t47.5 19q29 0 52.5 -19.5t23.5 -49.5q0 -31 -21.5 -51.5t-52.5 -20.5q-27 0 -49 19.5t-22 52.5z" />
    <glyph glyph-name="uni04D3" unicode="&#x4d3;" horiz-adv-x="1012" 
d="M106 264q0 268 355 324l315 47q0 330 -248 330q-169 0 -329 -136v111q57 45 154.5 77t183.5 32q158 0 244.5 -98t86.5 -285v-666h-92v205h-4q-49 -105 -142.5 -167.5t-207.5 -62.5q-146 0 -231 82t-85 207zM203 268q0 -91 60.5 -150t168.5 -59q148 0 246 109.5t98 282.5
v100l-282 -41q-161 -23 -226 -74.5t-65 -167.5zM260 1260q0 31 22 50t48 19q29 0 52 -19.5t23 -49.5q0 -31 -21 -51.5t-52 -20.5q-28 0 -50 19.5t-22 52.5zM594 1260q0 31 21.5 50t47.5 19q29 0 52.5 -19.5t23.5 -49.5q0 -31 -21.5 -51.5t-52.5 -20.5q-27 0 -49 19.5
t-22 52.5z" />
    <glyph glyph-name="uni04D4" unicode="&#x4d4;" horiz-adv-x="1706" 
d="M16 0l697 1434h803v-97h-572v-571h531v-90h-531v-586h604v-90h-702v446h-502l-219 -446h-109zM385 537h461v800h-78z" />
    <glyph glyph-name="uni04D5" unicode="&#x4d5;" horiz-adv-x="1718" 
d="M106 264q0 143 99 225t287 91l284 12q0 373 -239 373q-186 0 -338 -134v109q161 109 348 109q230 0 295 -254h4q126 254 383 254q190 0 293.5 -133t103.5 -367v-41h-758q0 -211 97.5 -330t267.5 -119q172 0 336 127v-98q-159 -113 -355 -113q-136 0 -240 74.5t-151 210.5
h-4q-133 -285 -391 -285q-150 0 -236 80.5t-86 208.5zM203 268q0 -98 63.5 -153.5t171.5 -55.5q136 0 237 107.5t101 259.5v82l-264 -8q-156 -5 -232.5 -58.5t-76.5 -173.5zM872 592h658q-6 177 -85 275t-218 98q-144 0 -238.5 -96.5t-116.5 -276.5z" />
    <glyph glyph-name="uni04D6" unicode="&#x4d6;" horiz-adv-x="1024" 
d="M184 0v1434h670v-91h-571v-575h530v-90h-530v-588h604v-90h-703zM280 1772h84q6 -75 55.5 -117t126.5 -42q68 0 120.5 43.5t61.5 115.5h88q-16 -108 -89.5 -171.5t-182.5 -63.5q-110 0 -182.5 62t-81.5 173z" />
    <glyph glyph-name="uni04D7" unicode="&#x4d7;" horiz-adv-x="1034" 
d="M90 518q0 224 127.5 377.5t331.5 153.5q191 0 293 -134t102 -366v-41h-758q0 -211 97.5 -330t267.5 -119q172 0 336 127v-98q-159 -113 -355 -113q-198 0 -320 142t-122 401zM190 592h658q-6 177 -85 275t-218 98q-144 0 -238.5 -96.5t-116.5 -276.5zM274 1423h84
q6 -75 55.5 -117t126.5 -42q68 0 120.5 43.5t61.5 115.5h88q-16 -108 -89.5 -171.5t-182.5 -63.5q-110 0 -182.5 62t-81.5 173z" />
    <glyph glyph-name="uni04D8" unicode="&#x4d8;" horiz-adv-x="1459" 
d="M90 763l1161 -1q-9 148 -56 261t-122 189.5t-175 116t-215 39.5t-207.5 -21t-176.5 -66v110q153 67 378 67q157 0 282 -51t212 -147t133 -233.5t46 -309.5q0 -159 -46 -294.5t-130.5 -235t-204 -155.5t-266.5 -56t-261 50t-192 149t-119 246t-41 342zM192 672
q2 -139 37.5 -251t100.5 -191t158.5 -122t212.5 -43q123 0 220 45t166.5 125.5t110.5 192t52 244.5h-1058z" />
    <glyph glyph-name="uni04D9" unicode="&#x4d9;" horiz-adv-x="1034" 
d="M90 475v41h758q0 211 -97.5 330t-267.5 119q-172 0 -336 -127v98q159 113 355 113q198 0 320 -142t122 -401q0 -224 -127.5 -377.5t-331.5 -153.5q-191 0 -293 134t-102 366zM186 432q6 -177 85 -275t218 -98q144 0 238.5 96.5t116.5 276.5h-658z" />
    <glyph glyph-name="uni04DA" unicode="&#x4da;" horiz-adv-x="1459" 
d="M90 763l1161 -1q-9 148 -56 261t-122 189.5t-175 116t-215 39.5t-207.5 -21t-176.5 -66v110q153 67 378 67q157 0 282 -51t212 -147t133 -233.5t46 -309.5q0 -159 -46 -294.5t-130.5 -235t-204 -155.5t-266.5 -56t-261 50t-192 149t-119 246t-41 342zM192 672
q2 -139 37.5 -251t100.5 -191t158.5 -122t212.5 -43q123 0 220 45t166.5 125.5t110.5 192t52 244.5h-1058zM468 1609q0 31 22 50t48 19q29 0 52 -19.5t23 -49.5q0 -31 -21 -51.5t-52 -20.5q-28 0 -50 19.5t-22 52.5zM802 1609q0 31 21.5 50t47.5 19q29 0 52.5 -19.5
t23.5 -49.5q0 -31 -21.5 -51.5t-52.5 -20.5q-27 0 -49 19.5t-22 52.5z" />
    <glyph glyph-name="uni04DB" unicode="&#x4db;" horiz-adv-x="1034" 
d="M90 475v41h758q0 211 -97.5 330t-267.5 119q-172 0 -336 -127v98q159 113 355 113q198 0 320 -142t122 -401q0 -224 -127.5 -377.5t-331.5 -153.5q-191 0 -293 134t-102 366zM186 432q6 -177 85 -275t218 -98q144 0 238.5 96.5t116.5 276.5h-658zM271 1260q0 31 22 50
t48 19q29 0 52 -19.5t23 -49.5q0 -31 -21 -51.5t-52 -20.5q-28 0 -50 19.5t-22 52.5zM605 1260q0 31 21.5 50t47.5 19q29 0 52.5 -19.5t23.5 -49.5q0 -31 -21.5 -51.5t-52.5 -20.5q-27 0 -49 19.5t-22 52.5z" />
    <glyph glyph-name="uni04DC" unicode="&#x4dc;" horiz-adv-x="1692" 
d="M18 0l668 739l-629 695h129l580 -641q5 -5 13.5 -15.5t13.5 -19.5h4v676h98v-676h4q5 9 13.5 19.5t13.5 15.5l579 641h129l-628 -695l667 -739h-139l-610 686q-5 5 -12 13.5t-13 19.5h-4v-719h-98v719h-4q-7 -11 -13.5 -19.5t-11.5 -13.5l-610 -686h-140zM607 1609
q0 31 22 50t48 19q29 0 52 -19.5t23 -49.5q0 -31 -21 -51.5t-52 -20.5q-28 0 -50 19.5t-22 52.5zM941 1609q0 31 21.5 50t47.5 19q29 0 52.5 -19.5t23.5 -49.5q0 -31 -21.5 -51.5t-52.5 -20.5q-27 0 -49 19.5t-22 52.5z" />
    <glyph glyph-name="uni04DD" unicode="&#x4dd;" horiz-adv-x="1362" 
d="M20 0l512 524l-495 500h119l475 -489h4v489h92v-489h4l475 489h119l-496 -500l512 -524h-129l-481 502h-4v-502h-92v502h-4l-481 -502h-130zM443 1260q0 31 22 50t48 19q29 0 52 -19.5t23 -49.5q0 -31 -21 -51.5t-52 -20.5q-28 0 -50 19.5t-22 52.5zM777 1260
q0 31 21.5 50t47.5 19q29 0 52.5 -19.5t23.5 -49.5q0 -31 -21.5 -51.5t-52.5 -20.5q-27 0 -49 19.5t-22 52.5z" />
    <glyph glyph-name="uni04DE" unicode="&#x4de;" horiz-adv-x="1104" 
d="M123 72v106q41 -31 88 -53.5t96 -37t97.5 -21.5t93.5 -7q99 0 173.5 26t124 70t74.5 102t25 122q0 83 -30 144t-87 100.5t-139 59t-186 19.5h-129v84h98q95 0 171.5 21.5t130.5 62.5t83 99.5t29 132.5q0 57 -19 107t-57 86.5t-95 57.5t-133 21q-92 0 -174 -28t-147 -76
v98q33 18 68.5 34t76 28.5t86.5 20t99 7.5q94 0 167 -26t123 -71.5t75.5 -108t25.5 -134.5q0 -139 -76 -233t-219 -131v-4q89 -6 155.5 -39t110.5 -82.5t66 -110.5t22 -125q0 -81 -31.5 -156.5t-94 -133.5t-155 -93t-214.5 -35q-119 0 -213 27.5t-160 69.5zM289 1609
q0 31 22 50t48 19q29 0 52 -19.5t23 -49.5q0 -31 -21 -51.5t-52 -20.5q-28 0 -50 19.5t-22 52.5zM623 1609q0 31 21.5 50t47.5 19q29 0 52.5 -19.5t23.5 -49.5q0 -31 -21.5 -51.5t-52.5 -20.5q-27 0 -49 19.5t-22 52.5z" />
    <glyph glyph-name="uni04DF" unicode="&#x4df;" horiz-adv-x="936" 
d="M86 43v96q35 -19 75.5 -34t83 -25t84.5 -15.5t81 -5.5q100 0 165.5 18t104 47.5t53.5 68.5t15 81q0 61 -23.5 102t-67 66t-106 35t-139.5 10h-140v84h127q150 0 223.5 49t73.5 154q0 42 -16 77t-49 60.5t-84 39.5t-121 14q-84 0 -167.5 -22t-152.5 -54v90q29 12 66 24.5
t79.5 22.5t89.5 16.5t97 6.5q97 0 164.5 -22.5t110 -59.5t61.5 -84.5t19 -96.5q0 -99 -55.5 -164t-157.5 -83v-4q63 -3 112 -23.5t83 -53.5t51.5 -77.5t17.5 -95.5q0 -59 -22.5 -115t-73.5 -99.5t-134.5 -69.5t-205.5 -26q-41 0 -86 5t-88.5 14t-82 21.5t-65.5 27.5z
M187 1260q0 31 22 50t48 19q29 0 52 -19.5t23 -49.5q0 -31 -21 -51.5t-52 -20.5q-28 0 -50 19.5t-22 52.5zM521 1260q0 31 21.5 50t47.5 19q29 0 52.5 -19.5t23.5 -49.5q0 -31 -21.5 -51.5t-52.5 -20.5q-27 0 -49 19.5t-22 52.5z" />
    <glyph glyph-name="uni04E0" unicode="&#x4e0;" horiz-adv-x="1058" 
d="M83 42v111q36 -21 75.5 -38t85 -29t99 -18.5t117.5 -6.5q100 0 180 22.5t135 65.5t84.5 105.5t29.5 142.5q0 79 -34 142.5t-95 108.5t-146 69t-187 24h-101v17l432 585h-636v91h787v-25l-431 -583q116 -7 209.5 -38.5t159.5 -87t101.5 -133t35.5 -175.5q0 -99 -35.5 -176
t-103 -130.5t-166 -81t-224.5 -27.5q-125 0 -213.5 16t-158.5 49z" />
    <glyph glyph-name="uni04E1" unicode="&#x4e1;" horiz-adv-x="936" 
d="M0 -313q36 -21 75.5 -36t85 -25.5t99 -15.5t117.5 -5q100 0 180 24t135 68.5t84.5 109t29.5 145.5q0 89 -34 159.5t-95 119t-146 74.5t-187 26h-121v24l447 585h-631v84h787v-25l-451 -583q116 -7 213 -40.5t166.5 -92.5t108 -142.5t38.5 -190.5q0 -101 -35.5 -181
t-103 -135t-166 -84t-224.5 -29q-125 0 -213.5 17.5t-158.5 52.5v96z" />
    <glyph glyph-name="uni04E2" unicode="&#x4e2;" horiz-adv-x="1452" 
d="M184 0v1434h99v-1121q0 -24 -1 -58.5t-3 -61.5h4q11 18 29 45t32 47l848 1149h76v-1434h-99v1122v30.5v33.5t0.5 33.5t1.5 29.5h-4q-5 -8 -12.5 -20.5t-16 -25t-17 -24.5t-13.5 -20l-854 -1159h-70zM466 1537v84h508v-84h-508z" />
    <glyph glyph-name="uni04E3" unicode="&#x4e3;" horiz-adv-x="1128" 
d="M164 0v1024h92v-848q6 11 12 21t13 18l610 809h74v-1024h-93v856q-8 -11 -15.5 -22t-12.5 -17l-615 -817h-65zM308 1188v84h508v-84h-508z" />
    <glyph glyph-name="uni04E4" unicode="&#x4e4;" horiz-adv-x="1452" 
d="M184 0v1434h99v-1121q0 -24 -1 -58.5t-3 -61.5h4q11 18 29 45t32 47l848 1149h76v-1434h-99v1122v30.5v33.5t0.5 33.5t1.5 29.5h-4q-5 -8 -12.5 -20.5t-16 -25t-17 -24.5t-13.5 -20l-854 -1159h-70zM496 1609q0 31 22 50t48 19q29 0 52 -19.5t23 -49.5q0 -31 -21 -51.5
t-52 -20.5q-28 0 -50 19.5t-22 52.5zM830 1609q0 31 21.5 50t47.5 19q29 0 52.5 -19.5t23.5 -49.5q0 -31 -21.5 -51.5t-52.5 -20.5q-27 0 -49 19.5t-22 52.5z" />
    <glyph glyph-name="uni04E5" unicode="&#x4e5;" horiz-adv-x="1128" 
d="M164 0v1024h92v-848q6 11 12 21t13 18l610 809h74v-1024h-93v856q-8 -11 -15.5 -22t-12.5 -17l-615 -817h-65zM322 1260q0 31 22 50t48 19q29 0 52 -19.5t23 -49.5q0 -31 -21 -51.5t-52 -20.5q-28 0 -50 19.5t-22 52.5zM656 1260q0 31 21.5 50t47.5 19q29 0 52.5 -19.5
t23.5 -49.5q0 -31 -21.5 -51.5t-52.5 -20.5q-27 0 -49 19.5t-22 52.5z" />
    <glyph glyph-name="uni04E6" unicode="&#x4e6;" horiz-adv-x="1559" 
d="M109 702q0 343 185.5 549.5t506.5 206.5q290 0 469.5 -198.5t179.5 -520.5q0 -356 -184 -560t-492 -204q-304 0 -484.5 202t-180.5 525zM211 713q0 -296 153 -471.5t408 -175.5q266 0 421 173.5t155 483.5q0 304 -151.5 474.5t-412.5 170.5q-250 0 -411.5 -181
t-161.5 -474zM545 1605q0 31 22 50t48 19q29 0 52 -19.5t23 -49.5q0 -31 -21 -51.5t-52 -20.5q-28 0 -50 19.5t-22 52.5zM879 1605q0 31 21.5 50t47.5 19q29 0 52.5 -19.5t23.5 -49.5q0 -31 -21.5 -51.5t-52.5 -20.5q-27 0 -49 19.5t-22 52.5z" />
    <glyph glyph-name="uni04E7" unicode="&#x4e7;" horiz-adv-x="1149" 
d="M90 506q0 255 136.5 399t359.5 144q219 0 346 -143t127 -396q0 -239 -129.5 -387t-354.5 -148q-224 0 -354.5 147.5t-130.5 383.5zM186 504q0 -201 105 -323t287 -122q185 0 285 120t100 333q0 219 -99.5 336t-281.5 117q-181 0 -288.5 -122t-107.5 -339zM344 1260
q0 31 22 50t48 19q29 0 52 -19.5t23 -49.5q0 -31 -21 -51.5t-52 -20.5q-28 0 -50 19.5t-22 52.5zM678 1260q0 31 21.5 50t47.5 19q29 0 52.5 -19.5t23.5 -49.5q0 -31 -21.5 -51.5t-52.5 -20.5q-27 0 -49 19.5t-22 52.5z" />
    <glyph glyph-name="uni04E8" unicode="&#x4e8;" horiz-adv-x="1559" 
d="M109 702q0 163 45 301.5t132.5 239.5t217 158t297.5 57q149 0 269 -53.5t204.5 -148.5t130 -227.5t45.5 -289.5q0 -191 -52 -334t-142.5 -238.5t-214 -143.5t-267.5 -48q-162 0 -286 57t-208.5 155.5t-127.5 231t-43 283.5zM212 672q6 -140 48 -252.5t115 -191
t174 -120.5t223 -42q121 0 223.5 38.5t178 114.5t120.5 189.5t52 263.5h-1134zM212 762h1135q-5 150 -48.5 263.5t-118 189.5t-175.5 114.5t-221 38.5q-118 0 -219.5 -42.5t-177.5 -121t-122 -191t-53 -251.5z" />
    <glyph glyph-name="uni04E9" unicode="&#x4e9;" horiz-adv-x="1149" 
d="M90 506q0 127 35.5 228t101 171t157 107t202.5 37q109 0 196.5 -37t149 -106.5t94.5 -169.5t33 -226q0 -118 -33 -216t-95.5 -169t-152.5 -110.5t-203 -39.5t-203 39t-152.5 109.5t-96 168t-33.5 214.5zM187 468q9 -179 104 -287q105 -122 287 -122q87 0 156 28t118 80.5
t77 128.5t33 172h-775zM187 552h775q-9 201 -107.5 307t-272.5 106q-84 0 -154.5 -28t-122 -81t-82 -130t-36.5 -174z" />
    <glyph glyph-name="uni04EA" unicode="&#x4ea;" horiz-adv-x="1559" 
d="M109 702q0 163 45 301.5t132.5 239.5t217 158t297.5 57q149 0 269 -53.5t204.5 -148.5t130 -227.5t45.5 -289.5q0 -191 -52 -334t-142.5 -238.5t-214 -143.5t-267.5 -48q-162 0 -286 57t-208.5 155.5t-127.5 231t-43 283.5zM212 672q6 -140 48 -252.5t115 -191
t174 -120.5t223 -42q121 0 223.5 38.5t178 114.5t120.5 189.5t52 263.5h-1134zM212 762h1135q-5 150 -48.5 263.5t-118 189.5t-175.5 114.5t-221 38.5q-118 0 -219.5 -42.5t-177.5 -121t-122 -191t-53 -251.5zM543 1609q0 31 22 50t48 19q29 0 52 -19.5t23 -49.5
q0 -31 -21 -51.5t-52 -20.5q-28 0 -50 19.5t-22 52.5zM877 1609q0 31 21.5 50t47.5 19q29 0 52.5 -19.5t23.5 -49.5q0 -31 -21.5 -51.5t-52.5 -20.5q-27 0 -49 19.5t-22 52.5z" />
    <glyph glyph-name="uni04EB" unicode="&#x4eb;" horiz-adv-x="1149" 
d="M90 506q0 127 35.5 228t101 171t157 107t202.5 37q109 0 196.5 -37t149 -106.5t94.5 -169.5t33 -226q0 -118 -33 -216t-95.5 -169t-152.5 -110.5t-203 -39.5t-203 39t-152.5 109.5t-96 168t-33.5 214.5zM187 468q9 -179 104 -287q105 -122 287 -122q87 0 156 28t118 80.5
t77 128.5t33 172h-775zM187 552h775q-9 201 -107.5 307t-272.5 106q-84 0 -154.5 -28t-122 -81t-82 -130t-36.5 -174zM332 1260q0 31 22 50t48 19q29 0 52 -19.5t23 -49.5q0 -31 -21 -51.5t-52 -20.5q-28 0 -50 19.5t-22 52.5zM666 1260q0 31 21.5 50t47.5 19
q29 0 52.5 -19.5t23.5 -49.5q0 -31 -21.5 -51.5t-52.5 -20.5q-27 0 -49 19.5t-22 52.5z" />
    <glyph glyph-name="uni04EC" unicode="&#x4ec;" horiz-adv-x="1262" 
d="M125 45v98q63 -32 153.5 -54.5t202.5 -22.5q107 0 208 36t180 111t128.5 189t53.5 270h-704v92h702q-9 130 -52.5 240.5t-120 191.5t-184.5 126.5t-246 45.5q-103 0 -181 -20t-140 -48v97q27 9 61 19.5t74.5 20t88.5 15.5t104 6q145 0 272.5 -47t222.5 -141t150 -233.5
t55 -325.5q0 -159 -50.5 -294t-140.5 -233t-214.5 -153.5t-272.5 -55.5q-66 0 -119 7t-95 17.5t-75.5 22.5t-60.5 23zM288 1609q0 31 22 50t48 19q29 0 52 -19.5t23 -49.5q0 -31 -21 -51.5t-52 -20.5q-28 0 -50 19.5t-22 52.5zM622 1609q0 31 21.5 50t47.5 19
q29 0 52.5 -19.5t23.5 -49.5q0 -31 -21.5 -51.5t-52.5 -20.5q-27 0 -49 19.5t-22 52.5z" />
    <glyph glyph-name="uni04ED" unicode="&#x4ed;" horiz-adv-x="918" 
d="M86 39v98q42 -32 111.5 -55t158.5 -23q78 0 145 28t117 81t79.5 129.5t33.5 173.5h-504v80h504q-6 88 -32.5 164t-75 131.5t-119.5 87t-166 31.5q-81 0 -145.5 -19.5t-102.5 -44.5v90q21 11 50.5 21.5t63.5 18.5t70.5 13t71.5 5q111 0 200 -37t151.5 -106.5t96 -169.5
t33.5 -226q0 -114 -34.5 -212t-97 -170t-150 -112.5t-193.5 -40.5q-96 0 -162 19.5t-104 44.5zM166 1260q0 31 22 50t48 19q29 0 52 -19.5t23 -49.5q0 -31 -21 -51.5t-52 -20.5q-28 0 -50 19.5t-22 52.5zM500 1260q0 31 21.5 50t47.5 19q29 0 52.5 -19.5t23.5 -49.5
q0 -31 -21.5 -51.5t-52.5 -20.5q-27 0 -49 19.5t-22 52.5z" />
    <glyph glyph-name="uni04EE" unicode="&#x4ee;" horiz-adv-x="1098" 
d="M61 1434h111l358 -811q6 -12 13 -28t14.5 -34l15 -36t13.5 -33h4q12 34 26 64.5t23 53.5l344 824h104l-456 -1057q-38 -89 -79 -163t-90 -127t-108.5 -82.5t-134.5 -29.5q-43 0 -80.5 8.5t-63.5 20.5v107q32 -19 72 -31t72 -12q58 0 101.5 22.5t80 64t68.5 100.5t66 132z
M317 1537v84h508v-84h-508z" />
    <glyph glyph-name="uni04EF" unicode="&#x4ef;" horiz-adv-x="928" 
d="M20 1024h103l309 -834q10 -27 14 -41q4 -19 9 -34h4l24 69l330 840h100l-499 -1233q-56 -138 -124 -205t-175 -67q-45 0 -80 14v92q36 -14 84 -14q123 0 194 170l95 227zM212 1188v84h508v-84h-508z" />
    <glyph glyph-name="uni04F0" unicode="&#x4f0;" horiz-adv-x="1098" 
d="M61 1434h111l358 -811q6 -12 13 -28t14.5 -34l15 -36t13.5 -33h4q12 34 26 64.5t23 53.5l344 824h104l-456 -1057q-38 -89 -79 -163t-90 -127t-108.5 -82.5t-134.5 -29.5q-43 0 -80.5 8.5t-63.5 20.5v107q32 -19 72 -31t72 -12q58 0 101.5 22.5t80 64t68.5 100.5t66 132z
M347 1609q0 31 22 50t48 19q29 0 52 -19.5t23 -49.5q0 -31 -21 -51.5t-52 -20.5q-28 0 -50 19.5t-22 52.5zM681 1609q0 31 21.5 50t47.5 19q29 0 52.5 -19.5t23.5 -49.5q0 -31 -21.5 -51.5t-52.5 -20.5q-27 0 -49 19.5t-22 52.5z" />
    <glyph glyph-name="uni04F1" unicode="&#x4f1;" horiz-adv-x="928" 
d="M20 1024h103l309 -834q10 -27 14 -41q4 -19 9 -34h4l24 69l330 840h100l-499 -1233q-56 -138 -124 -205t-175 -67q-45 0 -80 14v92q36 -14 84 -14q123 0 194 170l95 227zM220 1260q0 31 22 50t48 19q29 0 52 -19.5t23 -49.5q0 -31 -21 -51.5t-52 -20.5q-28 0 -50 19.5
t-22 52.5zM554 1260q0 31 21.5 50t47.5 19q29 0 52.5 -19.5t23.5 -49.5q0 -31 -21.5 -51.5t-52.5 -20.5q-27 0 -49 19.5t-22 52.5z" />
    <glyph glyph-name="uni04F2" unicode="&#x4f2;" horiz-adv-x="1098" 
d="M61 1434h111l358 -811q6 -12 13 -28t14.5 -34l15 -36t13.5 -33h4q12 34 26 64.5t23 53.5l344 824h104l-456 -1057q-38 -89 -79 -163t-90 -127t-108.5 -82.5t-134.5 -29.5q-43 0 -80.5 8.5t-63.5 20.5v107q32 -19 72 -31t72 -12q58 0 101.5 22.5t80 64t68.5 100.5t66 132z
M369 1536l211 317h110l-248 -317h-73zM590 1536l211 317h110l-247 -317h-74z" />
    <glyph glyph-name="uni04F3" unicode="&#x4f3;" horiz-adv-x="928" 
d="M20 1024h103l309 -834q10 -27 14 -41q4 -19 9 -34h4l24 69l330 840h100l-499 -1233q-56 -138 -124 -205t-175 -67q-45 0 -80 14v92q36 -14 84 -14q123 0 194 170l95 227zM276 1188l211 317h110l-248 -317h-73zM497 1188l211 317h110l-247 -317h-74z" />
    <glyph glyph-name="uni04F4" unicode="&#x4f4;" horiz-adv-x="1255" 
d="M164 891v543h98v-529q0 -131 67 -202.5t201 -71.5q103 0 216.5 29t226.5 75v699h98v-1434h-98v649q-113 -44 -225.5 -76t-227.5 -32q-94 0 -161 25.5t-110.5 72t-64 110.5t-20.5 142zM383 1609q0 31 22 50t48 19q29 0 52 -19.5t23 -49.5q0 -31 -21 -51.5t-52 -20.5
q-28 0 -50 19.5t-22 52.5zM717 1609q0 31 21.5 50t47.5 19q29 0 52.5 -19.5t23.5 -49.5q0 -31 -21.5 -51.5t-52.5 -20.5q-27 0 -49 19.5t-22 52.5z" />
    <glyph glyph-name="uni04F5" unicode="&#x4f5;" horiz-adv-x="1071" 
d="M143 690v334h93v-326q0 -60 10.5 -110.5t36 -87t69 -57.5t109.5 -21q97 0 185 29t169 75v498h92v-1024h-92v446q-97 -52 -185 -80t-179 -28q-66 0 -122 19.5t-97.5 61.5t-65 109t-23.5 162zM286 1260q0 31 22 50t48 19q29 0 52 -19.5t23 -49.5q0 -31 -21 -51.5t-52 -20.5
q-28 0 -50 19.5t-22 52.5zM620 1260q0 31 21.5 50t47.5 19q29 0 52.5 -19.5t23.5 -49.5q0 -31 -21.5 -51.5t-52.5 -20.5q-27 0 -49 19.5t-22 52.5z" />
    <glyph glyph-name="uni04F6" unicode="&#x4f6;" horiz-adv-x="938" 
d="M184 0v1434h674v-91h-575v-1253h132v-474h-96v384h-135z" />
    <glyph glyph-name="uni04F7" unicode="&#x4f7;" horiz-adv-x="694" 
d="M164 0v1024h500v-84h-408v-856h93v-457h-84v373h-101z" />
    <glyph glyph-name="uni04F8" unicode="&#x4f8;" horiz-adv-x="1544" 
d="M184 0v1434h99v-637h325q85 0 158.5 -21.5t127.5 -67.5t85 -118.5t31 -175.5q0 -85 -28 -160t-82.5 -131.5t-135 -89.5t-184.5 -33h-396zM283 90h276q92 0 158 24t108 66t62 100t20 126q0 81 -23 138t-68 93t-111 53t-152 17h-270v-617zM541 1608q0 31 22 50t48 19
q29 0 52 -19.5t23 -49.5q0 -31 -21 -51.5t-52 -20.5q-28 0 -50 19.5t-22 52.5zM875 1608q0 31 21.5 50t47.5 19q29 0 52.5 -19.5t23.5 -49.5q0 -31 -21.5 -51.5t-52.5 -20.5q-27 0 -49 19.5t-22 52.5zM1262 0v1434h98v-1434h-98z" />
    <glyph glyph-name="uni04F9" unicode="&#x4f9;" horiz-adv-x="1346" 
d="M164 0v1024h92v-420h293q73 0 132 -20t100 -58.5t63 -93.5t22 -125q0 -78 -27 -136t-70.5 -96t-99 -56.5t-112.5 -18.5h-393zM256 84h276q65 0 110 17.5t73.5 48t41.5 71t13 86.5q0 45 -14.5 84t-44.5 67.5t-75 45t-106 16.5h-274v-436zM433 1260q0 31 22 50t48 19
q29 0 52 -19.5t23 -49.5q0 -31 -21 -51.5t-52 -20.5q-28 0 -50 19.5t-22 52.5zM767 1260q0 31 21.5 50t47.5 19q29 0 52.5 -19.5t23.5 -49.5q0 -31 -21.5 -51.5t-52.5 -20.5q-27 0 -49 19.5t-22 52.5zM1090 0v1024h92v-1024h-92z" />
    <glyph glyph-name="uni04FA" unicode="&#x4fa;" horiz-adv-x="952" 
d="M-18 -249q37 -29 113 -29q188 0 188 254v167h92v-175q0 -163 -81.5 -246.5t-202.5 -83.5q-66 0 -109 19v94zM41 705v84h143v645h674v-91h-575v-554h501v-84h-501v-705h-99v705h-143z" />
    <glyph glyph-name="uni04FB" unicode="&#x4fb;" horiz-adv-x="694" 
d="M-45 -249q37 -29 113 -29q188 0 188 254v167h92v-175q0 -163 -81.5 -246.5t-202.5 -83.5q-66 0 -109 19v94zM30 485v85h134v454h500v-84h-408v-370h316v-85h-316v-485h-92v485h-134z" />
    <glyph glyph-name="uni04FC" unicode="&#x4fc;" horiz-adv-x="1153" 
d="M61 0l453 723l-426 711h119l321 -539q25 -42 52 -96h4l53 96l319 539h115l-430 -709l440 -725h-120l-330 547q-31 51 -53 100h-5q-27 -55 -57 -100l-336 -547h-119zM694 -249q37 -29 113 -29q188 0 188 254v167h92v-175q0 -163 -81.5 -246.5t-202.5 -83.5q-66 0 -109 19
v94z" />
    <glyph glyph-name="uni04FD" unicode="&#x4fd;" horiz-adv-x="862" 
d="M33 0l342 500l-336 524h108l228 -367q44 -71 53 -88h4l51 84l238 371h108l-348 -522l334 -502h-117l-270 432h-4l-36 -57q-7 -12 -17 -27l-226 -348h-112zM423 -252q37 -29 113 -29q188 0 188 254v167h92v-175q0 -163 -81.5 -246.5t-202.5 -83.5q-66 0 -109 19v94z" />
    <glyph glyph-name="uni04FE" unicode="&#x4fe;" horiz-adv-x="1153" 
d="M61 0l425 679h-373v91h373l-398 664h119l321 -539q25 -42 52 -96h4l53 96l319 539h115l-403 -664h371v-91h-370l412 -679h-120l-330 547q-31 51 -53 100h-5q-27 -55 -57 -100l-336 -547h-119z" />
    <glyph glyph-name="uni04FF" unicode="&#x4ff;" horiz-adv-x="862" 
d="M33 0l314 459h-269v84h269l-308 481h108l228 -367q43 -70 53 -88h4l51 84l238 371h108l-321 -481h276v-84h-275l306 -459h-117l-270 432h-4q-15 -24 -24.5 -39t-15 -23.5t-8 -13t-5.5 -8.5l-226 -348h-112z" />
    <glyph glyph-name="uni2000" unicode="&#x2000;" horiz-adv-x="1024" 
 />
    <glyph glyph-name="uni2001" unicode="&#x2001;" horiz-adv-x="2048" 
 />
    <glyph glyph-name="uni2002" unicode="&#x2002;" horiz-adv-x="1024" 
 />
    <glyph glyph-name="uni2003" unicode="&#x2003;" horiz-adv-x="2048" 
 />
    <glyph glyph-name="uni2004" unicode="&#x2004;" horiz-adv-x="682" 
 />
    <glyph glyph-name="uni2005" unicode="&#x2005;" horiz-adv-x="512" 
 />
    <glyph glyph-name="uni2006" unicode="&#x2006;" horiz-adv-x="341" 
 />
    <glyph glyph-name="uni2007" unicode="&#x2007;" horiz-adv-x="1104" 
 />
    <glyph glyph-name="uni2008" unicode="&#x2008;" horiz-adv-x="444" 
 />
    <glyph glyph-name="uni2009" unicode="&#x2009;" horiz-adv-x="410" 
 />
    <glyph glyph-name="uni200A" unicode="&#x200a;" horiz-adv-x="256" 
 />
    <glyph glyph-name="uni200B" unicode="&#x200b;" 
 />
    <glyph glyph-name="uni200C" unicode="&#x200c;" 
d="M-36 -408v2158h72v-2158h-72z" />
    <glyph glyph-name="uni200D" unicode="&#x200d;" 
d="M-219 1364l171 169l-171 168l49 49l170 -171l170 171l49 -49l-171 -168l171 -169l-49 -49l-134 136v-1859h-72v1859l-134 -136z" />
    <glyph glyph-name="uni200E" unicode="&#x200e;" 
d="M-36 -408v1979h338l-137 130l49 49l217 -215l-217 -214l-49 49l137 130h-266v-1908h-72z" />
    <glyph glyph-name="uni200F" unicode="&#x200f;" 
d="M-431 1535l217 215l49 -49l-137 -130h338v-1979h-72v1908h-266l137 -130l-49 -49z" />
    <glyph glyph-name="uni2010" unicode="&#x2010;" horiz-adv-x="815" 
d="M145 555v90h547v-90h-547z" />
    <glyph glyph-name="uni2011" unicode="&#x2011;" horiz-adv-x="815" 
d="M145 555v90h547v-90h-547z" />
    <glyph glyph-name="figuredash" unicode="&#x2012;" horiz-adv-x="1104" 
d="M90 555v90h924v-90h-924z" />
    <glyph glyph-name="endash" unicode="&#x2013;" horiz-adv-x="1024" 
d="M0 555v90h1024v-90h-1024z" />
    <glyph glyph-name="emdash" unicode="&#x2014;" horiz-adv-x="2048" 
d="M0 555v90h2048v-90h-2048z" />
    <glyph glyph-name="uni2015" unicode="&#x2015;" horiz-adv-x="2048" 
d="M0 555v90h2048v-90h-2048z" />
    <glyph glyph-name="uni2016" unicode="&#x2016;" horiz-adv-x="858" 
d="M184 -481v2048h95v-2048h-95zM579 -481v2048h95v-2048h-95z" />
    <glyph glyph-name="underscoredbl" unicode="&#x2017;" horiz-adv-x="850" 
d="M0 -178h850v-90h-850v90zM0 -460h850v-90h-850v90z" />
    <glyph glyph-name="quoteleft" unicode="&#x2018;" horiz-adv-x="438" 
d="M113 985l153 449h76l-123 -449h-106z" />
    <glyph glyph-name="quoteright" unicode="&#x2019;" horiz-adv-x="438" 
d="M113 985l125 449h104l-156 -449h-73z" />
    <glyph glyph-name="quotesinglbase" unicode="&#x201a;" horiz-adv-x="438" 
d="M78 -225l125 444h104l-155 -444h-74z" />
    <glyph glyph-name="quotereversed" unicode="&#x201b;" horiz-adv-x="438" 
d="M96 1434h104l125 -449h-73z" />
    <glyph glyph-name="quotedblleft" unicode="&#x201c;" horiz-adv-x="686" 
d="M113 985l153 449h76l-123 -449h-106zM360 985l156 449h74l-125 -449h-105z" />
    <glyph glyph-name="quotedblright" unicode="&#x201d;" horiz-adv-x="686" 
d="M113 985l125 449h104l-156 -449h-73zM360 985l123 449h107l-154 -449h-76z" />
    <glyph glyph-name="quotedblbase" unicode="&#x201e;" horiz-adv-x="686" 
d="M78 -229l125 448h104l-155 -448h-74zM326 -229l123 448h106l-154 -448h-75z" />
    <glyph glyph-name="uni201F" unicode="&#x201f;" horiz-adv-x="686" 
d="M96 1434h107l123 -449h-76zM344 1434h104l125 -449h-73z" />
    <glyph glyph-name="dagger" unicode="&#x2020;" horiz-adv-x="756" 
d="M48 933v110l312 -20l-30 410h116l-30 -410l292 20v-110l-272 30l-30 -734h-36l-30 734z" />
    <glyph glyph-name="daggerdbl" unicode="&#x2021;" horiz-adv-x="756" 
d="M48 519v110l292 -20l38 222l-38 222l-292 -20v110l312 -30l-30 320h116l-30 -320l292 30v-110l-272 20l-38 -222l38 -222l272 20v-110l-292 30l30 -320h-116l30 320z" />
    <glyph glyph-name="bullet" unicode="&#x2022;" horiz-adv-x="811" 
d="M164 713q0 97 71.5 169t172.5 72q99 0 169 -71t70 -170q0 -98 -70 -167t-169 -69q-101 0 -172.5 70t-71.5 166z" />
    <glyph glyph-name="ellipsis" unicode="&#x2026;" horiz-adv-x="1364" 
d="M141 66q0 34 23 56.5t57 22.5t58 -22.5t24 -56.5q0 -35 -24 -58.5t-58 -23.5t-57 23.5t-23 58.5zM598 66q0 34 23 56.5t57 22.5t58 -22.5t24 -56.5q0 -35 -24 -58.5t-58 -23.5t-57 23.5t-23 58.5zM1059 66q0 34 23 56.5t57 22.5t58 -22.5t24 -56.5q0 -35 -24 -58.5
t-58 -23.5t-57 23.5t-23 58.5z" />
    <glyph glyph-name="uni2028" unicode="&#x2028;" 
 />
    <glyph glyph-name="uni2029" unicode="&#x2029;" 
 />
    <glyph glyph-name="uni202A" unicode="&#x202a;" 
 />
    <glyph glyph-name="uni202B" unicode="&#x202b;" 
 />
    <glyph glyph-name="uni202C" unicode="&#x202c;" 
 />
    <glyph glyph-name="uni202D" unicode="&#x202d;" 
 />
    <glyph glyph-name="uni202E" unicode="&#x202e;" 
 />
    <glyph glyph-name="uni202F" unicode="&#x202f;" horiz-adv-x="280" 
 />
    <glyph glyph-name="perthousand" unicode="&#x2030;" horiz-adv-x="2445" 
d="M82 1092q0 175 94.5 272.5t247.5 97.5q150 0 238 -97t88 -271q0 -156 -91.5 -260.5t-244.5 -104.5q-154 0 -243 101t-89 262zM174 1090q0 -129 64.5 -205t177.5 -76q114 0 178.5 78t64.5 209q0 141 -64 212.5t-173 71.5q-115 0 -181.5 -76.5t-66.5 -213.5zM317 -33
l863 1465h96l-860 -1465h-99zM866 338q0 177 96 274t246 97t238 -98t88 -271q0 -156 -91.5 -260.5t-244.5 -104.5t-242.5 101t-89.5 262zM958 336q0 -129 64.5 -205t177.5 -76q115 0 179.5 77.5t64.5 209.5q0 141 -64 213t-174 72q-114 0 -181 -78t-67 -213zM1690 338
q0 177 96 274t246 97t237.5 -98.5t87.5 -270.5q0 -156 -91.5 -260.5t-244.5 -104.5q-154 0 -242.5 101t-88.5 262zM1782 336q0 -128 64 -204.5t177 -76.5q115 0 179.5 77.5t64.5 209.5q0 142 -64 213.5t-173 71.5q-113 0 -180.5 -76.5t-67.5 -214.5z" />
    <glyph glyph-name="minute" unicode="&#x2032;" horiz-adv-x="500" 
d="M160 977l64 457h116l-96 -457h-84z" />
    <glyph glyph-name="second" unicode="&#x2033;" horiz-adv-x="811" 
d="M160 977l64 457h116l-96 -457h-84zM471 977l64 457h116l-96 -457h-84z" />
    <glyph glyph-name="uni2034" unicode="&#x2034;" horiz-adv-x="1122" 
d="M160 977l64 457h116l-96 -457h-84zM471 977l64 457h116l-96 -457h-84zM782 977l64 457h116l-96 -457h-84z" />
    <glyph glyph-name="guilsinglleft" unicode="&#x2039;" horiz-adv-x="635" 
d="M123 537l278 344h113l-283 -344l281 -336h-111z" />
    <glyph glyph-name="guilsinglright" unicode="&#x203a;" horiz-adv-x="635" 
d="M123 201l285 344l-283 336h113l276 -336l-276 -344h-115z" />
    <glyph glyph-name="exclamdbl" unicode="&#x203c;" horiz-adv-x="925" 
d="M211 63q0 35 23 57.5t57 22.5t58 -22.5t24 -57.5q0 -34 -24 -57.5t-58 -23.5t-57 23.5t-23 57.5zM236 1434h106l-10 -1031h-86zM552 63q0 35 23 57.5t57 22.5t58 -22.5t24 -57.5q0 -34 -24 -57.5t-58 -23.5t-57 23.5t-23 57.5zM577 1434h106l-10 -1031h-86z" />
    <glyph glyph-name="uni203D" unicode="&#x203d;" horiz-adv-x="881" 
d="M119 1245v107q72 54 149.5 80t174.5 26q74 0 137.5 -21t110 -61.5t73 -99t26.5 -133.5q0 -57 -15.5 -104t-41.5 -87.5t-59 -75t-67 -67.5q-31 -30 -58.5 -56t-48 -52t-33 -54.5t-12.5 -64.5l-2 -179h-86l-10 957q-67 -12 -125.5 -41.5t-112.5 -73.5zM333 63
q0 35 22.5 57.5t56.5 22.5q35 0 58.5 -22.5t23.5 -57.5q0 -34 -23.5 -57.5t-58.5 -23.5q-34 0 -56.5 23.5t-22.5 57.5zM457 770q14 17 31 32t35 31q32 29 63 60.5t55 67.5t38.5 78.5t14.5 93.5q0 52 -17 94t-47.5 72t-73 47.5t-94.5 20.5z" />
    <glyph glyph-name="uni203E" unicode="&#x203e;" horiz-adv-x="850" 
d="M0 1397v119h850v-119h-850z" />
    <glyph glyph-name="fraction" unicode="&#x2044;" horiz-adv-x="246" 
d="M-342 0l862 1434h96l-860 -1434h-98z" />
    <glyph glyph-name="uni205E" unicode="&#x205e;" horiz-adv-x="455" 
d="M147 204q0 35 23 57.5t57 22.5t58 -22.5t24 -57.5q0 -34 -24 -57.5t-58 -23.5t-57 23.5t-23 57.5zM147 -366q0 35 23 57.5t57 22.5t58 -22.5t24 -57.5q0 -34 -24 -57.5t-58 -23.5t-57 23.5t-23 57.5zM147 777q0 35 23 57.5t57 22.5t58 -22.5t24 -57.5q0 -34 -24 -57.5
t-58 -23.5t-57 23.5t-23 57.5zM147 1349q0 35 23 57.5t57 22.5t58 -22.5t24 -57.5q0 -34 -24 -57.5t-58 -23.5t-57 23.5t-23 57.5z" />
    <glyph glyph-name="uni205F" unicode="&#x205f;" horiz-adv-x="455" 
 />
    <glyph glyph-name="uni20A0" unicode="&#x20a0;" horiz-adv-x="1278" 
d="M148 907q0 121 37.5 223t105 175.5t161.5 114.5t206 41q117 0 227 -48v-101q-55 34 -113 49.5t-124 15.5q-90 0 -164 -34t-127 -95.5t-82.5 -147t-29.5 -187.5q0 -98 25.5 -179t72.5 -138.5t113.5 -90t148.5 -33.5v552h503v-84h-411v-384h382v-84h-382v-388h434v-84h-526
v387q-104 1 -188.5 39t-144 107t-92 164t-32.5 210z" />
    <glyph glyph-name="colonmonetary" unicode="&#x20a1;" horiz-adv-x="1104" 
d="M109 688q0 161 39.5 296t112.5 235t175 161t228 74l43 143h94l-43 -140q32 -1 62.5 -3.5t59.5 -7.5l46 151h94l-53 -172q19 -6 37 -12t35 -14v-99q-24 11 -48.5 20t-49.5 17l-382 -1252q32 -9 65 -14t68 -5q201 0 347 75v-94q-139 -71 -344 -71q-44 0 -84 5.5t-78 16.5
l-22 -73h-94l32 105q-29 14 -55 30.5t-50 36.5l-52 -172h-94l74 244q-78 95 -120.5 226.5t-42.5 292.5zM211 699q0 -125 25 -227.5t73 -182.5l326 1070q-94 -18 -172 -72t-134 -139.5t-87 -199t-31 -249.5zM376 200q23 -24 47.5 -44t52.5 -36l377 1237q-29 5 -59.5 7.5
t-62.5 3.5z" />
    <glyph glyph-name="uni20A2" unicode="&#x20a2;" horiz-adv-x="1104" 
d="M109 688q0 172 45 313.5t126.5 243t196 157.5t253.5 56q173 0 309 -59v-99q-144 68 -315 68q-112 0 -206 -47.5t-162.5 -135t-106.5 -211t-38 -275.5q0 -122 25 -224.5t71 -181.5t111.5 -132.5t146.5 -77.5v830h90v-227h4q35 118 111 182.5t176 64.5q57 0 102 -18v-98
q-47 33 -108 33q-120 0 -203 -125q-82 -124 -82 -355v-303q9 -1 18 -1h19q201 0 347 75v-94q-139 -71 -344 -71q-133 0 -241.5 52t-185 145.5t-118 224.5t-41.5 290z" />
    <glyph glyph-name="franc" unicode="&#x20a3;" horiz-adv-x="952" 
d="M25 323v90h159v1021h670v-91h-571v-585h530v-90h-530v-255h272v-90h-272v-323h-99v323h-159z" />
    <glyph glyph-name="lira" unicode="&#x20a4;" horiz-adv-x="1055" 
d="M80 0v86q248 103 248 365v80h-228v90h228v183h-228v90h228v148q0 188 99 302t263 114q96 0 182 -35v-94q-90 45 -186 45q-125 0 -195.5 -88t-70.5 -256v-136h328v-90h-328v-183h328v-90h-328v-46q0 -295 -213 -401h741v-84h-868z" />
    <glyph glyph-name="uni20A5" unicode="&#x20a5;" horiz-adv-x="1683" 
d="M164 0v1024h92v-170h4q106 195 313 195q55 0 103.5 -17t87.5 -48t66.5 -74t41.5 -95q64 145 195 205l151 272h95l-135 -244q6 0 12.5 0.5t13.5 0.5q336 0 336 -416v-633h-92v616q0 97 -15 163.5t-46 108t-78.5 59.5t-112.5 18q-18 0 -35 -2.5t-34 -7.5l-228 -411v-544
h-92v378l-341 -616h-93l434 786v75q0 342 -260 342q-62 0 -115 -27.5t-92 -77t-61.5 -118.5t-22.5 -152v-590h-92z" />
    <glyph glyph-name="uni20A6" unicode="&#x20a6;" horiz-adv-x="1452" 
d="M38 500v84h146v237h-146v84h146v529h76l390 -529h519v529h99v-529h146v-84h-146v-237h146v-84h-146v-500h-70l-369 500h-546v-500h-99v500h-146zM281 1249q1 -13 1.5 -28.5t0.5 -34.5v-281h248l-187 254l-59 90h-4zM283 584h484l-174 237h-310v-237zM712 821l175 -237
h282v237h-457zM949 500l159 -215q14 -19 29 -42t32 -50h5q-2 35 -3.5 65t-1.5 55v187h-220z" />
    <glyph glyph-name="peseta" unicode="&#x20a7;" horiz-adv-x="2218" 
d="M184 0v1434h296q223 0 339 -102t116 -300q0 -200 -131 -329q-131 -128 -365 -128h-156v-575h-99zM283 666h154q195 0 295.5 92t100.5 262q0 323 -371 323h-179v-677zM972 741v84h154v266l92 31v-297h270v-84h-270v-477q0 -98 33.5 -149.5t113.5 -51.5q58 0 123 37v-86
q-71 -34 -135 -34q-227 0 -227 272v489h-154zM1578 45v111q20 -21 49 -38.5t61.5 -30.5t65 -20.5t58.5 -7.5q103 0 163 40.5t60 118.5q0 37 -15 64t-43.5 48.5t-68.5 39.5t-91 36q-52 19 -95.5 40.5t-74.5 50t-48 66.5t-17 89q0 56 24 99.5t63.5 73t91 45t106.5 15.5
q58 0 117.5 -12t103.5 -35v-100q-24 15 -51.5 27t-56.5 20.5t-58 12.5t-54 4q-41 0 -77 -9t-63 -27t-42.5 -46.5t-15.5 -67.5q0 -33 12.5 -58t36.5 -44.5t59.5 -35.5t82.5 -33q56 -20 104 -42.5t83.5 -52.5t56 -70t20.5 -95q0 -63 -24 -109.5t-65.5 -76.5t-97 -45
t-118.5 -15q-67 0 -132 17.5t-110 52.5z" />
    <glyph glyph-name="uni20A8" unicode="&#x20a8;" horiz-adv-x="1754" 
d="M184 0v1434h358q95 0 170.5 -27t128 -76t80.5 -118t28 -152q0 -77 -23 -142.5t-66.5 -116t-106 -85t-142.5 -49.5v-4q85 -34 166 -207l213 -457h-112l-191 420q-30 66 -58.5 108.5t-60 67t-67.5 34t-80 9.5h-138v-639h-99zM283 729h207q81 0 147 22.5t112.5 64t72 101
t25.5 134.5q0 138 -86.5 215t-249.5 77h-228v-614zM1052 45v111q25 -22 58.5 -40t69.5 -30.5t73 -19.5t69 -7q109 0 167 40.5t58 121.5q0 28 -13 51t-40.5 43.5t-70 40t-101.5 42.5q-66 25 -116 50.5t-83 55t-50 65t-17 82.5q0 54 25 98t68.5 74.5t102.5 47.5t127 17
q66 0 126 -13t108 -39v-98q-57 37 -116 53t-120 16q-50 0 -91.5 -11t-71 -31.5t-46 -48.5t-16.5 -62q0 -30 10.5 -53.5t35.5 -44t65.5 -40t99.5 -41.5t110 -43.5t89 -50t59.5 -68t21.5 -96.5q0 -52 -23 -96.5t-65 -76.5t-100.5 -50.5t-128.5 -18.5q-176 0 -274 70z" />
    <glyph glyph-name="uni20A9" unicode="&#x20a9;" horiz-adv-x="1524" 
d="M30 500v84h217l-53 237h-164v84h145l-118 529h109l112 -529h325l124 529h80l112 -529h307l110 529h106l-117 -529h170v-84h-188l-53 -237h241v-84h-259l-110 -500h-106l-109 500h-312l-115 -500h-106l-112 500h-236zM296 821l50 -237h183l55 237h-288zM364 500l44 -205
q17 -88 24 -137h4q4 37 28 147l45 195h-145zM619 584h274l-51 237h-169zM693 905h131l-39 184q-19 83 -21 135h-4q-2 -44 -24 -133zM937 821l51 -237h171l49 237h-271zM1006 500l41 -195q18 -100 25 -147h3q4 28 24 135l43 207h-136z" />
    <glyph glyph-name="uni20AA" unicode="&#x20aa;" horiz-adv-x="1079" 
d="M105 0v1016h389q58 0 100 -18t68.5 -48t39 -69.5t12.5 -82.5v-542h-103v525q0 66 -33 102.5t-90 36.5h-283v-920h-100zM364 0v760h100v-664h283q57 0 90 36t33 104v780h103v-798q0 -43 -12.5 -82.5t-39 -69.5t-68.5 -48t-100 -18h-389z" />
    <glyph glyph-name="dong" unicode="&#x20ab;" horiz-adv-x="1206" 
d="M90 494q0 248 130.5 401.5t338.5 153.5q230 0 328 -189h4v371h-335v84h335v201h92v-201h135v-84h-135v-1231h-92v186h-4q-50 -97 -148 -154t-221 -57q-189 0 -308.5 138t-119.5 381zM151 -178h850v-84h-850v84zM186 502q0 -212 94.5 -327.5t243.5 -115.5q175 0 271 108.5
t96 264.5v191q0 143 -90.5 242.5t-243.5 99.5q-161 0 -266 -123.5t-105 -339.5z" />
    <glyph glyph-name="Euro" unicode="&#x20ac;" horiz-adv-x="1055" 
d="M78 500v84h137q-4 48 -4 102q0 71 6 135h-139v84h149q44 264 178 408.5t324 144.5q128 0 234 -53v-102q-118 71 -242 71q-146 0 -254 -119.5t-145 -349.5h542v-84h-553q-4 -34 -4 -123q0 -58 4 -114h553v-84h-542q33 -219 134 -330t244 -111q126 0 263 93v-99
q-130 -78 -275 -78q-178 0 -303 135t-162 390h-145z" />
    <glyph glyph-name="uni20AD" unicode="&#x20ad;" horiz-adv-x="1024" 
d="M38 700v84h146v650h99v-650h21l9 9l560 641h129l-579 -650h485v-84h-485l618 -700h-139l-591 686q-7 7 -12 14h-16v-700h-99v700h-146z" />
    <glyph glyph-name="uni20AE" unicode="&#x20ae;" horiz-adv-x="918" 
d="M41 1343v91h835v-91h-369v-424l269 153v-101l-269 -153v-253l269 153v-101l-269 -153v-464h-98v408l-274 -155v101l274 155v253l-274 -155v101l274 155v480h-368z" />
    <glyph glyph-name="uni20AF" unicode="&#x20af;" horiz-adv-x="2349" 
d="M55 164q0 43 16 76.5t42.5 56t60.5 34t71 11.5t72 -9.5t68 -25t65.5 -37t64.5 -45.5q65 114 114.5 260t89.5 327q37 172 93 311t133 258q-111 -13 -201.5 -40.5t-166 -64t-141 -80.5t-127.5 -89q-10 14 -15 22.5t-11 17.5q69 54 149 104.5t169 89.5t187 64t203 28
q69 75 147.5 126t170.5 89q6 -8 11.5 -14.5t10.5 -11.5q-63 -30 -123 -76t-121 -114q151 -16 264 -64t188.5 -125.5t113 -183.5t37.5 -237q0 -90 -18 -186t-56 -188.5t-99 -175.5t-146 -145.5t-197 -99t-253 -36.5q-60 0 -112 11t-98 30t-87.5 43t-78.5 51
q-72 -69 -148 -102t-159 -33q-42 0 -75.5 12.5t-57.5 35.5t-37 54.5t-13 70.5zM109 167q0 -32 11.5 -57t29.5 -42t41 -25.5t47 -8.5q127 0 245 143q-32 25 -62 46.5t-59.5 37.5t-58 25t-58.5 9q-26 0 -50.5 -9t-43.5 -25.5t-30.5 -40.5t-11.5 -53zM586 171
q36 -26 74.5 -48.5t80.5 -39t87.5 -26.5t95.5 -10q113 0 203.5 34t161 91.5t121.5 133.5t84 160.5t48.5 171.5t15.5 166q0 260 -129 405.5t-377 168.5q-31 -52 -58 -113.5t-52 -135t-49.5 -159.5t-49.5 -188q-51 -202 -114 -352t-143 -259zM1507 -377l189 641
q16 55 40 112.5t63 104t96 76t139 29.5q58 0 106.5 -17.5t83.5 -51t55 -82.5t20 -112q0 -70 -21 -131t-62 -106t-100.5 -71t-135.5 -26q-38 0 -74 13.5t-65.5 36.5t-50.5 53t-29 63l-156 -532h-98zM1799 256q0 -39 10.5 -75.5t33 -65.5t56.5 -46.5t81 -17.5q51 0 91 22
t67.5 58.5t42 83.5t14.5 97q0 48 -12 87.5t-34.5 67.5t-54.5 43.5t-72 15.5q-62 0 -104.5 -28t-69 -69t-38 -88t-11.5 -85z" />
    <glyph glyph-name="uni20B0" unicode="&#x20b0;" horiz-adv-x="932" 
d="M78 0q59 128 114 245.5t113 242.5l82 -304q6 18 13 42.5t14.5 50t14.5 50t13 41.5q18 57 39 134t44 161q-4 7 -9 17t-11 21t-11 21.5t-9 18.5q-33 64 -64 126.5t-55 124.5t-38 124t-14 124q0 60 15 109.5t43 85t67.5 54.5t88.5 19q45 0 78 -16.5t54.5 -47t32.5 -74
t11 -96.5q0 -35 -8.5 -89t-23.5 -122.5t-35 -147.5t-42 -164q8 -15 19.5 -35t19.5 -36q44 -78 84.5 -159.5t72 -167t50 -175.5t18.5 -184q0 -89 -27.5 -168t-77.5 -138t-120.5 -94t-156.5 -35q-4 0 -4 7q0 2 1.5 4.5t3.5 3.5q40 11 85 46t82.5 87.5t62 120t24.5 142.5
q0 90 -14.5 171.5t-39 159t-57 152.5t-67.5 151q-15 -51 -31.5 -109t-33.5 -115t-33 -110.5t-29 -95.5q-17 -56 -35 -112.5t-35 -109.5l-102 339q-12 -30 -26.5 -67.5t-30.5 -76.5t-31 -77.5t-27 -69.5h-62zM416 1261q0 -54 11.5 -109.5t31 -112t46.5 -114.5t58 -118
q18 67 34 134.5t27 129t17.5 114.5t6.5 92q0 48 -9.5 82t-25.5 55.5t-37.5 31.5t-45.5 10q-21 0 -41.5 -11t-36.5 -34t-26 -60.5t-10 -89.5z" />
    <glyph glyph-name="uni20B1" unicode="&#x20b1;" horiz-adv-x="1158" 
d="M27 809v88h157v219h-157v88h157v230h346q221 0 338 -103q59 -51 88 -127h175v-88h-152q6 -40 6 -84q0 -72 -17 -135h163v-88h-198q-30 -58 -79 -106q-130 -128 -365 -128h-206v-575h-99v809h-157zM283 666h204q194 0 295 92q25 23 43 51h-542v-143zM283 897h583
q17 55 17 123q0 52 -10 96h-590v-219zM283 1204h556q-84 139 -327 139h-229v-139z" />
    <glyph glyph-name="uni20B2" unicode="&#x20b2;" horiz-adv-x="1105" 
d="M95 698q0 168 36.5 302t105 228t165.5 145t218 54l17 189h82l-17 -190q156 -9 269 -74v-116q-64 47 -129.5 73.5t-146.5 33.5l-55 -629h361v-600q-91 -58 -190 -83t-211 -25h-21l-19 -215h-82l19 225q-101 19 -176.5 74t-125.5 142t-75 204.5t-25 261.5zM191 713
q0 -126 17.5 -229.5t55.5 -181.5t97.5 -128.5t143.5 -71.5l108 1243q-99 -5 -177.5 -51.5t-133 -129t-83 -197t-28.5 -254.5zM586 91q11 -1 22 -1h22q69 0 141.5 17.5t129.5 56.5v470h-268z" />
    <glyph glyph-name="uni20B3" unicode="&#x20b3;" horiz-adv-x="1288" 
d="M27 508v88h256l83 219h-339v88h372l201 531h94l198 -531h369v-88h-336l81 -219h255v-88h-222l190 -508h-111l-186 508h-578l-186 -508h-109l191 508h-223zM386 596h513l-80 219h-353zM498 903h289l-109 297q-12 34 -18.5 59t-14.5 50h-4q-6 -23 -14.5 -52t-18.5 -55z" />
    <glyph glyph-name="uni20B4" unicode="&#x20b4;" horiz-adv-x="1018" 
d="M97 508v88h153q44 42 102 81t130 82q25 15 48 28.5t45 27.5h-478v88h597q43 41 66.5 90.5t23.5 120.5q0 54 -21 100t-61.5 80.5t-99.5 54t-135 19.5q-143 0 -269 -57v104q64 22 133 32.5t133 10.5q98 0 176.5 -25t133 -70.5t84 -108.5t29.5 -138q0 -66 -18 -117t-52 -96
h108v-88h-195q-37 -31 -81.5 -61t-97.5 -63q-43 -27 -80.5 -50t-69.5 -45h524v-88h-626q-29 -35 -43.5 -75.5t-14.5 -94.5q0 -63 22.5 -113t65.5 -85.5t103.5 -54.5t137.5 -19q89 0 168 24.5t157 73.5v-113q-24 -14 -59.5 -27.5t-78 -24.5t-91 -17.5t-97.5 -6.5
q-89 0 -167.5 21t-137 66.5t-92 116t-33.5 169.5q0 47 10 86t30 74h-82z" />
    <glyph glyph-name="uni20B5" unicode="&#x20b5;" horiz-adv-x="1105" 
d="M109 688q0 349 178 559q140 165 338 201v168h95v-159q10 1 21 1q147 0 281 -53v-105q-132 68 -279 68q-12 0 -23 -1v-1301q167 2 302 77v-96q-146 -67 -302 -72v-184h-95v189q-211 24 -352 192q-164 198 -164 516zM211 698q0 -293 141 -463q113 -135 273 -162v1282
q-157 -35 -266 -170q-148 -183 -148 -487z" />
    <glyph glyph-name="uni20B6" unicode="&#x20b6;" horiz-adv-x="1055" 
d="M23 940v84h184v266l92 31v-297h355v266l92 31v-297h270v-84h-270v-676q0 -106 33.5 -153.5t113.5 -47.5q58 0 123 37v-86q-71 -34 -135 -34q-227 0 -227 272v688h-355v-940h-92v940h-184z" />
    <glyph glyph-name="uni20B7" unicode="&#x20b7;" horiz-adv-x="1128" 
d="M45 302q0 55 27.5 89.5t74.5 34.5q26 0 50 -20t31 -65q36 85 128 85q42 0 74 -23.5t46 -61.5q45 85 128 85q70 0 109.5 -42.5t39.5 -128.5v-105q150 43 150 190q0 100 -59 165q-60 68 -253 179q-219 128 -276.5 213t-57.5 197q0 152 118 258t315 106q130 0 256 -43v-104
q-126 57 -269 57q-145 0 -231 -73.5t-86 -188.5q0 -103 50 -165.5t261 -186.5q118 -67 190 -125.5t108 -124t36 -146.5q0 -116 -58 -184.5t-194 -92.5v-81h-71v74q-76 -8 -157 -8h-24v-66h-71v67q-95 3 -181 23v-90h-71v106q-65 30 -99 76t-34 120zM109 297
q0 -48 17.5 -74.5t51.5 -49.5v91q0 104 -33 104q-18 0 -27 -22.5t-9 -48.5zM249 152q81 -23 181 -25v114q0 64 -18.5 95.5t-65.5 31.5q-29 0 -52.5 -16.5t-34 -39.5t-10.5 -84v-76zM501 126h26q85 0 155 12v100q0 72 -17 101t-65 29q-29 0 -53 -17t-35 -40.5t-11 -78.5v-106
z" />
    <glyph glyph-name="uni20B8" unicode="&#x20b8;" horiz-adv-x="1104" 
d="M61 1123v91h926v-91h-414v-1123h-98v1123h-414zM61 1343v91h926v-91h-926z" />
    <glyph glyph-name="uni20B9" unicode="&#x20b9;" horiz-adv-x="1055" 
d="M111 645v84h187q69 0 129.5 20t108 55.5t79 85.5t43.5 110h-547v84h551q-8 60 -31 109t-62.5 84t-96 54t-132.5 19h-229v84h843v-84h-356q34 -17 62 -45t48.5 -63.5t33.5 -75t16 -78.5h196v-92h-200q-14 -62 -40.5 -113.5t-70 -92t-105 -70.5t-146.5 -49v-5
q34 -15 62 -35.5t54 -49.5t51.5 -67.5t54.5 -88.5l243 -425h-112l-228 404q-33 58 -62.5 103t-63 76t-74 46.5t-94.5 15.5h-112z" />
    <glyph glyph-name="trademark" unicode="&#x2122;" horiz-adv-x="1585" 
d="M70 1356v78h526v-78h-223v-584h-82v584h-221zM692 772v662h115l223 -545h4l234 545h108v-662h-82v533h-4l-227 -533h-68l-217 533h-4v-533h-82z" />
    <glyph glyph-name="uni25FC" unicode="&#x25fc;" horiz-adv-x="1025" 
d="M0 0v1025h1025v-1025h-1025z" />
    <glyph glyph-name="uniFB01" unicode="&#xfb01;" horiz-adv-x="985" 
d="M35 940v84h184v178q0 162 81.5 246t203.5 84q65 0 108 -19v-94q-37 29 -112 29q-189 0 -189 -254v-170h271v-84h-271v-940h-92v940h-184zM698 1360q0 33 23.5 53.5t52.5 20.5q31 0 54.5 -20t23.5 -54q0 -32 -23 -55t-55 -23q-30 0 -53 22t-23 56zM729 0v1024h92v-1024
h-92z" />
    <glyph glyph-name="uniFB02" unicode="&#xfb02;" horiz-adv-x="985" 
d="M35 940v84h184v178q0 162 81.5 246t203.5 84q65 0 108 -19v-94q-37 29 -112 29q-189 0 -189 -254v-170h271v-84h-271v-940h-92v940h-184zM729 0v1516h92v-1516h-92z" />
    <glyph glyph-name="uniFB03" unicode="&#xfb03;" horiz-adv-x="1615" 
d="M35 940v84h184v16q0 239 88.5 355.5t247.5 116.5q41 0 74.5 -3t61.5 -13v-94q-24 11 -58.5 18.5t-82.5 7.5q-60 0 -104.5 -21.5t-74.5 -69t-45 -121.5t-15 -179v-13h478v18q0 235 104 362.5t310 127.5q61 0 117 -6.5t91 -14.5v-94q-38 11 -94 21t-111 10
q-86 0 -147.5 -25.5t-101 -77t-58 -128.5t-18.5 -180v-13h570v-1024h-92v940h-478v-940h-92v940h-478v-940h-92v940h-184z" />
    <glyph glyph-name="uniFB04" unicode="&#xfb04;" horiz-adv-x="1615" 
d="M35 940v84h184v16q0 239 88.5 355.5t247.5 116.5q41 0 74.5 -3t61.5 -13v-94q-24 11 -58.5 18.5t-82.5 7.5q-60 0 -104.5 -21.5t-74.5 -69t-45 -121.5t-15 -179v-13h478v18q0 235 104 362.5t310 127.5q51 0 116.5 -6.5t131.5 -17.5v-1508h-92v1430q-35 8 -75 13t-78 5
q-86 0 -147.5 -25.5t-101 -77t-58 -128.5t-18.5 -180v-13h274v-84h-274v-940h-92v940h-478v-940h-92v940h-184z" />
  </font>
</defs>
</svg>
